G04*
G04 #@! TF.GenerationSoftware,Altium Limited,Altium Designer,20.1.12 (249)*
G04*
G04 Layer_Physical_Order=2*
G04 Layer_Color=16711680*
%FSLAX25Y25*%
%MOIN*%
G70*
G04*
G04 #@! TF.SameCoordinates,2042196E-867F-4DAE-B54E-166F92C2B522*
G04*
G04*
G04 #@! TF.FilePolarity,Positive*
G04*
G01*
G75*
%ADD10C,0.01000*%
%ADD51C,0.03937*%
%ADD69C,0.02000*%
%ADD70C,0.04000*%
%ADD71C,0.02000*%
%ADD72C,0.19685*%
G04:AMPARAMS|DCode=73|XSize=130mil|YSize=70mil|CornerRadius=0mil|HoleSize=0mil|Usage=FLASHONLY|Rotation=100.000|XOffset=0mil|YOffset=0mil|HoleType=Round|Shape=Round|*
%AMOVALD73*
21,1,0.06000,0.07000,0.00000,0.00000,100.0*
1,1,0.07000,0.00521,-0.02954*
1,1,0.07000,-0.00521,0.02954*
%
%ADD73OVALD73*%

G04:AMPARAMS|DCode=74|XSize=130mil|YSize=70mil|CornerRadius=0mil|HoleSize=0mil|Usage=FLASHONLY|Rotation=80.000|XOffset=0mil|YOffset=0mil|HoleType=Round|Shape=Round|*
%AMOVALD74*
21,1,0.06000,0.07000,0.00000,0.00000,80.0*
1,1,0.07000,-0.00521,-0.02954*
1,1,0.07000,0.00521,0.02954*
%
%ADD74OVALD74*%

%ADD75C,0.08000*%
%ADD76C,0.15748*%
%ADD77C,0.07000*%
%ADD78C,0.06500*%
%ADD79C,0.04000*%
%ADD80C,0.02362*%
G36*
X524207Y582209D02*
X548064D01*
X556064Y574209D01*
Y570709D01*
X556000D01*
Y567500D01*
X548000Y559500D01*
X524207D01*
Y542830D01*
X523707Y542651D01*
X522841Y543707D01*
X521489Y544816D01*
X519948Y545640D01*
X518275Y546147D01*
X516535Y546318D01*
X514796Y546147D01*
X513123Y545640D01*
X511582Y544816D01*
X510230Y543707D01*
X509121Y542356D01*
X508297Y540814D01*
X507790Y539141D01*
X507619Y537402D01*
X507790Y535662D01*
X508297Y533989D01*
X509121Y532448D01*
X510230Y531096D01*
X511582Y529987D01*
X513123Y529163D01*
X514796Y528656D01*
X516535Y528485D01*
X518275Y528656D01*
X519948Y529163D01*
X521489Y529987D01*
X522841Y531096D01*
X523707Y532152D01*
X524207Y531973D01*
Y242830D01*
X523707Y242651D01*
X522841Y243707D01*
X521489Y244816D01*
X519948Y245640D01*
X518275Y246147D01*
X516535Y246319D01*
X514796Y246147D01*
X513123Y245640D01*
X511582Y244816D01*
X510230Y243707D01*
X509121Y242356D01*
X508297Y240814D01*
X508144Y240307D01*
D01*
X507790Y239141D01*
X507619Y237402D01*
X507790Y235662D01*
X508297Y233989D01*
X509121Y232448D01*
X510230Y231096D01*
X511582Y229987D01*
X512130Y229694D01*
D01*
X513123Y229163D01*
X514796Y228656D01*
X516535Y228485D01*
X518275Y228656D01*
X519948Y229163D01*
X520578Y229500D01*
X521489Y229987D01*
X522841Y231096D01*
D01*
X523950Y232448D01*
X524774Y233989D01*
X525281Y235662D01*
X525452Y237402D01*
X525281Y239141D01*
X524927Y240307D01*
X525225Y240709D01*
X548064D01*
X556064Y232709D01*
Y229209D01*
X556000D01*
Y226000D01*
X548000Y218000D01*
X524207D01*
Y211560D01*
X497676D01*
X497408Y212060D01*
X497442Y212110D01*
X497520Y212500D01*
Y245500D01*
X497442Y245890D01*
X497221Y246221D01*
X496890Y246442D01*
X496500Y246520D01*
X487000D01*
X486610Y246442D01*
X486279Y246221D01*
X486058Y245890D01*
X485980Y245500D01*
Y244115D01*
X485480Y243946D01*
X485031Y244531D01*
X484143Y245212D01*
X483110Y245641D01*
X482000Y245787D01*
X480891Y245641D01*
X479857Y245212D01*
X478969Y244531D01*
X478288Y243643D01*
X477859Y242610D01*
X477713Y241500D01*
X477859Y240390D01*
X478288Y239357D01*
X478969Y238469D01*
X479554Y238020D01*
X479385Y237520D01*
X469422Y237520D01*
X454520Y252422D01*
X454520Y351000D01*
X454442Y351390D01*
X454221Y351721D01*
X453890Y351942D01*
X453500Y352020D01*
X440500D01*
X440110Y351942D01*
X439779Y351721D01*
X439558Y351390D01*
X439480Y351000D01*
Y242422D01*
X418078Y221020D01*
X375201D01*
X375127Y221520D01*
X375356Y221589D01*
X376556Y222231D01*
X377607Y223093D01*
X378470Y224145D01*
X379112Y225345D01*
X379506Y226646D01*
X379640Y228000D01*
X379506Y229354D01*
X379112Y230655D01*
X378470Y231855D01*
X377607Y232907D01*
X376556Y233769D01*
X375356Y234411D01*
X374055Y234806D01*
X372701Y234939D01*
X371347Y234806D01*
X370045Y234411D01*
X368846Y233769D01*
X367794Y232907D01*
X366931Y231855D01*
X366290Y230655D01*
X365895Y229354D01*
X365762Y228000D01*
X365895Y226646D01*
X366290Y225345D01*
X366931Y224145D01*
X367794Y223093D01*
X368846Y222231D01*
X370045Y221589D01*
X370275Y221520D01*
X370201Y221020D01*
X344922D01*
X319221Y246721D01*
X318890Y246942D01*
X318500Y247020D01*
X313500D01*
X313110Y246942D01*
X312779Y246721D01*
X309779Y243721D01*
X309743Y243668D01*
X309436Y243654D01*
X309166Y243704D01*
X308531Y244531D01*
X307643Y245212D01*
X306610Y245641D01*
X305500Y245787D01*
X304391Y245641D01*
X303357Y245212D01*
X302469Y244531D01*
X301788Y243643D01*
X301359Y242610D01*
X301213Y241500D01*
X301359Y240390D01*
X301788Y239357D01*
X302469Y238469D01*
X303357Y237788D01*
X304391Y237359D01*
X305500Y237213D01*
X306610Y237359D01*
X307643Y237788D01*
X308531Y238469D01*
X308980Y239054D01*
X309480Y238885D01*
Y212500D01*
X309558Y212110D01*
X309592Y212060D01*
X309324Y211560D01*
X265707D01*
Y215896D01*
X266207Y216075D01*
X266680Y215499D01*
X267746Y214624D01*
X268962Y213974D01*
X270281Y213574D01*
X271654Y213439D01*
X273026Y213574D01*
X274345Y213974D01*
X275561Y214624D01*
X276627Y215499D01*
X277502Y216565D01*
X278152Y217781D01*
X278552Y219100D01*
X278687Y220472D01*
X278552Y221845D01*
X278152Y223164D01*
X277502Y224380D01*
X276627Y225446D01*
X275561Y226321D01*
X274345Y226971D01*
X273026Y227371D01*
X271654Y227506D01*
X270281Y227371D01*
X268962Y226971D01*
X267746Y226321D01*
X266680Y225446D01*
X266354Y225049D01*
X266207Y224870D01*
X265805Y224380D01*
X265155Y223164D01*
X264755Y221845D01*
X264620Y220472D01*
X264755Y219100D01*
X264879Y218693D01*
X264581Y218291D01*
X238436D01*
X230436Y226291D01*
Y229791D01*
X230500D01*
Y233000D01*
X238500Y241000D01*
X262183D01*
X262533Y240500D01*
X262121Y239141D01*
X261949Y237402D01*
X262121Y235662D01*
X262628Y233989D01*
X263452Y232448D01*
X264561Y231096D01*
X265897Y230000D01*
X265899Y229957D01*
X265833Y229791D01*
X266143D01*
X266207Y229830D01*
X266280Y229791D01*
D01*
X266461Y229694D01*
X267454Y229163D01*
X269127Y228656D01*
X270866Y228485D01*
X272606Y228656D01*
X274278Y229163D01*
X275453Y229791D01*
X275820Y229987D01*
X275835Y230000D01*
X277171Y231096D01*
X278280Y232448D01*
X279104Y233989D01*
X279612Y235662D01*
X279783Y237402D01*
X279612Y239141D01*
X279200Y240500D01*
D01*
X279104Y240814D01*
X278280Y242356D01*
X277171Y243707D01*
X275820Y244816D01*
X274278Y245640D01*
X272606Y246147D01*
X270866Y246319D01*
X269127Y246147D01*
X267454Y245640D01*
X266207Y244973D01*
X265707Y245273D01*
Y529530D01*
X266207Y529830D01*
X267454Y529163D01*
X269127Y528656D01*
X270866Y528485D01*
X272606Y528656D01*
X274278Y529163D01*
X275820Y529987D01*
X277171Y531096D01*
X278280Y532448D01*
X279104Y533989D01*
X279612Y535662D01*
X279783Y537402D01*
X279612Y539141D01*
X279104Y540814D01*
X278280Y542356D01*
X277171Y543707D01*
X275820Y544816D01*
X274278Y545640D01*
X272606Y546147D01*
X270866Y546318D01*
X269127Y546147D01*
X267454Y545640D01*
X266207Y544973D01*
X265707Y545273D01*
Y559791D01*
X238936D01*
X230936Y567791D01*
Y571291D01*
X231000D01*
Y574500D01*
X239000Y582500D01*
X264484D01*
X264601Y581305D01*
X265002Y579985D01*
X265651Y578769D01*
X266178Y578128D01*
D01*
X266526Y577704D01*
X267592Y576829D01*
X268808Y576179D01*
X270128Y575778D01*
X271500Y575643D01*
X272872Y575778D01*
X274192Y576179D01*
X275408Y576829D01*
X276474Y577704D01*
X277348Y578769D01*
X277998Y579985D01*
X278399Y581305D01*
X278534Y582677D01*
X278399Y584049D01*
X277998Y585369D01*
X277348Y586585D01*
X276474Y587651D01*
X275408Y588526D01*
X274192Y589176D01*
X272872Y589576D01*
X272947Y590060D01*
X306520D01*
X306619Y589560D01*
X306431Y589482D01*
X305491Y588761D01*
X304770Y587821D01*
X304317Y586726D01*
X304162Y585551D01*
X304317Y584376D01*
X304770Y583282D01*
X305491Y582342D01*
X306431Y581620D01*
X307526Y581167D01*
X308701Y581012D01*
X309875Y581167D01*
X310970Y581620D01*
X311910Y582342D01*
X312632Y583282D01*
X313085Y584376D01*
X313240Y585551D01*
X313085Y586726D01*
X312632Y587821D01*
X311910Y588761D01*
X310970Y589482D01*
X310783Y589560D01*
X310882Y590060D01*
X316519D01*
X316619Y589560D01*
X316431Y589482D01*
X315491Y588761D01*
X314770Y587821D01*
X314317Y586726D01*
X314162Y585551D01*
X314317Y584376D01*
X314770Y583282D01*
X315491Y582342D01*
X316431Y581620D01*
X317526Y581167D01*
X318701Y581012D01*
X319876Y581167D01*
X320970Y581620D01*
X321910Y582342D01*
X322632Y583282D01*
X323085Y584376D01*
X323240Y585551D01*
X323085Y586726D01*
X322632Y587821D01*
X321910Y588761D01*
X320970Y589482D01*
X320783Y589560D01*
X320882Y590060D01*
X326519D01*
X326619Y589560D01*
X326431Y589482D01*
X325491Y588761D01*
X324770Y587821D01*
X324317Y586726D01*
X324162Y585551D01*
X324317Y584376D01*
X324770Y583282D01*
X325491Y582342D01*
X326431Y581620D01*
X327526Y581167D01*
X328701Y581012D01*
X329875Y581167D01*
X330970Y581620D01*
X331910Y582342D01*
X332631Y583282D01*
X333085Y584376D01*
X333240Y585551D01*
X333085Y586726D01*
X332631Y587821D01*
X331910Y588761D01*
X330970Y589482D01*
X330783Y589560D01*
X330882Y590060D01*
X336520D01*
X336619Y589560D01*
X336431Y589482D01*
X335491Y588761D01*
X334770Y587821D01*
X334317Y586726D01*
X334162Y585551D01*
X334317Y584376D01*
X334770Y583282D01*
X335491Y582342D01*
X336431Y581620D01*
X337526Y581167D01*
X338701Y581012D01*
X339876Y581167D01*
X340970Y581620D01*
X341910Y582342D01*
X342632Y583282D01*
X343085Y584376D01*
X343240Y585551D01*
X343085Y586726D01*
X342632Y587821D01*
X341910Y588761D01*
X340970Y589482D01*
X340783Y589560D01*
X340882Y590060D01*
X346519D01*
X346619Y589560D01*
X346431Y589482D01*
X345491Y588761D01*
X344770Y587821D01*
X344317Y586726D01*
X344162Y585551D01*
X344317Y584376D01*
X344770Y583282D01*
X345491Y582342D01*
X346431Y581620D01*
X347526Y581167D01*
X348701Y581012D01*
X349875Y581167D01*
X350970Y581620D01*
X351910Y582342D01*
X352631Y583282D01*
X353085Y584376D01*
X353240Y585551D01*
X353085Y586726D01*
X352631Y587821D01*
X351910Y588761D01*
X350970Y589482D01*
X350783Y589560D01*
X350882Y590060D01*
X356520D01*
X356619Y589560D01*
X356431Y589482D01*
X355491Y588761D01*
X354770Y587821D01*
X354317Y586726D01*
X354162Y585551D01*
X354317Y584376D01*
X354770Y583282D01*
X355491Y582342D01*
X356431Y581620D01*
X357526Y581167D01*
X358701Y581012D01*
X359875Y581167D01*
X360970Y581620D01*
X361910Y582342D01*
X362632Y583282D01*
X363085Y584376D01*
X363240Y585551D01*
X363085Y586726D01*
X362632Y587821D01*
X361910Y588761D01*
X360970Y589482D01*
X360783Y589560D01*
X360882Y590060D01*
X366519D01*
X366619Y589560D01*
X366431Y589482D01*
X365491Y588761D01*
X364770Y587821D01*
X364317Y586726D01*
X364162Y585551D01*
X364317Y584376D01*
X364770Y583282D01*
X365491Y582342D01*
X366431Y581620D01*
X367526Y581167D01*
X368701Y581012D01*
X369876Y581167D01*
X370970Y581620D01*
X371910Y582342D01*
X372632Y583282D01*
X373085Y584376D01*
X373240Y585551D01*
X373085Y586726D01*
X372632Y587821D01*
X371910Y588761D01*
X370970Y589482D01*
X370783Y589560D01*
X370882Y590060D01*
X376519D01*
X376619Y589560D01*
X376431Y589482D01*
X375491Y588761D01*
X374770Y587821D01*
X374317Y586726D01*
X374162Y585551D01*
X374317Y584376D01*
X374770Y583282D01*
X375491Y582342D01*
X376431Y581620D01*
X377526Y581167D01*
X378701Y581012D01*
X379875Y581167D01*
X380970Y581620D01*
X381910Y582342D01*
X382631Y583282D01*
X383085Y584376D01*
X383240Y585551D01*
X383085Y586726D01*
X382631Y587821D01*
X381910Y588761D01*
X380970Y589482D01*
X380783Y589560D01*
X380882Y590060D01*
X386520D01*
X386619Y589560D01*
X386431Y589482D01*
X385491Y588761D01*
X384770Y587821D01*
X384317Y586726D01*
X384162Y585551D01*
X384317Y584376D01*
X384770Y583282D01*
X385491Y582342D01*
X386431Y581620D01*
X387526Y581167D01*
X388701Y581012D01*
X389876Y581167D01*
X390970Y581620D01*
X391910Y582342D01*
X392632Y583282D01*
X393085Y584376D01*
X393240Y585551D01*
X393085Y586726D01*
X392632Y587821D01*
X391910Y588761D01*
X390970Y589482D01*
X390783Y589560D01*
X390882Y590060D01*
X396519D01*
X396619Y589560D01*
X396431Y589482D01*
X395491Y588761D01*
X394770Y587821D01*
X394317Y586726D01*
X394162Y585551D01*
X394317Y584376D01*
X394770Y583282D01*
X395491Y582342D01*
X396431Y581620D01*
X397526Y581167D01*
X398701Y581012D01*
X399875Y581167D01*
X400970Y581620D01*
X401910Y582342D01*
X402632Y583282D01*
X403085Y584376D01*
X403240Y585551D01*
X403085Y586726D01*
X402632Y587821D01*
X401910Y588761D01*
X400970Y589482D01*
X400783Y589560D01*
X400882Y590060D01*
X406520D01*
X406619Y589560D01*
X406431Y589482D01*
X405491Y588761D01*
X404770Y587821D01*
X404317Y586726D01*
X404162Y585551D01*
X404317Y584376D01*
X404770Y583282D01*
X405491Y582342D01*
X406431Y581620D01*
X407526Y581167D01*
X408701Y581012D01*
X409875Y581167D01*
X410970Y581620D01*
X411910Y582342D01*
X412632Y583282D01*
X413085Y584376D01*
X413240Y585551D01*
X413085Y586726D01*
X412632Y587821D01*
X411910Y588761D01*
X410970Y589482D01*
X410783Y589560D01*
X410882Y590060D01*
X416519D01*
X416619Y589560D01*
X416431Y589482D01*
X415491Y588761D01*
X414770Y587821D01*
X414317Y586726D01*
X414162Y585551D01*
X414317Y584376D01*
X414770Y583282D01*
X415491Y582342D01*
X416431Y581620D01*
X417526Y581167D01*
X418701Y581012D01*
X419875Y581167D01*
X420970Y581620D01*
X421910Y582342D01*
X422632Y583282D01*
X423085Y584376D01*
X423240Y585551D01*
X423085Y586726D01*
X422632Y587821D01*
X421910Y588761D01*
X420970Y589482D01*
X420783Y589560D01*
X420882Y590060D01*
X426519D01*
X426619Y589560D01*
X426431Y589482D01*
X425491Y588761D01*
X424770Y587821D01*
X424317Y586726D01*
X424162Y585551D01*
X424317Y584376D01*
X424770Y583282D01*
X425491Y582342D01*
X426431Y581620D01*
X427526Y581167D01*
X428701Y581012D01*
X429876Y581167D01*
X430970Y581620D01*
X431910Y582342D01*
X432631Y583282D01*
X433085Y584376D01*
X433240Y585551D01*
X433085Y586726D01*
X432631Y587821D01*
X431910Y588761D01*
X430970Y589482D01*
X430783Y589560D01*
X430882Y590060D01*
X436519D01*
X436619Y589560D01*
X436431Y589482D01*
X435491Y588761D01*
X434770Y587821D01*
X434317Y586726D01*
X434162Y585551D01*
X434317Y584376D01*
X434770Y583282D01*
X435491Y582342D01*
X436431Y581620D01*
X437526Y581167D01*
X438701Y581012D01*
X439876Y581167D01*
X440970Y581620D01*
X441910Y582342D01*
X442631Y583282D01*
X443085Y584376D01*
X443240Y585551D01*
X443085Y586726D01*
X442631Y587821D01*
X441910Y588761D01*
X440970Y589482D01*
X440783Y589560D01*
X440882Y590060D01*
X446519D01*
X446619Y589560D01*
X446431Y589482D01*
X445491Y588761D01*
X444770Y587821D01*
X444317Y586726D01*
X444162Y585551D01*
X444317Y584376D01*
X444770Y583282D01*
X445491Y582342D01*
X446431Y581620D01*
X447526Y581167D01*
X448701Y581012D01*
X449875Y581167D01*
X450970Y581620D01*
X451910Y582342D01*
X452632Y583282D01*
X453085Y584376D01*
X453240Y585551D01*
X453085Y586726D01*
X452632Y587821D01*
X451910Y588761D01*
X450970Y589482D01*
X450783Y589560D01*
X450882Y590060D01*
X456519D01*
X456619Y589560D01*
X456431Y589482D01*
X455491Y588761D01*
X454770Y587821D01*
X454317Y586726D01*
X454162Y585551D01*
X454317Y584376D01*
X454770Y583282D01*
X455491Y582342D01*
X456431Y581620D01*
X457526Y581167D01*
X458701Y581012D01*
X459875Y581167D01*
X460970Y581620D01*
X461910Y582342D01*
X462632Y583282D01*
X463085Y584376D01*
X463240Y585551D01*
X463085Y586726D01*
X462632Y587821D01*
X461910Y588761D01*
X460970Y589482D01*
X460783Y589560D01*
X460882Y590060D01*
X466519D01*
X466619Y589560D01*
X466431Y589482D01*
X465491Y588761D01*
X464770Y587821D01*
X464317Y586726D01*
X464162Y585551D01*
X464317Y584376D01*
X464770Y583282D01*
X465491Y582342D01*
X466431Y581620D01*
X467526Y581167D01*
X468701Y581012D01*
X469875Y581167D01*
X470970Y581620D01*
X471910Y582342D01*
X472632Y583282D01*
X473085Y584376D01*
X473240Y585551D01*
X473085Y586726D01*
X472632Y587821D01*
X471910Y588761D01*
X470970Y589482D01*
X470783Y589560D01*
X470882Y590060D01*
X476519D01*
X476619Y589560D01*
X476431Y589482D01*
X475491Y588761D01*
X474770Y587821D01*
X474317Y586726D01*
X474162Y585551D01*
X474317Y584376D01*
X474770Y583282D01*
X475491Y582342D01*
X476431Y581620D01*
X477526Y581167D01*
X478701Y581012D01*
X479876Y581167D01*
X480970Y581620D01*
X481910Y582342D01*
X482631Y583282D01*
X483085Y584376D01*
X483240Y585551D01*
X483085Y586726D01*
X482631Y587821D01*
X481910Y588761D01*
X480970Y589482D01*
X480783Y589560D01*
X480882Y590060D01*
X486519D01*
X486619Y589560D01*
X486431Y589482D01*
X485491Y588761D01*
X484770Y587821D01*
X484317Y586726D01*
X484162Y585551D01*
X484317Y584376D01*
X484770Y583282D01*
X485491Y582342D01*
X486431Y581620D01*
X487526Y581167D01*
X488701Y581012D01*
X489876Y581167D01*
X490970Y581620D01*
X491910Y582342D01*
X492631Y583282D01*
X493085Y584376D01*
X493240Y585551D01*
X493085Y586726D01*
X492631Y587821D01*
X491910Y588761D01*
X490970Y589482D01*
X490783Y589560D01*
X490882Y590060D01*
X514301D01*
X514376Y589576D01*
X513056Y589176D01*
X511840Y588526D01*
X510774Y587651D01*
X509900Y586585D01*
X509250Y585369D01*
X508849Y584049D01*
X508714Y582677D01*
X508760Y582209D01*
X508849Y581305D01*
X509250Y579985D01*
X509900Y578769D01*
X510774Y577704D01*
X511840Y576829D01*
X513056Y576179D01*
X514376Y575778D01*
X515748Y575643D01*
X517120Y575778D01*
X518440Y576179D01*
X519656Y576829D01*
X520722Y577704D01*
X521596Y578769D01*
X522247Y579985D01*
X522647Y581305D01*
X522782Y582677D01*
X522647Y584049D01*
X522247Y585369D01*
X521596Y586585D01*
X520722Y587651D01*
X519656Y588526D01*
X518440Y589176D01*
X517120Y589576D01*
X517195Y590060D01*
X524207D01*
Y582209D01*
D02*
G37*
G36*
X453500Y252000D02*
X469000Y236500D01*
X484500Y236500D01*
X487000Y239000D01*
X487000Y245500D01*
X496500D01*
Y212500D01*
X310500D01*
Y243000D01*
X313500Y246000D01*
X318500D01*
X344500Y220000D01*
X418500D01*
X440500Y242000D01*
Y351000D01*
X453500D01*
X453500Y252000D01*
D02*
G37*
%LPC*%
G36*
X478701Y580090D02*
X477526Y579935D01*
X476431Y579482D01*
X475491Y578761D01*
X474770Y577821D01*
X474317Y576726D01*
X474162Y575551D01*
X474317Y574376D01*
X474770Y573282D01*
X475491Y572342D01*
X476431Y571620D01*
X477526Y571167D01*
X478701Y571012D01*
X479876Y571167D01*
X480970Y571620D01*
X481910Y572342D01*
X482631Y573282D01*
X483085Y574376D01*
X483240Y575551D01*
X483085Y576726D01*
X482631Y577821D01*
X481910Y578761D01*
X480970Y579482D01*
X479876Y579935D01*
X478701Y580090D01*
D02*
G37*
G36*
X468701D02*
X467526Y579935D01*
X466431Y579482D01*
X465491Y578761D01*
X464770Y577821D01*
X464317Y576726D01*
X464162Y575551D01*
X464317Y574376D01*
X464770Y573282D01*
X465491Y572342D01*
X466431Y571620D01*
X467526Y571167D01*
X468701Y571012D01*
X469875Y571167D01*
X470970Y571620D01*
X471910Y572342D01*
X472632Y573282D01*
X473085Y574376D01*
X473240Y575551D01*
X473085Y576726D01*
X472632Y577821D01*
X471910Y578761D01*
X470970Y579482D01*
X469875Y579935D01*
X468701Y580090D01*
D02*
G37*
G36*
X458701D02*
X457526Y579935D01*
X456431Y579482D01*
X455491Y578761D01*
X454770Y577821D01*
X454317Y576726D01*
X454162Y575551D01*
X454317Y574376D01*
X454770Y573282D01*
X455491Y572342D01*
X456431Y571620D01*
X457526Y571167D01*
X458701Y571012D01*
X459875Y571167D01*
X460970Y571620D01*
X461910Y572342D01*
X462632Y573282D01*
X463085Y574376D01*
X463240Y575551D01*
X463085Y576726D01*
X462632Y577821D01*
X461910Y578761D01*
X460970Y579482D01*
X459875Y579935D01*
X458701Y580090D01*
D02*
G37*
G36*
X448701D02*
X447526Y579935D01*
X446431Y579482D01*
X445491Y578761D01*
X444770Y577821D01*
X444317Y576726D01*
X444162Y575551D01*
X444317Y574376D01*
X444770Y573282D01*
X445491Y572342D01*
X446431Y571620D01*
X447526Y571167D01*
X448701Y571012D01*
X449875Y571167D01*
X450970Y571620D01*
X451910Y572342D01*
X452632Y573282D01*
X453085Y574376D01*
X453240Y575551D01*
X453085Y576726D01*
X452632Y577821D01*
X451910Y578761D01*
X450970Y579482D01*
X449875Y579935D01*
X448701Y580090D01*
D02*
G37*
G36*
X438701D02*
X437526Y579935D01*
X436431Y579482D01*
X435491Y578761D01*
X434770Y577821D01*
X434317Y576726D01*
X434162Y575551D01*
X434317Y574376D01*
X434770Y573282D01*
X435491Y572342D01*
X436431Y571620D01*
X437526Y571167D01*
X438701Y571012D01*
X439876Y571167D01*
X440970Y571620D01*
X441910Y572342D01*
X442631Y573282D01*
X443085Y574376D01*
X443240Y575551D01*
X443085Y576726D01*
X442631Y577821D01*
X441910Y578761D01*
X440970Y579482D01*
X439876Y579935D01*
X438701Y580090D01*
D02*
G37*
G36*
X428701D02*
X427526Y579935D01*
X426431Y579482D01*
X425491Y578761D01*
X424770Y577821D01*
X424317Y576726D01*
X424162Y575551D01*
X424317Y574376D01*
X424770Y573282D01*
X425491Y572342D01*
X426431Y571620D01*
X427526Y571167D01*
X428701Y571012D01*
X429876Y571167D01*
X430970Y571620D01*
X431910Y572342D01*
X432631Y573282D01*
X433085Y574376D01*
X433240Y575551D01*
X433085Y576726D01*
X432631Y577821D01*
X431910Y578761D01*
X430970Y579482D01*
X429876Y579935D01*
X428701Y580090D01*
D02*
G37*
G36*
X418701D02*
X417526Y579935D01*
X416431Y579482D01*
X415491Y578761D01*
X414770Y577821D01*
X414317Y576726D01*
X414162Y575551D01*
X414317Y574376D01*
X414770Y573282D01*
X415491Y572342D01*
X416431Y571620D01*
X417526Y571167D01*
X418701Y571012D01*
X419875Y571167D01*
X420970Y571620D01*
X421910Y572342D01*
X422632Y573282D01*
X423085Y574376D01*
X423240Y575551D01*
X423085Y576726D01*
X422632Y577821D01*
X421910Y578761D01*
X420970Y579482D01*
X419875Y579935D01*
X418701Y580090D01*
D02*
G37*
G36*
X408701D02*
X407526Y579935D01*
X406431Y579482D01*
X405491Y578761D01*
X404770Y577821D01*
X404317Y576726D01*
X404162Y575551D01*
X404317Y574376D01*
X404770Y573282D01*
X405491Y572342D01*
X406431Y571620D01*
X407526Y571167D01*
X408701Y571012D01*
X409875Y571167D01*
X410970Y571620D01*
X411910Y572342D01*
X412632Y573282D01*
X413085Y574376D01*
X413240Y575551D01*
X413085Y576726D01*
X412632Y577821D01*
X411910Y578761D01*
X410970Y579482D01*
X409875Y579935D01*
X408701Y580090D01*
D02*
G37*
G36*
X398701D02*
X397526Y579935D01*
X396431Y579482D01*
X395491Y578761D01*
X394770Y577821D01*
X394317Y576726D01*
X394162Y575551D01*
X394317Y574376D01*
X394770Y573282D01*
X395491Y572342D01*
X396431Y571620D01*
X397526Y571167D01*
X398701Y571012D01*
X399875Y571167D01*
X400970Y571620D01*
X401910Y572342D01*
X402632Y573282D01*
X403085Y574376D01*
X403240Y575551D01*
X403085Y576726D01*
X402632Y577821D01*
X401910Y578761D01*
X400970Y579482D01*
X399875Y579935D01*
X398701Y580090D01*
D02*
G37*
G36*
X388701D02*
X387526Y579935D01*
X386431Y579482D01*
X385491Y578761D01*
X384770Y577821D01*
X384317Y576726D01*
X384162Y575551D01*
X384317Y574376D01*
X384770Y573282D01*
X385491Y572342D01*
X386431Y571620D01*
X387526Y571167D01*
X388701Y571012D01*
X389876Y571167D01*
X390970Y571620D01*
X391910Y572342D01*
X392632Y573282D01*
X393085Y574376D01*
X393240Y575551D01*
X393085Y576726D01*
X392632Y577821D01*
X391910Y578761D01*
X390970Y579482D01*
X389876Y579935D01*
X388701Y580090D01*
D02*
G37*
G36*
X378701D02*
X377526Y579935D01*
X376431Y579482D01*
X375491Y578761D01*
X374770Y577821D01*
X374317Y576726D01*
X374162Y575551D01*
X374317Y574376D01*
X374770Y573282D01*
X375491Y572342D01*
X376431Y571620D01*
X377526Y571167D01*
X378701Y571012D01*
X379875Y571167D01*
X380970Y571620D01*
X381910Y572342D01*
X382631Y573282D01*
X383085Y574376D01*
X383240Y575551D01*
X383085Y576726D01*
X382631Y577821D01*
X381910Y578761D01*
X380970Y579482D01*
X379875Y579935D01*
X378701Y580090D01*
D02*
G37*
G36*
X368701D02*
X367526Y579935D01*
X366431Y579482D01*
X365491Y578761D01*
X364770Y577821D01*
X364317Y576726D01*
X364162Y575551D01*
X364317Y574376D01*
X364770Y573282D01*
X365491Y572342D01*
X366431Y571620D01*
X367526Y571167D01*
X368701Y571012D01*
X369876Y571167D01*
X370970Y571620D01*
X371910Y572342D01*
X372632Y573282D01*
X373085Y574376D01*
X373240Y575551D01*
X373085Y576726D01*
X372632Y577821D01*
X371910Y578761D01*
X370970Y579482D01*
X369876Y579935D01*
X368701Y580090D01*
D02*
G37*
G36*
X358701D02*
X357526Y579935D01*
X356431Y579482D01*
X355491Y578761D01*
X354770Y577821D01*
X354317Y576726D01*
X354162Y575551D01*
X354317Y574376D01*
X354770Y573282D01*
X355491Y572342D01*
X356431Y571620D01*
X357526Y571167D01*
X358701Y571012D01*
X359875Y571167D01*
X360970Y571620D01*
X361910Y572342D01*
X362632Y573282D01*
X363085Y574376D01*
X363240Y575551D01*
X363085Y576726D01*
X362632Y577821D01*
X361910Y578761D01*
X360970Y579482D01*
X359875Y579935D01*
X358701Y580090D01*
D02*
G37*
G36*
X348701D02*
X347526Y579935D01*
X346431Y579482D01*
X345491Y578761D01*
X344770Y577821D01*
X344317Y576726D01*
X344162Y575551D01*
X344317Y574376D01*
X344770Y573282D01*
X345491Y572342D01*
X346431Y571620D01*
X347526Y571167D01*
X348701Y571012D01*
X349875Y571167D01*
X350970Y571620D01*
X351910Y572342D01*
X352631Y573282D01*
X353085Y574376D01*
X353240Y575551D01*
X353085Y576726D01*
X352631Y577821D01*
X351910Y578761D01*
X350970Y579482D01*
X349875Y579935D01*
X348701Y580090D01*
D02*
G37*
G36*
X338701D02*
X337526Y579935D01*
X336431Y579482D01*
X335491Y578761D01*
X334770Y577821D01*
X334317Y576726D01*
X334162Y575551D01*
X334317Y574376D01*
X334770Y573282D01*
X335491Y572342D01*
X336431Y571620D01*
X337526Y571167D01*
X338701Y571012D01*
X339876Y571167D01*
X340970Y571620D01*
X341910Y572342D01*
X342632Y573282D01*
X343085Y574376D01*
X343240Y575551D01*
X343085Y576726D01*
X342632Y577821D01*
X341910Y578761D01*
X340970Y579482D01*
X339876Y579935D01*
X338701Y580090D01*
D02*
G37*
G36*
X328701D02*
X327526Y579935D01*
X326431Y579482D01*
X325491Y578761D01*
X324770Y577821D01*
X324317Y576726D01*
X324162Y575551D01*
X324317Y574376D01*
X324770Y573282D01*
X325491Y572342D01*
X326431Y571620D01*
X327526Y571167D01*
X328701Y571012D01*
X329875Y571167D01*
X330970Y571620D01*
X331910Y572342D01*
X332631Y573282D01*
X333085Y574376D01*
X333240Y575551D01*
X333085Y576726D01*
X332631Y577821D01*
X331910Y578761D01*
X330970Y579482D01*
X329875Y579935D01*
X328701Y580090D01*
D02*
G37*
G36*
X318701D02*
X317526Y579935D01*
X316431Y579482D01*
X315491Y578761D01*
X314770Y577821D01*
X314317Y576726D01*
X314162Y575551D01*
X314317Y574376D01*
X314770Y573282D01*
X315491Y572342D01*
X316431Y571620D01*
X317526Y571167D01*
X318701Y571012D01*
X319876Y571167D01*
X320970Y571620D01*
X321910Y572342D01*
X322632Y573282D01*
X323085Y574376D01*
X323240Y575551D01*
X323085Y576726D01*
X322632Y577821D01*
X321910Y578761D01*
X320970Y579482D01*
X319876Y579935D01*
X318701Y580090D01*
D02*
G37*
G36*
X308701D02*
X307526Y579935D01*
X306431Y579482D01*
X305491Y578761D01*
X304770Y577821D01*
X304317Y576726D01*
X304162Y575551D01*
X304317Y574376D01*
X304770Y573282D01*
X305491Y572342D01*
X306431Y571620D01*
X307526Y571167D01*
X308701Y571012D01*
X309875Y571167D01*
X310970Y571620D01*
X311910Y572342D01*
X312632Y573282D01*
X313085Y574376D01*
X313240Y575551D01*
X313085Y576726D01*
X312632Y577821D01*
X311910Y578761D01*
X310970Y579482D01*
X309875Y579935D01*
X308701Y580090D01*
D02*
G37*
G36*
X298701D02*
X297526Y579935D01*
X296431Y579482D01*
X295491Y578761D01*
X294770Y577821D01*
X294317Y576726D01*
X294162Y575551D01*
X294317Y574376D01*
X294770Y573282D01*
X295491Y572342D01*
X296431Y571620D01*
X297526Y571167D01*
X298701Y571012D01*
X299875Y571167D01*
X300970Y571620D01*
X301910Y572342D01*
X302631Y573282D01*
X303085Y574376D01*
X303240Y575551D01*
X303085Y576726D01*
X302631Y577821D01*
X301910Y578761D01*
X300970Y579482D01*
X299875Y579935D01*
X298701Y580090D01*
D02*
G37*
G36*
X522000Y574500D02*
X512000D01*
Y570709D01*
Y559500D01*
Y556500D01*
X522000D01*
Y559500D01*
Y570709D01*
Y574500D01*
D02*
G37*
G36*
X446717Y556862D02*
X445866Y556693D01*
X445145Y556211D01*
X444663Y555489D01*
X444493Y554638D01*
X444503Y554587D01*
X438946Y549029D01*
X425671D01*
X425435Y549470D01*
X425555Y549649D01*
X425724Y550500D01*
X425555Y551351D01*
X425072Y552072D01*
X424351Y552555D01*
X423500Y552724D01*
X422649Y552555D01*
X421927Y552072D01*
X421445Y551351D01*
X421276Y550500D01*
X421286Y550449D01*
X407866Y537029D01*
X403190D01*
X402922Y537529D01*
X403140Y537855D01*
X403309Y538706D01*
X403299Y538757D01*
X404581Y540039D01*
X404913Y540535D01*
X405029Y541121D01*
Y547399D01*
X405072Y547428D01*
X405555Y548149D01*
X405724Y549000D01*
X405555Y549851D01*
X405141Y550471D01*
X405308Y550971D01*
X410899D01*
X410927Y550927D01*
X411649Y550445D01*
X412500Y550276D01*
X413351Y550445D01*
X414073Y550927D01*
X414555Y551649D01*
X414724Y552500D01*
X414555Y553351D01*
X414073Y554073D01*
X413351Y554555D01*
X412500Y554724D01*
X411649Y554555D01*
X410927Y554073D01*
X410899Y554029D01*
X402246D01*
X401660Y553913D01*
X401164Y553581D01*
X397726Y550144D01*
X397676Y550154D01*
X396825Y549985D01*
X396103Y549503D01*
X395621Y548781D01*
X395452Y547930D01*
X395621Y547079D01*
X396103Y546357D01*
X396825Y545875D01*
X397676Y545706D01*
X398527Y545875D01*
X399248Y546357D01*
X399730Y547079D01*
X399899Y547930D01*
X399889Y547981D01*
X400790Y548881D01*
X401333Y548717D01*
X401445Y548149D01*
X401928Y547428D01*
X401971Y547399D01*
Y541754D01*
X401136Y540920D01*
X401085Y540930D01*
X400234Y540761D01*
X399513Y540279D01*
X399144Y539726D01*
X398568Y539595D01*
X395081Y543081D01*
X394585Y543413D01*
X394000Y543529D01*
X386722D01*
X386573Y543754D01*
X385851Y544236D01*
X385000Y544405D01*
X384149Y544236D01*
X383428Y543754D01*
X382945Y543032D01*
X382776Y542181D01*
X382834Y541893D01*
X382409Y541463D01*
X382287Y541485D01*
X382204Y541906D01*
X381721Y542627D01*
X381000Y543109D01*
X380149Y543278D01*
X379298Y543109D01*
X378576Y542627D01*
X378094Y541906D01*
X377925Y541055D01*
X378094Y540204D01*
X378576Y539482D01*
X379298Y539000D01*
X380149Y538831D01*
X380200Y538841D01*
X380622Y538418D01*
X381118Y538087D01*
X381703Y537971D01*
X392866D01*
X398919Y531919D01*
X399415Y531587D01*
X400000Y531471D01*
X409500D01*
X410085Y531587D01*
X410581Y531919D01*
X424634Y545971D01*
X439579D01*
X440164Y546087D01*
X440660Y546419D01*
X446666Y552424D01*
X446717Y552414D01*
X447568Y552584D01*
X448290Y553065D01*
X448772Y553787D01*
X448941Y554638D01*
X448772Y555489D01*
X448290Y556211D01*
X447568Y556693D01*
X446717Y556862D01*
D02*
G37*
G36*
X476101Y548211D02*
X475250Y548041D01*
X474528Y547559D01*
X474500Y547516D01*
X465987D01*
X465402Y547400D01*
X464905Y547068D01*
X458867Y541029D01*
X449500D01*
X448915Y540913D01*
X448419Y540581D01*
X445261Y537424D01*
X444962Y537432D01*
X444881Y537486D01*
X444583Y537894D01*
X444715Y538557D01*
X444546Y539408D01*
X444064Y540130D01*
X443342Y540612D01*
X442491Y540781D01*
X441640Y540612D01*
X440919Y540130D01*
X440437Y539408D01*
X440268Y538557D01*
X440339Y538199D01*
X440306Y538166D01*
X439974Y537670D01*
X439858Y537084D01*
Y526613D01*
X439974Y526028D01*
X440306Y525531D01*
X445299Y520538D01*
X445428Y520073D01*
X444945Y519351D01*
X444776Y518500D01*
X444945Y517649D01*
X445428Y516927D01*
X446149Y516445D01*
X447000Y516276D01*
X447851Y516445D01*
X448572Y516927D01*
X449055Y517649D01*
X449224Y518500D01*
X449055Y519351D01*
X448572Y520073D01*
X448529Y520101D01*
Y521000D01*
X448413Y521585D01*
X448081Y522081D01*
X444260Y525903D01*
X444430Y526440D01*
X444463Y526446D01*
X444491Y526419D01*
X444987Y526087D01*
X445572Y525971D01*
X462130D01*
X462716Y526087D01*
X463212Y526419D01*
X469668Y532875D01*
X469719Y532865D01*
X470570Y533035D01*
X471292Y533517D01*
X471774Y534238D01*
X471943Y535089D01*
X471774Y535940D01*
X471292Y536661D01*
X470570Y537144D01*
X469719Y537313D01*
X468868Y537144D01*
X468147Y536661D01*
X467665Y535940D01*
X467495Y535089D01*
X467506Y535038D01*
X467176Y534708D01*
X466715Y534954D01*
X466724Y535000D01*
X466555Y535851D01*
X466073Y536573D01*
X465384Y537033D01*
X465341Y537237D01*
X465321Y537570D01*
X465874Y537940D01*
X466357Y538661D01*
X466526Y539512D01*
X466357Y540363D01*
X465874Y541085D01*
X465153Y541567D01*
X464556Y541686D01*
X464387Y542224D01*
X466620Y544457D01*
X474500D01*
X474528Y544414D01*
X475250Y543932D01*
X476101Y543763D01*
X476952Y543932D01*
X477673Y544414D01*
X478155Y545136D01*
X478325Y545987D01*
X478155Y546838D01*
X477673Y547559D01*
X476952Y548041D01*
X476101Y548211D01*
D02*
G37*
G36*
X368023Y536298D02*
X367172Y536128D01*
X366450Y535646D01*
X365968Y534925D01*
X365799Y534074D01*
X365968Y533223D01*
X366450Y532501D01*
X367172Y532019D01*
X368023Y531850D01*
X368580Y531961D01*
X385116D01*
X385435Y531461D01*
X385308Y530819D01*
X385477Y529968D01*
X385959Y529246D01*
X386680Y528764D01*
X386971Y528707D01*
Y528016D01*
X386471Y527701D01*
X385819Y527830D01*
X384968Y527661D01*
X384246Y527179D01*
X383764Y526458D01*
X383595Y525606D01*
X383764Y524755D01*
X384246Y524034D01*
X384290Y524005D01*
Y516266D01*
X383789Y515987D01*
X383061Y516132D01*
X382209Y515963D01*
X381488Y515481D01*
X381006Y514759D01*
X380837Y513908D01*
X381006Y513057D01*
X381488Y512336D01*
X382209Y511854D01*
X382290Y511838D01*
Y497281D01*
X378991Y493983D01*
X378529Y494174D01*
Y508000D01*
X378413Y508585D01*
X378081Y509081D01*
X374214Y512949D01*
X374224Y513000D01*
X374055Y513851D01*
X373572Y514572D01*
X373332Y514733D01*
X373428Y515270D01*
X373601Y515311D01*
X374149Y514945D01*
X375000Y514776D01*
X375851Y514945D01*
X376572Y515427D01*
X377055Y516149D01*
X377224Y517000D01*
X377055Y517851D01*
X376572Y518573D01*
X375851Y519055D01*
X375000Y519224D01*
X374149Y519055D01*
X373428Y518573D01*
X373399Y518529D01*
X365000D01*
X364415Y518413D01*
X363919Y518082D01*
X342551Y496714D01*
X342500Y496724D01*
X341649Y496555D01*
X340928Y496072D01*
X340445Y495351D01*
X340276Y494500D01*
X340445Y493649D01*
X340928Y492928D01*
X341649Y492445D01*
X342500Y492276D01*
X343351Y492445D01*
X344073Y492928D01*
X344555Y493649D01*
X344724Y494500D01*
X344714Y494551D01*
X365634Y515471D01*
X370873D01*
X371023Y514971D01*
X370427Y514572D01*
X369945Y513851D01*
X369776Y513000D01*
X369945Y512149D01*
X370427Y511427D01*
X371149Y510945D01*
X371703Y510835D01*
X371777Y510689D01*
X371502Y510125D01*
X371149Y510055D01*
X370427Y509573D01*
X369945Y508851D01*
X369776Y508000D01*
X369945Y507149D01*
X370427Y506427D01*
X370436Y506422D01*
Y505820D01*
X370065Y505573D01*
X369583Y504851D01*
X369414Y504000D01*
X369583Y503149D01*
X370065Y502427D01*
X370108Y502399D01*
Y487085D01*
X345919Y462895D01*
X345587Y462399D01*
X345471Y461814D01*
Y449634D01*
X331551Y435714D01*
X331500Y435724D01*
X330649Y435555D01*
X329927Y435073D01*
X329445Y434351D01*
X329276Y433500D01*
X329445Y432649D01*
X329927Y431927D01*
X330150Y431779D01*
Y431279D01*
X329893Y431107D01*
X329411Y430386D01*
X329241Y429535D01*
X329411Y428684D01*
X329893Y427962D01*
X330614Y427480D01*
X331465Y427311D01*
X332316Y427480D01*
X333038Y427962D01*
X333188Y428187D01*
X333688D01*
X333776Y428054D01*
X334427Y427620D01*
X334435Y427331D01*
X334374Y427099D01*
X334149Y427055D01*
X333428Y426573D01*
X332945Y425851D01*
X332776Y425000D01*
X332945Y424149D01*
X333428Y423427D01*
X334149Y422945D01*
X335000Y422776D01*
X335851Y422945D01*
X336412Y423320D01*
X336995Y423228D01*
X337049Y423147D01*
X337771Y422665D01*
X338622Y422496D01*
X339473Y422665D01*
X340194Y423147D01*
X340676Y423868D01*
X340846Y424719D01*
X340835Y424770D01*
X356081Y440016D01*
X356413Y440512D01*
X356529Y441098D01*
Y457866D01*
X366960Y468297D01*
X377128Y478465D01*
X377131Y478464D01*
X377982Y478295D01*
X378833Y478464D01*
X379471Y478890D01*
X379971Y478738D01*
Y477134D01*
X364551Y461714D01*
X364500Y461724D01*
X363649Y461555D01*
X362928Y461072D01*
X362445Y460351D01*
X362276Y459500D01*
X362445Y458649D01*
X362928Y457928D01*
X363427Y457593D01*
Y457573D01*
X362945Y456851D01*
X362776Y456000D01*
X362945Y455149D01*
X363427Y454427D01*
X364149Y453945D01*
X365000Y453776D01*
X365851Y453945D01*
X366548Y454412D01*
X366575Y454427D01*
X367134Y454367D01*
X367427Y453928D01*
X368149Y453445D01*
X369000Y453276D01*
X369851Y453445D01*
X370572Y453928D01*
X371055Y454649D01*
X371224Y455500D01*
X371214Y455551D01*
X385509Y469846D01*
X385971Y469654D01*
Y450562D01*
X385471Y450247D01*
X384819Y450376D01*
X384376Y450288D01*
X383945Y450712D01*
X383948Y450827D01*
X384584Y451252D01*
X385066Y451973D01*
X385235Y452824D01*
X385066Y453675D01*
X384584Y454397D01*
X383862Y454879D01*
X383011Y455048D01*
X382160Y454879D01*
X381924Y454721D01*
X381249Y454872D01*
X381015Y455223D01*
X380293Y455705D01*
X379442Y455874D01*
X378591Y455705D01*
X377870Y455223D01*
X377387Y454501D01*
X377218Y453650D01*
X377342Y453028D01*
X376881Y452782D01*
X376214Y453449D01*
X376224Y453500D01*
X376055Y454351D01*
X375572Y455072D01*
X374851Y455555D01*
X374000Y455724D01*
X373149Y455555D01*
X372428Y455072D01*
X371945Y454351D01*
X371776Y453500D01*
X371945Y452649D01*
X372428Y451928D01*
X373149Y451445D01*
X374000Y451276D01*
X374051Y451286D01*
X375971Y449367D01*
Y445634D01*
X368051Y437714D01*
X368000Y437724D01*
X367149Y437555D01*
X366427Y437073D01*
X365945Y436351D01*
X365776Y435500D01*
X365945Y434649D01*
X366427Y433927D01*
X367149Y433445D01*
X368000Y433276D01*
X368851Y433445D01*
X369572Y433927D01*
X369972Y434526D01*
X370091Y434557D01*
X370409D01*
X370528Y434526D01*
X370928Y433927D01*
X371649Y433445D01*
X372500Y433276D01*
X373351Y433445D01*
X374073Y433927D01*
X374250Y434193D01*
X374750D01*
X374927Y433927D01*
X375649Y433445D01*
X376500Y433276D01*
X377351Y433445D01*
X378073Y433927D01*
X378555Y434649D01*
X378724Y435500D01*
X378714Y435551D01*
X379341Y436178D01*
X379792Y435922D01*
X379945Y435149D01*
X380428Y434427D01*
X381149Y433945D01*
X382000Y433776D01*
X382851Y433945D01*
X383146Y434142D01*
X383638Y433870D01*
X383636Y433799D01*
X367419Y417581D01*
X367087Y417085D01*
X366971Y416500D01*
Y382101D01*
X366928Y382072D01*
X366445Y381351D01*
X366276Y380500D01*
X366445Y379649D01*
X366928Y378927D01*
X367649Y378445D01*
X368500Y378276D01*
X369351Y378445D01*
X370073Y378927D01*
X370555Y379649D01*
X370724Y380500D01*
X370555Y381351D01*
X370073Y382072D01*
X370029Y382101D01*
Y415867D01*
X371509Y417346D01*
X371971Y417154D01*
Y382101D01*
X371927Y382072D01*
X371445Y381351D01*
X371276Y380500D01*
X371445Y379649D01*
X371927Y378927D01*
X372649Y378445D01*
X373500Y378276D01*
X374351Y378445D01*
X375073Y378927D01*
X375555Y379649D01*
X375724Y380500D01*
X375555Y381351D01*
X375073Y382072D01*
X375029Y382101D01*
Y417367D01*
X389509Y431846D01*
X389971Y431654D01*
Y416072D01*
X390087Y415487D01*
X390419Y414991D01*
X393881Y411528D01*
X393776Y411000D01*
X393945Y410149D01*
X394427Y409427D01*
X395149Y408945D01*
X396000Y408776D01*
X396851Y408945D01*
X397572Y409427D01*
X398055Y410149D01*
X398159Y410672D01*
X398646Y410944D01*
X398683Y410939D01*
X399500Y410776D01*
X400351Y410945D01*
X401073Y411427D01*
X401555Y412149D01*
X401724Y413000D01*
X401555Y413851D01*
X401073Y414572D01*
X400351Y415055D01*
X399500Y415224D01*
X399449Y415214D01*
X395029Y419633D01*
Y459591D01*
X395529Y459906D01*
X396181Y459776D01*
X396232Y459786D01*
X400966Y455053D01*
X401462Y454721D01*
X402047Y454604D01*
X405218D01*
X405246Y454561D01*
X405968Y454079D01*
X406819Y453910D01*
X407471Y454040D01*
X407971Y453725D01*
Y387190D01*
X407506Y386725D01*
X407455Y386735D01*
X406604Y386566D01*
X405882Y386084D01*
X405400Y385363D01*
X405231Y384511D01*
X405400Y383661D01*
X405882Y382939D01*
X406604Y382457D01*
X407455Y382288D01*
X408306Y382457D01*
X409027Y382939D01*
X409113Y383067D01*
X409714D01*
X409946Y382719D01*
X410668Y382237D01*
X411519Y382068D01*
X412370Y382237D01*
X413091Y382719D01*
X413573Y383441D01*
X413742Y384292D01*
X413573Y385143D01*
X413091Y385864D01*
X413029Y385906D01*
Y456329D01*
X413470Y456565D01*
X413649Y456445D01*
X414500Y456276D01*
X415351Y456445D01*
X416073Y456927D01*
X416101Y456971D01*
X419269D01*
X431055Y445185D01*
X431045Y445134D01*
X431214Y444283D01*
X431696Y443562D01*
X432418Y443080D01*
X433269Y442910D01*
X434120Y443080D01*
X434841Y443562D01*
X435323Y444283D01*
X435493Y445134D01*
X435323Y445985D01*
X434841Y446706D01*
X434120Y447189D01*
X433269Y447358D01*
X433218Y447348D01*
X420984Y459581D01*
X420488Y459913D01*
X419903Y460029D01*
X416101D01*
X416073Y460073D01*
X415351Y460555D01*
X414500Y460724D01*
X413649Y460555D01*
X413470Y460435D01*
X413029Y460671D01*
Y473022D01*
X412913Y473607D01*
X412581Y474103D01*
X408188Y478497D01*
X408198Y478548D01*
X408029Y479399D01*
X407547Y480120D01*
X406825Y480602D01*
X405974Y480772D01*
X405123Y480602D01*
X404529Y480206D01*
X404029Y480395D01*
Y482367D01*
X410340Y488678D01*
X410792Y488422D01*
X410945Y487649D01*
X411427Y486928D01*
X411471Y486899D01*
Y484182D01*
X411587Y483597D01*
X411919Y483101D01*
X425373Y469646D01*
X425363Y469595D01*
X425532Y468744D01*
X426015Y468022D01*
X426736Y467540D01*
X427587Y467371D01*
X428438Y467540D01*
X429160Y468022D01*
X429642Y468744D01*
X429811Y469595D01*
X429642Y470446D01*
X429160Y471168D01*
X428438Y471650D01*
X427587Y471819D01*
X427536Y471809D01*
X414529Y484816D01*
Y486899D01*
X414572Y486928D01*
X415055Y487649D01*
X415224Y488500D01*
X415055Y489351D01*
X414572Y490072D01*
X413851Y490555D01*
X413078Y490708D01*
X412822Y491159D01*
X422262Y500600D01*
X422594Y501096D01*
X422711Y501681D01*
Y519619D01*
X422754Y519648D01*
X423236Y520369D01*
X423405Y521220D01*
X423236Y522071D01*
X422853Y522644D01*
X423213Y523005D01*
X423477Y522828D01*
X424328Y522659D01*
X425179Y522828D01*
X425901Y523310D01*
X426383Y524032D01*
X426552Y524883D01*
X426383Y525734D01*
X426356Y525774D01*
X426745Y526092D01*
X427471Y525366D01*
Y519355D01*
X427587Y518770D01*
X427919Y518273D01*
X438964Y507228D01*
X438954Y507177D01*
X439123Y506326D01*
X439605Y505605D01*
X440327Y505123D01*
X441178Y504953D01*
X442029Y505123D01*
X442750Y505605D01*
X443232Y506326D01*
X443401Y507177D01*
X443232Y508028D01*
X442750Y508750D01*
X442029Y509232D01*
X441178Y509401D01*
X441127Y509391D01*
X430529Y519988D01*
Y526000D01*
X430413Y526585D01*
X430081Y527081D01*
X427581Y529581D01*
X427085Y529913D01*
X426500Y530029D01*
X419500D01*
X418915Y529913D01*
X418419Y529581D01*
X394968Y506131D01*
X394500Y506224D01*
X393649Y506055D01*
X392928Y505573D01*
X392445Y504851D01*
X392276Y504000D01*
X392445Y503149D01*
X392928Y502427D01*
X393649Y501945D01*
X394500Y501776D01*
X395007Y501877D01*
X395253Y501416D01*
X390491Y496654D01*
X390029Y496846D01*
Y529637D01*
X390529Y529844D01*
X392961Y527413D01*
Y522374D01*
X392945Y522351D01*
X392776Y521500D01*
X392945Y520649D01*
X393427Y519928D01*
X394149Y519445D01*
X395000Y519276D01*
X395851Y519445D01*
X396572Y519928D01*
X397055Y520649D01*
X397224Y521500D01*
X397055Y522351D01*
X397039Y522374D01*
Y528257D01*
X396884Y529038D01*
X396442Y529699D01*
X390699Y535442D01*
X390038Y535884D01*
X389257Y536039D01*
X369007D01*
X368874Y536128D01*
X368023Y536298D01*
D02*
G37*
G36*
X492500Y517663D02*
X491391Y517517D01*
X490357Y517089D01*
X489469Y516407D01*
X488788Y515520D01*
X488359Y514486D01*
X488213Y513376D01*
X488359Y512267D01*
X488788Y511233D01*
X489469Y510345D01*
X490357Y509664D01*
X491391Y509236D01*
X492500Y509090D01*
X493610Y509236D01*
X494643Y509664D01*
X495531Y510345D01*
X496212Y511233D01*
X496641Y512267D01*
X496787Y513376D01*
X496641Y514486D01*
X496212Y515520D01*
X495531Y516407D01*
X494643Y517089D01*
X493610Y517517D01*
X492500Y517663D01*
D02*
G37*
G36*
X294876Y508287D02*
X293767Y508141D01*
X292733Y507712D01*
X291845Y507031D01*
X291164Y506143D01*
X290736Y505110D01*
X290590Y504000D01*
X290736Y502890D01*
X291164Y501857D01*
X291845Y500969D01*
X292733Y500288D01*
X293767Y499859D01*
X294876Y499713D01*
X295986Y499859D01*
X297020Y500288D01*
X297907Y500969D01*
X298589Y501857D01*
X299017Y502890D01*
X299163Y504000D01*
X299017Y505110D01*
X298589Y506143D01*
X297907Y507031D01*
X297020Y507712D01*
X295986Y508141D01*
X294876Y508287D01*
D02*
G37*
G36*
X492500Y482663D02*
X491391Y482517D01*
X490357Y482089D01*
X489469Y481407D01*
X488788Y480520D01*
X488359Y479486D01*
X488213Y478376D01*
X488359Y477267D01*
X488788Y476233D01*
X489469Y475345D01*
X490357Y474664D01*
X491391Y474236D01*
X492500Y474090D01*
X493610Y474236D01*
X494643Y474664D01*
X495531Y475345D01*
X496212Y476233D01*
X496641Y477267D01*
X496787Y478376D01*
X496641Y479486D01*
X496212Y480520D01*
X495531Y481407D01*
X494643Y482089D01*
X493610Y482517D01*
X492500Y482663D01*
D02*
G37*
G36*
X294876Y472787D02*
X293767Y472641D01*
X292733Y472212D01*
X291845Y471531D01*
X291164Y470643D01*
X290736Y469609D01*
X290590Y468500D01*
X290736Y467390D01*
X291164Y466357D01*
X291845Y465469D01*
X292733Y464788D01*
X293767Y464359D01*
X294876Y464213D01*
X295986Y464359D01*
X297020Y464788D01*
X297907Y465469D01*
X298589Y466357D01*
X299017Y467390D01*
X299163Y468500D01*
X299017Y469609D01*
X298589Y470643D01*
X297907Y471531D01*
X297020Y472212D01*
X295986Y472641D01*
X294876Y472787D01*
D02*
G37*
G36*
X425500Y461224D02*
X424649Y461055D01*
X423927Y460572D01*
X423445Y459851D01*
X423276Y459000D01*
X423445Y458149D01*
X423927Y457428D01*
X424649Y456945D01*
X425500Y456776D01*
X425551Y456786D01*
X431286Y451051D01*
X431276Y451000D01*
X431445Y450149D01*
X431927Y449428D01*
X432649Y448945D01*
X433500Y448776D01*
X434351Y448945D01*
X435073Y449428D01*
X435555Y450149D01*
X435724Y451000D01*
X435555Y451851D01*
X435073Y452572D01*
X434351Y453055D01*
X433500Y453224D01*
X433449Y453214D01*
X427714Y458949D01*
X427724Y459000D01*
X427555Y459851D01*
X427072Y460572D01*
X426351Y461055D01*
X425500Y461224D01*
D02*
G37*
G36*
X492500Y447663D02*
X491391Y447517D01*
X490357Y447089D01*
X489469Y446408D01*
X488788Y445520D01*
X488359Y444486D01*
X488213Y443376D01*
X488359Y442267D01*
X488788Y441233D01*
X489469Y440345D01*
X490357Y439664D01*
X491391Y439236D01*
X492500Y439090D01*
X493610Y439236D01*
X494643Y439664D01*
X495531Y440345D01*
X496212Y441233D01*
X496641Y442267D01*
X496787Y443376D01*
X496641Y444486D01*
X496212Y445520D01*
X495531Y446408D01*
X494643Y447089D01*
X493610Y447517D01*
X492500Y447663D01*
D02*
G37*
G36*
X294876Y437787D02*
X293767Y437641D01*
X292733Y437212D01*
X291845Y436531D01*
X291164Y435643D01*
X290736Y434610D01*
X290590Y433500D01*
X290736Y432390D01*
X291164Y431357D01*
X291845Y430469D01*
X292733Y429788D01*
X293767Y429359D01*
X294876Y429213D01*
X295986Y429359D01*
X297020Y429788D01*
X297907Y430469D01*
X298589Y431357D01*
X299017Y432390D01*
X299163Y433500D01*
X299017Y434610D01*
X298589Y435643D01*
X297907Y436531D01*
X297020Y437212D01*
X295986Y437641D01*
X294876Y437787D01*
D02*
G37*
G36*
X492500Y412663D02*
X491391Y412517D01*
X490357Y412089D01*
X489469Y411408D01*
X488788Y410520D01*
X488359Y409486D01*
X488213Y408376D01*
X488359Y407267D01*
X488788Y406233D01*
X489469Y405345D01*
X490357Y404664D01*
X491391Y404236D01*
X492500Y404090D01*
X493610Y404236D01*
X494643Y404664D01*
X495531Y405345D01*
X496212Y406233D01*
X496641Y407267D01*
X496787Y408376D01*
X496641Y409486D01*
X496212Y410520D01*
X495531Y411408D01*
X494643Y412089D01*
X493610Y412517D01*
X492500Y412663D01*
D02*
G37*
G36*
X294876Y402787D02*
X293767Y402641D01*
X292733Y402212D01*
X291845Y401531D01*
X291164Y400643D01*
X290736Y399609D01*
X290590Y398500D01*
X290736Y397391D01*
X291164Y396357D01*
X291845Y395469D01*
X292733Y394788D01*
X293767Y394359D01*
X294876Y394213D01*
X295986Y394359D01*
X297020Y394788D01*
X297907Y395469D01*
X298589Y396357D01*
X299017Y397391D01*
X299163Y398500D01*
X299017Y399609D01*
X298589Y400643D01*
X297907Y401531D01*
X297020Y402212D01*
X295986Y402641D01*
X294876Y402787D01*
D02*
G37*
G36*
X439000Y403526D02*
X438217Y403423D01*
X437487Y403121D01*
X436860Y402640D01*
X436379Y402013D01*
X436077Y401283D01*
X435974Y400500D01*
X436077Y399717D01*
X436379Y398987D01*
X436860Y398360D01*
X437004Y398250D01*
Y397750D01*
X436860Y397640D01*
X436379Y397013D01*
X436077Y396283D01*
X435974Y395500D01*
X436077Y394717D01*
X436379Y393987D01*
X436860Y393360D01*
X437004Y393250D01*
Y392750D01*
X436860Y392640D01*
X436379Y392013D01*
X436077Y391283D01*
X435974Y390500D01*
X436077Y389717D01*
X436379Y388987D01*
X436860Y388360D01*
X437004Y388250D01*
Y387750D01*
X436860Y387640D01*
X436379Y387013D01*
X436077Y386283D01*
X435974Y385500D01*
X436077Y384717D01*
X436379Y383987D01*
X436860Y383360D01*
X437004Y383250D01*
Y382750D01*
X436860Y382640D01*
X436379Y382013D01*
X436077Y381283D01*
X435974Y380500D01*
X436077Y379717D01*
X436379Y378987D01*
X436860Y378360D01*
X437487Y377880D01*
X438217Y377577D01*
X439000Y377474D01*
X439783Y377577D01*
X440513Y377880D01*
X441140Y378360D01*
X441250Y378504D01*
X441750D01*
X441860Y378360D01*
X442487Y377880D01*
X443217Y377577D01*
X444000Y377474D01*
X444783Y377577D01*
X445513Y377880D01*
X446140Y378360D01*
X446621Y378987D01*
X446923Y379717D01*
X447026Y380500D01*
X446923Y381283D01*
X446621Y382013D01*
X446140Y382640D01*
X445513Y383120D01*
X444783Y383423D01*
X444000Y383526D01*
X443217Y383423D01*
X442487Y383120D01*
X441860Y382640D01*
X441750Y382496D01*
X441250D01*
X441140Y382640D01*
X440996Y382750D01*
Y383250D01*
X441140Y383360D01*
X441620Y383987D01*
X441923Y384717D01*
X442026Y385500D01*
X441923Y386283D01*
X441620Y387013D01*
X441140Y387640D01*
X440996Y387750D01*
Y388250D01*
X441140Y388360D01*
X441620Y388987D01*
X441923Y389717D01*
X442026Y390500D01*
X441923Y391283D01*
X441620Y392013D01*
X441140Y392640D01*
X441115Y392659D01*
X441089Y393203D01*
X441297Y393411D01*
X441841Y393385D01*
X441860Y393360D01*
X442487Y392880D01*
X443217Y392577D01*
X444000Y392474D01*
X444783Y392577D01*
X445513Y392880D01*
X446140Y393360D01*
X446621Y393987D01*
X446923Y394717D01*
X447026Y395500D01*
X446923Y396283D01*
X446621Y397013D01*
X446140Y397640D01*
X445513Y398120D01*
X444783Y398423D01*
X444000Y398526D01*
X443217Y398423D01*
X442487Y398120D01*
X441860Y397640D01*
X441750Y397496D01*
X441250D01*
X441140Y397640D01*
X440996Y397750D01*
Y398250D01*
X441140Y398360D01*
X441620Y398987D01*
X441923Y399717D01*
X442026Y400500D01*
X441923Y401283D01*
X441620Y402013D01*
X441140Y402640D01*
X440513Y403121D01*
X439783Y403423D01*
X439000Y403526D01*
D02*
G37*
G36*
X492500Y377663D02*
X491391Y377517D01*
X490357Y377089D01*
X489469Y376408D01*
X488788Y375520D01*
X488359Y374486D01*
X488213Y373376D01*
X488359Y372267D01*
X488788Y371233D01*
X489469Y370345D01*
X490357Y369664D01*
X491391Y369236D01*
X492500Y369090D01*
X493610Y369236D01*
X494643Y369664D01*
X495531Y370345D01*
X496212Y371233D01*
X496641Y372267D01*
X496787Y373376D01*
X496641Y374486D01*
X496212Y375520D01*
X495531Y376408D01*
X494643Y377089D01*
X493610Y377517D01*
X492500Y377663D01*
D02*
G37*
G36*
X294876Y367787D02*
X293767Y367641D01*
X292733Y367212D01*
X291845Y366531D01*
X291164Y365643D01*
X290736Y364610D01*
X290590Y363500D01*
X290736Y362390D01*
X291164Y361357D01*
X291845Y360469D01*
X292733Y359788D01*
X293767Y359359D01*
X294876Y359213D01*
X295986Y359359D01*
X297020Y359788D01*
X297907Y360469D01*
X298589Y361357D01*
X299017Y362390D01*
X299163Y363500D01*
X299017Y364610D01*
X298589Y365643D01*
X297907Y366531D01*
X297020Y367212D01*
X295986Y367641D01*
X294876Y367787D01*
D02*
G37*
G36*
X440500Y365224D02*
X439649Y365055D01*
X438928Y364573D01*
X438445Y363851D01*
X438276Y363000D01*
X438445Y362149D01*
X438879Y361500D01*
X438445Y360851D01*
X438276Y360000D01*
X438445Y359149D01*
X438879Y358500D01*
X438445Y357851D01*
X438276Y357000D01*
X438445Y356149D01*
X438928Y355428D01*
X439649Y354945D01*
X440500Y354776D01*
X441351Y354945D01*
X441374Y354961D01*
X471655D01*
X477440Y349176D01*
X477445Y349149D01*
X477927Y348428D01*
X478649Y347945D01*
X479500Y347776D01*
X480351Y347945D01*
X481073Y348428D01*
X481555Y349149D01*
X481690Y349828D01*
X481887Y350113D01*
X482172Y350310D01*
X482851Y350445D01*
X483572Y350927D01*
X484055Y351649D01*
X484190Y352328D01*
X484387Y352613D01*
X484672Y352810D01*
X485351Y352945D01*
X486072Y353428D01*
X486555Y354149D01*
X486724Y355000D01*
X486555Y355851D01*
X486072Y356573D01*
X485351Y357055D01*
X485324Y357060D01*
X477942Y364442D01*
X477280Y364884D01*
X476500Y365039D01*
X441374D01*
X441351Y365055D01*
X440500Y365224D01*
D02*
G37*
G36*
X312500Y349724D02*
X311649Y349555D01*
X310928Y349073D01*
X310445Y348351D01*
X310310Y347672D01*
X310113Y347387D01*
X309828Y347190D01*
X309149Y347055D01*
X308428Y346572D01*
X307945Y345851D01*
X307810Y345172D01*
X307613Y344887D01*
X307328Y344690D01*
X306649Y344555D01*
X305927Y344073D01*
X305445Y343351D01*
X305276Y342500D01*
X305445Y341649D01*
X305927Y340928D01*
X306649Y340445D01*
X306676Y340440D01*
X314058Y333058D01*
X314720Y332616D01*
X315500Y332461D01*
X350626D01*
X350649Y332445D01*
X351500Y332276D01*
X352351Y332445D01*
X353073Y332927D01*
X353555Y333649D01*
X353724Y334500D01*
X353555Y335351D01*
X353121Y336000D01*
X353555Y336649D01*
X353724Y337500D01*
X353555Y338351D01*
X353121Y339000D01*
X353555Y339649D01*
X353724Y340500D01*
X353555Y341351D01*
X353073Y342073D01*
X352351Y342555D01*
X351500Y342724D01*
X350649Y342555D01*
X350626Y342539D01*
X320345D01*
X314560Y348324D01*
X314555Y348351D01*
X314072Y349073D01*
X313351Y349555D01*
X312500Y349724D01*
D02*
G37*
G36*
X492624Y330787D02*
X491514Y330641D01*
X490480Y330212D01*
X489593Y329531D01*
X488911Y328643D01*
X488483Y327609D01*
X488337Y326500D01*
X488483Y325391D01*
X488911Y324357D01*
X489593Y323469D01*
X490480Y322788D01*
X491514Y322359D01*
X492624Y322213D01*
X493733Y322359D01*
X494767Y322788D01*
X495655Y323469D01*
X496336Y324357D01*
X496764Y325391D01*
X496910Y326500D01*
X496764Y327609D01*
X496336Y328643D01*
X495655Y329531D01*
X494767Y330212D01*
X493733Y330641D01*
X492624Y330787D01*
D02*
G37*
G36*
X294876D02*
X293767Y330641D01*
X292733Y330212D01*
X291845Y329531D01*
X291164Y328643D01*
X290736Y327609D01*
X290590Y326500D01*
X290736Y325391D01*
X291164Y324357D01*
X291845Y323469D01*
X292733Y322788D01*
X293767Y322359D01*
X294876Y322213D01*
X295986Y322359D01*
X297020Y322788D01*
X297907Y323469D01*
X298589Y324357D01*
X299017Y325391D01*
X299163Y326500D01*
X299017Y327609D01*
X298589Y328643D01*
X297907Y329531D01*
X297020Y330212D01*
X295986Y330641D01*
X294876Y330787D01*
D02*
G37*
G36*
X492624Y310787D02*
X491514Y310641D01*
X490480Y310212D01*
X489593Y309531D01*
X488911Y308643D01*
X488483Y307610D01*
X488337Y306500D01*
X488483Y305391D01*
X488911Y304357D01*
X489593Y303469D01*
X490480Y302788D01*
X491514Y302359D01*
X492624Y302213D01*
X493733Y302359D01*
X494767Y302788D01*
X495655Y303469D01*
X496336Y304357D01*
X496764Y305391D01*
X496910Y306500D01*
X496764Y307610D01*
X496336Y308643D01*
X495655Y309531D01*
X494767Y310212D01*
X493733Y310641D01*
X492624Y310787D01*
D02*
G37*
G36*
X294876D02*
X293767Y310641D01*
X292733Y310212D01*
X291845Y309531D01*
X291164Y308643D01*
X290736Y307610D01*
X290590Y306500D01*
X290736Y305391D01*
X291164Y304357D01*
X291845Y303469D01*
X292733Y302788D01*
X293767Y302359D01*
X294876Y302213D01*
X295986Y302359D01*
X297020Y302788D01*
X297907Y303469D01*
X298589Y304357D01*
X299017Y305391D01*
X299163Y306500D01*
X299017Y307610D01*
X298589Y308643D01*
X297907Y309531D01*
X297020Y310212D01*
X295986Y310641D01*
X294876Y310787D01*
D02*
G37*
G36*
X492624Y285787D02*
X491514Y285641D01*
X490480Y285212D01*
X489593Y284531D01*
X488911Y283643D01*
X488483Y282610D01*
X488337Y281500D01*
X488483Y280391D01*
X488911Y279357D01*
X489593Y278469D01*
X490480Y277788D01*
X491514Y277359D01*
X492624Y277213D01*
X493733Y277359D01*
X494767Y277788D01*
X495655Y278469D01*
X496336Y279357D01*
X496764Y280391D01*
X496910Y281500D01*
X496764Y282610D01*
X496336Y283643D01*
X495655Y284531D01*
X494767Y285212D01*
X493733Y285641D01*
X492624Y285787D01*
D02*
G37*
G36*
X294876D02*
X293767Y285641D01*
X292733Y285212D01*
X291845Y284531D01*
X291164Y283643D01*
X290736Y282610D01*
X290590Y281500D01*
X290736Y280391D01*
X291164Y279357D01*
X291845Y278469D01*
X292733Y277788D01*
X293767Y277359D01*
X294876Y277213D01*
X295986Y277359D01*
X297020Y277788D01*
X297907Y278469D01*
X298589Y279357D01*
X299017Y280391D01*
X299163Y281500D01*
X299017Y282610D01*
X298589Y283643D01*
X297907Y284531D01*
X297020Y285212D01*
X295986Y285641D01*
X294876Y285787D01*
D02*
G37*
G36*
X407729Y352027D02*
X406878Y351857D01*
X406157Y351375D01*
X405675Y350654D01*
X405505Y349803D01*
X405675Y348952D01*
X406157Y348230D01*
X406349Y348102D01*
Y347122D01*
X406465Y346536D01*
X406797Y346040D01*
X407971Y344866D01*
Y273500D01*
X408087Y272915D01*
X408419Y272419D01*
X417786Y263051D01*
X417776Y263000D01*
X417945Y262149D01*
X418428Y261427D01*
X419149Y260945D01*
X420000Y260776D01*
X420851Y260945D01*
X421572Y261427D01*
X422055Y262149D01*
X422224Y263000D01*
X422055Y263851D01*
X421572Y264573D01*
X420851Y265055D01*
X420000Y265224D01*
X419949Y265214D01*
X411029Y274133D01*
Y279154D01*
X411491Y279346D01*
X427786Y263051D01*
X427776Y263000D01*
X427945Y262149D01*
X428428Y261427D01*
X429149Y260945D01*
X430000Y260776D01*
X430851Y260945D01*
X431572Y261427D01*
X432055Y262149D01*
X432224Y263000D01*
X432055Y263851D01*
X431572Y264573D01*
X430851Y265055D01*
X430000Y265224D01*
X429949Y265214D01*
X413029Y282134D01*
Y348061D01*
X413036Y348066D01*
X413518Y348787D01*
X413688Y349638D01*
X413518Y350489D01*
X413036Y351211D01*
X412315Y351693D01*
X411464Y351862D01*
X410613Y351693D01*
X409975Y351267D01*
X409558Y351211D01*
X409412D01*
X409302Y351375D01*
X408580Y351857D01*
X407729Y352027D01*
D02*
G37*
G36*
X492624Y265787D02*
X491514Y265641D01*
X490480Y265212D01*
X489593Y264531D01*
X488911Y263643D01*
X488483Y262610D01*
X488337Y261500D01*
X488483Y260390D01*
X488911Y259357D01*
X489593Y258469D01*
X490480Y257788D01*
X491514Y257359D01*
X492624Y257213D01*
X493733Y257359D01*
X494767Y257788D01*
X495655Y258469D01*
X496336Y259357D01*
X496764Y260390D01*
X496910Y261500D01*
X496764Y262610D01*
X496336Y263643D01*
X495655Y264531D01*
X494767Y265212D01*
X493733Y265641D01*
X492624Y265787D01*
D02*
G37*
G36*
X294876D02*
X293767Y265641D01*
X292733Y265212D01*
X291845Y264531D01*
X291164Y263643D01*
X290736Y262610D01*
X290590Y261500D01*
X290736Y260390D01*
X291164Y259357D01*
X291845Y258469D01*
X292733Y257788D01*
X293767Y257359D01*
X294876Y257213D01*
X295986Y257359D01*
X297020Y257788D01*
X297907Y258469D01*
X298589Y259357D01*
X299017Y260390D01*
X299163Y261500D01*
X299017Y262610D01*
X298589Y263643D01*
X297907Y264531D01*
X297020Y265212D01*
X295986Y265641D01*
X294876Y265787D01*
D02*
G37*
G36*
X366795Y261862D02*
X365490Y261690D01*
X364274Y261186D01*
X363229Y260385D01*
X362428Y259341D01*
X361924Y258124D01*
X361752Y256819D01*
X361924Y255514D01*
X362428Y254297D01*
X363229Y253253D01*
X364274Y252451D01*
X365490Y251948D01*
X366795Y251776D01*
X368101Y251948D01*
X369317Y252451D01*
X370361Y253253D01*
X371163Y254297D01*
X371667Y255514D01*
X371838Y256819D01*
X371667Y258124D01*
X371163Y259341D01*
X370361Y260385D01*
X369317Y261186D01*
X368101Y261690D01*
X366795Y261862D01*
D02*
G37*
G36*
X430000Y244787D02*
X428891Y244641D01*
X427857Y244212D01*
X426969Y243531D01*
X426288Y242643D01*
X425859Y241610D01*
X425713Y240500D01*
X425859Y239390D01*
X426288Y238357D01*
X426969Y237469D01*
X427857Y236788D01*
X428891Y236359D01*
X430000Y236213D01*
X431110Y236359D01*
X432143Y236788D01*
X433031Y237469D01*
X433712Y238357D01*
X434141Y239390D01*
X434287Y240500D01*
X434141Y241610D01*
X433712Y242643D01*
X433031Y243531D01*
X432143Y244212D01*
X431110Y244641D01*
X430000Y244787D01*
D02*
G37*
G36*
X420000D02*
X418890Y244641D01*
X417857Y244212D01*
X416969Y243531D01*
X416288Y242643D01*
X415859Y241610D01*
X415713Y240500D01*
X415859Y239390D01*
X416288Y238357D01*
X416969Y237469D01*
X417857Y236788D01*
X418890Y236359D01*
X420000Y236213D01*
X421109Y236359D01*
X422143Y236788D01*
X423031Y237469D01*
X423712Y238357D01*
X424141Y239390D01*
X424287Y240500D01*
X424141Y241610D01*
X423712Y242643D01*
X423031Y243531D01*
X422143Y244212D01*
X421109Y244641D01*
X420000Y244787D01*
D02*
G37*
G36*
X357701D02*
X356591Y244641D01*
X355557Y244212D01*
X354670Y243531D01*
X353988Y242643D01*
X353560Y241610D01*
X353414Y240500D01*
X353560Y239390D01*
X353988Y238357D01*
X354670Y237469D01*
X355557Y236788D01*
X356591Y236359D01*
X357701Y236213D01*
X358810Y236359D01*
X359844Y236788D01*
X360732Y237469D01*
X361413Y238357D01*
X361841Y239390D01*
X361987Y240500D01*
X361841Y241610D01*
X361413Y242643D01*
X360732Y243531D01*
X359844Y244212D01*
X358810Y244641D01*
X357701Y244787D01*
D02*
G37*
G36*
X378313Y250410D02*
X377156Y250154D01*
X376105Y249607D01*
X375232Y248806D01*
X375116Y248624D01*
X375040Y248566D01*
X374239Y247522D01*
X373735Y246305D01*
X373563Y245000D01*
X373726Y243766D01*
X373197Y240768D01*
X373145Y239584D01*
X373402Y238427D01*
X373949Y237376D01*
X374749Y236503D01*
X375749Y235866D01*
X376879Y235510D01*
X378063Y235458D01*
X379219Y235715D01*
X380270Y236262D01*
X381144Y237062D01*
X381781Y238062D01*
X382137Y239192D01*
X382640Y242043D01*
X382974Y242478D01*
X383478Y243695D01*
X383649Y245000D01*
X383478Y246305D01*
X382974Y247522D01*
X382844Y247691D01*
X382427Y248492D01*
X381626Y249366D01*
X380627Y250002D01*
X379497Y250359D01*
X378313Y250410D01*
D02*
G37*
G36*
X367026Y250252D02*
X365842Y250200D01*
X364712Y249844D01*
X363713Y249207D01*
X362912Y248334D01*
X362619Y247771D01*
X362428Y247522D01*
X361924Y246305D01*
X361752Y245000D01*
X361924Y243695D01*
X362428Y242478D01*
X362645Y242196D01*
X363202Y239033D01*
X363558Y237903D01*
X364195Y236904D01*
X365069Y236104D01*
X366120Y235556D01*
X367276Y235300D01*
X368460Y235352D01*
X369590Y235708D01*
X370589Y236345D01*
X371390Y237218D01*
X371937Y238269D01*
X372194Y239426D01*
X372142Y240610D01*
X371618Y243579D01*
X371667Y243695D01*
X371838Y245000D01*
X371667Y246305D01*
X371163Y247522D01*
X370361Y248566D01*
X369347Y249344D01*
X369233Y249448D01*
X368182Y249995D01*
X367026Y250252D01*
D02*
G37*
G36*
X515748Y227506D02*
X514376Y227371D01*
X513056Y226971D01*
X511840Y226321D01*
X510774Y225446D01*
X509900Y224380D01*
X509250Y223164D01*
X508849Y221845D01*
X508714Y220472D01*
X508849Y219100D01*
X509250Y217781D01*
X509900Y216565D01*
X510774Y215499D01*
X511840Y214624D01*
X513056Y213974D01*
X514376Y213574D01*
X515748Y213439D01*
X517120Y213574D01*
X518440Y213974D01*
X519656Y214624D01*
X520722Y215499D01*
X521596Y216565D01*
X522247Y217781D01*
X522647Y219100D01*
X522782Y220472D01*
X522647Y221845D01*
X522247Y223164D01*
X521596Y224380D01*
X520722Y225446D01*
X519656Y226321D01*
X518440Y226971D01*
X517120Y227371D01*
X515748Y227506D01*
D02*
G37*
%LPD*%
G36*
X448951Y536496D02*
X449167Y536297D01*
X449015Y535530D01*
X449184Y534679D01*
X449666Y533958D01*
X450388Y533476D01*
X450512Y533451D01*
X450553Y533035D01*
X450538Y532936D01*
X449839Y532469D01*
X449357Y531747D01*
X449188Y530896D01*
X449357Y530045D01*
X449702Y529529D01*
X449449Y529029D01*
X446287D01*
X446123Y529855D01*
X445641Y530576D01*
X444919Y531058D01*
X444068Y531228D01*
X443417Y531098D01*
X442916Y531413D01*
Y534016D01*
X443417Y534149D01*
X443820Y533545D01*
X444541Y533063D01*
X445392Y532894D01*
X446243Y533063D01*
X446965Y533545D01*
X447447Y534267D01*
X447616Y535118D01*
X447560Y535397D01*
X448755Y536592D01*
X448951Y536496D01*
D02*
G37*
G36*
X413659Y507093D02*
Y502322D01*
X402537Y491200D01*
X402148Y491518D01*
X402236Y491649D01*
X402405Y492500D01*
X402236Y493351D01*
X401754Y494072D01*
X401032Y494555D01*
X400181Y494724D01*
X399922Y494672D01*
X399676Y495133D01*
X410163Y505620D01*
X410187Y505604D01*
X411038Y505434D01*
X411889Y505604D01*
X412611Y506085D01*
X413093Y506807D01*
X413160Y507143D01*
X413659Y507093D01*
D02*
G37*
G36*
X405123Y476493D02*
X405974Y476324D01*
X406025Y476334D01*
X406462Y475897D01*
X406297Y475354D01*
X405939Y475283D01*
X405218Y474801D01*
X404736Y474080D01*
X404567Y473229D01*
X404736Y472378D01*
X405218Y471656D01*
X405939Y471174D01*
X406790Y471005D01*
X406841Y471015D01*
X407971Y469886D01*
Y458543D01*
X407471Y458228D01*
X406819Y458358D01*
X405968Y458188D01*
X405246Y457706D01*
X405218Y457663D01*
X402681D01*
X398395Y461949D01*
X398405Y462000D01*
X398236Y462851D01*
X397860Y463413D01*
X397892Y464035D01*
X398137Y464199D01*
X398620Y464921D01*
X398781Y465734D01*
X399187Y466061D01*
X399398Y466019D01*
X400249Y466189D01*
X400970Y466671D01*
X401067Y466816D01*
X401567D01*
X401760Y466527D01*
X402482Y466045D01*
X403333Y465876D01*
X404184Y466045D01*
X404905Y466527D01*
X405387Y467249D01*
X405557Y468100D01*
X405387Y468951D01*
X404905Y469672D01*
X404184Y470154D01*
X404029Y470185D01*
Y476701D01*
X404529Y476890D01*
X405123Y476493D01*
D02*
G37*
G36*
X312894Y348606D02*
X313689Y347811D01*
X313691Y347808D01*
X313712Y347757D01*
X313783Y347686D01*
X313839Y347603D01*
X319624Y341818D01*
X319799Y341701D01*
X320000Y341500D01*
X351500D01*
X352500Y340500D01*
Y339906D01*
X352273Y339566D01*
D01*
D01*
X352273Y339566D01*
X352216Y339427D01*
X352121Y339199D01*
Y339199D01*
Y338801D01*
Y338801D01*
X352273Y338434D01*
X352273Y338434D01*
X352500Y338094D01*
Y336906D01*
X352273Y336566D01*
D01*
D01*
X352273Y336566D01*
X352216Y336427D01*
X352121Y336199D01*
Y336199D01*
Y335801D01*
Y335801D01*
X352273Y335434D01*
X352273Y335434D01*
X352500Y335094D01*
Y334500D01*
X351500Y333500D01*
X315502D01*
X315118Y333576D01*
X314708Y333850D01*
X307397Y341161D01*
X307314Y341217D01*
X307243Y341288D01*
X307192Y341308D01*
X307189Y341311D01*
X306500Y342000D01*
Y343000D01*
X307106Y343606D01*
X307527Y343690D01*
X307535Y343693D01*
X307544Y343693D01*
X307718Y343769D01*
X307895Y343842D01*
X307901Y343848D01*
X307909Y343851D01*
X308194Y344049D01*
X308320Y344180D01*
X308451Y344306D01*
X308648Y344591D01*
X308652Y344599D01*
X308658Y344605D01*
X308731Y344782D01*
X308807Y344956D01*
X308807Y344965D01*
X308810Y344973D01*
X308894Y345394D01*
X309606Y346106D01*
X310027Y346190D01*
X310035Y346193D01*
X310044Y346193D01*
X310218Y346269D01*
X310395Y346342D01*
X310401Y346348D01*
X310409Y346352D01*
X310694Y346549D01*
X310820Y346680D01*
X310951Y346806D01*
X311149Y347091D01*
X311152Y347099D01*
X311158Y347105D01*
X311231Y347282D01*
X311307Y347456D01*
X311307Y347465D01*
X311310Y347473D01*
X311394Y347894D01*
X312106Y348606D01*
X312500Y348684D01*
X312894Y348606D01*
D02*
G37*
D10*
X365879Y469379D02*
X365879D01*
X377721Y480258D02*
X377982Y480518D01*
X376758Y480258D02*
X377721D01*
X365879Y469379D02*
X376758Y480258D01*
X380149Y541055D02*
X381703Y539500D01*
X385000Y542181D02*
X385181Y542000D01*
X393500Y539500D02*
X400000Y533000D01*
X381703Y539500D02*
X393500D01*
X385181Y542000D02*
X394000D01*
X400000Y533000D02*
X409500D01*
X394000Y542000D02*
X400500Y535500D01*
X408500D01*
X401085Y538706D02*
X403500Y541121D01*
X387531Y530819D02*
X387856D01*
Y530775D02*
Y530819D01*
Y530775D02*
X388500Y530131D01*
X447000Y518500D02*
Y521000D01*
X441387Y526613D02*
Y537084D01*
Y526613D02*
X447000Y521000D01*
X441387Y537084D02*
X442491Y538189D01*
X393500Y419000D02*
X399500Y413000D01*
X393500Y419000D02*
Y484500D01*
X396000Y411000D02*
Y411572D01*
X391500Y416072D02*
X396000Y411572D01*
X419500Y528500D02*
X426500D01*
X429000Y519355D02*
Y526000D01*
X426500Y528500D02*
X429000Y526000D01*
Y519355D02*
X441178Y507177D01*
X442491Y538189D02*
Y538557D01*
X451239Y535530D02*
X460320D01*
X464302Y539512D01*
X460396Y530896D02*
X464500Y535000D01*
X451412Y530896D02*
X460396D01*
X462130Y527500D02*
X469719Y535089D01*
X445572Y527500D02*
X462130D01*
X372000Y507429D02*
X374319Y505111D01*
X372000Y507429D02*
Y508000D01*
X349000Y460985D02*
X374319Y486304D01*
Y505111D01*
X347000Y461814D02*
X371638Y486451D01*
Y504000D01*
X377000Y486157D02*
Y508000D01*
X372000Y513000D02*
X377000Y508000D01*
X342500Y494500D02*
X365000Y517000D01*
X375000D01*
X351000Y460157D02*
X377000Y486157D01*
X349000Y447070D02*
Y460985D01*
X383061Y513908D02*
X383819Y513150D01*
Y496647D02*
Y513150D01*
X385819Y495819D02*
Y525606D01*
X379500Y485828D02*
Y492328D01*
X383819Y496647D01*
X355000Y458500D02*
X365879Y469379D01*
X353000Y459328D02*
X379500Y485828D01*
X394500Y504000D02*
X394869D01*
X383500Y490500D02*
X388500Y495500D01*
Y530131D01*
X395514Y504646D02*
X395646D01*
X381500Y491500D02*
X385819Y495819D01*
X394869Y504000D02*
X395514Y504646D01*
X395646D02*
X419500Y528500D01*
X381500Y476500D02*
Y491500D01*
X383500Y474500D02*
Y490500D01*
X385500Y489500D02*
X420883Y524883D01*
X385500Y472000D02*
Y489500D01*
X387500Y487949D02*
X410846Y511295D01*
X389500Y487120D02*
X409777Y507397D01*
X397708Y492500D02*
X400181D01*
X391500Y486292D02*
X397708Y492500D01*
X391500Y416072D02*
Y486292D01*
X353000Y443000D02*
Y459328D01*
X405974Y478548D02*
X411500Y473022D01*
X399398Y482898D02*
X418500Y502000D01*
X399398Y468243D02*
Y482898D01*
X402500Y469500D02*
X402721Y469279D01*
X402500Y483000D02*
X421181Y501681D01*
X402500Y469500D02*
Y483000D01*
X402721Y469080D02*
X403333Y468468D01*
X402721Y469080D02*
Y469279D01*
X403333Y468100D02*
Y468468D01*
X369000Y455500D02*
X385500Y472000D01*
X365000Y456000D02*
X383500Y474500D01*
X365000Y456000D02*
X365000D01*
X364500Y459500D02*
X381500Y476500D01*
X379500Y442500D02*
Y453592D01*
X377500Y445000D02*
Y450000D01*
X368000Y435500D02*
X377500Y445000D01*
X374000Y453500D02*
X377500Y450000D01*
X372500Y435500D02*
X379500Y442500D01*
X379442Y453650D02*
X379500Y453592D01*
X382000Y451057D02*
X382751Y451808D01*
X384780Y438780D02*
Y448114D01*
X382000Y441000D02*
Y451057D01*
X382751Y451808D02*
Y452564D01*
X384780Y448114D02*
X384819Y448153D01*
X376500Y435500D02*
X382000Y441000D01*
X382751Y452564D02*
X383011Y452824D01*
X382000Y436000D02*
X384780Y438780D01*
X413000Y484182D02*
X427587Y469595D01*
X413000Y484182D02*
Y488500D01*
X396500Y465837D02*
Y483000D01*
X415189Y501689D02*
Y513258D01*
X421181Y501681D02*
Y521220D01*
X396500Y483000D02*
X415189Y501689D01*
X418500Y502000D02*
Y516689D01*
X347000Y449000D02*
Y461814D01*
X331500Y433500D02*
X347000Y449000D01*
X393500Y484500D02*
X397500Y488500D01*
X389500Y434000D02*
Y487120D01*
X387500Y435500D02*
Y487949D01*
X355000Y441098D02*
Y458500D01*
X410846Y511295D02*
X411087D01*
X409777Y507397D02*
X410778D01*
X396500Y465837D02*
X396565Y465772D01*
X396181Y462000D02*
X402047Y456134D01*
X406819D01*
X414500Y458500D02*
X419903D01*
X368500Y416500D02*
X387500Y435500D01*
X373500Y418000D02*
X389500Y434000D01*
X335000Y425000D02*
X353000Y443000D01*
X331465Y429535D02*
X349000Y447070D01*
X351000Y445278D02*
Y460157D01*
X338622Y424719D02*
X355000Y441098D01*
X335349Y429627D02*
X351000Y445278D01*
X419903Y458500D02*
X433269Y445134D01*
X425500Y459000D02*
X433500Y451000D01*
X409500Y273500D02*
Y345500D01*
X407878Y347122D02*
X409500Y345500D01*
X407729Y349803D02*
X407878Y349654D01*
Y347122D02*
Y349654D01*
X411500Y281500D02*
Y349602D01*
X411464Y349638D02*
X411500Y349602D01*
Y281500D02*
X430000Y263000D01*
X407455Y384511D02*
X409500Y386557D01*
Y470519D01*
X411500Y384311D02*
X411519Y384292D01*
X411500Y384311D02*
Y473022D01*
X406790Y473229D02*
X409500Y470519D01*
Y273500D02*
X420000Y263000D01*
X409500Y533000D02*
X424000Y547500D01*
X439579D01*
X446717Y554638D01*
X408500Y535500D02*
X423500Y550500D01*
X403500Y541121D02*
Y549000D01*
X402246Y552500D02*
X412500D01*
X397676Y547930D02*
X402246Y552500D01*
X418467Y516722D02*
X418500Y516689D01*
X420883Y524883D02*
X424328D01*
X410778Y507397D02*
X411038Y507658D01*
X373500Y380500D02*
Y418000D01*
X368500Y380500D02*
Y416500D01*
X445392Y535118D02*
Y535392D01*
X449500Y539500D01*
X459500D01*
X465987Y545987D02*
X476101D01*
X459500Y539500D02*
X465987Y545987D01*
X444723Y528349D02*
X444723D01*
X444068Y529004D02*
X444723Y528349D01*
X444723D02*
X445572Y527500D01*
X520000Y571999D02*
Y568000D01*
X516001Y571999D01*
X515002D01*
X514002Y570999D01*
Y569000D01*
X515002Y568000D01*
D51*
X515748Y220472D02*
D03*
Y582677D02*
D03*
X271654Y220472D02*
D03*
X271500Y582677D02*
D03*
D69*
X440500Y357000D02*
X472500D01*
X479500Y350000D01*
X474500Y360000D02*
X482000Y352500D01*
X440500Y360000D02*
X474500D01*
X476500Y363000D02*
X484500Y355000D01*
X440500Y363000D02*
X476500D01*
X315500Y334500D02*
X351500D01*
X307500Y342500D02*
X315500Y334500D01*
X317500Y337500D02*
X351500D01*
X310000Y345000D02*
X317500Y337500D01*
X312500Y347500D02*
X319500Y340500D01*
X351500D01*
X374102Y538375D02*
X375478Y537000D01*
X390500D01*
X400527Y526973D01*
X395000Y521500D02*
Y528257D01*
X368097Y534000D02*
X389257D01*
X395000Y528257D01*
X400527Y524597D02*
X404624Y520500D01*
X400527Y524597D02*
Y526973D01*
X368023Y534074D02*
X368097Y534000D01*
D70*
X243315Y570815D02*
X249315Y564815D01*
X243315Y229685D02*
Y229815D01*
X543870Y229630D02*
X544185D01*
X541815Y570815D02*
X544185D01*
D71*
X249315Y223685D02*
D03*
X237315D02*
D03*
Y235685D02*
D03*
X234815Y229685D02*
D03*
X243315Y221185D02*
D03*
X249315Y235685D02*
D03*
X251815Y229685D02*
D03*
X243315Y238185D02*
D03*
Y579315D02*
D03*
X251815Y570815D02*
D03*
X249315Y576815D02*
D03*
X243315Y562315D02*
D03*
X234815Y570815D02*
D03*
X237315Y576815D02*
D03*
Y564815D02*
D03*
X249315D02*
D03*
X550185D02*
D03*
X538185D02*
D03*
Y576815D02*
D03*
X535685Y570815D02*
D03*
X544185Y562315D02*
D03*
X550185Y576815D02*
D03*
X552685Y570815D02*
D03*
X544185Y579315D02*
D03*
Y238130D02*
D03*
X552685Y229630D02*
D03*
X550185Y235630D02*
D03*
X544185Y221130D02*
D03*
X535685Y229630D02*
D03*
X538185Y235630D02*
D03*
Y223630D02*
D03*
X550185D02*
D03*
D72*
X243315Y229685D02*
D03*
Y570815D02*
D03*
X544185D02*
D03*
Y229630D02*
D03*
D73*
X367151Y242776D02*
D03*
D74*
X378188Y242934D02*
D03*
D75*
X378606Y245000D02*
D03*
X366795D02*
D03*
X378606Y256819D02*
D03*
X366795D02*
D03*
D76*
X516535Y237402D02*
D03*
X270866D02*
D03*
X516535Y537402D02*
D03*
X270866D02*
D03*
D77*
X488701Y575551D02*
D03*
Y585551D02*
D03*
X478701Y575551D02*
D03*
Y585551D02*
D03*
X468701Y575551D02*
D03*
Y585551D02*
D03*
X458701Y575551D02*
D03*
Y585551D02*
D03*
X448701Y575551D02*
D03*
Y585551D02*
D03*
X438701Y575551D02*
D03*
Y585551D02*
D03*
X428701Y575551D02*
D03*
Y585551D02*
D03*
X418701Y575551D02*
D03*
Y585551D02*
D03*
X408701Y575551D02*
D03*
Y585551D02*
D03*
X398701Y575551D02*
D03*
Y585551D02*
D03*
X388701Y575551D02*
D03*
Y585551D02*
D03*
X378701Y575551D02*
D03*
Y585551D02*
D03*
X368701Y575551D02*
D03*
Y585551D02*
D03*
X358701Y575551D02*
D03*
Y585551D02*
D03*
X348701Y575551D02*
D03*
Y585551D02*
D03*
X338701Y575551D02*
D03*
Y585551D02*
D03*
X328701Y575551D02*
D03*
Y585551D02*
D03*
X318701Y575551D02*
D03*
Y585551D02*
D03*
X308701Y575551D02*
D03*
Y585551D02*
D03*
X298701Y575551D02*
D03*
Y585551D02*
D03*
D78*
X430000Y240500D02*
D03*
X420000D02*
D03*
X410000D02*
D03*
X294876Y504000D02*
D03*
Y514000D02*
D03*
X492500Y513376D02*
D03*
Y503376D02*
D03*
X294876Y468500D02*
D03*
Y478500D02*
D03*
X492500Y478376D02*
D03*
Y468376D02*
D03*
X294876Y433500D02*
D03*
Y443500D02*
D03*
X492500Y443376D02*
D03*
Y433376D02*
D03*
X294876Y398500D02*
D03*
Y408500D02*
D03*
X492500Y408376D02*
D03*
Y398376D02*
D03*
X294876Y363500D02*
D03*
Y373500D02*
D03*
X492500Y373376D02*
D03*
Y363376D02*
D03*
X294876Y306500D02*
D03*
Y316500D02*
D03*
Y326500D02*
D03*
X492624D02*
D03*
Y316500D02*
D03*
Y306500D02*
D03*
X294876Y261500D02*
D03*
Y271500D02*
D03*
Y281500D02*
D03*
X492624D02*
D03*
Y271500D02*
D03*
Y261500D02*
D03*
X492000Y241500D02*
D03*
X482000D02*
D03*
X472000D02*
D03*
X315500D02*
D03*
X305500D02*
D03*
X295500D02*
D03*
X357701Y240500D02*
D03*
X367701D02*
D03*
X377701D02*
D03*
X387701D02*
D03*
D79*
X439000Y390500D02*
D03*
X444000D02*
D03*
Y385500D02*
D03*
X439000D02*
D03*
Y380500D02*
D03*
X444000D02*
D03*
Y395500D02*
D03*
X439000D02*
D03*
Y400500D02*
D03*
X444000D02*
D03*
D80*
X440500Y357000D02*
D03*
Y360000D02*
D03*
Y363000D02*
D03*
X479500Y350000D02*
D03*
X482000Y352500D02*
D03*
X484500Y355000D02*
D03*
X307500Y342500D02*
D03*
X310000Y345000D02*
D03*
X312500Y347500D02*
D03*
X351500Y334500D02*
D03*
Y337500D02*
D03*
Y340500D02*
D03*
X374102Y538375D02*
D03*
X385000Y542181D02*
D03*
X380149Y541055D02*
D03*
X401085Y538706D02*
D03*
X368023Y534074D02*
D03*
X387531Y530819D02*
D03*
X395000Y521500D02*
D03*
X447000Y518500D02*
D03*
X399500Y413000D02*
D03*
X396000Y411000D02*
D03*
X371638Y504000D02*
D03*
X372000Y508000D02*
D03*
Y513000D02*
D03*
X375000Y517000D02*
D03*
X383061Y513908D02*
D03*
X377982Y480518D02*
D03*
X394500Y504000D02*
D03*
X405974Y478548D02*
D03*
X384819Y448153D02*
D03*
X374000Y453500D02*
D03*
X369000Y455500D02*
D03*
X364500Y459500D02*
D03*
X379442Y453650D02*
D03*
X365000Y456000D02*
D03*
X368000Y435500D02*
D03*
X372500D02*
D03*
X383011Y452824D02*
D03*
X371000Y442876D02*
D03*
X376500Y435500D02*
D03*
X382000Y436000D02*
D03*
X413000Y488500D02*
D03*
X400181Y492500D02*
D03*
X427587Y469595D02*
D03*
X331500Y433500D02*
D03*
X396181Y462000D02*
D03*
X399398Y468243D02*
D03*
X396565Y465772D02*
D03*
X397500Y488500D02*
D03*
X425500Y459000D02*
D03*
X411087Y511295D02*
D03*
X411038Y507658D02*
D03*
X406790Y473229D02*
D03*
X444068Y529004D02*
D03*
X403333Y468100D02*
D03*
X414500Y458500D02*
D03*
X451412Y530896D02*
D03*
X445392Y535118D02*
D03*
X451239Y535530D02*
D03*
X397676Y547930D02*
D03*
X406819Y456134D02*
D03*
X396181Y442876D02*
D03*
X331465Y429535D02*
D03*
X335349Y429627D02*
D03*
X359268Y452000D02*
D03*
X335000Y425000D02*
D03*
X338622Y424719D02*
D03*
X433269Y445134D02*
D03*
X433500Y451000D02*
D03*
X451500Y349000D02*
D03*
X403500Y299500D02*
D03*
X403000Y312500D02*
D03*
Y309000D02*
D03*
X407729Y349803D02*
D03*
X411464Y349638D02*
D03*
X407455Y384511D02*
D03*
X411519Y384292D02*
D03*
X427000Y326000D02*
D03*
Y329000D02*
D03*
X342500Y494500D02*
D03*
X423500Y550500D02*
D03*
X446717Y554638D02*
D03*
X403500Y549000D02*
D03*
X412500Y552500D02*
D03*
X415189Y513258D02*
D03*
X441178Y507177D02*
D03*
X469719Y535089D02*
D03*
X335000Y493500D02*
D03*
X437000Y348000D02*
D03*
X385819Y525606D02*
D03*
X421181Y521220D02*
D03*
X424328Y524883D02*
D03*
X418467Y516722D02*
D03*
X400000Y284500D02*
D03*
Y275000D02*
D03*
Y278000D02*
D03*
Y281500D02*
D03*
X430000Y263000D02*
D03*
X420000D02*
D03*
X373500Y380500D02*
D03*
X381500Y385449D02*
D03*
X368500Y380500D02*
D03*
X442491Y538557D02*
D03*
X476101Y545987D02*
D03*
X464302Y539512D02*
D03*
X464500Y535000D02*
D03*
X356500Y489500D02*
D03*
X338000Y474500D02*
D03*
X349500Y401500D02*
D03*
X354500Y390500D02*
D03*
X347000Y299500D02*
D03*
X346500Y312500D02*
D03*
Y309000D02*
D03*
X272000Y555000D02*
D03*
X275500D02*
D03*
X279000D02*
D03*
X275500Y551500D02*
D03*
X279000D02*
D03*
Y548000D02*
D03*
X503000Y571000D02*
D03*
X506500D02*
D03*
Y574500D02*
D03*
X410000Y248500D02*
D03*
X404000Y240500D02*
D03*
X432000Y476376D02*
D03*
X404624Y520500D02*
D03*
X451500Y321000D02*
D03*
Y317500D02*
D03*
X343500Y274500D02*
D03*
X381500Y406709D02*
D03*
X345000Y357000D02*
D03*
X370500Y329000D02*
D03*
Y326000D02*
D03*
X380500Y327000D02*
D03*
Y330000D02*
D03*
Y333000D02*
D03*
Y336000D02*
D03*
Y339000D02*
D03*
Y342000D02*
D03*
Y345000D02*
D03*
Y348000D02*
D03*
X437000Y345000D02*
D03*
Y342000D02*
D03*
Y339000D02*
D03*
Y336000D02*
D03*
Y333000D02*
D03*
Y330000D02*
D03*
Y327000D02*
D03*
X343500Y284000D02*
D03*
Y281000D02*
D03*
Y277500D02*
D03*
X451500Y324500D02*
D03*
Y328000D02*
D03*
Y331500D02*
D03*
Y335000D02*
D03*
Y338500D02*
D03*
Y342000D02*
D03*
Y345500D02*
D03*
M02*
