G04*
G04 #@! TF.GenerationSoftware,Altium Limited,Altium Designer,20.1.12 (249)*
G04*
G04 Layer_Color=32896*
%FSLAX25Y25*%
%MOIN*%
G70*
G04*
G04 #@! TF.SameCoordinates,2042196E-867F-4DAE-B54E-166F92C2B522*
G04*
G04*
G04 #@! TF.FilePolarity,Positive*
G04*
G01*
G75*
%ADD10C,0.01000*%
%ADD12C,0.00800*%
%ADD14C,0.00600*%
%ADD81R,0.88500X0.17500*%
G36*
X373865Y548662D02*
X373996D01*
Y548531D01*
Y548400D01*
Y548268D01*
X374127D01*
Y548137D01*
Y548006D01*
Y547874D01*
X374258D01*
Y547743D01*
Y547612D01*
X374390D01*
Y547481D01*
Y547349D01*
Y547218D01*
Y547087D01*
X374521D01*
Y546955D01*
X374390D01*
Y546824D01*
Y546693D01*
X374652D01*
Y546561D01*
Y546430D01*
Y546299D01*
Y546168D01*
Y546036D01*
X374784D01*
Y545905D01*
Y545774D01*
Y545643D01*
X374915D01*
Y545511D01*
Y545380D01*
Y545249D01*
X375046D01*
Y545117D01*
Y544986D01*
Y544855D01*
X375178D01*
Y544723D01*
Y544592D01*
X375309D01*
Y544461D01*
Y544330D01*
Y544198D01*
X375440D01*
Y544067D01*
Y543936D01*
Y543804D01*
X375571D01*
Y543673D01*
Y543542D01*
X375703D01*
Y543410D01*
Y543279D01*
Y543148D01*
X375834D01*
Y543016D01*
Y542885D01*
Y542754D01*
Y542623D01*
X375965D01*
Y542491D01*
Y542360D01*
Y542229D01*
Y542098D01*
Y541966D01*
X376228D01*
Y541835D01*
X376097D01*
Y541704D01*
Y541572D01*
X376228D01*
Y541441D01*
Y541310D01*
Y541178D01*
X376359D01*
Y541047D01*
Y540916D01*
X376490D01*
Y540785D01*
X368481D01*
Y540916D01*
Y541047D01*
Y541178D01*
Y541310D01*
Y541441D01*
X368350D01*
Y541572D01*
Y541704D01*
X368219D01*
Y541835D01*
Y541966D01*
Y542098D01*
X368088D01*
Y542229D01*
Y542360D01*
Y542491D01*
Y542623D01*
X367956D01*
Y542754D01*
Y542885D01*
X367825D01*
Y543016D01*
Y543148D01*
Y543279D01*
X367694D01*
Y543410D01*
Y543542D01*
Y543673D01*
X367562D01*
Y543804D01*
Y543936D01*
Y544067D01*
X367431D01*
Y544198D01*
Y544330D01*
X367300D01*
Y544461D01*
Y544592D01*
Y544723D01*
X367168D01*
Y544855D01*
Y544986D01*
Y545117D01*
Y545249D01*
Y545380D01*
X367037D01*
Y545511D01*
Y545643D01*
Y545774D01*
X366906D01*
Y545905D01*
Y546036D01*
Y546168D01*
X366775D01*
Y546299D01*
Y546430D01*
Y546561D01*
X366643D01*
Y546693D01*
Y546824D01*
X366512D01*
Y546955D01*
Y547087D01*
Y547218D01*
Y547349D01*
X366381D01*
Y547481D01*
Y547612D01*
Y547743D01*
X366249D01*
Y547874D01*
Y548006D01*
Y548137D01*
X366118D01*
Y548268D01*
Y548400D01*
X365987D01*
Y548531D01*
Y548662D01*
Y548794D01*
X373865D01*
Y548662D01*
D02*
G37*
G36*
X357978D02*
Y548531D01*
X358109D01*
Y548400D01*
Y548268D01*
Y548137D01*
X358240D01*
Y548006D01*
Y547874D01*
Y547743D01*
X358372D01*
Y547612D01*
Y547481D01*
X358503D01*
Y547349D01*
Y547218D01*
Y547087D01*
X358634D01*
Y546955D01*
Y546824D01*
Y546693D01*
Y546561D01*
X358766D01*
Y546430D01*
Y546299D01*
Y546168D01*
X358897D01*
Y546036D01*
Y545905D01*
X359028D01*
Y545774D01*
Y545643D01*
Y545511D01*
Y545380D01*
Y545249D01*
X359291D01*
Y545117D01*
Y544986D01*
X359159D01*
Y544855D01*
X359291D01*
Y544723D01*
Y544592D01*
Y544461D01*
X359422D01*
Y544330D01*
Y544198D01*
Y544067D01*
X359553D01*
Y543936D01*
Y543804D01*
Y543673D01*
X359684D01*
Y543542D01*
Y543410D01*
X359816D01*
Y543279D01*
Y543148D01*
Y543016D01*
X359947D01*
Y542885D01*
Y542754D01*
Y542623D01*
X360078D01*
Y542491D01*
Y542360D01*
X360210D01*
Y542229D01*
Y542098D01*
Y541966D01*
Y541835D01*
Y541704D01*
Y541572D01*
Y541441D01*
X360472D01*
Y541310D01*
X360341D01*
Y541178D01*
X360472D01*
Y541047D01*
Y540916D01*
Y540785D01*
X368350D01*
Y540653D01*
Y540522D01*
X368481D01*
Y540391D01*
Y540259D01*
Y540128D01*
X368613D01*
Y539997D01*
Y539865D01*
X368744D01*
Y539734D01*
Y539603D01*
Y539471D01*
X368875D01*
Y539340D01*
Y539209D01*
Y539078D01*
X369007D01*
Y538946D01*
Y538815D01*
Y538684D01*
X369138D01*
Y538553D01*
Y538421D01*
Y538290D01*
X369269D01*
Y538159D01*
Y538027D01*
Y537896D01*
X369401D01*
Y537765D01*
Y537633D01*
Y537502D01*
Y537371D01*
Y537240D01*
X369532D01*
Y537108D01*
X369663D01*
Y536977D01*
X369532D01*
Y536846D01*
X369663D01*
Y536714D01*
Y536583D01*
Y536452D01*
X369794D01*
Y536320D01*
Y536189D01*
Y536058D01*
X369926D01*
Y535926D01*
Y535795D01*
X370057D01*
Y535664D01*
Y535533D01*
Y535401D01*
X370188D01*
Y535270D01*
Y535139D01*
Y535007D01*
X370320D01*
Y534876D01*
Y534745D01*
Y534614D01*
X370451D01*
Y534482D01*
Y534351D01*
X370582D01*
Y534220D01*
Y534088D01*
Y533957D01*
Y533826D01*
Y533695D01*
Y533563D01*
X370845D01*
Y533432D01*
X370713D01*
Y533301D01*
Y533169D01*
X370845D01*
Y533038D01*
Y532907D01*
X362967D01*
Y533038D01*
Y533169D01*
Y533301D01*
Y533432D01*
X362836D01*
Y533563D01*
Y533695D01*
X362704D01*
Y533826D01*
Y533957D01*
Y534088D01*
X362573D01*
Y534220D01*
Y534351D01*
Y534482D01*
X362442D01*
Y534614D01*
Y534745D01*
Y534876D01*
X362311D01*
Y535007D01*
Y535139D01*
Y535270D01*
X362179D01*
Y535401D01*
Y535533D01*
X362048D01*
Y535664D01*
X362179D01*
Y535795D01*
Y535926D01*
X361917D01*
Y536058D01*
Y536189D01*
Y536320D01*
Y536452D01*
Y536583D01*
X361785D01*
Y536714D01*
Y536846D01*
Y536977D01*
X361654D01*
Y537108D01*
Y537240D01*
Y537371D01*
X361523D01*
Y537502D01*
Y537633D01*
Y537765D01*
X361391D01*
Y537896D01*
Y538027D01*
Y538159D01*
X361260D01*
Y538290D01*
Y538421D01*
Y538553D01*
X361129D01*
Y538684D01*
Y538815D01*
Y538946D01*
X360998D01*
Y539078D01*
Y539209D01*
X360866D01*
Y539340D01*
Y539471D01*
Y539603D01*
X360735D01*
Y539734D01*
Y539865D01*
Y539997D01*
X360604D01*
Y540128D01*
Y540259D01*
Y540391D01*
Y540522D01*
Y540653D01*
X360341D01*
Y540785D01*
X352726D01*
Y540653D01*
Y540522D01*
Y540391D01*
Y540259D01*
Y540128D01*
X352857D01*
Y539997D01*
Y539865D01*
X352988D01*
Y539734D01*
Y539603D01*
Y539471D01*
X353120D01*
Y539340D01*
Y539209D01*
Y539078D01*
X353251D01*
Y538946D01*
Y538815D01*
Y538684D01*
X353382D01*
Y538553D01*
Y538421D01*
Y538290D01*
X353514D01*
Y538159D01*
Y538027D01*
X353645D01*
Y537896D01*
Y537765D01*
Y537633D01*
X353776D01*
Y537502D01*
X353645D01*
Y537371D01*
X353907D01*
Y537240D01*
Y537108D01*
Y536977D01*
Y536846D01*
Y536714D01*
Y536583D01*
Y536452D01*
X354039D01*
Y536320D01*
Y536189D01*
Y536058D01*
X354170D01*
Y535926D01*
Y535795D01*
X354301D01*
Y535664D01*
Y535533D01*
Y535401D01*
X354433D01*
Y535270D01*
Y535139D01*
Y535007D01*
X354564D01*
Y534876D01*
Y534745D01*
Y534614D01*
X354695D01*
Y534482D01*
Y534351D01*
X354827D01*
Y534220D01*
Y534088D01*
Y533957D01*
X354958D01*
Y533826D01*
Y533695D01*
Y533563D01*
X355089D01*
Y533432D01*
Y533301D01*
X355220D01*
Y533169D01*
Y533038D01*
Y532907D01*
X362967D01*
Y532775D01*
Y532644D01*
Y532513D01*
X363098D01*
Y532381D01*
Y532250D01*
Y532119D01*
X363229D01*
Y531988D01*
Y531856D01*
X363361D01*
Y531725D01*
Y531594D01*
Y531462D01*
X363492D01*
Y531331D01*
Y531200D01*
Y531069D01*
X363623D01*
Y530937D01*
Y530806D01*
X363755D01*
Y530675D01*
Y530543D01*
Y530412D01*
X363886D01*
Y530281D01*
Y530150D01*
Y530018D01*
X364017D01*
Y529887D01*
Y529756D01*
Y529624D01*
X364149D01*
Y529493D01*
X364017D01*
Y529362D01*
X364149D01*
Y529230D01*
X364280D01*
Y529099D01*
Y528968D01*
Y528836D01*
Y528705D01*
Y528574D01*
X364411D01*
Y528443D01*
Y528311D01*
Y528180D01*
Y528049D01*
X364543D01*
Y527917D01*
Y527786D01*
X364674D01*
Y527655D01*
Y527524D01*
Y527392D01*
X364805D01*
Y527261D01*
Y527130D01*
Y526998D01*
X364936D01*
Y526867D01*
Y526736D01*
X365068D01*
Y526605D01*
Y526473D01*
Y526342D01*
X365199D01*
Y526211D01*
Y526079D01*
Y525948D01*
X365330D01*
Y525817D01*
Y525685D01*
Y525554D01*
X365462D01*
Y525423D01*
Y525291D01*
X365593D01*
Y525160D01*
Y525029D01*
Y524898D01*
X357715D01*
Y525029D01*
X357584D01*
Y525160D01*
Y525291D01*
Y525423D01*
X357453D01*
Y525554D01*
Y525685D01*
Y525817D01*
X357321D01*
Y525948D01*
Y526079D01*
X357190D01*
Y526211D01*
Y526342D01*
Y526473D01*
X357059D01*
Y526605D01*
Y526736D01*
Y526867D01*
X356927D01*
Y526998D01*
Y527130D01*
X356796D01*
Y527261D01*
Y527392D01*
Y527524D01*
Y527655D01*
Y527786D01*
Y527917D01*
X356533D01*
Y528049D01*
X356665D01*
Y528180D01*
Y528311D01*
X356533D01*
Y528443D01*
Y528574D01*
Y528705D01*
X356402D01*
Y528836D01*
Y528968D01*
Y529099D01*
X356271D01*
Y529230D01*
Y529362D01*
Y529493D01*
X356139D01*
Y529624D01*
Y529756D01*
Y529887D01*
X356008D01*
Y530018D01*
Y530150D01*
X355877D01*
Y530281D01*
Y530412D01*
Y530543D01*
X355746D01*
Y530675D01*
Y530806D01*
Y530937D01*
X355614D01*
Y531069D01*
Y531200D01*
Y531331D01*
Y531462D01*
Y531594D01*
X355352D01*
Y531725D01*
X355483D01*
Y531856D01*
Y531988D01*
X355352D01*
Y532119D01*
Y532250D01*
Y532381D01*
X355220D01*
Y532513D01*
Y532644D01*
X355089D01*
Y532775D01*
Y532907D01*
X347343D01*
Y532775D01*
Y532644D01*
Y532513D01*
Y532381D01*
Y532250D01*
X347605D01*
Y532119D01*
X347474D01*
Y531988D01*
Y531856D01*
X347605D01*
Y531725D01*
Y531594D01*
Y531462D01*
X347737D01*
Y531331D01*
Y531200D01*
Y531069D01*
X347868D01*
Y530937D01*
Y530806D01*
X347999D01*
Y530675D01*
Y530543D01*
Y530412D01*
X348130D01*
Y530281D01*
Y530150D01*
Y530018D01*
X348262D01*
Y529887D01*
Y529756D01*
Y529624D01*
X348393D01*
Y529493D01*
Y529362D01*
Y529230D01*
X348524D01*
Y529099D01*
Y528968D01*
X348656D01*
Y528836D01*
Y528705D01*
Y528574D01*
X348787D01*
Y528443D01*
X348656D01*
Y528311D01*
Y528180D01*
X348918D01*
Y528049D01*
X348787D01*
Y527917D01*
X348918D01*
Y527786D01*
Y527655D01*
Y527524D01*
X349049D01*
Y527392D01*
Y527261D01*
Y527130D01*
Y526998D01*
X349181D01*
Y526867D01*
Y526736D01*
X349312D01*
Y526605D01*
Y526473D01*
Y526342D01*
X349443D01*
Y526211D01*
Y526079D01*
Y525948D01*
X349575D01*
Y525817D01*
Y525685D01*
Y525554D01*
X349706D01*
Y525423D01*
Y525291D01*
X349837D01*
Y525160D01*
Y525029D01*
Y524898D01*
X341960D01*
Y525029D01*
X341828D01*
Y525160D01*
Y525291D01*
Y525423D01*
X341697D01*
Y525554D01*
Y525685D01*
Y525817D01*
X341566D01*
Y525948D01*
Y526079D01*
X341434D01*
Y526211D01*
Y526342D01*
Y526473D01*
X341303D01*
Y526605D01*
X341434D01*
Y526736D01*
Y526867D01*
X341172D01*
Y526998D01*
Y527130D01*
Y527261D01*
Y527392D01*
Y527524D01*
Y527655D01*
X341040D01*
Y527786D01*
Y527917D01*
Y528049D01*
X340909D01*
Y528180D01*
Y528311D01*
X340778D01*
Y528443D01*
Y528574D01*
Y528705D01*
X340647D01*
Y528836D01*
Y528968D01*
Y529099D01*
X340515D01*
Y529230D01*
Y529362D01*
Y529493D01*
X340384D01*
Y529624D01*
Y529756D01*
Y529887D01*
X340253D01*
Y530018D01*
Y530150D01*
X340121D01*
Y530281D01*
Y530412D01*
Y530543D01*
X339990D01*
Y530675D01*
X340121D01*
Y530806D01*
X339990D01*
Y530937D01*
X339859D01*
Y531069D01*
Y531200D01*
Y531331D01*
Y531462D01*
Y531594D01*
X339596D01*
Y531725D01*
X339727D01*
Y531856D01*
Y531988D01*
Y532119D01*
X339596D01*
Y532250D01*
Y532381D01*
X339465D01*
Y532513D01*
Y532644D01*
Y532775D01*
X339334D01*
Y532907D01*
X347211D01*
Y533038D01*
Y533169D01*
Y533301D01*
Y533432D01*
X347080D01*
Y533563D01*
Y533695D01*
X346949D01*
Y533826D01*
Y533957D01*
Y534088D01*
X346817D01*
Y534220D01*
Y534351D01*
Y534482D01*
X346686D01*
Y534614D01*
Y534745D01*
Y534876D01*
X346555D01*
Y535007D01*
Y535139D01*
Y535270D01*
X346424D01*
Y535401D01*
Y535533D01*
Y535664D01*
Y535795D01*
Y535926D01*
X346161D01*
Y536058D01*
X346292D01*
Y536189D01*
X346161D01*
Y536320D01*
Y536452D01*
Y536583D01*
X346030D01*
Y536714D01*
Y536846D01*
Y536977D01*
Y537108D01*
X345898D01*
Y537240D01*
Y537371D01*
Y537502D01*
X345767D01*
Y537633D01*
Y537765D01*
X345636D01*
Y537896D01*
Y538027D01*
Y538159D01*
X345504D01*
Y538290D01*
Y538421D01*
Y538553D01*
X345373D01*
Y538684D01*
Y538815D01*
Y538946D01*
X345242D01*
Y539078D01*
Y539209D01*
Y539340D01*
Y539471D01*
Y539603D01*
X344979D01*
Y539734D01*
X345111D01*
Y539865D01*
Y539997D01*
X344979D01*
Y540128D01*
Y540259D01*
X344848D01*
Y540391D01*
Y540522D01*
Y540653D01*
X344717D01*
Y540785D01*
X336708D01*
Y540916D01*
Y541047D01*
Y541178D01*
X336576D01*
Y541310D01*
Y541441D01*
Y541572D01*
X336445D01*
Y541704D01*
Y541835D01*
Y541966D01*
X336314D01*
Y542098D01*
Y542229D01*
Y542360D01*
X336182D01*
Y542491D01*
Y542623D01*
Y542754D01*
X336051D01*
Y542885D01*
Y543016D01*
Y543148D01*
Y543279D01*
Y543410D01*
X335789D01*
Y543542D01*
X335920D01*
Y543673D01*
Y543804D01*
X335789D01*
Y543936D01*
Y544067D01*
X335657D01*
Y544198D01*
Y544330D01*
Y544461D01*
X335526D01*
Y544592D01*
Y544723D01*
Y544855D01*
X335395D01*
Y544986D01*
Y545117D01*
Y545249D01*
X335263D01*
Y545380D01*
Y545511D01*
Y545643D01*
X335132D01*
Y545774D01*
Y545905D01*
X335001D01*
Y546036D01*
Y546168D01*
Y546299D01*
Y546430D01*
X334870D01*
Y546561D01*
Y546693D01*
Y546824D01*
Y546955D01*
Y547087D01*
X334607D01*
Y547218D01*
X334738D01*
Y547349D01*
Y547481D01*
X334607D01*
Y547612D01*
Y547743D01*
Y547874D01*
X334476D01*
Y548006D01*
Y548137D01*
X334344D01*
Y548268D01*
Y548400D01*
Y548531D01*
X334213D01*
Y548662D01*
Y548794D01*
X342222D01*
Y548662D01*
Y548531D01*
Y548400D01*
X342353D01*
Y548268D01*
Y548137D01*
Y548006D01*
Y547874D01*
Y547743D01*
X342485D01*
Y547612D01*
Y547481D01*
Y547349D01*
X342616D01*
Y547218D01*
Y547087D01*
Y546955D01*
X342747D01*
Y546824D01*
Y546693D01*
Y546561D01*
X342879D01*
Y546430D01*
Y546299D01*
Y546168D01*
X343010D01*
Y546036D01*
Y545905D01*
Y545774D01*
X343141D01*
Y545643D01*
Y545511D01*
Y545380D01*
X343272D01*
Y545249D01*
Y545117D01*
Y544986D01*
Y544855D01*
Y544723D01*
X343535D01*
Y544592D01*
Y544461D01*
Y544330D01*
Y544198D01*
Y544067D01*
Y543936D01*
X343666D01*
Y543804D01*
Y543673D01*
X343798D01*
Y543542D01*
Y543410D01*
Y543279D01*
X343929D01*
Y543148D01*
Y543016D01*
Y542885D01*
X344060D01*
Y542754D01*
Y542623D01*
Y542491D01*
X344192D01*
Y542360D01*
Y542229D01*
X344323D01*
Y542098D01*
Y541966D01*
Y541835D01*
X344454D01*
Y541704D01*
Y541572D01*
Y541441D01*
Y541310D01*
X344585D01*
Y541178D01*
Y541047D01*
X344717D01*
Y540916D01*
Y540785D01*
X352594D01*
Y540916D01*
Y541047D01*
Y541178D01*
Y541310D01*
X352463D01*
Y541441D01*
Y541572D01*
X352332D01*
Y541704D01*
Y541835D01*
Y541966D01*
Y542098D01*
X352201D01*
Y542229D01*
Y542360D01*
Y542491D01*
X352069D01*
Y542623D01*
Y542754D01*
X351938D01*
Y542885D01*
Y543016D01*
Y543148D01*
X351807D01*
Y543279D01*
Y543410D01*
Y543542D01*
X351676D01*
Y543673D01*
X351807D01*
Y543804D01*
Y543936D01*
X351544D01*
Y544067D01*
Y544198D01*
Y544330D01*
Y544461D01*
Y544592D01*
X351413D01*
Y544723D01*
Y544855D01*
Y544986D01*
X351282D01*
Y545117D01*
Y545249D01*
Y545380D01*
X351150D01*
Y545511D01*
Y545643D01*
X351019D01*
Y545774D01*
Y545905D01*
Y546036D01*
X350888D01*
Y546168D01*
Y546299D01*
Y546430D01*
X350756D01*
Y546561D01*
Y546693D01*
Y546824D01*
X350625D01*
Y546955D01*
Y547087D01*
Y547218D01*
X350494D01*
Y547349D01*
Y547481D01*
Y547612D01*
X350362D01*
Y547743D01*
Y547874D01*
Y548006D01*
X350231D01*
Y548137D01*
Y548268D01*
Y548400D01*
Y548531D01*
Y548662D01*
X350100D01*
Y548794D01*
X357978D01*
Y548662D01*
D02*
G37*
G36*
X413647D02*
Y548531D01*
Y548400D01*
Y548268D01*
Y548137D01*
X413779D01*
Y548006D01*
Y547874D01*
Y547743D01*
X413910D01*
Y547612D01*
Y547481D01*
X414041D01*
Y547349D01*
Y547218D01*
Y547087D01*
Y546955D01*
X414173D01*
Y546824D01*
Y546693D01*
Y546561D01*
X414304D01*
Y546430D01*
Y546299D01*
Y546168D01*
X414435D01*
Y546036D01*
Y545905D01*
X414567D01*
Y545774D01*
Y545643D01*
Y545511D01*
Y545380D01*
Y545249D01*
X414829D01*
Y545117D01*
X414698D01*
Y544986D01*
Y544855D01*
X414829D01*
Y544723D01*
Y544592D01*
Y544461D01*
X414960D01*
Y544330D01*
Y544198D01*
Y544067D01*
X415092D01*
Y543936D01*
Y543804D01*
Y543673D01*
X415223D01*
Y543542D01*
Y543410D01*
X415354D01*
Y543279D01*
Y543148D01*
Y543016D01*
X415485D01*
Y542885D01*
Y542754D01*
Y542623D01*
X415617D01*
Y542491D01*
Y542360D01*
Y542229D01*
X415748D01*
Y542098D01*
Y541966D01*
Y541835D01*
X415879D01*
Y541704D01*
Y541572D01*
Y541441D01*
X416011D01*
Y541310D01*
X415879D01*
Y541178D01*
X416142D01*
Y541047D01*
Y540916D01*
Y540785D01*
Y540653D01*
Y540522D01*
Y540391D01*
X416273D01*
Y540259D01*
Y540128D01*
Y539997D01*
X416405D01*
Y539865D01*
Y539734D01*
X416536D01*
Y539603D01*
Y539471D01*
Y539340D01*
X416667D01*
Y539209D01*
Y539078D01*
Y538946D01*
X416798D01*
Y538815D01*
Y538684D01*
Y538553D01*
X416930D01*
Y538421D01*
Y538290D01*
X417061D01*
Y538159D01*
Y538027D01*
Y537896D01*
X417192D01*
Y537765D01*
Y537633D01*
Y537502D01*
Y537371D01*
X417324D01*
Y537240D01*
Y537108D01*
X417455D01*
Y536977D01*
Y536846D01*
Y536714D01*
Y536583D01*
Y536452D01*
Y536320D01*
X417718D01*
Y536189D01*
X417586D01*
Y536058D01*
X417718D01*
Y535926D01*
Y535795D01*
Y535664D01*
X417849D01*
Y535533D01*
Y535401D01*
Y535270D01*
X417980D01*
Y535139D01*
Y535007D01*
Y534876D01*
X418112D01*
Y534745D01*
Y534614D01*
X418243D01*
Y534482D01*
Y534351D01*
Y534220D01*
X418374D01*
Y534088D01*
Y533957D01*
Y533826D01*
X418505D01*
Y533695D01*
X418374D01*
Y533563D01*
X418505D01*
Y533432D01*
X418637D01*
Y533301D01*
Y533169D01*
Y533038D01*
Y532907D01*
Y532775D01*
Y532644D01*
X418768D01*
Y532513D01*
Y532381D01*
Y532250D01*
X418899D01*
Y532119D01*
Y531988D01*
Y531856D01*
Y531725D01*
X419031D01*
Y531594D01*
Y531462D01*
Y531331D01*
Y531200D01*
Y531069D01*
Y530937D01*
X419162D01*
Y530806D01*
Y530675D01*
Y530543D01*
Y530412D01*
Y530281D01*
Y530150D01*
Y530018D01*
Y529887D01*
Y529756D01*
Y529624D01*
X419031D01*
Y529493D01*
Y529362D01*
Y529230D01*
Y529099D01*
Y528968D01*
X418899D01*
Y528836D01*
Y528705D01*
Y528574D01*
X418768D01*
Y528443D01*
Y528311D01*
X418637D01*
Y528180D01*
Y528049D01*
Y527917D01*
Y527786D01*
X418374D01*
Y527655D01*
X418505D01*
Y527524D01*
X418374D01*
Y527392D01*
Y527261D01*
X418243D01*
Y527130D01*
X417980D01*
Y526998D01*
Y526867D01*
X417849D01*
Y526736D01*
X417718D01*
Y526605D01*
Y526473D01*
X417586D01*
Y526342D01*
X417455D01*
Y526211D01*
X417192D01*
Y526079D01*
X417061D01*
Y525948D01*
X416930D01*
Y525817D01*
X416536D01*
Y525685D01*
X416405D01*
Y525554D01*
X416142D01*
Y525423D01*
X415879D01*
Y525291D01*
X415617D01*
Y525160D01*
X415223D01*
Y525029D01*
X414829D01*
Y524898D01*
X414435D01*
Y524766D01*
X413910D01*
Y524635D01*
X409971D01*
Y524766D01*
X409315D01*
Y524898D01*
X408658D01*
Y525029D01*
X408395D01*
Y525160D01*
X408002D01*
Y525291D01*
X407608D01*
Y525423D01*
X407214D01*
Y525554D01*
X406820D01*
Y525685D01*
X406689D01*
Y525817D01*
X406164D01*
Y525948D01*
X405901D01*
Y526079D01*
X405638D01*
Y526211D01*
X405507D01*
Y526342D01*
X405244D01*
Y526473D01*
X404982D01*
Y526605D01*
X404850D01*
Y526736D01*
X404588D01*
Y526867D01*
X404457D01*
Y526998D01*
X404325D01*
Y527130D01*
X403931D01*
Y527261D01*
X403800D01*
Y527392D01*
X403669D01*
Y527524D01*
X403406D01*
Y527655D01*
Y527786D01*
X403144D01*
Y527917D01*
Y528049D01*
X402881D01*
Y528180D01*
Y528311D01*
X402619D01*
Y528443D01*
X402487D01*
Y528574D01*
Y528705D01*
X402225D01*
Y528836D01*
X402093D01*
Y528968D01*
Y529099D01*
X401831D01*
Y529230D01*
Y529362D01*
X401699D01*
Y529493D01*
Y529624D01*
X401437D01*
Y529756D01*
Y529887D01*
X401305D01*
Y530018D01*
X401174D01*
Y530150D01*
X401043D01*
Y530281D01*
Y530412D01*
X400912D01*
Y530543D01*
Y530675D01*
Y530806D01*
X400780D01*
Y530937D01*
X400649D01*
Y531069D01*
Y531200D01*
X400518D01*
Y531331D01*
Y531462D01*
X400386D01*
Y531594D01*
Y531725D01*
X400255D01*
Y531856D01*
Y531988D01*
X400124D01*
Y532119D01*
X399993D01*
Y532250D01*
Y532381D01*
Y532513D01*
X399861D01*
Y532644D01*
Y532775D01*
Y532907D01*
X399730D01*
Y533038D01*
Y533169D01*
Y533301D01*
X399599D01*
Y533432D01*
Y533563D01*
Y533695D01*
Y533826D01*
Y533957D01*
X399336D01*
Y534088D01*
X399467D01*
Y534220D01*
Y534351D01*
X399336D01*
Y534482D01*
Y534614D01*
Y534745D01*
Y534876D01*
X399205D01*
Y535007D01*
Y535139D01*
X399074D01*
Y535270D01*
Y535401D01*
Y535533D01*
X398942D01*
Y535664D01*
Y535795D01*
Y535926D01*
X398811D01*
Y536058D01*
Y536189D01*
X398680D01*
Y536320D01*
Y536452D01*
Y536583D01*
X398548D01*
Y536714D01*
Y536846D01*
Y536977D01*
X398417D01*
Y537108D01*
Y537240D01*
Y537371D01*
X398286D01*
Y537502D01*
Y537633D01*
Y537765D01*
Y537896D01*
Y538027D01*
X398023D01*
Y538159D01*
X398154D01*
Y538290D01*
Y538421D01*
X398023D01*
Y538553D01*
Y538684D01*
X397892D01*
Y538815D01*
Y538946D01*
Y539078D01*
X397761D01*
Y539209D01*
Y539340D01*
Y539471D01*
Y539603D01*
X397629D01*
Y539734D01*
Y539865D01*
Y539997D01*
X397498D01*
Y540128D01*
Y540259D01*
X397367D01*
Y540391D01*
Y540522D01*
Y540653D01*
X397235D01*
Y540785D01*
Y540916D01*
Y541047D01*
X397104D01*
Y541178D01*
Y541310D01*
Y541441D01*
Y541572D01*
Y541704D01*
X396973D01*
Y541835D01*
Y541966D01*
Y542098D01*
X396841D01*
Y542229D01*
Y542360D01*
Y542491D01*
X396710D01*
Y542623D01*
Y542754D01*
X396579D01*
Y542885D01*
Y543016D01*
Y543148D01*
X396448D01*
Y543279D01*
Y543410D01*
Y543542D01*
X396316D01*
Y543673D01*
Y543804D01*
Y543936D01*
X396185D01*
Y544067D01*
Y544198D01*
Y544330D01*
X396054D01*
Y544461D01*
Y544592D01*
Y544723D01*
X395922D01*
Y544855D01*
Y544986D01*
Y545117D01*
X395791D01*
Y545249D01*
Y545380D01*
Y545511D01*
Y545643D01*
Y545774D01*
X395529D01*
Y545905D01*
Y546036D01*
Y546168D01*
Y546299D01*
Y546430D01*
Y546561D01*
X395397D01*
Y546693D01*
Y546824D01*
X395266D01*
Y546955D01*
Y547087D01*
Y547218D01*
X395135D01*
Y547349D01*
Y547481D01*
Y547612D01*
X395003D01*
Y547743D01*
Y547874D01*
Y548006D01*
X394872D01*
Y548137D01*
Y548268D01*
X394741D01*
Y548400D01*
Y548531D01*
Y548662D01*
X394609D01*
Y548794D01*
X400386D01*
Y548662D01*
X400649D01*
Y548531D01*
X400518D01*
Y548400D01*
Y548268D01*
X400780D01*
Y548137D01*
X400649D01*
Y548006D01*
X400780D01*
Y547874D01*
Y547743D01*
Y547612D01*
X400912D01*
Y547481D01*
Y547349D01*
Y547218D01*
X401043D01*
Y547087D01*
Y546955D01*
Y546824D01*
X401174D01*
Y546693D01*
Y546561D01*
Y546430D01*
X401305D01*
Y546299D01*
Y546168D01*
Y546036D01*
X401437D01*
Y545905D01*
Y545774D01*
Y545643D01*
X401568D01*
Y545511D01*
Y545380D01*
Y545249D01*
X401699D01*
Y545117D01*
Y544986D01*
Y544855D01*
Y544723D01*
Y544592D01*
X401962D01*
Y544461D01*
X401831D01*
Y544330D01*
Y544198D01*
X401962D01*
Y544067D01*
Y543936D01*
Y543804D01*
X402093D01*
Y543673D01*
Y543542D01*
X402225D01*
Y543410D01*
Y543279D01*
Y543148D01*
X402356D01*
Y543016D01*
Y542885D01*
Y542754D01*
X402487D01*
Y542623D01*
Y542491D01*
Y542360D01*
X402619D01*
Y542229D01*
Y542098D01*
X402750D01*
Y541966D01*
Y541835D01*
Y541704D01*
Y541572D01*
X402881D01*
Y541441D01*
Y541310D01*
Y541178D01*
X403012D01*
Y541047D01*
Y540916D01*
X403144D01*
Y540785D01*
X403012D01*
Y540653D01*
Y540522D01*
X403275D01*
Y540391D01*
Y540259D01*
Y540128D01*
Y539997D01*
Y539865D01*
X403406D01*
Y539734D01*
Y539603D01*
Y539471D01*
X403538D01*
Y539340D01*
Y539209D01*
Y539078D01*
X403669D01*
Y538946D01*
Y538815D01*
Y538684D01*
X403800D01*
Y538553D01*
Y538421D01*
Y538290D01*
X403931D01*
Y538159D01*
Y538027D01*
X404063D01*
Y537896D01*
Y537765D01*
Y537633D01*
X404194D01*
Y537502D01*
Y537371D01*
Y537240D01*
Y537108D01*
Y536977D01*
Y536846D01*
X404457D01*
Y536714D01*
X404325D01*
Y536583D01*
Y536452D01*
X404457D01*
Y536320D01*
Y536189D01*
Y536058D01*
X404588D01*
Y535926D01*
Y535795D01*
X404719D01*
Y535664D01*
Y535533D01*
Y535401D01*
X404850D01*
Y535270D01*
Y535139D01*
Y535007D01*
X404982D01*
Y534876D01*
Y534745D01*
Y534614D01*
X405113D01*
Y534482D01*
Y534351D01*
X405244D01*
Y534220D01*
Y534088D01*
Y533957D01*
X405376D01*
Y533826D01*
Y533695D01*
Y533563D01*
X405507D01*
Y533432D01*
Y533301D01*
X405638D01*
Y533169D01*
X405507D01*
Y533038D01*
Y532907D01*
X405770D01*
Y532775D01*
Y532644D01*
Y532513D01*
Y532381D01*
Y532250D01*
X405901D01*
Y532119D01*
Y531988D01*
X406164D01*
Y531856D01*
X406295D01*
Y531725D01*
Y531594D01*
X406426D01*
Y531462D01*
X406557D01*
Y531331D01*
X406689D01*
Y531200D01*
X406951D01*
Y531069D01*
X407083D01*
Y530937D01*
X407214D01*
Y530806D01*
X407608D01*
Y530675D01*
X407739D01*
Y530543D01*
X408133D01*
Y530412D01*
X408527D01*
Y530281D01*
X408789D01*
Y530150D01*
X409446D01*
Y530018D01*
X410890D01*
Y530150D01*
X411415D01*
Y530281D01*
X411809D01*
Y530412D01*
X412072D01*
Y530543D01*
X412334D01*
Y530675D01*
X412466D01*
Y530806D01*
X412597D01*
Y530937D01*
X412728D01*
Y531069D01*
Y531200D01*
X412860D01*
Y531331D01*
Y531462D01*
X412991D01*
Y531594D01*
Y531725D01*
Y531856D01*
Y531988D01*
Y532119D01*
Y532250D01*
Y532381D01*
Y532513D01*
Y532644D01*
Y532775D01*
X412860D01*
Y532907D01*
Y533038D01*
Y533169D01*
X412728D01*
Y533301D01*
Y533432D01*
Y533563D01*
X412597D01*
Y533695D01*
Y533826D01*
X412466D01*
Y533957D01*
Y534088D01*
Y534220D01*
Y534351D01*
Y534482D01*
Y534614D01*
X412334D01*
Y534745D01*
Y534876D01*
Y535007D01*
X412203D01*
Y535139D01*
Y535270D01*
Y535401D01*
X412072D01*
Y535533D01*
Y535664D01*
Y535795D01*
X411940D01*
Y535926D01*
Y536058D01*
Y536189D01*
X411809D01*
Y536320D01*
Y536452D01*
X411678D01*
Y536583D01*
Y536714D01*
Y536846D01*
X411547D01*
Y536977D01*
Y537108D01*
Y537240D01*
X411415D01*
Y537371D01*
X411547D01*
Y537502D01*
X411284D01*
Y537633D01*
Y537765D01*
Y537896D01*
Y538027D01*
Y538159D01*
Y538290D01*
X411153D01*
Y538421D01*
Y538553D01*
Y538684D01*
X410890D01*
Y538815D01*
X411022D01*
Y538946D01*
X410890D01*
Y539078D01*
Y539209D01*
Y539340D01*
X410759D01*
Y539471D01*
Y539603D01*
Y539734D01*
X410628D01*
Y539865D01*
Y539997D01*
Y540128D01*
Y540259D01*
X410496D01*
Y540391D01*
Y540522D01*
X410365D01*
Y540653D01*
Y540785D01*
Y540916D01*
X410234D01*
Y541047D01*
Y541178D01*
Y541310D01*
X410102D01*
Y541441D01*
Y541572D01*
X409971D01*
Y541704D01*
Y541835D01*
Y541966D01*
Y542098D01*
Y542229D01*
Y542360D01*
X409708D01*
Y542491D01*
X409840D01*
Y542623D01*
Y542754D01*
X409708D01*
Y542885D01*
Y543016D01*
Y543148D01*
X409577D01*
Y543279D01*
Y543410D01*
X409446D01*
Y543542D01*
Y543673D01*
Y543804D01*
X409315D01*
Y543936D01*
Y544067D01*
X409183D01*
Y544198D01*
Y544330D01*
Y544461D01*
X409052D01*
Y544592D01*
Y544723D01*
Y544855D01*
Y544986D01*
X408921D01*
Y545117D01*
Y545249D01*
Y545380D01*
X408789D01*
Y545511D01*
Y545643D01*
X408658D01*
Y545774D01*
Y545905D01*
Y546036D01*
Y546168D01*
Y546299D01*
Y546430D01*
X408395D01*
Y546561D01*
X408527D01*
Y546693D01*
X408395D01*
Y546824D01*
Y546955D01*
Y547087D01*
X408264D01*
Y547218D01*
Y547349D01*
Y547481D01*
X408133D01*
Y547612D01*
Y547743D01*
Y547874D01*
X408002D01*
Y548006D01*
Y548137D01*
X407870D01*
Y548268D01*
Y548400D01*
Y548531D01*
X407739D01*
Y548662D01*
Y548794D01*
X413647D01*
Y548662D01*
D02*
G37*
G36*
X393690D02*
Y548531D01*
X393822D01*
Y548400D01*
Y548268D01*
Y548137D01*
Y548006D01*
Y547874D01*
Y547743D01*
X394084D01*
Y547612D01*
X393953D01*
Y547481D01*
Y547349D01*
X394084D01*
Y547218D01*
Y547087D01*
Y546955D01*
X394215D01*
Y546824D01*
Y546693D01*
Y546561D01*
X394347D01*
Y546430D01*
Y546299D01*
X394478D01*
Y546168D01*
Y546036D01*
Y545905D01*
X394609D01*
Y545774D01*
Y545643D01*
Y545511D01*
X394741D01*
Y545380D01*
Y545249D01*
X394872D01*
Y545117D01*
Y544986D01*
Y544855D01*
X395003D01*
Y544723D01*
Y544592D01*
Y544461D01*
X395135D01*
Y544330D01*
Y544198D01*
Y544067D01*
X395266D01*
Y543936D01*
X395135D01*
Y543804D01*
Y543673D01*
X395397D01*
Y543542D01*
Y543410D01*
Y543279D01*
X389620D01*
Y543148D01*
Y543016D01*
Y542885D01*
X389751D01*
Y542754D01*
Y542623D01*
Y542491D01*
X389883D01*
Y542360D01*
Y542229D01*
X390014D01*
Y542098D01*
Y541966D01*
Y541835D01*
X390145D01*
Y541704D01*
Y541572D01*
Y541441D01*
Y541310D01*
Y541178D01*
X390408D01*
Y541047D01*
X390277D01*
Y540916D01*
Y540785D01*
X390408D01*
Y540653D01*
Y540522D01*
Y540391D01*
X390539D01*
Y540259D01*
Y540128D01*
Y539997D01*
Y539865D01*
X390670D01*
Y539734D01*
Y539603D01*
X390802D01*
Y539471D01*
Y539340D01*
Y539209D01*
X390933D01*
Y539078D01*
Y538946D01*
Y538815D01*
X391064D01*
Y538684D01*
Y538553D01*
X391196D01*
Y538421D01*
Y538290D01*
Y538159D01*
X391327D01*
Y538027D01*
Y537896D01*
Y537765D01*
Y537633D01*
Y537502D01*
Y537371D01*
X391590D01*
Y537240D01*
X391458D01*
Y537108D01*
X391590D01*
Y536977D01*
Y536846D01*
Y536714D01*
X391721D01*
Y536583D01*
Y536452D01*
Y536320D01*
X391852D01*
Y536189D01*
Y536058D01*
Y535926D01*
X391984D01*
Y535795D01*
Y535664D01*
X392115D01*
Y535533D01*
Y535401D01*
Y535270D01*
X392246D01*
Y535139D01*
Y535007D01*
Y534876D01*
Y534745D01*
X392377D01*
Y534614D01*
Y534482D01*
X392509D01*
Y534351D01*
Y534220D01*
Y534088D01*
X392640D01*
Y533957D01*
Y533826D01*
Y533695D01*
Y533563D01*
Y533432D01*
Y533301D01*
X392903D01*
Y533169D01*
Y533038D01*
Y532907D01*
Y532775D01*
Y532644D01*
X393034D01*
Y532513D01*
Y532381D01*
Y532250D01*
X393165D01*
Y532119D01*
Y531988D01*
X393296D01*
Y531856D01*
Y531725D01*
Y531594D01*
X393428D01*
Y531462D01*
Y531331D01*
Y531200D01*
X393559D01*
Y531069D01*
Y530937D01*
Y530806D01*
X393690D01*
Y530675D01*
Y530543D01*
X393822D01*
Y530412D01*
Y530281D01*
Y530150D01*
Y530018D01*
X393953D01*
Y529887D01*
X393822D01*
Y529756D01*
Y529624D01*
X394084D01*
Y529493D01*
X393953D01*
Y529362D01*
X394084D01*
Y529230D01*
Y529099D01*
Y528968D01*
X394215D01*
Y528836D01*
Y528705D01*
Y528574D01*
X394347D01*
Y528443D01*
Y528311D01*
Y528180D01*
X394478D01*
Y528049D01*
Y527917D01*
X394609D01*
Y527786D01*
Y527655D01*
Y527524D01*
X394741D01*
Y527392D01*
Y527261D01*
Y527130D01*
X394872D01*
Y526998D01*
Y526867D01*
Y526736D01*
X395003D01*
Y526605D01*
Y526473D01*
X395135D01*
Y526342D01*
Y526211D01*
Y526079D01*
X395266D01*
Y525948D01*
X395135D01*
Y525817D01*
Y525685D01*
X395397D01*
Y525554D01*
Y525423D01*
Y525291D01*
Y525160D01*
Y525029D01*
X395529D01*
Y524898D01*
X389489D01*
Y525029D01*
Y525160D01*
X389357D01*
Y525291D01*
Y525423D01*
Y525554D01*
X389226D01*
Y525685D01*
Y525817D01*
Y525948D01*
Y526079D01*
Y526211D01*
X388964D01*
Y526342D01*
X389095D01*
Y526473D01*
Y526605D01*
X388964D01*
Y526736D01*
Y526867D01*
Y526998D01*
X388832D01*
Y527130D01*
Y527261D01*
X388701D01*
Y527392D01*
Y527524D01*
Y527655D01*
X388570D01*
Y527786D01*
Y527917D01*
Y528049D01*
X388439D01*
Y528180D01*
Y528311D01*
Y528443D01*
X388307D01*
Y528574D01*
Y528705D01*
Y528836D01*
X388176D01*
Y528968D01*
Y529099D01*
Y529230D01*
X388045D01*
Y529362D01*
Y529493D01*
Y529624D01*
X387913D01*
Y529756D01*
Y529887D01*
Y530018D01*
Y530150D01*
Y530281D01*
X387651D01*
Y530412D01*
X387782D01*
Y530543D01*
Y530675D01*
X387651D01*
Y530806D01*
Y530937D01*
Y531069D01*
X387519D01*
Y531200D01*
Y531331D01*
X387388D01*
Y531462D01*
Y531594D01*
Y531725D01*
X387257D01*
Y531856D01*
Y531988D01*
Y532119D01*
X387125D01*
Y532250D01*
Y532381D01*
X386994D01*
Y532513D01*
Y532644D01*
Y532775D01*
Y532907D01*
X386863D01*
Y533038D01*
Y533169D01*
Y533301D01*
X386732D01*
Y533432D01*
Y533563D01*
Y533695D01*
Y533826D01*
Y533957D01*
X386469D01*
Y534088D01*
X386600D01*
Y534220D01*
Y534351D01*
X386469D01*
Y534482D01*
Y534614D01*
Y534745D01*
X386338D01*
Y534876D01*
Y535007D01*
X386206D01*
Y535139D01*
Y535270D01*
Y535401D01*
X386075D01*
Y535533D01*
Y535664D01*
Y535795D01*
X385944D01*
Y535926D01*
Y536058D01*
Y536189D01*
X385812D01*
Y536320D01*
Y536452D01*
X385681D01*
Y536583D01*
Y536714D01*
Y536846D01*
X385550D01*
Y536977D01*
Y537108D01*
Y537240D01*
X385419D01*
Y537371D01*
Y537502D01*
Y537633D01*
Y537765D01*
Y537896D01*
Y538027D01*
X385156D01*
Y538159D01*
Y538290D01*
Y538421D01*
Y538553D01*
Y538684D01*
X385025D01*
Y538815D01*
Y538946D01*
Y539078D01*
X384893D01*
Y539209D01*
Y539340D01*
Y539471D01*
X384762D01*
Y539603D01*
Y539734D01*
Y539865D01*
X384631D01*
Y539997D01*
Y540128D01*
Y540259D01*
X384500D01*
Y540391D01*
Y540522D01*
X384368D01*
Y540653D01*
Y540785D01*
Y540916D01*
X384237D01*
Y541047D01*
Y541178D01*
Y541310D01*
Y541441D01*
Y541572D01*
X383974D01*
Y541704D01*
X384106D01*
Y541835D01*
Y541966D01*
X383843D01*
Y542098D01*
Y542229D01*
Y542360D01*
Y542491D01*
Y542623D01*
Y542754D01*
X383712D01*
Y542885D01*
Y543016D01*
Y543148D01*
X383580D01*
Y543279D01*
X377672D01*
Y543410D01*
Y543542D01*
X377541D01*
Y543673D01*
Y543804D01*
Y543936D01*
Y544067D01*
Y544198D01*
X377410D01*
Y544330D01*
Y544461D01*
Y544592D01*
Y544723D01*
X377278D01*
Y544855D01*
Y544986D01*
Y545117D01*
X377147D01*
Y545249D01*
Y545380D01*
X377016D01*
Y545511D01*
Y545643D01*
Y545774D01*
X376884D01*
Y545905D01*
Y546036D01*
Y546168D01*
X376753D01*
Y546299D01*
Y546430D01*
Y546561D01*
X376622D01*
Y546693D01*
Y546824D01*
X376490D01*
Y546955D01*
Y547087D01*
Y547218D01*
X376359D01*
Y547349D01*
Y547481D01*
Y547612D01*
Y547743D01*
Y547874D01*
Y548006D01*
X376228D01*
Y548137D01*
Y548268D01*
X376097D01*
Y548400D01*
Y548531D01*
Y548662D01*
X375965D01*
Y548794D01*
X393690D01*
Y548662D01*
D02*
G37*
G36*
X378854Y532775D02*
Y532644D01*
X378985D01*
Y532513D01*
Y532381D01*
Y532250D01*
X379116D01*
Y532119D01*
Y531988D01*
X379248D01*
Y531856D01*
Y531725D01*
Y531594D01*
X379379D01*
Y531462D01*
Y531331D01*
Y531200D01*
X379510D01*
Y531069D01*
Y530937D01*
Y530806D01*
X379642D01*
Y530675D01*
Y530543D01*
X379773D01*
Y530412D01*
Y530281D01*
Y530150D01*
Y530018D01*
Y529887D01*
Y529756D01*
X380035D01*
Y529624D01*
X379904D01*
Y529493D01*
X380035D01*
Y529362D01*
Y529230D01*
Y529099D01*
X380167D01*
Y528968D01*
Y528836D01*
Y528705D01*
Y528574D01*
X380298D01*
Y528443D01*
Y528311D01*
Y528180D01*
X380429D01*
Y528049D01*
Y527917D01*
X380561D01*
Y527786D01*
Y527655D01*
Y527524D01*
X380692D01*
Y527392D01*
Y527261D01*
Y527130D01*
X380823D01*
Y526998D01*
Y526867D01*
Y526736D01*
X380955D01*
Y526605D01*
Y526473D01*
Y526342D01*
Y526211D01*
Y526079D01*
X381217D01*
Y525948D01*
X381086D01*
Y525817D01*
Y525685D01*
X381217D01*
Y525554D01*
Y525423D01*
X381348D01*
Y525291D01*
Y525160D01*
Y525029D01*
X381480D01*
Y524898D01*
X373471D01*
Y525029D01*
Y525160D01*
Y525291D01*
Y525423D01*
Y525554D01*
X373339D01*
Y525685D01*
Y525817D01*
X373208D01*
Y525948D01*
Y526079D01*
Y526211D01*
X373077D01*
Y526342D01*
Y526473D01*
Y526605D01*
X372945D01*
Y526736D01*
Y526867D01*
Y526998D01*
X372814D01*
Y527130D01*
Y527261D01*
X372683D01*
Y527392D01*
Y527524D01*
Y527655D01*
X372552D01*
Y527786D01*
Y527917D01*
Y528049D01*
X372420D01*
Y528180D01*
X372552D01*
Y528311D01*
X372289D01*
Y528443D01*
Y528574D01*
Y528705D01*
Y528836D01*
Y528968D01*
Y529099D01*
Y529230D01*
X372158D01*
Y529362D01*
Y529493D01*
Y529624D01*
X372026D01*
Y529756D01*
Y529887D01*
X371895D01*
Y530018D01*
Y530150D01*
Y530281D01*
X371764D01*
Y530412D01*
Y530543D01*
Y530675D01*
X371633D01*
Y530806D01*
Y530937D01*
Y531069D01*
X371501D01*
Y531200D01*
Y531331D01*
X371370D01*
Y531462D01*
Y531594D01*
Y531725D01*
X371239D01*
Y531856D01*
Y531988D01*
Y532119D01*
X371107D01*
Y532250D01*
Y532381D01*
X370976D01*
Y532513D01*
Y532644D01*
Y532775D01*
Y532907D01*
X378854D01*
Y532775D01*
D02*
G37*
G36*
X429009Y549056D02*
Y548925D01*
X430585D01*
Y548794D01*
X431110D01*
Y548662D01*
X431504D01*
Y548531D01*
X431898D01*
Y548400D01*
X432423D01*
Y548268D01*
X432685D01*
Y548137D01*
X433079D01*
Y548006D01*
X433473D01*
Y547874D01*
X433604D01*
Y547743D01*
X434130D01*
Y547612D01*
X434392D01*
Y547481D01*
X434655D01*
Y547349D01*
X434917D01*
Y547218D01*
X435180D01*
Y547087D01*
X435443D01*
Y546955D01*
X435705D01*
Y546824D01*
X435837D01*
Y546693D01*
X436099D01*
Y546561D01*
X436230D01*
Y546430D01*
X436624D01*
Y546299D01*
Y546168D01*
X436887D01*
Y546036D01*
X437149D01*
Y545905D01*
X437281D01*
Y545774D01*
X437412D01*
Y545643D01*
X437543D01*
Y545511D01*
X437806D01*
Y545380D01*
X437937D01*
Y545249D01*
X438200D01*
Y545117D01*
Y544986D01*
X438462D01*
Y544855D01*
X438594D01*
Y544723D01*
X438725D01*
Y544592D01*
X438856D01*
Y544461D01*
X438988D01*
Y544330D01*
X439119D01*
Y544198D01*
X439250D01*
Y544067D01*
X439382D01*
Y543936D01*
X439513D01*
Y543804D01*
X439644D01*
Y543673D01*
X439775D01*
Y543542D01*
X439907D01*
Y543410D01*
X440038D01*
Y543279D01*
X440169D01*
Y543148D01*
X440301D01*
Y543016D01*
X440432D01*
Y542885D01*
Y542754D01*
X440563D01*
Y542623D01*
X440695D01*
Y542491D01*
X440826D01*
Y542360D01*
Y542229D01*
X440957D01*
Y542098D01*
X441088D01*
Y541966D01*
X441220D01*
Y541835D01*
Y541704D01*
X441351D01*
Y541572D01*
X441482D01*
Y541441D01*
Y541310D01*
X441614D01*
Y541178D01*
X441745D01*
Y541047D01*
X441876D01*
Y540916D01*
Y540785D01*
Y540653D01*
X442139D01*
Y540522D01*
X442270D01*
Y540391D01*
X442139D01*
Y540259D01*
X442270D01*
Y540128D01*
Y539997D01*
X442401D01*
Y539865D01*
X442533D01*
Y539734D01*
Y539603D01*
X442664D01*
Y539471D01*
Y539340D01*
X442795D01*
Y539209D01*
Y539078D01*
X442927D01*
Y538946D01*
Y538815D01*
X443058D01*
Y538684D01*
Y538553D01*
X443189D01*
Y538421D01*
Y538290D01*
Y538159D01*
Y538027D01*
X443452D01*
Y537896D01*
X443320D01*
Y537765D01*
X443452D01*
Y537633D01*
Y537502D01*
Y537371D01*
X443583D01*
Y537240D01*
Y537108D01*
X443714D01*
Y536977D01*
Y536846D01*
Y536714D01*
X443846D01*
Y536583D01*
Y536452D01*
Y536320D01*
X443977D01*
Y536189D01*
Y536058D01*
Y535926D01*
X444108D01*
Y535795D01*
Y535664D01*
Y535533D01*
X444240D01*
Y535401D01*
Y535270D01*
Y535139D01*
Y535007D01*
Y534876D01*
X444371D01*
Y534745D01*
Y534614D01*
Y534482D01*
Y534351D01*
X444502D01*
Y534220D01*
Y534088D01*
Y533957D01*
Y533826D01*
Y533695D01*
Y533563D01*
Y533432D01*
Y533301D01*
Y533169D01*
Y533038D01*
Y532907D01*
Y532775D01*
Y532644D01*
Y532513D01*
Y532381D01*
Y532250D01*
Y532119D01*
Y531988D01*
Y531856D01*
Y531725D01*
Y531594D01*
Y531462D01*
Y531331D01*
Y531200D01*
Y531069D01*
Y530937D01*
Y530806D01*
X444371D01*
Y530675D01*
Y530543D01*
Y530412D01*
Y530281D01*
X444240D01*
Y530150D01*
Y530018D01*
Y529887D01*
X444108D01*
Y529756D01*
Y529624D01*
Y529493D01*
X443977D01*
Y529362D01*
Y529230D01*
X443846D01*
Y529099D01*
Y528968D01*
Y528836D01*
X443714D01*
Y528705D01*
Y528574D01*
X443583D01*
Y528443D01*
X443452D01*
Y528311D01*
X443320D01*
Y528180D01*
X443452D01*
Y528049D01*
X443320D01*
Y527917D01*
X443189D01*
Y527786D01*
Y527655D01*
X443058D01*
Y527524D01*
X442927D01*
Y527392D01*
X442795D01*
Y527261D01*
X442664D01*
Y527130D01*
X442533D01*
Y526998D01*
X442401D01*
Y526867D01*
X442270D01*
Y526736D01*
X442139D01*
Y526605D01*
X441876D01*
Y526473D01*
Y526342D01*
X441614D01*
Y526211D01*
X441482D01*
Y526079D01*
X441351D01*
Y525948D01*
X441088D01*
Y525817D01*
X440826D01*
Y525685D01*
X440563D01*
Y525554D01*
X440301D01*
Y525423D01*
X439907D01*
Y525291D01*
X439644D01*
Y525160D01*
X439382D01*
Y525029D01*
X438988D01*
Y524898D01*
X438594D01*
Y524766D01*
X438068D01*
Y524635D01*
X433211D01*
Y524766D01*
X432554D01*
Y524898D01*
X431898D01*
Y525029D01*
X431635D01*
Y525160D01*
X431110D01*
Y525291D01*
X430716D01*
Y525423D01*
X430453D01*
Y525554D01*
X430059D01*
Y525685D01*
X429797D01*
Y525817D01*
X429009D01*
Y525685D01*
Y525554D01*
Y525423D01*
Y525291D01*
Y525160D01*
Y525029D01*
X428878D01*
Y524898D01*
X422576D01*
Y525029D01*
X422707D01*
Y525160D01*
X422576D01*
Y525291D01*
Y525423D01*
Y525554D01*
X422444D01*
Y525685D01*
Y525817D01*
X422576D01*
Y525948D01*
Y526079D01*
Y526211D01*
Y526342D01*
X422707D01*
Y526473D01*
Y526605D01*
Y526736D01*
X422838D01*
Y526867D01*
Y526998D01*
Y527130D01*
Y527261D01*
Y527392D01*
Y527524D01*
X422969D01*
Y527655D01*
Y527786D01*
Y527917D01*
X423101D01*
Y528049D01*
Y528180D01*
Y528311D01*
X423232D01*
Y528443D01*
Y528574D01*
Y528705D01*
Y528836D01*
X423363D01*
Y528968D01*
Y529099D01*
Y529230D01*
X423495D01*
Y529362D01*
Y529493D01*
Y529624D01*
Y529756D01*
Y529887D01*
X423363D01*
Y530018D01*
X423232D01*
Y530150D01*
X423101D01*
Y530281D01*
X422969D01*
Y530412D01*
X422838D01*
Y530543D01*
X422707D01*
Y530675D01*
X422576D01*
Y530806D01*
X422707D01*
Y530937D01*
X422444D01*
Y531069D01*
X422313D01*
Y531200D01*
X422182D01*
Y531331D01*
Y531462D01*
X422050D01*
Y531594D01*
X421919D01*
Y531725D01*
X421788D01*
Y531856D01*
Y531988D01*
X421657D01*
Y532119D01*
Y532250D01*
Y532381D01*
X421263D01*
Y532513D01*
X421394D01*
Y532644D01*
X421263D01*
Y532775D01*
Y532907D01*
X421000D01*
Y533038D01*
Y533169D01*
Y533301D01*
X420869D01*
Y533432D01*
Y533563D01*
X420737D01*
Y533695D01*
X420606D01*
Y533826D01*
X420475D01*
Y533957D01*
Y534088D01*
X420343D01*
Y534220D01*
Y534351D01*
Y534482D01*
Y534614D01*
X420081D01*
Y534745D01*
X420212D01*
Y534876D01*
Y535007D01*
X420081D01*
Y535139D01*
X419950D01*
Y535270D01*
Y535401D01*
X419818D01*
Y535533D01*
Y535664D01*
Y535795D01*
X419687D01*
Y535926D01*
Y536058D01*
X419556D01*
Y536189D01*
Y536320D01*
X419424D01*
Y536452D01*
Y536583D01*
Y536714D01*
X419293D01*
Y536846D01*
Y536977D01*
Y537108D01*
X419162D01*
Y537240D01*
Y537371D01*
Y537502D01*
X419031D01*
Y537633D01*
Y537765D01*
Y537896D01*
Y538027D01*
Y538159D01*
Y538290D01*
Y538421D01*
Y538553D01*
X418768D01*
Y538684D01*
X418899D01*
Y538815D01*
Y538946D01*
Y539078D01*
X418768D01*
Y539209D01*
Y539340D01*
Y539471D01*
Y539603D01*
Y539734D01*
Y539865D01*
Y539997D01*
Y540128D01*
X418637D01*
Y540259D01*
Y540391D01*
Y540522D01*
Y540653D01*
Y540785D01*
Y540916D01*
Y541047D01*
Y541178D01*
Y541310D01*
Y541441D01*
Y541572D01*
Y541704D01*
Y541835D01*
Y541966D01*
Y542098D01*
Y542229D01*
X418768D01*
Y542360D01*
Y542491D01*
Y542623D01*
Y542754D01*
Y542885D01*
Y543016D01*
X418899D01*
Y543148D01*
Y543279D01*
Y543410D01*
X418768D01*
Y543542D01*
X419031D01*
Y543673D01*
Y543804D01*
Y543936D01*
Y544067D01*
Y544198D01*
X419162D01*
Y544330D01*
Y544461D01*
X419293D01*
Y544592D01*
Y544723D01*
Y544855D01*
X419424D01*
Y544986D01*
X419556D01*
Y545117D01*
Y545249D01*
X419687D01*
Y545380D01*
X419818D01*
Y545511D01*
Y545643D01*
Y545774D01*
X420081D01*
Y545905D01*
X420212D01*
Y546036D01*
X420081D01*
Y546168D01*
X420343D01*
Y546299D01*
Y546430D01*
X420606D01*
Y546561D01*
X420737D01*
Y546693D01*
X420869D01*
Y546824D01*
X421000D01*
Y546955D01*
X421131D01*
Y547087D01*
X421263D01*
Y547218D01*
X421394D01*
Y547349D01*
X421657D01*
Y547481D01*
Y547612D01*
X421919D01*
Y547743D01*
X422313D01*
Y547874D01*
X422444D01*
Y548006D01*
X422707D01*
Y548137D01*
X422969D01*
Y548268D01*
X423232D01*
Y548400D01*
X423626D01*
Y548531D01*
X423888D01*
Y548662D01*
X424414D01*
Y548794D01*
X424808D01*
Y548925D01*
X426121D01*
Y549056D01*
Y549188D01*
X429009D01*
Y549056D01*
D02*
G37*
G36*
X448310Y522534D02*
X448178D01*
Y522403D01*
Y522272D01*
X448441D01*
Y522140D01*
Y522009D01*
Y521878D01*
X448572D01*
Y521746D01*
Y521615D01*
Y521484D01*
Y521353D01*
Y521221D01*
X448704D01*
Y521090D01*
Y520959D01*
Y520827D01*
X448835D01*
Y520696D01*
Y520565D01*
Y520434D01*
X448966D01*
Y520302D01*
Y520171D01*
X449097D01*
Y520040D01*
Y519908D01*
Y519777D01*
X449229D01*
Y519646D01*
Y519515D01*
Y519383D01*
X449360D01*
Y519252D01*
Y519121D01*
Y518989D01*
X449491D01*
Y518858D01*
Y518727D01*
Y518595D01*
X449623D01*
Y518464D01*
X449491D01*
Y518333D01*
Y518201D01*
X449754D01*
Y518070D01*
Y517939D01*
Y517808D01*
Y517676D01*
Y517545D01*
X449885D01*
Y517414D01*
Y517282D01*
Y517151D01*
X450016D01*
Y517020D01*
Y516889D01*
Y516757D01*
X450148D01*
Y516626D01*
Y516495D01*
Y516363D01*
X450279D01*
Y516232D01*
Y516101D01*
X450410D01*
Y515969D01*
Y515838D01*
Y515707D01*
X450542D01*
Y515576D01*
Y515444D01*
Y515313D01*
X450673D01*
Y515182D01*
Y515050D01*
X450804D01*
Y514919D01*
Y514788D01*
Y514656D01*
X450936D01*
Y514525D01*
Y514394D01*
Y514263D01*
X451067D01*
Y514131D01*
Y514000D01*
Y513869D01*
Y513737D01*
Y513606D01*
Y513475D01*
X451198D01*
Y513343D01*
Y513212D01*
Y513081D01*
X451330D01*
Y512950D01*
Y512818D01*
Y512687D01*
X451461D01*
Y512556D01*
Y512424D01*
Y512293D01*
X451592D01*
Y512162D01*
Y512031D01*
X451723D01*
Y511899D01*
Y511768D01*
Y511637D01*
X451855D01*
Y511505D01*
Y511374D01*
Y511243D01*
X451986D01*
Y511111D01*
Y510980D01*
X452117D01*
Y510849D01*
Y510718D01*
Y510586D01*
X452249D01*
Y510455D01*
Y510324D01*
Y510192D01*
Y510061D01*
Y509930D01*
Y509798D01*
X452511D01*
Y509667D01*
Y509536D01*
X346686D01*
Y509667D01*
Y509798D01*
Y509930D01*
X346555D01*
Y510061D01*
Y510192D01*
X346424D01*
Y510324D01*
Y510455D01*
Y510586D01*
Y510718D01*
Y510849D01*
Y510980D01*
X346161D01*
Y511111D01*
X346292D01*
Y511243D01*
X346161D01*
Y511374D01*
Y511505D01*
Y511637D01*
X346030D01*
Y511768D01*
Y511899D01*
Y512031D01*
X345898D01*
Y512162D01*
Y512293D01*
Y512424D01*
X345767D01*
Y512556D01*
Y512687D01*
X345636D01*
Y512818D01*
Y512950D01*
Y513081D01*
X345504D01*
Y513212D01*
Y513343D01*
Y513475D01*
Y513606D01*
X345373D01*
Y513737D01*
Y513869D01*
Y514000D01*
X345242D01*
Y514131D01*
Y514263D01*
Y514394D01*
Y514525D01*
Y514656D01*
X344979D01*
Y514788D01*
X345111D01*
Y514919D01*
Y515050D01*
X344979D01*
Y515182D01*
Y515313D01*
Y515444D01*
X344848D01*
Y515576D01*
Y515707D01*
X344717D01*
Y515838D01*
Y515969D01*
Y516101D01*
X344585D01*
Y516232D01*
Y516363D01*
Y516495D01*
X344454D01*
Y516626D01*
Y516757D01*
X344323D01*
Y516889D01*
Y517020D01*
Y517151D01*
X344192D01*
Y517282D01*
Y517414D01*
Y517545D01*
X344060D01*
Y517676D01*
Y517808D01*
Y517939D01*
X343929D01*
Y518070D01*
Y518201D01*
Y518333D01*
X343798D01*
Y518464D01*
X343929D01*
Y518595D01*
Y518727D01*
X343666D01*
Y518858D01*
X343798D01*
Y518989D01*
X343666D01*
Y519121D01*
Y519252D01*
Y519383D01*
X343535D01*
Y519515D01*
Y519646D01*
Y519777D01*
X343404D01*
Y519908D01*
Y520040D01*
Y520171D01*
X343272D01*
Y520302D01*
Y520434D01*
Y520565D01*
X343141D01*
Y520696D01*
Y520827D01*
X343010D01*
Y520959D01*
Y521090D01*
Y521221D01*
X342879D01*
Y521353D01*
Y521484D01*
Y521615D01*
X342747D01*
Y521746D01*
Y521878D01*
Y522009D01*
Y522140D01*
Y522272D01*
X342485D01*
Y522403D01*
X342616D01*
Y522534D01*
X342485D01*
Y522666D01*
X448310D01*
Y522534D01*
D02*
G37*
%LPC*%
G36*
X431110Y543148D02*
X427959D01*
Y543016D01*
X427827D01*
Y542885D01*
X427565D01*
Y542754D01*
X427040D01*
Y542623D01*
X426908D01*
Y542491D01*
X426777D01*
Y542360D01*
X426646D01*
Y542229D01*
X426383D01*
Y542098D01*
X426252D01*
Y541966D01*
X426121D01*
Y541835D01*
Y541704D01*
X425989D01*
Y541572D01*
X425727D01*
Y541441D01*
Y541310D01*
X425595D01*
Y541178D01*
Y541047D01*
X425464D01*
Y540916D01*
Y540785D01*
Y540653D01*
X425333D01*
Y540522D01*
Y540391D01*
Y540259D01*
X425202D01*
Y540128D01*
Y539997D01*
Y539865D01*
Y539734D01*
Y539603D01*
Y539471D01*
X425070D01*
Y539340D01*
Y539209D01*
Y539078D01*
Y538946D01*
X425202D01*
Y538815D01*
Y538684D01*
Y538553D01*
Y538421D01*
Y538290D01*
Y538159D01*
Y538027D01*
Y537896D01*
X425333D01*
Y537765D01*
Y537633D01*
Y537502D01*
Y537371D01*
X425464D01*
Y537240D01*
Y537108D01*
Y536977D01*
X425595D01*
Y536846D01*
Y536714D01*
Y536583D01*
X425727D01*
Y536452D01*
Y536320D01*
Y536189D01*
X425858D01*
Y536058D01*
Y535926D01*
X425989D01*
Y535795D01*
X430585D01*
Y535664D01*
X430716D01*
Y535533D01*
Y535401D01*
Y535270D01*
X430847D01*
Y535139D01*
Y535007D01*
Y534876D01*
Y534745D01*
Y534614D01*
Y534482D01*
Y534351D01*
X430716D01*
Y534220D01*
Y534088D01*
Y533957D01*
Y533826D01*
Y533695D01*
X430585D01*
Y533563D01*
Y533432D01*
Y533301D01*
Y533169D01*
X430453D01*
Y533038D01*
Y532907D01*
Y532775D01*
Y532644D01*
Y532513D01*
X430322D01*
Y532381D01*
Y532250D01*
Y532119D01*
Y531988D01*
Y531856D01*
Y531725D01*
Y531594D01*
Y531462D01*
X430191D01*
Y531331D01*
Y531200D01*
X430322D01*
Y531069D01*
X430585D01*
Y530937D01*
X430716D01*
Y530806D01*
X431372D01*
Y530675D01*
Y530543D01*
X432160D01*
Y530412D01*
X432948D01*
Y530281D01*
X434523D01*
Y530412D01*
X435049D01*
Y530543D01*
X435705D01*
Y530675D01*
Y530806D01*
X436230D01*
Y530937D01*
X436362D01*
Y531069D01*
X436493D01*
Y531200D01*
X436756D01*
Y531331D01*
Y531462D01*
X437018D01*
Y531594D01*
Y531725D01*
X437281D01*
Y531856D01*
Y531988D01*
X437412D01*
Y532119D01*
Y532250D01*
X437543D01*
Y532381D01*
Y532513D01*
X437675D01*
Y532644D01*
Y532775D01*
Y532907D01*
X437806D01*
Y533038D01*
Y533169D01*
Y533301D01*
X437937D01*
Y533432D01*
Y533563D01*
Y533695D01*
Y533826D01*
Y533957D01*
Y534088D01*
Y534220D01*
Y534351D01*
Y534482D01*
Y534614D01*
Y534745D01*
Y534876D01*
Y535007D01*
Y535139D01*
Y535270D01*
Y535401D01*
Y535533D01*
X437806D01*
Y535664D01*
Y535795D01*
Y535926D01*
Y536058D01*
Y536189D01*
X437675D01*
Y536320D01*
Y536452D01*
Y536583D01*
X437543D01*
Y536714D01*
Y536846D01*
Y536977D01*
X437412D01*
Y537108D01*
Y537240D01*
X437281D01*
Y537371D01*
Y537502D01*
Y537633D01*
Y537765D01*
X437018D01*
Y537896D01*
Y538027D01*
Y538159D01*
Y538290D01*
X436887D01*
Y538421D01*
Y538553D01*
X436756D01*
Y538684D01*
X436624D01*
Y538815D01*
Y538946D01*
Y539078D01*
X436362D01*
Y539209D01*
Y539340D01*
X436230D01*
Y539471D01*
X436099D01*
Y539603D01*
Y539734D01*
X435968D01*
Y539865D01*
X435837D01*
Y539997D01*
X435705D01*
Y540128D01*
Y540259D01*
X435574D01*
Y540391D01*
X435443D01*
Y540522D01*
X435311D01*
Y540653D01*
X435180D01*
Y540785D01*
X435049D01*
Y540916D01*
X434917D01*
Y541047D01*
X434786D01*
Y541178D01*
X434655D01*
Y541310D01*
X434392D01*
Y541441D01*
X434261D01*
Y541572D01*
X433998D01*
Y541704D01*
X433867D01*
Y541835D01*
X433604D01*
Y541966D01*
X433473D01*
Y542098D01*
X433211D01*
Y542229D01*
X432948D01*
Y542360D01*
X432817D01*
Y542491D01*
X432423D01*
Y542623D01*
X432292D01*
Y542754D01*
X431635D01*
Y542885D01*
X431241D01*
Y543016D01*
X431110D01*
Y543148D01*
D02*
G37*
G36*
X446078Y520565D02*
X445027D01*
Y520434D01*
Y520302D01*
X444896D01*
Y520171D01*
Y520040D01*
Y519908D01*
X444765D01*
Y519777D01*
Y519646D01*
X444502D01*
Y519515D01*
Y519383D01*
Y519252D01*
X444371D01*
Y519121D01*
X444240D01*
Y518989D01*
Y518858D01*
X444108D01*
Y518727D01*
Y518595D01*
X443977D01*
Y518464D01*
X443846D01*
Y518333D01*
Y518201D01*
X443714D01*
Y518070D01*
Y517939D01*
X443583D01*
Y517808D01*
Y517676D01*
X443320D01*
Y517545D01*
X443452D01*
Y517414D01*
X443189D01*
Y517282D01*
Y517151D01*
Y517020D01*
Y516889D01*
X443058D01*
Y516757D01*
X442795D01*
Y516889D01*
X442533D01*
Y517020D01*
X442401D01*
Y517151D01*
X442270D01*
Y517282D01*
X442139D01*
Y517414D01*
X441876D01*
Y517545D01*
X441745D01*
Y517676D01*
X441614D01*
Y517808D01*
Y517939D01*
X441220D01*
Y518070D01*
X441088D01*
Y518201D01*
Y518333D01*
X440826D01*
Y518464D01*
X440695D01*
Y518595D01*
X440563D01*
Y518727D01*
X440432D01*
Y518858D01*
X440169D01*
Y518989D01*
X439907D01*
Y519121D01*
Y519252D01*
X439775D01*
Y519383D01*
X439513D01*
Y519515D01*
X439382D01*
Y519646D01*
X439250D01*
Y519777D01*
X439119D01*
Y519908D01*
X438856D01*
Y520040D01*
X438725D01*
Y520171D01*
X438594D01*
Y520302D01*
X438462D01*
Y520434D01*
X438331D01*
Y520565D01*
X437412D01*
Y520434D01*
Y520302D01*
Y520171D01*
X437543D01*
Y520040D01*
Y519908D01*
Y519777D01*
X437675D01*
Y519646D01*
Y519515D01*
Y519383D01*
X437806D01*
Y519252D01*
Y519121D01*
Y518989D01*
X437937D01*
Y518858D01*
Y518727D01*
X438068D01*
Y518595D01*
Y518464D01*
Y518333D01*
X438200D01*
Y518201D01*
Y518070D01*
Y517939D01*
Y517808D01*
Y517676D01*
Y517545D01*
X438331D01*
Y517414D01*
Y517282D01*
X438462D01*
Y517151D01*
Y517020D01*
Y516889D01*
X438594D01*
Y516757D01*
Y516626D01*
Y516495D01*
X438725D01*
Y516363D01*
Y516232D01*
X438856D01*
Y516101D01*
Y515969D01*
Y515838D01*
Y515707D01*
X438988D01*
Y515576D01*
Y515444D01*
Y515313D01*
X439119D01*
Y515182D01*
Y515050D01*
Y514919D01*
Y514788D01*
Y514656D01*
X439382D01*
Y514525D01*
Y514394D01*
Y514263D01*
Y514131D01*
Y514000D01*
Y513869D01*
X439513D01*
Y513737D01*
Y513606D01*
Y513475D01*
X439644D01*
Y513343D01*
Y513212D01*
X439775D01*
Y513081D01*
Y512950D01*
Y512818D01*
X439907D01*
Y512687D01*
Y512556D01*
Y512424D01*
X440038D01*
Y512293D01*
Y512162D01*
X440169D01*
Y512031D01*
Y511899D01*
Y511768D01*
X440301D01*
Y511637D01*
X442533D01*
Y511768D01*
Y511899D01*
X442401D01*
Y512031D01*
Y512162D01*
Y512293D01*
Y512424D01*
Y512556D01*
Y512687D01*
X442270D01*
Y512818D01*
Y512950D01*
X442007D01*
Y513081D01*
X442139D01*
Y513212D01*
Y513343D01*
X442007D01*
Y513475D01*
Y513606D01*
Y513737D01*
X441876D01*
Y513869D01*
Y514000D01*
X441745D01*
Y514131D01*
Y514263D01*
Y514394D01*
X441614D01*
Y514525D01*
Y514656D01*
Y514788D01*
X441482D01*
Y514919D01*
Y515050D01*
Y515182D01*
X441351D01*
Y515313D01*
Y515444D01*
X441482D01*
Y515313D01*
X441745D01*
Y515182D01*
X441876D01*
Y515050D01*
X442139D01*
Y514919D01*
X442270D01*
Y514788D01*
X442401D01*
Y514656D01*
X442533D01*
Y514525D01*
X442795D01*
Y514394D01*
X442927D01*
Y514263D01*
X443058D01*
Y514131D01*
X443189D01*
Y514000D01*
X443452D01*
Y513869D01*
X443583D01*
Y513737D01*
X443714D01*
Y513606D01*
X444108D01*
Y513737D01*
Y513869D01*
X444240D01*
Y514000D01*
X444371D01*
Y514131D01*
Y514263D01*
X444502D01*
Y514394D01*
X444633D01*
Y514525D01*
Y514656D01*
X444765D01*
Y514788D01*
X444896D01*
Y514919D01*
Y515050D01*
Y515182D01*
X445027D01*
Y515313D01*
X445159D01*
Y515444D01*
Y515576D01*
X445290D01*
Y515444D01*
Y515313D01*
X445421D01*
Y515182D01*
Y515050D01*
X445552D01*
Y514919D01*
Y514788D01*
Y514656D01*
X445684D01*
Y514525D01*
Y514394D01*
Y514263D01*
Y514131D01*
Y514000D01*
Y513869D01*
X445815D01*
Y513737D01*
Y513606D01*
Y513475D01*
X445946D01*
Y513343D01*
Y513212D01*
Y513081D01*
X446078D01*
Y512950D01*
Y512818D01*
Y512687D01*
X446209D01*
Y512556D01*
Y512424D01*
Y512293D01*
X446340D01*
Y512162D01*
Y512031D01*
X446472D01*
Y511899D01*
Y511768D01*
Y511637D01*
X448835D01*
Y511768D01*
Y511899D01*
Y512031D01*
Y512162D01*
X448704D01*
Y512293D01*
Y512424D01*
Y512556D01*
X448572D01*
Y512687D01*
Y512818D01*
X448441D01*
Y512950D01*
Y513081D01*
Y513212D01*
X448310D01*
Y513343D01*
Y513475D01*
Y513606D01*
X448178D01*
Y513737D01*
Y513869D01*
Y514000D01*
X448047D01*
Y514131D01*
Y514263D01*
X447916D01*
Y514394D01*
Y514525D01*
Y514656D01*
X447785D01*
Y514788D01*
Y514919D01*
Y515050D01*
Y515182D01*
X447653D01*
Y515313D01*
Y515444D01*
X447522D01*
Y515576D01*
X447653D01*
Y515707D01*
Y515838D01*
X447391D01*
Y515969D01*
Y516101D01*
Y516232D01*
Y516363D01*
Y516495D01*
Y516626D01*
X447259D01*
Y516757D01*
Y516889D01*
X447128D01*
Y517020D01*
Y517151D01*
Y517282D01*
X446997D01*
Y517414D01*
Y517545D01*
Y517676D01*
X446865D01*
Y517808D01*
Y517939D01*
X446734D01*
Y518070D01*
Y518201D01*
Y518333D01*
X446603D01*
Y518464D01*
Y518595D01*
Y518727D01*
X446472D01*
Y518858D01*
Y518989D01*
Y519121D01*
Y519252D01*
Y519383D01*
X446209D01*
Y519515D01*
Y519646D01*
X446340D01*
Y519777D01*
X446209D01*
Y519908D01*
X446078D01*
Y520040D01*
Y520171D01*
Y520302D01*
Y520434D01*
Y520565D01*
D02*
G37*
G36*
X423363D02*
X416798D01*
Y520434D01*
Y520302D01*
Y520171D01*
X416930D01*
Y520040D01*
Y519908D01*
X417061D01*
Y519777D01*
Y519646D01*
Y519515D01*
X417192D01*
Y519383D01*
Y519252D01*
Y519121D01*
X417324D01*
Y518989D01*
Y518858D01*
X417455D01*
Y518727D01*
Y518595D01*
Y518464D01*
X419687D01*
Y518333D01*
Y518201D01*
Y518070D01*
X419818D01*
Y517939D01*
Y517808D01*
Y517676D01*
X419950D01*
Y517545D01*
Y517414D01*
Y517282D01*
Y517151D01*
Y517020D01*
X420212D01*
Y516889D01*
X420081D01*
Y516757D01*
Y516626D01*
X420212D01*
Y516495D01*
Y516363D01*
Y516232D01*
X420343D01*
Y516101D01*
Y515969D01*
Y515838D01*
X420475D01*
Y515707D01*
Y515576D01*
Y515444D01*
X420606D01*
Y515313D01*
Y515182D01*
Y515050D01*
X420737D01*
Y514919D01*
Y514788D01*
X420869D01*
Y514656D01*
Y514525D01*
Y514394D01*
X421000D01*
Y514263D01*
Y514131D01*
Y514000D01*
X421131D01*
Y513869D01*
Y513737D01*
Y513606D01*
Y513475D01*
Y513343D01*
X421263D01*
Y513212D01*
Y513081D01*
Y512950D01*
X421525D01*
Y512818D01*
X421394D01*
Y512687D01*
Y512556D01*
X421525D01*
Y512424D01*
Y512293D01*
X421657D01*
Y512162D01*
Y512031D01*
Y511899D01*
X421788D01*
Y511768D01*
Y511637D01*
X424020D01*
Y511768D01*
Y511899D01*
Y512031D01*
Y512162D01*
X423888D01*
Y512293D01*
Y512424D01*
Y512556D01*
X423757D01*
Y512687D01*
Y512818D01*
X423626D01*
Y512950D01*
Y513081D01*
Y513212D01*
X423495D01*
Y513343D01*
Y513475D01*
Y513606D01*
X423363D01*
Y513737D01*
Y513869D01*
Y514000D01*
X423232D01*
Y514131D01*
Y514263D01*
X423101D01*
Y514394D01*
Y514525D01*
Y514656D01*
X422969D01*
Y514788D01*
Y514919D01*
Y515050D01*
X422838D01*
Y515182D01*
Y515313D01*
Y515444D01*
Y515576D01*
Y515707D01*
X422576D01*
Y515838D01*
X422707D01*
Y515969D01*
Y516101D01*
X422576D01*
Y516232D01*
Y516363D01*
Y516495D01*
Y516626D01*
X422444D01*
Y516757D01*
Y516889D01*
X422313D01*
Y517020D01*
Y517151D01*
Y517282D01*
X422182D01*
Y517414D01*
Y517545D01*
Y517676D01*
X422050D01*
Y517808D01*
Y517939D01*
X421919D01*
Y518070D01*
Y518201D01*
Y518333D01*
X421788D01*
Y518464D01*
X424020D01*
Y518595D01*
Y518727D01*
X423888D01*
Y518858D01*
Y518989D01*
Y519121D01*
X423757D01*
Y519252D01*
Y519383D01*
Y519515D01*
X423626D01*
Y519646D01*
Y519777D01*
Y519908D01*
X423495D01*
Y520040D01*
Y520171D01*
Y520302D01*
X423363D01*
Y520434D01*
Y520565D01*
D02*
G37*
G36*
X402750D02*
X398154D01*
Y520434D01*
X397761D01*
Y520302D01*
X397498D01*
Y520171D01*
X397235D01*
Y520040D01*
Y519908D01*
X396973D01*
Y519777D01*
X396841D01*
Y519646D01*
X396973D01*
Y519515D01*
X396710D01*
Y519383D01*
Y519252D01*
Y519121D01*
Y518989D01*
X396579D01*
Y518858D01*
Y518727D01*
Y518595D01*
Y518464D01*
Y518333D01*
Y518201D01*
Y518070D01*
Y517939D01*
Y517808D01*
X396710D01*
Y517676D01*
Y517545D01*
Y517414D01*
Y517282D01*
Y517151D01*
Y517020D01*
X396973D01*
Y516889D01*
X396841D01*
Y516757D01*
X396973D01*
Y516626D01*
Y516495D01*
X397104D01*
Y516363D01*
X397235D01*
Y516232D01*
X397367D01*
Y516101D01*
X397498D01*
Y515969D01*
Y515838D01*
X397629D01*
Y515707D01*
X397761D01*
Y515576D01*
X397892D01*
Y515444D01*
Y515313D01*
X398154D01*
Y515182D01*
X398286D01*
Y515050D01*
X398680D01*
Y514919D01*
Y514788D01*
X398811D01*
Y514656D01*
Y514525D01*
Y514394D01*
X398680D01*
Y514263D01*
Y514131D01*
Y514000D01*
X398548D01*
Y513869D01*
Y513737D01*
Y513606D01*
X398417D01*
Y513475D01*
Y513343D01*
Y513212D01*
X398286D01*
Y513081D01*
Y512950D01*
Y512818D01*
X398154D01*
Y512687D01*
Y512556D01*
Y512424D01*
X398023D01*
Y512293D01*
Y512162D01*
Y512031D01*
Y511899D01*
Y511768D01*
Y511637D01*
X400780D01*
Y511768D01*
Y511899D01*
Y512031D01*
Y512162D01*
X400912D01*
Y512293D01*
Y512424D01*
Y512556D01*
Y512687D01*
Y512818D01*
Y512950D01*
Y513081D01*
X401174D01*
Y513212D01*
Y513343D01*
X401043D01*
Y513475D01*
X401174D01*
Y513606D01*
Y513737D01*
Y513869D01*
Y514000D01*
X401305D01*
Y514131D01*
Y514263D01*
X402487D01*
Y514131D01*
Y514000D01*
X402619D01*
Y513869D01*
Y513737D01*
Y513606D01*
X402750D01*
Y513475D01*
Y513343D01*
X402881D01*
Y513212D01*
Y513081D01*
Y512950D01*
X403012D01*
Y512818D01*
Y512687D01*
Y512556D01*
Y512424D01*
Y512293D01*
X403275D01*
Y512162D01*
Y512031D01*
Y511899D01*
Y511768D01*
Y511637D01*
X405507D01*
Y511768D01*
Y511899D01*
Y512031D01*
Y512162D01*
X405376D01*
Y512293D01*
Y512424D01*
Y512556D01*
X405244D01*
Y512687D01*
Y512818D01*
X405113D01*
Y512950D01*
Y513081D01*
Y513212D01*
Y513343D01*
X404982D01*
Y513475D01*
Y513606D01*
Y513737D01*
Y513869D01*
Y514000D01*
X404850D01*
Y514131D01*
X404719D01*
Y514263D01*
X404850D01*
Y514394D01*
X404588D01*
Y514525D01*
Y514656D01*
Y514788D01*
Y514919D01*
Y515050D01*
Y515182D01*
X404457D01*
Y515313D01*
Y515444D01*
X404325D01*
Y515576D01*
Y515707D01*
Y515838D01*
X404194D01*
Y515969D01*
Y516101D01*
Y516232D01*
X404063D01*
Y516363D01*
Y516495D01*
Y516626D01*
X403931D01*
Y516757D01*
Y516889D01*
X403800D01*
Y517020D01*
Y517151D01*
Y517282D01*
X403669D01*
Y517414D01*
Y517545D01*
Y517676D01*
Y517808D01*
Y517939D01*
Y518070D01*
X403406D01*
Y518201D01*
Y518333D01*
Y518464D01*
Y518595D01*
Y518727D01*
Y518858D01*
X403275D01*
Y518989D01*
Y519121D01*
Y519252D01*
X403144D01*
Y519383D01*
Y519515D01*
X403012D01*
Y519646D01*
Y519777D01*
Y519908D01*
X402881D01*
Y520040D01*
Y520171D01*
Y520302D01*
X402750D01*
Y520434D01*
Y520565D01*
D02*
G37*
G36*
X383318D02*
X378723D01*
Y520434D01*
X378329D01*
Y520302D01*
X378066D01*
Y520171D01*
X377935D01*
Y520040D01*
X377803D01*
Y519908D01*
X377541D01*
Y519777D01*
X377410D01*
Y519646D01*
Y519515D01*
X377278D01*
Y519383D01*
Y519252D01*
X377147D01*
Y519121D01*
Y518989D01*
Y518858D01*
Y518727D01*
Y518595D01*
Y518464D01*
Y518333D01*
Y518201D01*
Y518070D01*
Y517939D01*
Y517808D01*
Y517676D01*
Y517545D01*
Y517414D01*
Y517282D01*
X377410D01*
Y517151D01*
X377278D01*
Y517020D01*
Y516889D01*
X377410D01*
Y516757D01*
Y516626D01*
X377541D01*
Y516495D01*
Y516363D01*
X377672D01*
Y516232D01*
X377803D01*
Y516101D01*
X377935D01*
Y515969D01*
Y515838D01*
X378066D01*
Y515707D01*
X378197D01*
Y515576D01*
X378329D01*
Y515444D01*
Y515313D01*
X378460D01*
Y515182D01*
X378591D01*
Y515050D01*
X378854D01*
Y514919D01*
X378985D01*
Y514788D01*
X379116D01*
Y514656D01*
X379379D01*
Y514525D01*
X379510D01*
Y514394D01*
X379773D01*
Y514263D01*
X380035D01*
Y514131D01*
X380429D01*
Y514000D01*
X380955D01*
Y513869D01*
X383187D01*
Y513737D01*
Y513606D01*
Y513475D01*
X383318D01*
Y513343D01*
Y513212D01*
X383449D01*
Y513081D01*
Y512950D01*
Y512818D01*
Y512687D01*
Y512556D01*
X383580D01*
Y512424D01*
X383712D01*
Y512293D01*
X383580D01*
Y512162D01*
X383712D01*
Y512031D01*
Y511899D01*
Y511768D01*
X383974D01*
Y511637D01*
X386075D01*
Y511768D01*
Y511899D01*
Y512031D01*
Y512162D01*
X385944D01*
Y512293D01*
Y512424D01*
Y512556D01*
X385812D01*
Y512687D01*
Y512818D01*
X385681D01*
Y512950D01*
Y513081D01*
Y513212D01*
X385550D01*
Y513343D01*
Y513475D01*
Y513606D01*
X385419D01*
Y513737D01*
Y513869D01*
Y514000D01*
Y514131D01*
Y514263D01*
X385156D01*
Y514394D01*
Y514525D01*
Y514656D01*
Y514788D01*
Y514919D01*
Y515050D01*
X385025D01*
Y515182D01*
Y515313D01*
Y515444D01*
X384893D01*
Y515576D01*
Y515707D01*
X384762D01*
Y515838D01*
Y515969D01*
Y516101D01*
Y516232D01*
X384631D01*
Y516363D01*
Y516495D01*
Y516626D01*
X384500D01*
Y516757D01*
Y516889D01*
X384368D01*
Y517020D01*
Y517151D01*
Y517282D01*
X384237D01*
Y517414D01*
Y517545D01*
Y517676D01*
Y517808D01*
Y517939D01*
X383974D01*
Y518070D01*
X384106D01*
Y518201D01*
Y518333D01*
X383843D01*
Y518464D01*
Y518595D01*
Y518727D01*
Y518858D01*
Y518989D01*
Y519121D01*
X383712D01*
Y519252D01*
Y519383D01*
X383580D01*
Y519515D01*
Y519646D01*
Y519777D01*
X383449D01*
Y519908D01*
Y520040D01*
Y520171D01*
X383318D01*
Y520302D01*
Y520434D01*
Y520565D01*
D02*
G37*
G36*
X361917D02*
X357321D01*
Y520434D01*
X356927D01*
Y520302D01*
X356665D01*
Y520171D01*
X356533D01*
Y520040D01*
X356271D01*
Y519908D01*
X356139D01*
Y519777D01*
Y519646D01*
X356008D01*
Y519515D01*
X355877D01*
Y519383D01*
Y519252D01*
X355746D01*
Y519121D01*
Y518989D01*
Y518858D01*
X355614D01*
Y518727D01*
Y518595D01*
Y518464D01*
Y518333D01*
Y518201D01*
Y518070D01*
Y517939D01*
X355746D01*
Y517808D01*
Y517676D01*
Y517545D01*
X355877D01*
Y517414D01*
Y517282D01*
Y517151D01*
X356008D01*
Y517020D01*
Y516889D01*
Y516757D01*
X356139D01*
Y516626D01*
X356271D01*
Y516495D01*
Y516363D01*
X356402D01*
Y516232D01*
Y516101D01*
X356665D01*
Y515969D01*
Y515838D01*
X356796D01*
Y515707D01*
Y515576D01*
X357059D01*
Y515444D01*
Y515313D01*
X357321D01*
Y515182D01*
X357453D01*
Y515050D01*
X357715D01*
Y514919D01*
X357846D01*
Y514788D01*
X357978D01*
Y514656D01*
X357846D01*
Y514525D01*
X357978D01*
Y514394D01*
X357715D01*
Y514263D01*
Y514131D01*
Y514000D01*
Y513869D01*
Y513737D01*
Y513606D01*
X357584D01*
Y513475D01*
Y513343D01*
Y513212D01*
Y513081D01*
X357453D01*
Y512950D01*
Y512818D01*
Y512687D01*
X357321D01*
Y512556D01*
Y512424D01*
Y512293D01*
X357190D01*
Y512162D01*
Y512031D01*
Y511899D01*
Y511768D01*
X357321D01*
Y511637D01*
X359816D01*
Y511768D01*
Y511899D01*
Y512031D01*
X359947D01*
Y512162D01*
Y512293D01*
Y512424D01*
X360078D01*
Y512556D01*
Y512687D01*
Y512818D01*
Y512950D01*
X360210D01*
Y513081D01*
Y513212D01*
Y513343D01*
Y513475D01*
X360341D01*
Y513606D01*
Y513737D01*
Y513869D01*
X360472D01*
Y514000D01*
Y514131D01*
Y514263D01*
X361654D01*
Y514131D01*
X361785D01*
Y514000D01*
Y513869D01*
Y513737D01*
Y513606D01*
Y513475D01*
X361917D01*
Y513343D01*
Y513212D01*
Y513081D01*
X362048D01*
Y512950D01*
Y512818D01*
Y512687D01*
X362179D01*
Y512556D01*
Y512424D01*
Y512293D01*
X362311D01*
Y512162D01*
Y512031D01*
X362442D01*
Y511899D01*
Y511768D01*
Y511637D01*
X364674D01*
Y511768D01*
Y511899D01*
Y512031D01*
Y512162D01*
Y512293D01*
X364411D01*
Y512424D01*
X364543D01*
Y512556D01*
X364411D01*
Y512687D01*
Y512818D01*
Y512950D01*
X364280D01*
Y513081D01*
Y513212D01*
Y513343D01*
X364149D01*
Y513475D01*
Y513606D01*
Y513737D01*
X364017D01*
Y513869D01*
Y514000D01*
X363886D01*
Y514131D01*
Y514263D01*
Y514394D01*
Y514525D01*
X363755D01*
Y514656D01*
Y514788D01*
Y514919D01*
X363623D01*
Y515050D01*
Y515182D01*
X363492D01*
Y515313D01*
Y515444D01*
Y515576D01*
Y515707D01*
Y515838D01*
Y515969D01*
X363229D01*
Y516101D01*
X363361D01*
Y516232D01*
Y516363D01*
X363098D01*
Y516495D01*
Y516626D01*
Y516757D01*
Y516889D01*
Y517020D01*
X362967D01*
Y517151D01*
Y517282D01*
Y517414D01*
X362836D01*
Y517545D01*
Y517676D01*
Y517808D01*
X362704D01*
Y517939D01*
Y518070D01*
X362573D01*
Y518201D01*
Y518333D01*
Y518464D01*
X362442D01*
Y518595D01*
Y518727D01*
Y518858D01*
X362311D01*
Y518989D01*
Y519121D01*
Y519252D01*
X362179D01*
Y519383D01*
Y519515D01*
Y519646D01*
X362048D01*
Y519777D01*
X362179D01*
Y519908D01*
Y520040D01*
X361917D01*
Y520171D01*
Y520302D01*
Y520434D01*
Y520565D01*
D02*
G37*
G36*
X352594D02*
X346161D01*
Y520434D01*
Y520302D01*
Y520171D01*
Y520040D01*
X346292D01*
Y519908D01*
Y519777D01*
Y519646D01*
X346424D01*
Y519515D01*
Y519383D01*
Y519252D01*
X346555D01*
Y519121D01*
Y518989D01*
Y518858D01*
X346686D01*
Y518727D01*
Y518595D01*
X346817D01*
Y518464D01*
X348918D01*
Y518333D01*
Y518201D01*
X349049D01*
Y518070D01*
Y517939D01*
Y517808D01*
X349181D01*
Y517676D01*
Y517545D01*
X349312D01*
Y517414D01*
Y517282D01*
Y517151D01*
X349443D01*
Y517020D01*
Y516889D01*
Y516757D01*
Y516626D01*
X349575D01*
Y516495D01*
Y516363D01*
X349706D01*
Y516232D01*
Y516101D01*
Y515969D01*
X349837D01*
Y515838D01*
Y515707D01*
Y515576D01*
Y515444D01*
Y515313D01*
Y515182D01*
X350100D01*
Y515050D01*
X349969D01*
Y514919D01*
X350100D01*
Y514788D01*
Y514656D01*
Y514525D01*
X350231D01*
Y514394D01*
Y514263D01*
Y514131D01*
X350362D01*
Y514000D01*
Y513869D01*
X350494D01*
Y513737D01*
Y513606D01*
Y513475D01*
X350625D01*
Y513343D01*
Y513212D01*
Y513081D01*
X350756D01*
Y512950D01*
Y512818D01*
Y512687D01*
X350888D01*
Y512556D01*
Y512424D01*
Y512293D01*
X351019D01*
Y512162D01*
Y512031D01*
Y511899D01*
X351150D01*
Y511768D01*
Y511637D01*
X353251D01*
Y511768D01*
Y511899D01*
Y512031D01*
Y512162D01*
X353120D01*
Y512293D01*
Y512424D01*
Y512556D01*
Y512687D01*
Y512818D01*
Y512950D01*
X352857D01*
Y513081D01*
X352988D01*
Y513212D01*
Y513343D01*
X352857D01*
Y513475D01*
Y513606D01*
Y513737D01*
X352726D01*
Y513869D01*
Y514000D01*
X352594D01*
Y514131D01*
Y514263D01*
Y514394D01*
X352463D01*
Y514525D01*
Y514656D01*
Y514788D01*
X352332D01*
Y514919D01*
Y515050D01*
Y515182D01*
X352201D01*
Y515313D01*
Y515444D01*
X352069D01*
Y515576D01*
Y515707D01*
Y515838D01*
X351938D01*
Y515969D01*
Y516101D01*
Y516232D01*
X351807D01*
Y516363D01*
Y516495D01*
Y516626D01*
Y516757D01*
Y516889D01*
Y517020D01*
X351544D01*
Y517151D01*
Y517282D01*
Y517414D01*
Y517545D01*
Y517676D01*
Y517808D01*
X351413D01*
Y517939D01*
Y518070D01*
X351282D01*
Y518201D01*
Y518333D01*
Y518464D01*
X353251D01*
Y518595D01*
Y518727D01*
Y518858D01*
X353120D01*
Y518989D01*
Y519121D01*
Y519252D01*
Y519383D01*
Y519515D01*
Y519646D01*
X352857D01*
Y519777D01*
X352988D01*
Y519908D01*
Y520040D01*
X352857D01*
Y520171D01*
Y520302D01*
Y520434D01*
X352594D01*
Y520565D01*
D02*
G37*
G36*
X431372D02*
X428484D01*
Y520434D01*
X428353D01*
Y520302D01*
X428090D01*
Y520171D01*
X427827D01*
Y520040D01*
X427696D01*
Y519908D01*
X427433D01*
Y519777D01*
X427302D01*
Y519646D01*
X427171D01*
Y519515D01*
Y519383D01*
X427040D01*
Y519252D01*
X426908D01*
Y519121D01*
X426777D01*
Y518989D01*
Y518858D01*
X426646D01*
Y518727D01*
Y518595D01*
Y518464D01*
Y518333D01*
X426514D01*
Y518201D01*
Y518070D01*
Y517939D01*
Y517808D01*
Y517676D01*
Y517545D01*
Y517414D01*
Y517282D01*
Y517151D01*
Y517020D01*
Y516889D01*
X426646D01*
Y516757D01*
Y516626D01*
Y516495D01*
Y516363D01*
X426777D01*
Y516232D01*
Y516101D01*
Y515969D01*
X426908D01*
Y515838D01*
Y515707D01*
X427040D01*
Y515576D01*
Y515444D01*
Y515313D01*
X427171D01*
Y515182D01*
Y515050D01*
X427302D01*
Y514919D01*
Y514788D01*
X427433D01*
Y514656D01*
X427565D01*
Y514525D01*
X427696D01*
Y514394D01*
Y514263D01*
X427827D01*
Y514131D01*
X427959D01*
Y514000D01*
Y513869D01*
X428090D01*
Y513737D01*
X428221D01*
Y513606D01*
Y513475D01*
X428484D01*
Y513343D01*
X428615D01*
Y513212D01*
X428747D01*
Y513081D01*
X428878D01*
Y512950D01*
X429140D01*
Y512818D01*
X429272D01*
Y512687D01*
Y512556D01*
X429666D01*
Y512424D01*
Y512293D01*
X430191D01*
Y512162D01*
X430322D01*
Y512031D01*
X430585D01*
Y511899D01*
X430978D01*
Y511768D01*
X431372D01*
Y511637D01*
X431898D01*
Y511505D01*
X433736D01*
Y511637D01*
X434261D01*
Y511768D01*
X434523D01*
Y511899D01*
X434786D01*
Y512031D01*
X434917D01*
Y512162D01*
X435180D01*
Y512293D01*
X435443D01*
Y512424D01*
Y512556D01*
X435705D01*
Y512687D01*
Y512818D01*
Y512950D01*
X435837D01*
Y513081D01*
Y513212D01*
Y513343D01*
X436099D01*
Y513475D01*
Y513606D01*
Y513737D01*
Y513869D01*
Y514000D01*
Y514131D01*
Y514263D01*
Y514394D01*
Y514525D01*
Y514656D01*
Y514788D01*
Y514919D01*
Y515050D01*
Y515182D01*
Y515313D01*
Y515444D01*
Y515576D01*
Y515707D01*
Y515838D01*
X435837D01*
Y515969D01*
X435968D01*
Y516101D01*
X435837D01*
Y516232D01*
X435705D01*
Y516363D01*
Y516495D01*
Y516626D01*
Y516757D01*
X435574D01*
Y516889D01*
Y517020D01*
X435443D01*
Y517151D01*
Y517282D01*
X435311D01*
Y517414D01*
Y517545D01*
X435180D01*
Y517676D01*
Y517808D01*
X435049D01*
Y517939D01*
X434786D01*
Y518070D01*
Y518201D01*
Y518333D01*
X434523D01*
Y518464D01*
Y518595D01*
X434261D01*
Y518727D01*
Y518858D01*
X434130D01*
Y518989D01*
X433867D01*
Y519121D01*
Y519252D01*
X433604D01*
Y519383D01*
X433342D01*
Y519515D01*
X433211D01*
Y519646D01*
X432948D01*
Y519777D01*
X432817D01*
Y519908D01*
X432685D01*
Y520040D01*
X432423D01*
Y520171D01*
X432029D01*
Y520302D01*
X431766D01*
Y520434D01*
X431372D01*
Y520565D01*
D02*
G37*
G36*
X411678D02*
X408658D01*
Y520434D01*
X408527D01*
Y520302D01*
X408264D01*
Y520171D01*
X408002D01*
Y520040D01*
X407870D01*
Y519908D01*
X407739D01*
Y519777D01*
X407608D01*
Y519646D01*
X407477D01*
Y519515D01*
X407345D01*
Y519383D01*
X407214D01*
Y519252D01*
X407083D01*
Y519121D01*
Y518989D01*
Y518858D01*
Y518727D01*
X406951D01*
Y518595D01*
Y518464D01*
Y518333D01*
Y518201D01*
X406820D01*
Y518070D01*
Y517939D01*
Y517808D01*
Y517676D01*
Y517545D01*
Y517414D01*
Y517282D01*
Y517151D01*
X406951D01*
Y517020D01*
Y516889D01*
Y516757D01*
Y516626D01*
Y516495D01*
X407083D01*
Y516363D01*
Y516232D01*
Y516101D01*
Y515969D01*
Y515838D01*
Y515707D01*
X407345D01*
Y515576D01*
X407214D01*
Y515444D01*
X407345D01*
Y515313D01*
Y515182D01*
X407477D01*
Y515050D01*
X407608D01*
Y514919D01*
Y514788D01*
X407739D01*
Y514656D01*
Y514525D01*
X407870D01*
Y514394D01*
X408002D01*
Y514263D01*
Y514131D01*
X408133D01*
Y514000D01*
X408264D01*
Y513869D01*
X408395D01*
Y513737D01*
Y513606D01*
Y513475D01*
X408658D01*
Y513343D01*
X408789D01*
Y513212D01*
X408921D01*
Y513081D01*
X409183D01*
Y512950D01*
X409315D01*
Y512818D01*
X409446D01*
Y512687D01*
X409577D01*
Y512556D01*
X409840D01*
Y512424D01*
X410102D01*
Y512293D01*
X410365D01*
Y512162D01*
X410628D01*
Y512031D01*
X410890D01*
Y511899D01*
X411153D01*
Y511768D01*
X411547D01*
Y511637D01*
X412203D01*
Y511505D01*
X414041D01*
Y511637D01*
X414435D01*
Y511768D01*
X414698D01*
Y511899D01*
X414960D01*
Y512031D01*
X415092D01*
Y512162D01*
X415354D01*
Y512293D01*
X415617D01*
Y512424D01*
Y512556D01*
X415879D01*
Y512687D01*
X416011D01*
Y512818D01*
Y512950D01*
X416142D01*
Y513081D01*
Y513212D01*
X416273D01*
Y513343D01*
Y513475D01*
Y513606D01*
Y513737D01*
Y513869D01*
Y514000D01*
Y514131D01*
X416536D01*
Y514263D01*
Y514394D01*
Y514525D01*
Y514656D01*
Y514788D01*
X416273D01*
Y514919D01*
Y515050D01*
Y515182D01*
Y515313D01*
Y515444D01*
Y515576D01*
Y515707D01*
Y515838D01*
Y515969D01*
X416142D01*
Y516101D01*
Y516232D01*
Y516363D01*
X416011D01*
Y516495D01*
Y516626D01*
Y516757D01*
X415879D01*
Y516889D01*
X415748D01*
Y517020D01*
Y517151D01*
X415617D01*
Y517282D01*
Y517414D01*
X415485D01*
Y517545D01*
X415354D01*
Y517676D01*
Y517808D01*
Y517939D01*
X415092D01*
Y518070D01*
X414960D01*
Y518201D01*
Y518333D01*
X414698D01*
Y518464D01*
Y518595D01*
Y518727D01*
X414435D01*
Y518858D01*
Y518989D01*
X414173D01*
Y519121D01*
X414041D01*
Y519252D01*
X413779D01*
Y519383D01*
X413647D01*
Y519515D01*
X413516D01*
Y519646D01*
X413253D01*
Y519777D01*
X413122D01*
Y519908D01*
X412860D01*
Y520040D01*
X412597D01*
Y520171D01*
X412334D01*
Y520302D01*
X411940D01*
Y520434D01*
X411678D01*
Y520565D01*
D02*
G37*
G36*
X391196D02*
X388439D01*
Y520434D01*
X388307D01*
Y520302D01*
X387913D01*
Y520171D01*
X387782D01*
Y520040D01*
Y519908D01*
X387519D01*
Y519777D01*
Y519646D01*
X387388D01*
Y519515D01*
Y519383D01*
X387257D01*
Y519252D01*
Y519121D01*
Y518989D01*
X387125D01*
Y518858D01*
Y518727D01*
Y518595D01*
Y518464D01*
Y518333D01*
X387257D01*
Y518201D01*
Y518070D01*
Y517939D01*
Y517808D01*
X387388D01*
Y517676D01*
X389357D01*
Y517808D01*
Y517939D01*
Y518070D01*
Y518201D01*
X389489D01*
Y518333D01*
X389620D01*
Y518464D01*
X389751D01*
Y518595D01*
X390277D01*
Y518727D01*
X390408D01*
Y518595D01*
X391064D01*
Y518464D01*
X391327D01*
Y518333D01*
X391590D01*
Y518201D01*
X391721D01*
Y518070D01*
X391852D01*
Y517939D01*
Y517808D01*
Y517676D01*
Y517545D01*
Y517414D01*
Y517282D01*
Y517151D01*
X391590D01*
Y517020D01*
X391064D01*
Y516889D01*
X390145D01*
Y516757D01*
X389095D01*
Y516626D01*
X388964D01*
Y516495D01*
X388701D01*
Y516363D01*
X388439D01*
Y516232D01*
X388307D01*
Y516101D01*
X388176D01*
Y515969D01*
Y515838D01*
X388045D01*
Y515707D01*
Y515576D01*
Y515444D01*
Y515313D01*
Y515182D01*
Y515050D01*
Y514919D01*
Y514788D01*
Y514656D01*
Y514525D01*
X388176D01*
Y514394D01*
Y514263D01*
Y514131D01*
Y514000D01*
X388307D01*
Y513869D01*
X388439D01*
Y513737D01*
Y513606D01*
Y513475D01*
X388701D01*
Y513343D01*
Y513212D01*
X388832D01*
Y513081D01*
X388964D01*
Y512950D01*
X389095D01*
Y512818D01*
X389226D01*
Y512687D01*
Y512556D01*
X389489D01*
Y512424D01*
X389620D01*
Y512293D01*
X390014D01*
Y512162D01*
X390277D01*
Y512031D01*
X390408D01*
Y511899D01*
X390670D01*
Y511768D01*
X391064D01*
Y511637D01*
X391590D01*
Y511505D01*
X393690D01*
Y511637D01*
X393953D01*
Y511768D01*
X394215D01*
Y511899D01*
X394478D01*
Y512031D01*
X394741D01*
Y512162D01*
X394872D01*
Y512293D01*
X395135D01*
Y512424D01*
Y512556D01*
X395266D01*
Y512687D01*
X395397D01*
Y512818D01*
Y512950D01*
Y513081D01*
Y513212D01*
X395529D01*
Y513343D01*
Y513475D01*
Y513606D01*
Y513737D01*
Y513869D01*
X395397D01*
Y514000D01*
Y514131D01*
Y514263D01*
X395266D01*
Y514394D01*
X393034D01*
Y514263D01*
Y514131D01*
Y514000D01*
X392903D01*
Y513869D01*
Y513737D01*
X392640D01*
Y513606D01*
X391064D01*
Y513737D01*
X390933D01*
Y513869D01*
X390670D01*
Y514000D01*
X390539D01*
Y514131D01*
X390408D01*
Y514263D01*
Y514394D01*
Y514525D01*
Y514656D01*
Y514788D01*
X390670D01*
Y514919D01*
X390802D01*
Y515050D01*
X392377D01*
Y515182D01*
X392903D01*
Y515313D01*
X393165D01*
Y515444D01*
X393428D01*
Y515576D01*
X393690D01*
Y515707D01*
X393822D01*
Y515838D01*
X393953D01*
Y515969D01*
X394084D01*
Y516101D01*
Y516232D01*
X394215D01*
Y516363D01*
Y516495D01*
Y516626D01*
Y516757D01*
Y516889D01*
Y517020D01*
Y517151D01*
Y517282D01*
Y517414D01*
Y517545D01*
Y517676D01*
X394084D01*
Y517808D01*
Y517939D01*
X393953D01*
Y518070D01*
Y518201D01*
X393822D01*
Y518333D01*
Y518464D01*
X393690D01*
Y518595D01*
Y518727D01*
X393559D01*
Y518858D01*
X393428D01*
Y518989D01*
Y519121D01*
X393296D01*
Y519252D01*
X393034D01*
Y519383D01*
Y519515D01*
X392771D01*
Y519646D01*
X392640D01*
Y519777D01*
X392509D01*
Y519908D01*
X392246D01*
Y520040D01*
X392115D01*
Y520171D01*
X391721D01*
Y520302D01*
X391458D01*
Y520434D01*
X391196D01*
Y520565D01*
D02*
G37*
G36*
X370713D02*
X367956D01*
Y520434D01*
X367694D01*
Y520302D01*
X367431D01*
Y520171D01*
X367037D01*
Y520040D01*
Y519908D01*
X366775D01*
Y519777D01*
Y519646D01*
X366643D01*
Y519515D01*
X366512D01*
Y519383D01*
X366381D01*
Y519252D01*
X366249D01*
Y519121D01*
Y518989D01*
X366118D01*
Y518858D01*
Y518727D01*
Y518595D01*
X365987D01*
Y518464D01*
Y518333D01*
Y518201D01*
Y518070D01*
Y517939D01*
X365856D01*
Y517808D01*
Y517676D01*
Y517545D01*
Y517414D01*
Y517282D01*
X365987D01*
Y517151D01*
Y517020D01*
Y516889D01*
Y516757D01*
Y516626D01*
X366118D01*
Y516495D01*
Y516363D01*
Y516232D01*
X366249D01*
Y516101D01*
Y515969D01*
Y515838D01*
X366381D01*
Y515707D01*
Y515576D01*
Y515444D01*
X366512D01*
Y515313D01*
Y515182D01*
X366643D01*
Y515050D01*
X366775D01*
Y514919D01*
Y514788D01*
Y514656D01*
X366906D01*
Y514525D01*
Y514394D01*
X367037D01*
Y514263D01*
X367168D01*
Y514131D01*
Y514000D01*
X367431D01*
Y513869D01*
X367562D01*
Y513737D01*
Y513606D01*
X367694D01*
Y513475D01*
X367956D01*
Y513343D01*
X368088D01*
Y513212D01*
X368219D01*
Y513081D01*
X368350D01*
Y512950D01*
Y512818D01*
X368613D01*
Y512687D01*
X368744D01*
Y512556D01*
X369007D01*
Y512424D01*
X369138D01*
Y512293D01*
X369532D01*
Y512162D01*
X369663D01*
Y512031D01*
X370057D01*
Y511899D01*
X370320D01*
Y511768D01*
X370845D01*
Y511637D01*
X371239D01*
Y511505D01*
X373208D01*
Y511637D01*
X373602D01*
Y511768D01*
X373865D01*
Y511899D01*
X374127D01*
Y512031D01*
X374390D01*
Y512162D01*
X374521D01*
Y512293D01*
X374652D01*
Y512424D01*
X374784D01*
Y512556D01*
X374915D01*
Y512687D01*
X375046D01*
Y512818D01*
X375178D01*
Y512950D01*
Y513081D01*
X375309D01*
Y513212D01*
Y513343D01*
Y513475D01*
X375440D01*
Y513606D01*
Y513737D01*
Y513869D01*
X375571D01*
Y514000D01*
Y514131D01*
Y514263D01*
Y514394D01*
Y514525D01*
Y514656D01*
Y514788D01*
Y514919D01*
Y515050D01*
Y515182D01*
X375440D01*
Y515313D01*
Y515444D01*
Y515576D01*
Y515707D01*
X375309D01*
Y515838D01*
Y515969D01*
Y516101D01*
X375178D01*
Y516232D01*
Y516363D01*
Y516495D01*
X375046D01*
Y516626D01*
Y516757D01*
Y516889D01*
X374784D01*
Y517020D01*
Y517151D01*
Y517282D01*
Y517414D01*
X374652D01*
Y517545D01*
Y517676D01*
X374390D01*
Y517808D01*
Y517939D01*
X374258D01*
Y518070D01*
X374127D01*
Y518201D01*
X373996D01*
Y518333D01*
Y518464D01*
X373865D01*
Y518595D01*
X373733D01*
Y518727D01*
X373602D01*
Y518858D01*
X373471D01*
Y518989D01*
X373339D01*
Y519121D01*
X373208D01*
Y519252D01*
X372945D01*
Y519383D01*
X372814D01*
Y519515D01*
X372552D01*
Y519646D01*
X372420D01*
Y519777D01*
X372289D01*
Y519908D01*
X372026D01*
Y520040D01*
X371764D01*
Y520171D01*
X371501D01*
Y520302D01*
X371107D01*
Y520434D01*
X370713D01*
Y520565D01*
D02*
G37*
%LPD*%
G36*
X401174Y518333D02*
Y518201D01*
Y518070D01*
X401305D01*
Y517939D01*
Y517808D01*
Y517676D01*
X401437D01*
Y517545D01*
Y517414D01*
Y517282D01*
X401568D01*
Y517151D01*
Y517020D01*
X401699D01*
Y516889D01*
Y516757D01*
Y516626D01*
Y516495D01*
Y516363D01*
X399730D01*
Y516495D01*
X399467D01*
Y516626D01*
X399336D01*
Y516757D01*
X399205D01*
Y516889D01*
Y517020D01*
X399074D01*
Y517151D01*
Y517282D01*
X398942D01*
Y517414D01*
Y517545D01*
Y517676D01*
Y517808D01*
X398811D01*
Y517939D01*
X398942D01*
Y518070D01*
Y518201D01*
X399074D01*
Y518333D01*
X399205D01*
Y518464D01*
X401174D01*
Y518333D01*
D02*
G37*
G36*
X381611D02*
X381742D01*
Y518201D01*
Y518070D01*
Y517939D01*
X381874D01*
Y517808D01*
Y517676D01*
Y517545D01*
X382005D01*
Y517414D01*
Y517282D01*
X382136D01*
Y517151D01*
Y517020D01*
Y516889D01*
X382267D01*
Y516757D01*
Y516626D01*
Y516495D01*
Y516363D01*
Y516232D01*
X382530D01*
Y516101D01*
Y515969D01*
X380561D01*
Y516101D01*
X380298D01*
Y516232D01*
X380167D01*
Y516363D01*
X380035D01*
Y516495D01*
X379904D01*
Y516626D01*
Y516757D01*
X379773D01*
Y516889D01*
X379642D01*
Y517020D01*
Y517151D01*
X379510D01*
Y517282D01*
Y517414D01*
Y517545D01*
Y517676D01*
X379379D01*
Y517808D01*
Y517939D01*
X379510D01*
Y518070D01*
Y518201D01*
X379642D01*
Y518333D01*
X379773D01*
Y518464D01*
X381611D01*
Y518333D01*
D02*
G37*
G36*
X360210D02*
Y518201D01*
X360472D01*
Y518070D01*
X360341D01*
Y517939D01*
Y517808D01*
X360472D01*
Y517676D01*
Y517545D01*
X360604D01*
Y517414D01*
Y517282D01*
Y517151D01*
X360735D01*
Y517020D01*
Y516889D01*
Y516757D01*
Y516626D01*
X360866D01*
Y516495D01*
Y516363D01*
X359028D01*
Y516495D01*
X358634D01*
Y516626D01*
Y516757D01*
X358372D01*
Y516889D01*
X358240D01*
Y517020D01*
X358109D01*
Y517151D01*
Y517282D01*
Y517414D01*
Y517545D01*
Y517676D01*
Y517808D01*
Y517939D01*
Y518070D01*
Y518201D01*
Y518333D01*
X358240D01*
Y518464D01*
X360210D01*
Y518333D01*
D02*
G37*
G36*
X431110D02*
X431504D01*
Y518201D01*
X431898D01*
Y518070D01*
X432160D01*
Y517939D01*
Y517808D01*
X432423D01*
Y517676D01*
X432554D01*
Y517545D01*
X432817D01*
Y517414D01*
Y517282D01*
X433079D01*
Y517151D01*
X432948D01*
Y517020D01*
X433079D01*
Y516889D01*
X433211D01*
Y516757D01*
Y516626D01*
X433342D01*
Y516495D01*
Y516363D01*
X433473D01*
Y516232D01*
Y516101D01*
X433604D01*
Y515969D01*
Y515838D01*
Y515707D01*
Y515576D01*
X433736D01*
Y515444D01*
Y515313D01*
Y515182D01*
Y515050D01*
Y514919D01*
Y514788D01*
X433604D01*
Y514656D01*
Y514525D01*
Y514394D01*
X433473D01*
Y514263D01*
X433342D01*
Y514131D01*
X433211D01*
Y514000D01*
X433079D01*
Y513869D01*
X432685D01*
Y513737D01*
X431635D01*
Y513869D01*
X431241D01*
Y514000D01*
X430716D01*
Y514131D01*
X430585D01*
Y514263D01*
X430453D01*
Y514394D01*
X430191D01*
Y514525D01*
X430059D01*
Y514656D01*
X429928D01*
Y514788D01*
X429797D01*
Y514919D01*
Y515050D01*
X429666D01*
Y515182D01*
X429534D01*
Y515313D01*
Y515444D01*
X429403D01*
Y515576D01*
Y515707D01*
X429140D01*
Y515838D01*
X429272D01*
Y515969D01*
Y516101D01*
X429140D01*
Y516232D01*
Y516363D01*
Y516495D01*
Y516626D01*
X429009D01*
Y516757D01*
Y516889D01*
Y517020D01*
Y517151D01*
Y517282D01*
X429140D01*
Y517414D01*
Y517545D01*
Y517676D01*
Y517808D01*
X429272D01*
Y517939D01*
X429403D01*
Y518070D01*
X429534D01*
Y518201D01*
X429797D01*
Y518333D01*
X430191D01*
Y518464D01*
X431110D01*
Y518333D01*
D02*
G37*
G36*
X411415D02*
X411809D01*
Y518201D01*
X412072D01*
Y518070D01*
X412334D01*
Y517939D01*
X412466D01*
Y517808D01*
X412728D01*
Y517676D01*
Y517545D01*
X412991D01*
Y517414D01*
X413122D01*
Y517282D01*
X413253D01*
Y517151D01*
X413385D01*
Y517020D01*
Y516889D01*
X413516D01*
Y516757D01*
X413385D01*
Y516626D01*
X413647D01*
Y516495D01*
Y516363D01*
Y516232D01*
X413779D01*
Y516101D01*
Y515969D01*
Y515838D01*
X413910D01*
Y515707D01*
Y515576D01*
Y515444D01*
Y515313D01*
Y515182D01*
Y515050D01*
Y514919D01*
Y514788D01*
Y514656D01*
X413779D01*
Y514525D01*
Y514394D01*
X413647D01*
Y514263D01*
Y514131D01*
Y514000D01*
X413253D01*
Y513869D01*
X412860D01*
Y513737D01*
X411809D01*
Y513869D01*
X411415D01*
Y514000D01*
X411022D01*
Y514131D01*
X410890D01*
Y514263D01*
X410628D01*
Y514394D01*
X410496D01*
Y514525D01*
X410234D01*
Y514656D01*
Y514788D01*
X410102D01*
Y514919D01*
X409971D01*
Y515050D01*
X409840D01*
Y515182D01*
X409708D01*
Y515313D01*
Y515444D01*
Y515576D01*
X409577D01*
Y515707D01*
Y515838D01*
X409446D01*
Y515969D01*
Y516101D01*
Y516232D01*
X409315D01*
Y516363D01*
Y516495D01*
Y516626D01*
Y516757D01*
Y516889D01*
Y517020D01*
Y517151D01*
Y517282D01*
Y517414D01*
Y517545D01*
X409446D01*
Y517676D01*
Y517808D01*
X409577D01*
Y517939D01*
X409708D01*
Y518070D01*
Y518201D01*
X409971D01*
Y518333D01*
X410365D01*
Y518464D01*
X411415D01*
Y518333D01*
D02*
G37*
G36*
X370582D02*
X370845D01*
Y518201D01*
X371107D01*
Y518070D01*
X371370D01*
Y517939D01*
X371633D01*
Y517808D01*
X371764D01*
Y517676D01*
X371895D01*
Y517545D01*
X372158D01*
Y517414D01*
Y517282D01*
X372289D01*
Y517151D01*
X372420D01*
Y517020D01*
X372552D01*
Y516889D01*
Y516757D01*
X372683D01*
Y516626D01*
Y516495D01*
X372814D01*
Y516363D01*
X372945D01*
Y516232D01*
Y516101D01*
Y515969D01*
X373077D01*
Y515838D01*
Y515707D01*
Y515576D01*
Y515444D01*
Y515313D01*
Y515182D01*
Y515050D01*
Y514919D01*
Y514788D01*
Y514656D01*
Y514525D01*
X372945D01*
Y514394D01*
Y514263D01*
X372683D01*
Y514131D01*
Y514000D01*
X372420D01*
Y513869D01*
X372026D01*
Y513737D01*
X370845D01*
Y513869D01*
X370582D01*
Y514000D01*
X370057D01*
Y514131D01*
Y514263D01*
X369794D01*
Y514394D01*
X369532D01*
Y514525D01*
Y514656D01*
X369269D01*
Y514788D01*
Y514919D01*
X369138D01*
Y515050D01*
X369007D01*
Y515182D01*
X368875D01*
Y515313D01*
Y515444D01*
X368744D01*
Y515576D01*
X368613D01*
Y515707D01*
Y515838D01*
Y515969D01*
X368481D01*
Y516101D01*
Y516232D01*
Y516363D01*
Y516495D01*
Y516626D01*
Y516757D01*
Y516889D01*
Y517020D01*
Y517151D01*
Y517282D01*
Y517414D01*
Y517545D01*
Y517676D01*
X368613D01*
Y517808D01*
Y517939D01*
X368744D01*
Y518070D01*
X369007D01*
Y518201D01*
X369138D01*
Y518333D01*
X369532D01*
Y518464D01*
X370582D01*
Y518333D01*
D02*
G37*
D10*
X452000Y365500D02*
Y415500D01*
X431500Y365500D02*
X452000D01*
X431500D02*
Y415500D01*
X452000D01*
X293701Y590551D02*
X493701D01*
X293701Y570551D02*
X493701D01*
Y590551D01*
X293701Y570551D02*
Y590551D01*
X518498Y466502D02*
X519498Y465503D01*
Y463503D01*
X518498Y462504D01*
X517499D01*
X516499Y463503D01*
Y465503D01*
X515499Y466502D01*
X514500D01*
X513500Y465503D01*
Y463503D01*
X514500Y462504D01*
X519498Y468502D02*
X513500D01*
X515499Y470501D01*
X513500Y472500D01*
X519498D01*
X516499Y474500D02*
Y478498D01*
X519498Y480498D02*
Y484496D01*
X518498D01*
X514500Y480498D01*
X513500D01*
X269002Y445498D02*
X268002Y446497D01*
Y448497D01*
X269002Y449496D01*
X270001D01*
X271001Y448497D01*
Y446497D01*
X272001Y445498D01*
X273000D01*
X274000Y446497D01*
Y448497D01*
X273000Y449496D01*
X268002Y443498D02*
X274000D01*
X272001Y441499D01*
X274000Y439500D01*
X268002D01*
X271001Y437500D02*
Y433502D01*
X268002Y427503D02*
X269002Y429503D01*
X271001Y431502D01*
X273000D01*
X274000Y430503D01*
Y428503D01*
X273000Y427503D01*
X272001D01*
X271001Y428503D01*
Y431502D01*
X432496Y218498D02*
X433496Y219498D01*
X435495D01*
X436495Y218498D01*
Y217499D01*
X435495Y216499D01*
X433496D01*
X432496Y215499D01*
Y214500D01*
X433496Y213500D01*
X435495D01*
X436495Y214500D01*
X426498Y219498D02*
X430497D01*
Y213500D01*
X426498D01*
X430497Y216499D02*
X428497D01*
X424499Y213500D02*
Y219498D01*
X421499D01*
X420500Y218498D01*
Y216499D01*
X421499Y215499D01*
X424499D01*
X422499D02*
X420500Y213500D01*
X418501Y219498D02*
X416501D01*
X417501D01*
Y213500D01*
X418501D01*
X416501D01*
X413502D02*
Y217499D01*
X411503Y219498D01*
X409503Y217499D01*
Y213500D01*
Y216499D01*
X413502D01*
X407504Y219498D02*
Y213500D01*
X403505D01*
X519498Y306503D02*
Y302504D01*
X513500D01*
Y306503D01*
X516499Y302504D02*
Y304504D01*
X513500Y308503D02*
X519498D01*
X513500Y312501D01*
X519498D01*
X518498Y318499D02*
X519498Y317500D01*
Y315500D01*
X518498Y314501D01*
X514500D01*
X513500Y315500D01*
Y317500D01*
X514500Y318499D01*
X516499Y320499D02*
Y324497D01*
X518498Y326497D02*
X519498Y327497D01*
Y329496D01*
X518498Y330496D01*
X517499D01*
X516499Y329496D01*
Y328496D01*
Y329496D01*
X515499Y330496D01*
X514500D01*
X513500Y329496D01*
Y327497D01*
X514500Y326497D01*
X268002Y326497D02*
Y330496D01*
X274000D01*
Y326497D01*
X271001Y330496D02*
Y328496D01*
X274000Y324497D02*
X268002D01*
X274000Y320499D01*
X268002D01*
X269002Y314501D02*
X268002Y315500D01*
Y317500D01*
X269002Y318499D01*
X273000D01*
X274000Y317500D01*
Y315500D01*
X273000Y314501D01*
X271001Y312501D02*
Y308503D01*
X274000Y303504D02*
X268002D01*
X271001Y306503D01*
Y302504D01*
X518498Y431502D02*
X519498Y430503D01*
Y428503D01*
X518498Y427504D01*
X517499D01*
X516499Y428503D01*
Y430503D01*
X515499Y431502D01*
X514500D01*
X513500Y430503D01*
Y428503D01*
X514500Y427504D01*
X519498Y433502D02*
X513500D01*
X515499Y435501D01*
X513500Y437500D01*
X519498D01*
X516499Y439500D02*
Y443498D01*
X519498Y449497D02*
Y445498D01*
X516499D01*
X517499Y447497D01*
Y448497D01*
X516499Y449497D01*
X514500D01*
X513500Y448497D01*
Y446497D01*
X514500Y445498D01*
X268002Y281497D02*
Y285495D01*
X274000D01*
Y281497D01*
X271001Y285495D02*
Y283496D01*
X274000Y279497D02*
X268002D01*
X274000Y275499D01*
X268002D01*
X269002Y269501D02*
X268002Y270500D01*
Y272500D01*
X269002Y273499D01*
X273000D01*
X274000Y272500D01*
Y270500D01*
X273000Y269501D01*
X271001Y267501D02*
Y263503D01*
X274000Y257505D02*
Y261503D01*
X270001Y257505D01*
X269002D01*
X268002Y258504D01*
Y260504D01*
X269002Y261503D01*
X495996Y214500D02*
Y220498D01*
X491997Y214500D01*
Y220498D01*
X485999D02*
X489997D01*
Y214500D01*
X485999D01*
X489997Y217499D02*
X487998D01*
X481000Y220498D02*
X483000D01*
X483999Y219498D01*
Y215500D01*
X483000Y214500D01*
X481000D01*
X480001Y215500D01*
Y219498D01*
X481000Y220498D01*
X478001Y217499D02*
X474003D01*
X472003Y214500D02*
Y218499D01*
X470004Y220498D01*
X468005Y218499D01*
Y214500D01*
Y217499D01*
X472003D01*
X319496Y214500D02*
Y220498D01*
X315497Y214500D01*
Y220498D01*
X309499D02*
X313497D01*
Y214500D01*
X309499D01*
X313497Y217499D02*
X311498D01*
X304500Y220498D02*
X306500D01*
X307499Y219498D01*
Y215500D01*
X306500Y214500D01*
X304500D01*
X303501Y215500D01*
Y219498D01*
X304500Y220498D01*
X301501Y217499D02*
X297503D01*
X295503Y220498D02*
Y214500D01*
X292504D01*
X291505Y215500D01*
Y216499D01*
X292504Y217499D01*
X295503D01*
X292504D01*
X291505Y218499D01*
Y219498D01*
X292504Y220498D01*
X295503D01*
X269002Y410498D02*
X268002Y411497D01*
Y413497D01*
X269002Y414496D01*
X270001D01*
X271001Y413497D01*
Y411497D01*
X272001Y410498D01*
X273000D01*
X274000Y411497D01*
Y413497D01*
X273000Y414496D01*
X268002Y408498D02*
X274000D01*
X272001Y406499D01*
X274000Y404500D01*
X268002D01*
X271001Y402500D02*
Y398502D01*
X274000Y393503D02*
X268002D01*
X271001Y396502D01*
Y392503D01*
X518498Y396502D02*
X519498Y395503D01*
Y393503D01*
X518498Y392504D01*
X517499D01*
X516499Y393503D01*
Y395503D01*
X515499Y396502D01*
X514500D01*
X513500Y395503D01*
Y393503D01*
X514500Y392504D01*
X519498Y398502D02*
X513500D01*
X515499Y400501D01*
X513500Y402500D01*
X519498D01*
X516499Y404500D02*
Y408498D01*
X518498Y410498D02*
X519498Y411497D01*
Y413497D01*
X518498Y414497D01*
X517499D01*
X516499Y413497D01*
Y412497D01*
Y413497D01*
X515499Y414497D01*
X514500D01*
X513500Y413497D01*
Y411497D01*
X514500Y410498D01*
X269002Y480498D02*
X268002Y481497D01*
Y483497D01*
X269002Y484496D01*
X270001D01*
X271001Y483497D01*
Y481497D01*
X272001Y480498D01*
X273000D01*
X274000Y481497D01*
Y483497D01*
X273000Y484496D01*
X268002Y478498D02*
X274000D01*
X272001Y476499D01*
X274000Y474500D01*
X268002D01*
X271001Y472500D02*
Y468502D01*
X269002Y466502D02*
X268002Y465503D01*
Y463503D01*
X269002Y462503D01*
X270001D01*
X271001Y463503D01*
X272001Y462503D01*
X273000D01*
X274000Y463503D01*
Y465503D01*
X273000Y466502D01*
X272001D01*
X271001Y465503D01*
X270001Y466502D01*
X269002D01*
X271001Y465503D02*
Y463503D01*
X519498Y262503D02*
Y258504D01*
X513500D01*
Y262503D01*
X516499Y258504D02*
Y260504D01*
X513500Y264502D02*
X519498D01*
X513500Y268501D01*
X519498D01*
X518498Y274499D02*
X519498Y273499D01*
Y271500D01*
X518498Y270500D01*
X514500D01*
X513500Y271500D01*
Y273499D01*
X514500Y274499D01*
X516499Y276498D02*
Y280497D01*
X513500Y282497D02*
Y284496D01*
Y283496D01*
X519498D01*
X518498Y282497D01*
X269002Y518497D02*
X268002Y519497D01*
Y521496D01*
X269002Y522496D01*
X270001D01*
X271001Y521496D01*
Y519497D01*
X272001Y518497D01*
X273000D01*
X274000Y519497D01*
Y521496D01*
X273000Y522496D01*
X268002Y516498D02*
X274000D01*
X272001Y514498D01*
X274000Y512499D01*
X268002D01*
X271001Y510499D02*
Y506501D01*
X274000Y504501D02*
Y502502D01*
Y503502D01*
X268002D01*
X269002Y504501D01*
Y499503D02*
X268002Y498503D01*
Y496504D01*
X269002Y495504D01*
X273000D01*
X274000Y496504D01*
Y498503D01*
X273000Y499503D01*
X269002D01*
X447501Y483249D02*
X448501Y484249D01*
X450500D01*
X451500Y483249D01*
Y482250D01*
X450500Y481250D01*
X448501D01*
X447501Y480250D01*
Y479251D01*
X448501Y478251D01*
X450500D01*
X451500Y479251D01*
X445502Y478251D02*
Y484249D01*
X441503Y478251D01*
Y484249D01*
X439504Y482250D02*
X438504D01*
Y481250D01*
X439504D01*
Y482250D01*
Y479251D02*
X438504D01*
Y478251D01*
X439504D01*
Y479251D01*
X518498Y501502D02*
X519498Y500503D01*
Y498503D01*
X518498Y497504D01*
X517499D01*
X516499Y498503D01*
Y500503D01*
X515499Y501502D01*
X514500D01*
X513500Y500503D01*
Y498503D01*
X514500Y497504D01*
X519498Y503502D02*
X513500D01*
X515499Y505501D01*
X513500Y507500D01*
X519498D01*
X516499Y509500D02*
Y513498D01*
X514500Y515498D02*
X513500Y516497D01*
Y518497D01*
X514500Y519496D01*
X518498D01*
X519498Y518497D01*
Y516497D01*
X518498Y515498D01*
X517499D01*
X516499Y516497D01*
Y519496D01*
X269002Y375498D02*
X268002Y376497D01*
Y378497D01*
X269002Y379496D01*
X270001D01*
X271001Y378497D01*
Y376497D01*
X272001Y375498D01*
X273000D01*
X274000Y376497D01*
Y378497D01*
X273000Y379496D01*
X268002Y373498D02*
X274000D01*
X272001Y371499D01*
X274000Y369500D01*
X268002D01*
X271001Y367500D02*
Y363502D01*
X274000Y357504D02*
Y361502D01*
X270001Y357504D01*
X269002D01*
X268002Y358503D01*
Y360503D01*
X269002Y361502D01*
X518498Y362502D02*
X519498Y361502D01*
Y359503D01*
X518498Y358503D01*
X517499D01*
X516499Y359503D01*
Y361502D01*
X515499Y362502D01*
X514500D01*
X513500Y361502D01*
Y359503D01*
X514500Y358503D01*
X519498Y364501D02*
X513500D01*
X515499Y366501D01*
X513500Y368500D01*
X519498D01*
X516499Y370499D02*
Y374498D01*
X513500Y376497D02*
Y378497D01*
Y377497D01*
X519498D01*
X518498Y376497D01*
X447501Y499000D02*
Y502998D01*
X448501Y503998D01*
X450500D01*
X451500Y502998D01*
Y499000D01*
X450500Y498000D01*
X448501D01*
X449501Y499999D02*
X447501Y498000D01*
X448501D02*
X447501Y499000D01*
X445502Y503998D02*
Y499000D01*
X444502Y498000D01*
X442503D01*
X441503Y499000D01*
Y503998D01*
X439504D02*
X435505D01*
X437504D01*
Y498000D01*
X433506D02*
Y503998D01*
X431506Y501999D01*
X429507Y503998D01*
Y498000D01*
X423509Y502998D02*
X424509Y503998D01*
X426508D01*
X427508Y502998D01*
Y501999D01*
X426508Y500999D01*
X424509D01*
X423509Y499999D01*
Y499000D01*
X424509Y498000D01*
X426508D01*
X427508Y499000D01*
X421510Y500999D02*
X417511D01*
X411513Y502998D02*
X412513Y503998D01*
X414512D01*
X415512Y502998D01*
Y501999D01*
X414512Y500999D01*
X412513D01*
X411513Y499999D01*
Y499000D01*
X412513Y498000D01*
X414512D01*
X415512Y499000D01*
X409514Y503998D02*
X405515D01*
X407514D01*
Y498000D01*
X403515D02*
Y503998D01*
X400517D01*
X399517Y502998D01*
Y500999D01*
X400517Y499999D01*
X403515D01*
X401516D02*
X399517Y498000D01*
X397517Y503998D02*
Y498000D01*
X395518Y499999D01*
X393519Y498000D01*
Y503998D01*
X391519D02*
Y498000D01*
Y500999D01*
X387521D01*
Y503998D01*
Y498000D01*
X385521Y503998D02*
Y498000D01*
X381523D01*
X379523Y500999D02*
X375525D01*
X373525Y503998D02*
Y499999D01*
X371526Y498000D01*
X369527Y499999D01*
Y503998D01*
X367527Y502998D02*
X366528Y503998D01*
X364528D01*
X363528Y502998D01*
Y499000D01*
X364528Y498000D01*
X366528D01*
X367527Y499000D01*
Y502998D01*
X361529D02*
X360529Y503998D01*
X358530D01*
X357530Y502998D01*
Y499000D01*
X358530Y498000D01*
X360529D01*
X361529Y499000D01*
Y502998D01*
X489702Y568549D02*
X493701D01*
Y562551D01*
X489702D01*
X493701Y565550D02*
X491701D01*
X487703Y562551D02*
Y568549D01*
X484704D01*
X483704Y567550D01*
Y565550D01*
X484704Y564550D01*
X487703D01*
X485703D02*
X483704Y562551D01*
X481705Y565550D02*
X477706D01*
X475707Y568549D02*
X471708D01*
X473707D01*
Y562551D01*
X465710Y568549D02*
X469709D01*
Y565550D01*
X467709D01*
X469709D01*
Y562551D01*
X463710Y568549D02*
X459712D01*
X461711D01*
Y562551D01*
X457712D02*
Y568549D01*
X455713Y566550D01*
X453714Y568549D01*
Y562551D01*
X451714Y567550D02*
X450715Y568549D01*
X448715D01*
X447716Y567550D01*
Y563551D01*
X448715Y562551D01*
X450715D01*
X451714Y563551D01*
Y567550D01*
X445716D02*
X444717Y568549D01*
X442717D01*
X441718Y567550D01*
Y566550D01*
X442717Y565550D01*
X443717D01*
X442717D01*
X441718Y564550D01*
Y563551D01*
X442717Y562551D01*
X444717D01*
X445716Y563551D01*
X435719Y568549D02*
X439718D01*
Y565550D01*
X437719Y566550D01*
X436719D01*
X435719Y565550D01*
Y563551D01*
X436719Y562551D01*
X438719D01*
X439718Y563551D01*
X433720Y565550D02*
X429721D01*
X423723Y568549D02*
X425723Y567550D01*
X427722Y565550D01*
Y563551D01*
X426722Y562551D01*
X424723D01*
X423723Y563551D01*
Y564550D01*
X424723Y565550D01*
X427722D01*
D12*
X498409Y363035D02*
X501075D01*
X498409Y373202D02*
X501075D01*
X499742Y371869D02*
Y374535D01*
X498409Y398035D02*
X501075D01*
X498409Y408202D02*
X501075D01*
X499742Y406869D02*
Y409535D01*
X498409Y433035D02*
X501075D01*
X498409Y443202D02*
X501075D01*
X499742Y441869D02*
Y444535D01*
X498409Y468035D02*
X501075D01*
X498409Y478202D02*
X501075D01*
X499742Y476869D02*
Y479535D01*
X498800Y513367D02*
X501466D01*
X500133Y512034D02*
Y514700D01*
X498800Y503200D02*
X501466D01*
X288700Y503633D02*
X286034D01*
X287367Y504966D02*
Y502300D01*
X288700Y514300D02*
X286034D01*
X288700Y468133D02*
X286034D01*
X287367Y469466D02*
Y466800D01*
X288700Y478800D02*
X286034D01*
X288700Y433133D02*
X286034D01*
X287367Y434466D02*
Y431800D01*
X288700Y443800D02*
X286034D01*
X288700Y398133D02*
X286034D01*
X287367Y399466D02*
Y396800D01*
X288700Y408800D02*
X286034D01*
X288700Y373300D02*
X286034D01*
X288700Y362633D02*
X286034D01*
X287367Y363966D02*
Y361300D01*
X363132Y231534D02*
X363799Y232201D01*
Y233534D01*
X363132Y234200D01*
X360466D01*
X359800Y233534D01*
Y232201D01*
X360466Y231534D01*
X359800Y230201D02*
X362466D01*
X363799Y228868D01*
X362466Y227536D01*
X359800D01*
X361799D01*
Y230201D01*
X359800Y226203D02*
X363799D01*
X359800Y223537D01*
X363799D01*
Y222204D02*
X359800D01*
X361799D01*
Y219538D01*
X363799D01*
X359800D01*
X385132Y231534D02*
X385799Y232201D01*
Y233534D01*
X385132Y234200D01*
X382466D01*
X381800Y233534D01*
Y232201D01*
X382466Y231534D01*
X381800Y230201D02*
X384466D01*
X385799Y228868D01*
X384466Y227536D01*
X381800D01*
X383799D01*
Y230201D01*
X381800Y226203D02*
X385799D01*
X381800Y223537D01*
X385799D01*
Y222204D02*
X381800D01*
Y219538D01*
X353300Y234200D02*
Y232867D01*
Y233534D01*
X357299D01*
X356632Y234200D01*
X353300Y228202D02*
Y230868D01*
X355966Y228202D01*
X356632D01*
X357299Y228868D01*
Y230201D01*
X356632Y230868D01*
X357299Y226869D02*
X354633D01*
X353300Y225536D01*
X354633Y224203D01*
X357299D01*
X391632Y231534D02*
X392299Y232201D01*
Y233534D01*
X391632Y234200D01*
X388966D01*
X388300Y233534D01*
Y232201D01*
X388966Y231534D01*
X390299D01*
Y232867D01*
X388300Y230201D02*
X392299D01*
X388300Y227536D01*
X392299D01*
Y226203D02*
X388300D01*
Y224203D01*
X388966Y223537D01*
X391632D01*
X392299Y224203D01*
Y226203D01*
X483132Y227135D02*
X483799Y226468D01*
Y225135D01*
X483132Y224469D01*
X482466D01*
X481799Y225135D01*
Y226468D01*
X481133Y227135D01*
X480466D01*
X479800Y226468D01*
Y225135D01*
X480466Y224469D01*
X483799Y228468D02*
Y229801D01*
Y229134D01*
X479800D01*
Y228468D01*
Y229801D01*
X483132Y234466D02*
X483799Y233799D01*
Y232466D01*
X483132Y231800D01*
X480466D01*
X479800Y232466D01*
Y233799D01*
X480466Y234466D01*
X481799D01*
Y233133D01*
X493632Y223803D02*
X494299Y224469D01*
Y225802D01*
X493632Y226468D01*
X492966D01*
X492299Y225802D01*
Y225135D01*
Y225802D01*
X491633Y226468D01*
X490966D01*
X490300Y225802D01*
Y224469D01*
X490966Y223803D01*
X494299Y227801D02*
X491633D01*
X490300Y229134D01*
X491633Y230467D01*
X494299D01*
X493632Y231800D02*
X494299Y232466D01*
Y233799D01*
X493632Y234466D01*
X492966D01*
X492299Y233799D01*
Y233133D01*
Y233799D01*
X491633Y234466D01*
X490966D01*
X490300Y233799D01*
Y232466D01*
X490966Y231800D01*
X473132Y226468D02*
X473799Y225802D01*
Y224469D01*
X473132Y223803D01*
X470466D01*
X469800Y224469D01*
Y225802D01*
X470466Y226468D01*
X471799D01*
Y225135D01*
X469800Y227801D02*
X473799D01*
X469800Y230467D01*
X473799D01*
Y231800D02*
X469800D01*
Y233799D01*
X470466Y234466D01*
X473132D01*
X473799Y233799D01*
Y231800D01*
X296632Y226468D02*
X297299Y225802D01*
Y224469D01*
X296632Y223803D01*
X293966D01*
X293300Y224469D01*
Y225802D01*
X293966Y226468D01*
X295299D01*
Y225135D01*
X293300Y227801D02*
X297299D01*
X293300Y230467D01*
X297299D01*
Y231800D02*
X293300D01*
Y233799D01*
X293966Y234466D01*
X296632D01*
X297299Y233799D01*
Y231800D01*
X317132Y223803D02*
X317799Y224469D01*
Y225802D01*
X317132Y226468D01*
X316466D01*
X315799Y225802D01*
Y225135D01*
Y225802D01*
X315133Y226468D01*
X314466D01*
X313800Y225802D01*
Y224469D01*
X314466Y223803D01*
X317799Y227801D02*
X315133D01*
X313800Y229134D01*
X315133Y230467D01*
X317799D01*
X317132Y231800D02*
X317799Y232466D01*
Y233799D01*
X317132Y234466D01*
X316466D01*
X315799Y233799D01*
Y233133D01*
Y233799D01*
X315133Y234466D01*
X314466D01*
X313800Y233799D01*
Y232466D01*
X314466Y231800D01*
X306632Y227135D02*
X307299Y226468D01*
Y225135D01*
X306632Y224469D01*
X305966D01*
X305299Y225135D01*
Y226468D01*
X304633Y227135D01*
X303966D01*
X303300Y226468D01*
Y225135D01*
X303966Y224469D01*
X307299Y228468D02*
Y229801D01*
Y229134D01*
X303300D01*
Y228468D01*
Y229801D01*
X306632Y234466D02*
X307299Y233799D01*
Y232466D01*
X306632Y231800D01*
X303966D01*
X303300Y232466D01*
Y233799D01*
X303966Y234466D01*
X305299D01*
Y233133D01*
X288700Y304300D02*
Y306966D01*
X287367Y308299D01*
X286034Y306966D01*
Y304300D01*
Y306299D01*
X288700D01*
Y328799D02*
Y324800D01*
X286701D01*
X286034Y325466D01*
Y326133D01*
X286701Y326799D01*
X288700D01*
X286701D01*
X286034Y327466D01*
Y328132D01*
X286701Y328799D01*
X288700D01*
X286034Y317632D02*
X286701Y318299D01*
X288034D01*
X288700Y317632D01*
Y314966D01*
X288034Y314300D01*
X286701D01*
X286034Y314966D01*
Y316299D01*
X287367D01*
X284701Y314300D02*
Y318299D01*
X282035Y314300D01*
Y318299D01*
X280703D02*
Y314300D01*
X278703D01*
X278037Y314966D01*
Y317632D01*
X278703Y318299D01*
X280703D01*
X286034Y272632D02*
X286701Y273299D01*
X288034D01*
X288700Y272632D01*
Y269966D01*
X288034Y269300D01*
X286701D01*
X286034Y269966D01*
Y271299D01*
X287367D01*
X284701Y269300D02*
Y273299D01*
X282035Y269300D01*
Y273299D01*
X280703D02*
Y269300D01*
X278703D01*
X278037Y269966D01*
Y272632D01*
X278703Y273299D01*
X280703D01*
X288700Y283799D02*
Y279800D01*
X286701D01*
X286034Y280466D01*
Y281133D01*
X286701Y281799D01*
X288700D01*
X286701D01*
X286034Y282466D01*
Y283132D01*
X286701Y283799D01*
X288700D01*
Y259300D02*
Y261966D01*
X287367Y263299D01*
X286034Y261966D01*
Y259300D01*
Y261299D01*
X288700D01*
X507032Y317632D02*
X507698Y318299D01*
X509031D01*
X509697Y317632D01*
Y314966D01*
X509031Y314300D01*
X507698D01*
X507032Y314966D01*
Y316299D01*
X508364D01*
X505699Y314300D02*
Y318299D01*
X503033Y314300D01*
Y318299D01*
X501700D02*
Y314300D01*
X499701D01*
X499034Y314966D01*
Y317632D01*
X499701Y318299D01*
X501700D01*
Y324800D02*
Y327466D01*
X500367Y328799D01*
X499034Y327466D01*
Y324800D01*
Y326799D01*
X501700D01*
Y308299D02*
Y304300D01*
X499701D01*
X499034Y304966D01*
Y305633D01*
X499701Y306299D01*
X501700D01*
X499701D01*
X499034Y306966D01*
Y307632D01*
X499701Y308299D01*
X501700D01*
Y263299D02*
Y259300D01*
X499701D01*
X499034Y259966D01*
Y260633D01*
X499701Y261299D01*
X501700D01*
X499701D01*
X499034Y261966D01*
Y262632D01*
X499701Y263299D01*
X501700D01*
Y279800D02*
Y282466D01*
X500367Y283799D01*
X499034Y282466D01*
Y279800D01*
Y281799D01*
X501700D01*
X507032Y272632D02*
X507698Y273299D01*
X509031D01*
X509697Y272632D01*
Y269966D01*
X509031Y269300D01*
X507698D01*
X507032Y269966D01*
Y271299D01*
X508364D01*
X505699Y269300D02*
Y273299D01*
X503033Y269300D01*
Y273299D01*
X501700D02*
Y269300D01*
X499701D01*
X499034Y269966D01*
Y272632D01*
X499701Y273299D01*
X501700D01*
X411132Y231800D02*
X411799Y232466D01*
Y233799D01*
X411132Y234466D01*
X408466D01*
X407800Y233799D01*
Y232466D01*
X408466Y231800D01*
X409799D01*
Y233133D01*
X407800Y230467D02*
X411799D01*
X407800Y227801D01*
X411799D01*
Y226468D02*
X407800D01*
Y224469D01*
X408466Y223803D01*
X411132D01*
X411799Y224469D01*
Y226468D01*
X417800Y227801D02*
X421799D01*
Y229801D01*
X421132Y230467D01*
X419799D01*
X419133Y229801D01*
Y227801D01*
Y229134D02*
X417800Y230467D01*
X421799Y231800D02*
X417800Y234466D01*
X421799D02*
X417800Y231800D01*
X431799Y227801D02*
Y230467D01*
Y229134D01*
X427800D01*
X431799Y231800D02*
X427800Y234466D01*
X431799D02*
X427800Y231800D01*
D14*
X290967Y583552D02*
X289634D01*
X290300D01*
Y587550D01*
X290967Y586884D01*
X500736Y573552D02*
Y577551D01*
X502735Y575551D01*
X500069D01*
X498736Y576884D02*
X498070Y577551D01*
X496737D01*
X496070Y576884D01*
Y574218D01*
X496737Y573552D01*
X498070D01*
X498736Y574218D01*
Y576884D01*
X288301Y573552D02*
X290967D01*
X288301Y576218D01*
Y576884D01*
X288967Y577551D01*
X290300D01*
X290967Y576884D01*
X502735Y586884D02*
X502069Y587550D01*
X500736D01*
X500069Y586884D01*
Y586218D01*
X500736Y585551D01*
X501402D01*
X500736D01*
X500069Y584885D01*
Y584218D01*
X500736Y583552D01*
X502069D01*
X502735Y584218D01*
X498736D02*
X498070Y583552D01*
X496737D01*
X496070Y584218D01*
Y586884D01*
X496737Y587550D01*
X498070D01*
X498736Y586884D01*
Y586218D01*
X498070Y585551D01*
X496070D01*
D81*
X390750Y481250D02*
D03*
M02*
