G04*
G04 #@! TF.GenerationSoftware,Altium Limited,Altium Designer,20.1.12 (249)*
G04*
G04 Layer_Physical_Order=1*
G04 Layer_Color=255*
%FSLAX25Y25*%
%MOIN*%
G70*
G04*
G04 #@! TF.SameCoordinates,2042196E-867F-4DAE-B54E-166F92C2B522*
G04*
G04*
G04 #@! TF.FilePolarity,Positive*
G04*
G01*
G75*
%ADD10C,0.01000*%
G04:AMPARAMS|DCode=27|XSize=73.01mil|YSize=24.1mil|CornerRadius=12.05mil|HoleSize=0mil|Usage=FLASHONLY|Rotation=0.000|XOffset=0mil|YOffset=0mil|HoleType=Round|Shape=RoundedRectangle|*
%AMROUNDEDRECTD27*
21,1,0.07301,0.00000,0,0,0.0*
21,1,0.04891,0.02410,0,0,0.0*
1,1,0.02410,0.02445,0.00000*
1,1,0.02410,-0.02445,0.00000*
1,1,0.02410,-0.02445,0.00000*
1,1,0.02410,0.02445,0.00000*
%
%ADD27ROUNDEDRECTD27*%
%ADD28R,0.07301X0.02410*%
%ADD49R,0.04000X0.03000*%
%ADD50R,0.02362X0.06102*%
%ADD51C,0.03937*%
%ADD52R,0.05118X0.11024*%
%ADD53R,0.03500X0.03500*%
%ADD54R,0.09843X0.06693*%
%ADD55R,0.03000X0.04000*%
%ADD56R,0.22441X0.07087*%
%ADD57R,0.04700X0.07100*%
%ADD58R,0.03500X0.03500*%
%ADD59R,0.03150X0.03543*%
%ADD60R,0.04300X0.04800*%
%ADD61R,0.03500X0.07000*%
G04:AMPARAMS|DCode=62|XSize=47.24mil|YSize=11.81mil|CornerRadius=0mil|HoleSize=0mil|Usage=FLASHONLY|Rotation=315.000|XOffset=0mil|YOffset=0mil|HoleType=Round|Shape=Rectangle|*
%AMROTATEDRECTD62*
4,1,4,-0.02088,0.01253,-0.01253,0.02088,0.02088,-0.01253,0.01253,-0.02088,-0.02088,0.01253,0.0*
%
%ADD62ROTATEDRECTD62*%

G04:AMPARAMS|DCode=63|XSize=11.81mil|YSize=47.24mil|CornerRadius=0mil|HoleSize=0mil|Usage=FLASHONLY|Rotation=315.000|XOffset=0mil|YOffset=0mil|HoleType=Round|Shape=Rectangle|*
%AMROTATEDRECTD63*
4,1,4,-0.02088,-0.01253,0.01253,0.02088,0.02088,0.01253,-0.01253,-0.02088,-0.02088,-0.01253,0.0*
%
%ADD63ROTATEDRECTD63*%

G04:AMPARAMS|DCode=64|XSize=11.81mil|YSize=51.18mil|CornerRadius=0mil|HoleSize=0mil|Usage=FLASHONLY|Rotation=315.000|XOffset=0mil|YOffset=0mil|HoleType=Round|Shape=Rectangle|*
%AMROTATEDRECTD64*
4,1,4,-0.02227,-0.01392,0.01392,0.02227,0.02227,0.01392,-0.01392,-0.02227,-0.02227,-0.01392,0.0*
%
%ADD64ROTATEDRECTD64*%

%ADD65R,0.05000X0.03000*%
%ADD66R,0.01000X0.03000*%
%ADD67R,0.11024X0.05118*%
%ADD68C,0.01500*%
%ADD69C,0.02000*%
%ADD70C,0.04000*%
%ADD71C,0.02000*%
%ADD72C,0.19685*%
G04:AMPARAMS|DCode=73|XSize=130mil|YSize=70mil|CornerRadius=0mil|HoleSize=0mil|Usage=FLASHONLY|Rotation=100.000|XOffset=0mil|YOffset=0mil|HoleType=Round|Shape=Round|*
%AMOVALD73*
21,1,0.06000,0.07000,0.00000,0.00000,100.0*
1,1,0.07000,0.00521,-0.02954*
1,1,0.07000,-0.00521,0.02954*
%
%ADD73OVALD73*%

G04:AMPARAMS|DCode=74|XSize=130mil|YSize=70mil|CornerRadius=0mil|HoleSize=0mil|Usage=FLASHONLY|Rotation=80.000|XOffset=0mil|YOffset=0mil|HoleType=Round|Shape=Round|*
%AMOVALD74*
21,1,0.06000,0.07000,0.00000,0.00000,80.0*
1,1,0.07000,-0.00521,-0.02954*
1,1,0.07000,0.00521,0.02954*
%
%ADD74OVALD74*%

%ADD75C,0.08000*%
%ADD76C,0.15748*%
%ADD77C,0.07000*%
%ADD78C,0.06500*%
%ADD79C,0.04000*%
%ADD80C,0.02362*%
G36*
X287096Y589038D02*
X278729Y580671D01*
X278287Y580936D01*
X278399Y581305D01*
X278534Y582677D01*
X278399Y584049D01*
X277998Y585369D01*
X277348Y586585D01*
X276474Y587651D01*
X275408Y588526D01*
X274520Y589000D01*
X274646Y589500D01*
X286905D01*
X287096Y589038D01*
D02*
G37*
G36*
X512728Y589000D02*
X511840Y588526D01*
X510774Y587651D01*
X509900Y586585D01*
X509250Y585369D01*
X508849Y584049D01*
X508714Y582677D01*
X508849Y581305D01*
X509250Y579985D01*
X509900Y578769D01*
X510774Y577704D01*
X511840Y576829D01*
X513056Y576179D01*
X514376Y575778D01*
X515748Y575643D01*
X517120Y575778D01*
X518440Y576179D01*
X519656Y576829D01*
X520722Y577704D01*
X521596Y578769D01*
X522247Y579985D01*
X522500Y580821D01*
X523000Y580747D01*
Y544223D01*
X522500Y543986D01*
X521489Y544816D01*
X519948Y545640D01*
X518275Y546147D01*
X516535Y546318D01*
X514796Y546147D01*
X513123Y545640D01*
X511582Y544816D01*
X510230Y543707D01*
X509121Y542356D01*
X508297Y540814D01*
X507790Y539141D01*
X507619Y537402D01*
X507790Y535662D01*
X508297Y533989D01*
X509121Y532448D01*
X510230Y531096D01*
X511582Y529987D01*
X513123Y529163D01*
X514796Y528656D01*
X516535Y528485D01*
X518275Y528656D01*
X519948Y529163D01*
X521489Y529987D01*
X522500Y530817D01*
X523000Y530580D01*
Y244223D01*
X522500Y243986D01*
X521489Y244816D01*
X519948Y245640D01*
X518275Y246147D01*
X516535Y246319D01*
X514796Y246147D01*
X513123Y245640D01*
X511582Y244816D01*
X510230Y243707D01*
X509121Y242356D01*
X508297Y240814D01*
X507790Y239141D01*
X507619Y237402D01*
X507790Y235662D01*
X508297Y233989D01*
X509121Y232448D01*
X510230Y231096D01*
X511582Y229987D01*
X513123Y229163D01*
X514796Y228656D01*
X516535Y228485D01*
X518275Y228656D01*
X519948Y229163D01*
X521489Y229987D01*
X522500Y230817D01*
X523000Y230580D01*
Y222403D01*
X522500Y222328D01*
X522247Y223164D01*
X521596Y224380D01*
X520722Y225446D01*
X519656Y226321D01*
X518440Y226971D01*
X517120Y227371D01*
X515748Y227506D01*
X514376Y227371D01*
X513056Y226971D01*
X511840Y226321D01*
X510774Y225446D01*
X509900Y224380D01*
X509250Y223164D01*
X508849Y221845D01*
X508714Y220472D01*
X508849Y219100D01*
X509250Y217781D01*
X509900Y216565D01*
X510774Y215499D01*
X511840Y214624D01*
X513056Y213974D01*
X514376Y213574D01*
X515748Y213439D01*
X517120Y213574D01*
X518440Y213974D01*
X519656Y214624D01*
X520722Y215499D01*
X521596Y216565D01*
X522247Y217781D01*
X522500Y218616D01*
X523000Y218542D01*
Y211000D01*
X264500D01*
Y218218D01*
X265000Y218292D01*
X265155Y217781D01*
X265805Y216565D01*
X266680Y215499D01*
X267746Y214624D01*
X268962Y213974D01*
X270281Y213574D01*
X271654Y213439D01*
X273026Y213574D01*
X274345Y213974D01*
X275561Y214624D01*
X276627Y215499D01*
X277502Y216565D01*
X278152Y217781D01*
X278552Y219100D01*
X278687Y220472D01*
X278552Y221845D01*
X278152Y223164D01*
X277502Y224380D01*
X276627Y225446D01*
X275561Y226321D01*
X274345Y226971D01*
X273026Y227371D01*
X271654Y227506D01*
X270281Y227371D01*
X268962Y226971D01*
X267746Y226321D01*
X266680Y225446D01*
X265805Y224380D01*
X265155Y223164D01*
X265000Y222653D01*
X264500Y222727D01*
Y230500D01*
X265000Y230736D01*
X265912Y229987D01*
X267454Y229163D01*
X269127Y228656D01*
X270866Y228485D01*
X272606Y228656D01*
X274278Y229163D01*
X275820Y229987D01*
X277171Y231096D01*
X278280Y232448D01*
X279104Y233989D01*
X279612Y235662D01*
X279783Y237402D01*
X279612Y239141D01*
X279104Y240814D01*
X278280Y242356D01*
X277171Y243707D01*
X275820Y244816D01*
X274278Y245640D01*
X272606Y246147D01*
X270866Y246319D01*
X269127Y246147D01*
X267454Y245640D01*
X265912Y244816D01*
X265000Y244067D01*
X264500Y244304D01*
Y530500D01*
X265000Y530736D01*
X265912Y529987D01*
X267454Y529163D01*
X269127Y528656D01*
X270866Y528485D01*
X272606Y528656D01*
X274278Y529163D01*
X275820Y529987D01*
X277171Y531096D01*
X278280Y532448D01*
X279020Y533831D01*
X279460Y533958D01*
X279613Y533945D01*
X282279Y531279D01*
X282610Y531058D01*
X283000Y530980D01*
X289000D01*
X289390Y531058D01*
X289721Y531279D01*
X289942Y531610D01*
X290020Y532000D01*
Y556500D01*
X289942Y556890D01*
X289721Y557221D01*
X289660Y557282D01*
Y557512D01*
X289430D01*
X289221Y557721D01*
X288890Y557942D01*
X288500Y558020D01*
X278922D01*
X277020Y559922D01*
Y567578D01*
X289922Y580480D01*
X300500D01*
X300890Y580558D01*
X301221Y580779D01*
X303221Y582779D01*
X303442Y583110D01*
X303520Y583500D01*
Y587500D01*
X303442Y587890D01*
X303221Y588221D01*
X302404Y589038D01*
X302595Y589500D01*
X305634D01*
X305803Y589000D01*
X305491Y588761D01*
X304770Y587821D01*
X304317Y586726D01*
X304162Y585551D01*
X304317Y584376D01*
X304770Y583282D01*
X305491Y582342D01*
X306431Y581620D01*
X307526Y581167D01*
X308701Y581012D01*
X309875Y581167D01*
X310970Y581620D01*
X311910Y582342D01*
X312632Y583282D01*
X313085Y584376D01*
X313240Y585551D01*
X313085Y586726D01*
X312632Y587821D01*
X311910Y588761D01*
X311598Y589000D01*
X311768Y589500D01*
X315634D01*
X315803Y589000D01*
X315491Y588761D01*
X314770Y587821D01*
X314317Y586726D01*
X314162Y585551D01*
X314317Y584376D01*
X314770Y583282D01*
X315491Y582342D01*
X316431Y581620D01*
X317526Y581167D01*
X318701Y581012D01*
X319876Y581167D01*
X320970Y581620D01*
X321910Y582342D01*
X322632Y583282D01*
X323085Y584376D01*
X323240Y585551D01*
X323085Y586726D01*
X322632Y587821D01*
X321910Y588761D01*
X321598Y589000D01*
X321768Y589500D01*
X325634D01*
X325803Y589000D01*
X325491Y588761D01*
X324770Y587821D01*
X324317Y586726D01*
X324162Y585551D01*
X324317Y584376D01*
X324770Y583282D01*
X325491Y582342D01*
X326431Y581620D01*
X327526Y581167D01*
X328701Y581012D01*
X329875Y581167D01*
X330970Y581620D01*
X331910Y582342D01*
X332631Y583282D01*
X333085Y584376D01*
X333240Y585551D01*
X333085Y586726D01*
X332631Y587821D01*
X331910Y588761D01*
X331598Y589000D01*
X331768Y589500D01*
X335634D01*
X335803Y589000D01*
X335491Y588761D01*
X334770Y587821D01*
X334317Y586726D01*
X334162Y585551D01*
X334317Y584376D01*
X334770Y583282D01*
X335491Y582342D01*
X336431Y581620D01*
X337526Y581167D01*
X338701Y581012D01*
X339876Y581167D01*
X340970Y581620D01*
X341910Y582342D01*
X342632Y583282D01*
X343085Y584376D01*
X343240Y585551D01*
X343085Y586726D01*
X342632Y587821D01*
X341910Y588761D01*
X341598Y589000D01*
X341768Y589500D01*
X345634D01*
X345803Y589000D01*
X345491Y588761D01*
X344770Y587821D01*
X344317Y586726D01*
X344162Y585551D01*
X344317Y584376D01*
X344770Y583282D01*
X345491Y582342D01*
X346431Y581620D01*
X347526Y581167D01*
X348701Y581012D01*
X349875Y581167D01*
X350970Y581620D01*
X351910Y582342D01*
X352631Y583282D01*
X353085Y584376D01*
X353240Y585551D01*
X353085Y586726D01*
X352631Y587821D01*
X351910Y588761D01*
X351598Y589000D01*
X351768Y589500D01*
X355634D01*
X355803Y589000D01*
X355491Y588761D01*
X354770Y587821D01*
X354317Y586726D01*
X354162Y585551D01*
X354317Y584376D01*
X354770Y583282D01*
X355491Y582342D01*
X356431Y581620D01*
X357526Y581167D01*
X358701Y581012D01*
X359875Y581167D01*
X360970Y581620D01*
X361910Y582342D01*
X362632Y583282D01*
X363085Y584376D01*
X363240Y585551D01*
X363085Y586726D01*
X362632Y587821D01*
X361910Y588761D01*
X361598Y589000D01*
X361768Y589500D01*
X365634D01*
X365803Y589000D01*
X365491Y588761D01*
X364770Y587821D01*
X364317Y586726D01*
X364162Y585551D01*
X364317Y584376D01*
X364770Y583282D01*
X365491Y582342D01*
X366431Y581620D01*
X367526Y581167D01*
X368701Y581012D01*
X369876Y581167D01*
X370970Y581620D01*
X371910Y582342D01*
X372632Y583282D01*
X373085Y584376D01*
X373240Y585551D01*
X373085Y586726D01*
X372632Y587821D01*
X371910Y588761D01*
X371598Y589000D01*
X371768Y589500D01*
X375634D01*
X375803Y589000D01*
X375491Y588761D01*
X374770Y587821D01*
X374317Y586726D01*
X374162Y585551D01*
X374317Y584376D01*
X374770Y583282D01*
X375491Y582342D01*
X376431Y581620D01*
X377526Y581167D01*
X378701Y581012D01*
X379875Y581167D01*
X380970Y581620D01*
X381910Y582342D01*
X382631Y583282D01*
X383085Y584376D01*
X383240Y585551D01*
X383085Y586726D01*
X382631Y587821D01*
X381910Y588761D01*
X381598Y589000D01*
X381768Y589500D01*
X385634D01*
X385803Y589000D01*
X385491Y588761D01*
X384770Y587821D01*
X384317Y586726D01*
X384162Y585551D01*
X384317Y584376D01*
X384770Y583282D01*
X385491Y582342D01*
X386431Y581620D01*
X387526Y581167D01*
X388701Y581012D01*
X389876Y581167D01*
X390970Y581620D01*
X391910Y582342D01*
X392632Y583282D01*
X393085Y584376D01*
X393240Y585551D01*
X393085Y586726D01*
X392632Y587821D01*
X391910Y588761D01*
X391598Y589000D01*
X391768Y589500D01*
X395634D01*
X395803Y589000D01*
X395491Y588761D01*
X394770Y587821D01*
X394317Y586726D01*
X394162Y585551D01*
X394317Y584376D01*
X394770Y583282D01*
X395491Y582342D01*
X396431Y581620D01*
X397526Y581167D01*
X398701Y581012D01*
X399875Y581167D01*
X400084Y581253D01*
X401854Y579483D01*
X401841Y579444D01*
X401257Y579262D01*
X400970Y579482D01*
X399875Y579935D01*
X398701Y580090D01*
X397526Y579935D01*
X396431Y579482D01*
X395491Y578761D01*
X394770Y577821D01*
X394317Y576726D01*
X394162Y575551D01*
X394317Y574376D01*
X394690Y573476D01*
X389337Y568124D01*
X385500D01*
Y563124D01*
X493500D01*
Y566461D01*
X494519Y567479D01*
X494980Y567288D01*
Y562000D01*
X495058Y561610D01*
X495279Y561279D01*
X495610Y561058D01*
X496000Y560980D01*
X508000D01*
X508390Y561058D01*
X508721Y561279D01*
X509221Y561779D01*
X509442Y562110D01*
X509520Y562500D01*
Y576500D01*
X509442Y576890D01*
X509221Y577221D01*
X508890Y577442D01*
X508500Y577520D01*
X504500D01*
X504110Y577442D01*
X503779Y577221D01*
X496529Y569971D01*
X496029Y570178D01*
Y580500D01*
X495913Y581085D01*
X495581Y581582D01*
X492998Y584165D01*
X493085Y584376D01*
X493240Y585551D01*
X493085Y586726D01*
X492631Y587821D01*
X491910Y588761D01*
X491598Y589000D01*
X491768Y589500D01*
X512603D01*
X512728Y589000D01*
D02*
G37*
G36*
X475803D02*
X475491Y588761D01*
X474770Y587821D01*
X474317Y586726D01*
X474162Y585551D01*
X474317Y584376D01*
X474770Y583282D01*
X475491Y582342D01*
X476431Y581620D01*
X477526Y581167D01*
X478701Y581012D01*
X479876Y581167D01*
X480616Y581473D01*
X482171Y579918D01*
Y579190D01*
X481671Y578944D01*
X480970Y579482D01*
X479876Y579935D01*
X478701Y580090D01*
X477526Y579935D01*
X476431Y579482D01*
X475730Y578944D01*
X475230Y579190D01*
Y580551D01*
X475114Y581136D01*
X474782Y581633D01*
X472778Y583636D01*
X473085Y584376D01*
X473240Y585551D01*
X473085Y586726D01*
X472632Y587821D01*
X471910Y588761D01*
X471598Y589000D01*
X471768Y589500D01*
X475634D01*
X475803Y589000D01*
D02*
G37*
G36*
X465803D02*
X465491Y588761D01*
X464770Y587821D01*
X464317Y586726D01*
X464162Y585551D01*
X464317Y584376D01*
X464770Y583282D01*
X465491Y582342D01*
X466431Y581620D01*
X467526Y581167D01*
X468701Y581012D01*
X469875Y581167D01*
X470615Y581473D01*
X472171Y579918D01*
Y579190D01*
X471671Y578944D01*
X470970Y579482D01*
X469875Y579935D01*
X468701Y580090D01*
X467526Y579935D01*
X466431Y579482D01*
X465730Y578944D01*
X465230Y579190D01*
Y580551D01*
X465114Y581136D01*
X464782Y581633D01*
X462778Y583636D01*
X463085Y584376D01*
X463240Y585551D01*
X463085Y586726D01*
X462632Y587821D01*
X461910Y588761D01*
X461598Y589000D01*
X461768Y589500D01*
X465634D01*
X465803Y589000D01*
D02*
G37*
G36*
X455803D02*
X455491Y588761D01*
X454770Y587821D01*
X454317Y586726D01*
X454162Y585551D01*
X454317Y584376D01*
X454770Y583282D01*
X455491Y582342D01*
X456431Y581620D01*
X457526Y581167D01*
X458701Y581012D01*
X459875Y581167D01*
X460615Y581473D01*
X462171Y579918D01*
Y579190D01*
X461671Y578944D01*
X460970Y579482D01*
X459875Y579935D01*
X458701Y580090D01*
X457526Y579935D01*
X456431Y579482D01*
X455730Y578944D01*
X455230Y579190D01*
Y580551D01*
X455114Y581136D01*
X454782Y581633D01*
X452778Y583636D01*
X453085Y584376D01*
X453240Y585551D01*
X453085Y586726D01*
X452632Y587821D01*
X451910Y588761D01*
X451598Y589000D01*
X451768Y589500D01*
X455634D01*
X455803Y589000D01*
D02*
G37*
G36*
X445803D02*
X445491Y588761D01*
X444770Y587821D01*
X444317Y586726D01*
X444162Y585551D01*
X444317Y584376D01*
X444770Y583282D01*
X445491Y582342D01*
X446431Y581620D01*
X447526Y581167D01*
X448701Y581012D01*
X449875Y581167D01*
X450616Y581473D01*
X452171Y579918D01*
Y579190D01*
X451671Y578944D01*
X450970Y579482D01*
X449875Y579935D01*
X448701Y580090D01*
X447526Y579935D01*
X446431Y579482D01*
X445730Y578944D01*
X445230Y579190D01*
Y579299D01*
X445114Y579884D01*
X444782Y580381D01*
X442306Y582857D01*
X442631Y583282D01*
X443085Y584376D01*
X443240Y585551D01*
X443085Y586726D01*
X442631Y587821D01*
X441910Y588761D01*
X441598Y589000D01*
X441768Y589500D01*
X445634D01*
X445803Y589000D01*
D02*
G37*
G36*
X415803D02*
X415491Y588761D01*
X414770Y587821D01*
X414317Y586726D01*
X414162Y585551D01*
X414317Y584376D01*
X414770Y583282D01*
X415491Y582342D01*
X416431Y581620D01*
X417526Y581167D01*
X418701Y581012D01*
X419875Y581167D01*
X420615Y581473D01*
X422171Y579918D01*
Y579190D01*
X421671Y578944D01*
X420970Y579482D01*
X419875Y579935D01*
X418701Y580090D01*
X417526Y579935D01*
X416431Y579482D01*
X415730Y578944D01*
X415230Y579190D01*
Y580551D01*
X415114Y581136D01*
X414782Y581633D01*
X412778Y583636D01*
X413085Y584376D01*
X413240Y585551D01*
X413085Y586726D01*
X412632Y587821D01*
X411910Y588761D01*
X411598Y589000D01*
X411768Y589500D01*
X415634D01*
X415803Y589000D01*
D02*
G37*
G36*
X405803D02*
X405491Y588761D01*
X404770Y587821D01*
X404317Y586726D01*
X404162Y585551D01*
X404317Y584376D01*
X404770Y583282D01*
X405491Y582342D01*
X406431Y581620D01*
X407526Y581167D01*
X408701Y581012D01*
X409875Y581167D01*
X410615Y581473D01*
X412171Y579918D01*
Y579190D01*
X411671Y578944D01*
X410970Y579482D01*
X409875Y579935D01*
X408701Y580090D01*
X407526Y579935D01*
X406431Y579482D01*
X405730Y578944D01*
X405230Y579190D01*
Y579799D01*
X405114Y580384D01*
X404782Y580881D01*
X402523Y583140D01*
X402632Y583282D01*
X403085Y584376D01*
X403240Y585551D01*
X403085Y586726D01*
X402632Y587821D01*
X401910Y588761D01*
X401598Y589000D01*
X401768Y589500D01*
X405634D01*
X405803Y589000D01*
D02*
G37*
G36*
X485803D02*
X485491Y588761D01*
X484770Y587821D01*
X484317Y586726D01*
X484162Y585551D01*
X484317Y584376D01*
X484770Y583282D01*
X485491Y582342D01*
X486431Y581620D01*
X487526Y581167D01*
X488701Y581012D01*
X489876Y581167D01*
X490970Y581620D01*
X491110Y581728D01*
X492971Y579867D01*
Y578200D01*
X492471Y578030D01*
X491910Y578761D01*
X490970Y579482D01*
X489876Y579935D01*
X488701Y580090D01*
X487526Y579935D01*
X486431Y579482D01*
X485730Y578944D01*
X485230Y579190D01*
Y580551D01*
X485114Y581136D01*
X484782Y581633D01*
X482778Y583636D01*
X483085Y584376D01*
X483240Y585551D01*
X483085Y586726D01*
X482631Y587821D01*
X481910Y588761D01*
X481598Y589000D01*
X481768Y589500D01*
X485634D01*
X485803Y589000D01*
D02*
G37*
G36*
X508500Y562500D02*
X508000Y562000D01*
X496000D01*
Y568000D01*
X504500Y576500D01*
X508500D01*
Y562500D01*
D02*
G37*
G36*
X265002Y579985D02*
X265651Y578769D01*
X266526Y577704D01*
X267592Y576829D01*
X268438Y576377D01*
X268559Y575892D01*
X268558Y575890D01*
X268480Y575500D01*
Y570000D01*
Y568000D01*
Y554000D01*
X268558Y553610D01*
X268779Y553279D01*
X278980Y543078D01*
Y542075D01*
X278495Y541953D01*
X278280Y542356D01*
X277171Y543707D01*
X275820Y544816D01*
X274278Y545640D01*
X272606Y546147D01*
X270866Y546318D01*
X269127Y546147D01*
X267454Y545640D01*
X265912Y544816D01*
X265000Y544067D01*
X264500Y544304D01*
Y579916D01*
X265000Y579990D01*
X265002Y579985D01*
D02*
G37*
G36*
X302500Y587500D02*
Y583500D01*
X300500Y581500D01*
X289500D01*
X276000Y568000D01*
Y559500D01*
X278500Y557000D01*
X288500D01*
X289000Y556500D01*
Y532000D01*
X283000D01*
X280000Y535000D01*
Y543500D01*
X269500Y554000D01*
Y568000D01*
Y575500D01*
X275000D01*
X289000Y589500D01*
X300500D01*
X302500Y587500D01*
D02*
G37*
%LPC*%
G36*
X388701Y580090D02*
X387526Y579935D01*
X386431Y579482D01*
X385491Y578761D01*
X384770Y577821D01*
X384317Y576726D01*
X384162Y575551D01*
X384317Y574376D01*
X384770Y573282D01*
X385491Y572342D01*
X386431Y571620D01*
X387526Y571167D01*
X388701Y571012D01*
X389876Y571167D01*
X390970Y571620D01*
X391910Y572342D01*
X392632Y573282D01*
X393085Y574376D01*
X393240Y575551D01*
X393085Y576726D01*
X392632Y577821D01*
X391910Y578761D01*
X390970Y579482D01*
X389876Y579935D01*
X388701Y580090D01*
D02*
G37*
G36*
X378701D02*
X377526Y579935D01*
X376431Y579482D01*
X375491Y578761D01*
X374770Y577821D01*
X374317Y576726D01*
X374162Y575551D01*
X374317Y574376D01*
X374770Y573282D01*
X375491Y572342D01*
X376431Y571620D01*
X377526Y571167D01*
X378701Y571012D01*
X379875Y571167D01*
X380970Y571620D01*
X381910Y572342D01*
X382631Y573282D01*
X383085Y574376D01*
X383240Y575551D01*
X383085Y576726D01*
X382631Y577821D01*
X381910Y578761D01*
X380970Y579482D01*
X379875Y579935D01*
X378701Y580090D01*
D02*
G37*
G36*
X368701D02*
X367526Y579935D01*
X366431Y579482D01*
X365491Y578761D01*
X364770Y577821D01*
X364317Y576726D01*
X364162Y575551D01*
X364317Y574376D01*
X364770Y573282D01*
X365491Y572342D01*
X366431Y571620D01*
X367526Y571167D01*
X368701Y571012D01*
X369876Y571167D01*
X370970Y571620D01*
X371910Y572342D01*
X372632Y573282D01*
X373085Y574376D01*
X373240Y575551D01*
X373085Y576726D01*
X372632Y577821D01*
X371910Y578761D01*
X370970Y579482D01*
X369876Y579935D01*
X368701Y580090D01*
D02*
G37*
G36*
X358701D02*
X357526Y579935D01*
X356431Y579482D01*
X355491Y578761D01*
X354770Y577821D01*
X354317Y576726D01*
X354162Y575551D01*
X354317Y574376D01*
X354770Y573282D01*
X355491Y572342D01*
X356431Y571620D01*
X357526Y571167D01*
X358701Y571012D01*
X359875Y571167D01*
X360970Y571620D01*
X361910Y572342D01*
X362632Y573282D01*
X363085Y574376D01*
X363240Y575551D01*
X363085Y576726D01*
X362632Y577821D01*
X361910Y578761D01*
X360970Y579482D01*
X359875Y579935D01*
X358701Y580090D01*
D02*
G37*
G36*
X348701D02*
X347526Y579935D01*
X346431Y579482D01*
X345491Y578761D01*
X344770Y577821D01*
X344317Y576726D01*
X344162Y575551D01*
X344317Y574376D01*
X344770Y573282D01*
X345491Y572342D01*
X346431Y571620D01*
X347526Y571167D01*
X348701Y571012D01*
X349875Y571167D01*
X350970Y571620D01*
X351910Y572342D01*
X352631Y573282D01*
X353085Y574376D01*
X353240Y575551D01*
X353085Y576726D01*
X352631Y577821D01*
X351910Y578761D01*
X350970Y579482D01*
X349875Y579935D01*
X348701Y580090D01*
D02*
G37*
G36*
X338701D02*
X337526Y579935D01*
X336431Y579482D01*
X335491Y578761D01*
X334770Y577821D01*
X334317Y576726D01*
X334162Y575551D01*
X334317Y574376D01*
X334770Y573282D01*
X335491Y572342D01*
X336431Y571620D01*
X337526Y571167D01*
X338701Y571012D01*
X339876Y571167D01*
X340970Y571620D01*
X341910Y572342D01*
X342632Y573282D01*
X343085Y574376D01*
X343240Y575551D01*
X343085Y576726D01*
X342632Y577821D01*
X341910Y578761D01*
X340970Y579482D01*
X339876Y579935D01*
X338701Y580090D01*
D02*
G37*
G36*
X328701D02*
X327526Y579935D01*
X326431Y579482D01*
X325491Y578761D01*
X324770Y577821D01*
X324317Y576726D01*
X324162Y575551D01*
X324317Y574376D01*
X324770Y573282D01*
X325491Y572342D01*
X326431Y571620D01*
X327526Y571167D01*
X328701Y571012D01*
X329875Y571167D01*
X330970Y571620D01*
X331910Y572342D01*
X332631Y573282D01*
X333085Y574376D01*
X333240Y575551D01*
X333085Y576726D01*
X332631Y577821D01*
X331910Y578761D01*
X330970Y579482D01*
X329875Y579935D01*
X328701Y580090D01*
D02*
G37*
G36*
X318701D02*
X317526Y579935D01*
X316431Y579482D01*
X315491Y578761D01*
X314770Y577821D01*
X314317Y576726D01*
X314162Y575551D01*
X314317Y574376D01*
X314770Y573282D01*
X315491Y572342D01*
X316431Y571620D01*
X317526Y571167D01*
X318701Y571012D01*
X319876Y571167D01*
X320970Y571620D01*
X321910Y572342D01*
X322632Y573282D01*
X323085Y574376D01*
X323240Y575551D01*
X323085Y576726D01*
X322632Y577821D01*
X321910Y578761D01*
X320970Y579482D01*
X319876Y579935D01*
X318701Y580090D01*
D02*
G37*
G36*
X308701D02*
X307526Y579935D01*
X306431Y579482D01*
X305491Y578761D01*
X304770Y577821D01*
X304317Y576726D01*
X304162Y575551D01*
X304317Y574376D01*
X304770Y573282D01*
X305491Y572342D01*
X306431Y571620D01*
X307526Y571167D01*
X308701Y571012D01*
X309875Y571167D01*
X310970Y571620D01*
X311910Y572342D01*
X312632Y573282D01*
X313085Y574376D01*
X313240Y575551D01*
X313085Y576726D01*
X312632Y577821D01*
X311910Y578761D01*
X310970Y579482D01*
X309875Y579935D01*
X308701Y580090D01*
D02*
G37*
G36*
X522000Y574500D02*
X512000D01*
Y556500D01*
X522000D01*
Y574500D01*
D02*
G37*
G36*
X493500Y561876D02*
X385500D01*
Y556876D01*
X386971D01*
Y543989D01*
X386471Y543822D01*
X385851Y544236D01*
X385000Y544405D01*
X384149Y544236D01*
X383428Y543754D01*
X382945Y543032D01*
X382776Y542181D01*
X382945Y541330D01*
X383428Y540609D01*
X383471Y540580D01*
Y536133D01*
X382114Y534777D01*
X381653Y535023D01*
X381678Y535149D01*
Y539453D01*
X381721Y539482D01*
X382204Y540204D01*
X382373Y541055D01*
X382204Y541906D01*
X381721Y542627D01*
X381000Y543109D01*
X380149Y543278D01*
X379298Y543109D01*
X378576Y542627D01*
X378094Y541906D01*
X377925Y541055D01*
X378094Y540204D01*
X378576Y539482D01*
X378620Y539453D01*
Y535782D01*
X365419Y522581D01*
X365087Y522085D01*
X364971Y521500D01*
Y500380D01*
X365087Y499795D01*
X365419Y499298D01*
X368840Y495878D01*
X369336Y495546D01*
X369921Y495430D01*
X370012D01*
X370145Y494930D01*
X368270Y493054D01*
X367743Y493581D01*
X367246Y493913D01*
X366661Y494029D01*
X365000D01*
X364415Y493913D01*
X363919Y493581D01*
X362461Y492124D01*
X350500D01*
Y487124D01*
X362500D01*
Y488471D01*
X363085Y488587D01*
X363581Y488919D01*
X365601Y490938D01*
X366064Y490848D01*
X368401Y488511D01*
X368484Y488386D01*
X373289Y483581D01*
Y479181D01*
X373406Y478596D01*
X373738Y478100D01*
X376471Y475366D01*
Y474458D01*
X376122Y474313D01*
X375971Y474304D01*
X373742Y476533D01*
X370958Y479317D01*
X365925Y474284D01*
X365530Y474029D01*
X363633D01*
X357581Y480081D01*
X357085Y480413D01*
X356500Y480529D01*
X345856D01*
X345500Y480876D01*
X345500Y481029D01*
Y485876D01*
X339500D01*
Y484906D01*
X337750D01*
Y486250D01*
X332250D01*
Y481120D01*
X331750Y480913D01*
X313529Y499133D01*
Y506500D01*
X314500D01*
Y512500D01*
Y518500D01*
X309500D01*
Y512500D01*
Y506500D01*
X310471D01*
Y498500D01*
X310587Y497915D01*
X310919Y497419D01*
X330419Y477919D01*
X330915Y477587D01*
X331500Y477471D01*
X339216D01*
Y476912D01*
X339104Y476802D01*
X338716Y476581D01*
X338000Y476724D01*
X337500Y476624D01*
X337000Y476624D01*
X337000Y476624D01*
X337000Y476624D01*
X331000D01*
Y471624D01*
X337000D01*
Y472114D01*
X337500Y472376D01*
X338000Y472276D01*
X338586Y472393D01*
X339216D01*
Y471340D01*
X345516D01*
Y477471D01*
X347484D01*
Y471340D01*
X353784D01*
Y472846D01*
X354284Y473053D01*
X359919Y467419D01*
X360415Y467087D01*
X361000Y466971D01*
X370742D01*
X371327Y467087D01*
X371823Y467419D01*
X372306Y467902D01*
X372859Y467350D01*
X369629Y464120D01*
X360467D01*
X359882Y464003D01*
X359385Y463672D01*
X354214Y458500D01*
X351376D01*
Y457539D01*
X350624D01*
Y458500D01*
X345624D01*
Y455197D01*
X345584Y455000D01*
Y452986D01*
X342598Y450000D01*
X339982D01*
Y442334D01*
X339520Y442142D01*
X313529Y468133D01*
Y471000D01*
X314500D01*
Y477000D01*
Y483000D01*
X309500D01*
Y477000D01*
Y471000D01*
X310471D01*
Y467500D01*
X310587Y466915D01*
X310919Y466419D01*
X330346Y446991D01*
X330154Y446529D01*
X314500D01*
Y448000D01*
X309500D01*
Y442000D01*
Y436000D01*
X314500D01*
Y442000D01*
Y443471D01*
X331038D01*
X333517Y440991D01*
X333326Y440529D01*
X329672D01*
X329086Y440413D01*
X328590Y440081D01*
X316715Y428206D01*
X316384Y427710D01*
X316267Y427125D01*
Y416930D01*
X312337Y413000D01*
X309500D01*
Y407000D01*
Y401000D01*
X314500D01*
Y407000D01*
Y410837D01*
X317805Y414142D01*
X318267Y413951D01*
Y383930D01*
X312337Y378000D01*
X309500D01*
Y372000D01*
Y366000D01*
X314500D01*
Y372000D01*
Y375837D01*
X320009Y381346D01*
X320471Y381154D01*
Y331381D01*
X318295Y329205D01*
X318240Y329124D01*
X314876D01*
X314500Y329422D01*
Y329500D01*
X309500D01*
Y323500D01*
X314500D01*
Y323825D01*
X314876Y324124D01*
X320876D01*
Y327461D01*
X322009Y328593D01*
X322471Y328402D01*
Y312633D01*
X321338Y311501D01*
X320876Y311693D01*
Y315124D01*
X319916D01*
Y317876D01*
X320876D01*
Y322876D01*
X314876D01*
Y318539D01*
X298632D01*
X298589Y318643D01*
X297907Y319531D01*
X297020Y320212D01*
X295986Y320641D01*
X294876Y320787D01*
X293767Y320641D01*
X292733Y320212D01*
X291845Y319531D01*
X291164Y318643D01*
X290736Y317610D01*
X290590Y316500D01*
X290736Y315390D01*
X291164Y314357D01*
X291845Y313469D01*
X292733Y312788D01*
X293767Y312359D01*
X294876Y312213D01*
X295986Y312359D01*
X297020Y312788D01*
X297907Y313469D01*
X298589Y314357D01*
X298632Y314461D01*
X314876D01*
Y310124D01*
X319307D01*
X319499Y309662D01*
X318713Y308876D01*
X314876D01*
X314500Y309175D01*
Y309500D01*
X309500D01*
Y303500D01*
X314500D01*
Y303578D01*
X314876Y303876D01*
X320876D01*
Y306714D01*
X324009Y309846D01*
X324471Y309654D01*
Y290381D01*
X318295Y284205D01*
X318240Y284124D01*
X314876D01*
X314500Y284422D01*
Y284500D01*
X309500D01*
Y278500D01*
X314500D01*
Y278825D01*
X314876Y279124D01*
X320876D01*
Y282461D01*
X326009Y287593D01*
X326471Y287402D01*
Y271634D01*
X321338Y266501D01*
X320876Y266692D01*
Y270124D01*
X319916D01*
Y272876D01*
X320876D01*
Y277876D01*
X314876D01*
Y273539D01*
X298632D01*
X298589Y273643D01*
X297907Y274531D01*
X297020Y275212D01*
X295986Y275641D01*
X294876Y275787D01*
X293767Y275641D01*
X292733Y275212D01*
X291845Y274531D01*
X291164Y273643D01*
X290736Y272609D01*
X290590Y271500D01*
X290736Y270391D01*
X291164Y269357D01*
X291845Y268469D01*
X292733Y267788D01*
X293767Y267359D01*
X294876Y267213D01*
X295986Y267359D01*
X297020Y267788D01*
X297907Y268469D01*
X298589Y269357D01*
X298632Y269461D01*
X314876D01*
Y265124D01*
X319307D01*
X319499Y264662D01*
X318713Y263876D01*
X314876D01*
X314500Y264175D01*
Y264500D01*
X309500D01*
Y258500D01*
X314500D01*
Y258578D01*
X314876Y258876D01*
X320876D01*
Y261714D01*
X329081Y269919D01*
X329413Y270415D01*
X329457Y270637D01*
X330000Y270802D01*
X333094Y267707D01*
Y253000D01*
X332124D01*
Y247000D01*
X337124D01*
Y253000D01*
X336153D01*
Y266810D01*
X336615Y267001D01*
X343461Y260155D01*
Y237312D01*
X343616Y236531D01*
X344058Y235870D01*
X350683Y229245D01*
X351344Y228803D01*
X352125Y228648D01*
X359968D01*
X360961Y227655D01*
Y223500D01*
X361116Y222720D01*
X361558Y222058D01*
X366558Y217058D01*
X367220Y216616D01*
X368000Y216461D01*
X376500D01*
X377280Y216616D01*
X377942Y217058D01*
X383942Y223058D01*
X384384Y223720D01*
X384539Y224500D01*
Y234500D01*
X384384Y235280D01*
X383942Y235942D01*
X381790Y238093D01*
X382137Y239192D01*
X382640Y242043D01*
X382974Y242478D01*
X383478Y243695D01*
X383649Y245000D01*
X383478Y246305D01*
X382974Y247522D01*
X382844Y247691D01*
X382427Y248492D01*
X381626Y249366D01*
X380627Y250002D01*
X379497Y250359D01*
X378313Y250410D01*
X377156Y250154D01*
X376105Y249607D01*
X375232Y248806D01*
X375116Y248624D01*
X375040Y248566D01*
X374239Y247522D01*
X373735Y246305D01*
X373563Y245000D01*
X373726Y243766D01*
X373197Y240768D01*
X373145Y239584D01*
X373402Y238427D01*
X373949Y237376D01*
X374749Y236503D01*
X375749Y235866D01*
X376879Y235510D01*
X378063Y235458D01*
X378550Y235566D01*
X380461Y233655D01*
Y225345D01*
X378458Y223342D01*
X378087Y223678D01*
X378470Y224145D01*
X379112Y225345D01*
X379506Y226646D01*
X379640Y228000D01*
X379506Y229354D01*
X379112Y230655D01*
X378470Y231855D01*
X377607Y232907D01*
X376556Y233769D01*
X375356Y234411D01*
X374055Y234806D01*
X372701Y234939D01*
X371347Y234806D01*
X370045Y234411D01*
X368846Y233769D01*
X367794Y232907D01*
X366931Y231855D01*
X366290Y230655D01*
X365895Y229354D01*
X365762Y228000D01*
X365895Y226646D01*
X366290Y225345D01*
X366931Y224145D01*
X367794Y223093D01*
X368846Y222231D01*
X370045Y221589D01*
X371347Y221194D01*
X372701Y221061D01*
X374055Y221194D01*
X375356Y221589D01*
X376556Y222231D01*
X377023Y222614D01*
X377359Y222243D01*
X375655Y220539D01*
X368845D01*
X365039Y224345D01*
Y228500D01*
X364884Y229280D01*
X364442Y229942D01*
X362576Y231808D01*
X362341Y232226D01*
X362571Y232487D01*
X365805Y235720D01*
X366120Y235556D01*
X367276Y235300D01*
X368460Y235352D01*
X369590Y235708D01*
X370589Y236345D01*
X371390Y237218D01*
X371937Y238269D01*
X372194Y239426D01*
X372142Y240610D01*
X371618Y243579D01*
X371667Y243695D01*
X371838Y245000D01*
X371667Y246305D01*
X371163Y247522D01*
X370361Y248566D01*
X369347Y249344D01*
X369233Y249448D01*
X369138Y249498D01*
X369213Y250023D01*
X369390Y250058D01*
X369721Y250279D01*
X373221Y253779D01*
X373442Y254110D01*
X373519Y254500D01*
Y254727D01*
X374020Y254827D01*
X374239Y254297D01*
X375040Y253253D01*
X376085Y252451D01*
X377301Y251948D01*
X378606Y251776D01*
X379912Y251948D01*
X381128Y252451D01*
X382172Y253253D01*
X382974Y254297D01*
X383478Y255514D01*
X383649Y256819D01*
X383478Y258124D01*
X382974Y259341D01*
X382172Y260385D01*
X381396Y260980D01*
X381566Y261480D01*
X417482D01*
X417667Y261404D01*
X417903Y261180D01*
X417961Y261066D01*
Y260124D01*
X417000D01*
Y255124D01*
X423000D01*
Y260124D01*
X422039D01*
Y262126D01*
X422055Y262149D01*
X422224Y263000D01*
X422055Y263851D01*
X421572Y264573D01*
X421567Y264625D01*
X425721Y268779D01*
X425942Y269110D01*
X426020Y269500D01*
Y289500D01*
X425942Y289890D01*
X425721Y290221D01*
X425467Y290475D01*
X425658Y290937D01*
X447162D01*
X447553Y291015D01*
X447884Y291236D01*
X448104Y291457D01*
X448220D01*
Y291573D01*
X448384Y291736D01*
X448604Y292067D01*
X448682Y292457D01*
Y300957D01*
X448604Y301347D01*
X448384Y301678D01*
X441384Y308678D01*
X441053Y308899D01*
X440662Y308976D01*
X424585D01*
X424182Y309379D01*
Y311223D01*
X424644Y311414D01*
X425279Y310779D01*
X425610Y310558D01*
X426000Y310480D01*
X448000Y310480D01*
X448390Y310558D01*
X448721Y310779D01*
X448721Y310779D01*
X453509Y315567D01*
X453971Y315375D01*
Y313134D01*
X451795Y310958D01*
X451463Y310462D01*
X451347Y309876D01*
Y253000D01*
X450376D01*
Y247000D01*
X455376D01*
Y253000D01*
X454406D01*
Y273278D01*
X454868Y273469D01*
X466624Y261714D01*
Y258876D01*
X472624D01*
X473000Y258578D01*
Y258500D01*
X478000D01*
Y264500D01*
X473000D01*
Y264175D01*
X472624Y263876D01*
X468786D01*
X468001Y264662D01*
X468193Y265124D01*
X472624D01*
Y269461D01*
X488868D01*
X488911Y269357D01*
X489593Y268469D01*
X490480Y267788D01*
X491514Y267359D01*
X492624Y267213D01*
X493733Y267359D01*
X494767Y267788D01*
X495655Y268469D01*
X496336Y269357D01*
X496764Y270391D01*
X496910Y271500D01*
X496764Y272609D01*
X496336Y273643D01*
X495655Y274531D01*
X494767Y275212D01*
X493733Y275641D01*
X492624Y275787D01*
X491514Y275641D01*
X490480Y275212D01*
X489593Y274531D01*
X488911Y273643D01*
X488868Y273539D01*
X472624D01*
Y277876D01*
X466624D01*
Y272876D01*
X467584D01*
Y270124D01*
X466624D01*
Y266692D01*
X466162Y266501D01*
X456406Y276257D01*
Y308415D01*
X457509Y309517D01*
X457971Y309326D01*
Y291747D01*
X458087Y291162D01*
X458419Y290666D01*
X466624Y282461D01*
Y279124D01*
X472624D01*
X473000Y278825D01*
Y278500D01*
X478000D01*
Y284500D01*
X473000D01*
Y284422D01*
X472624Y284124D01*
X469260D01*
X469205Y284205D01*
X461029Y292381D01*
Y311654D01*
X461491Y311846D01*
X466624Y306714D01*
Y303876D01*
X472624D01*
X473000Y303578D01*
Y303500D01*
X478000D01*
Y309500D01*
X473000D01*
Y309175D01*
X472624Y308876D01*
X468786D01*
X468001Y309662D01*
X468193Y310124D01*
X472624D01*
Y314461D01*
X488868D01*
X488911Y314357D01*
X489593Y313469D01*
X490480Y312788D01*
X491514Y312359D01*
X492624Y312213D01*
X493733Y312359D01*
X494767Y312788D01*
X495655Y313469D01*
X496336Y314357D01*
X496764Y315390D01*
X496910Y316500D01*
X496764Y317610D01*
X496336Y318643D01*
X495655Y319531D01*
X494767Y320212D01*
X493733Y320641D01*
X492624Y320787D01*
X491514Y320641D01*
X490480Y320212D01*
X489593Y319531D01*
X488911Y318643D01*
X488868Y318539D01*
X472624D01*
Y322876D01*
X466624D01*
Y317876D01*
X467584D01*
Y315124D01*
X466624D01*
Y311693D01*
X466162Y311501D01*
X463029Y314633D01*
Y330402D01*
X463491Y330593D01*
X466624Y327461D01*
Y324124D01*
X472624D01*
X473000Y323825D01*
Y323500D01*
X478000D01*
Y329500D01*
X473000D01*
Y329422D01*
X472624Y329124D01*
X469260D01*
X469205Y329205D01*
X465029Y333381D01*
Y375907D01*
X465491Y376098D01*
X472876Y368713D01*
Y364876D01*
Y358876D01*
X477876D01*
Y364876D01*
Y370876D01*
X475039D01*
X467029Y378886D01*
Y405468D01*
X467491Y405659D01*
X469856Y403295D01*
X470352Y402963D01*
X470937Y402847D01*
X472876D01*
Y399876D01*
Y393876D01*
X477876D01*
Y399876D01*
Y405876D01*
X474524D01*
X474376Y405906D01*
X471571D01*
X438029Y439447D01*
Y448000D01*
X437913Y448585D01*
X437581Y449081D01*
X435714Y450949D01*
X435724Y451000D01*
X435555Y451851D01*
X435073Y452572D01*
X434351Y453055D01*
X433500Y453224D01*
X432649Y453055D01*
X432470Y452935D01*
X432029Y453171D01*
Y462201D01*
X432009Y462303D01*
X432470Y462549D01*
X458224Y436795D01*
X458720Y436463D01*
X459306Y436347D01*
X472876D01*
Y434876D01*
Y428876D01*
X477876D01*
Y434876D01*
Y440876D01*
X472876D01*
Y439406D01*
X459939D01*
X429801Y469544D01*
X429811Y469595D01*
X429642Y470446D01*
X429160Y471168D01*
X428438Y471650D01*
X427587Y471819D01*
X426736Y471650D01*
X426015Y471168D01*
X425532Y470446D01*
X425465Y470106D01*
X424922Y469942D01*
X423356Y471509D01*
X423547Y471971D01*
X425624D01*
X426209Y472087D01*
X426705Y472419D01*
X428163Y473876D01*
X438000D01*
Y478876D01*
X426000D01*
Y476039D01*
X424990Y475029D01*
X422663D01*
X420935Y476757D01*
X420659Y476942D01*
X418423Y479178D01*
X416174Y476929D01*
X414782Y475537D01*
X413390Y474145D01*
X410606Y471361D01*
X410028Y470783D01*
X408680Y472131D01*
X408845Y472378D01*
X409014Y473229D01*
X408845Y474080D01*
X408363Y474801D01*
X407642Y475283D01*
X406790Y475453D01*
X405939Y475283D01*
X405867Y475235D01*
X405326Y475475D01*
X405292Y475703D01*
X405923Y476334D01*
X405974Y476324D01*
X406825Y476493D01*
X407547Y476975D01*
X408029Y477697D01*
X408198Y478548D01*
X408029Y479399D01*
X407547Y480120D01*
X406825Y480602D01*
X405974Y480772D01*
X405123Y480602D01*
X404402Y480120D01*
X403920Y479399D01*
X403750Y478548D01*
X403760Y478497D01*
X402419Y477155D01*
X402087Y476659D01*
X401971Y476074D01*
Y472320D01*
X402087Y471735D01*
X402419Y471239D01*
X402908Y470749D01*
X402744Y470206D01*
X402482Y470154D01*
X401760Y469672D01*
X401663Y469527D01*
X401163D01*
X400970Y469816D01*
X400249Y470298D01*
X399398Y470467D01*
X398547Y470298D01*
X397825Y469816D01*
X397343Y469094D01*
X397201Y468379D01*
X396776Y467954D01*
X396565Y467996D01*
X395714Y467826D01*
X394992Y467344D01*
X394510Y466623D01*
X394483Y466485D01*
X394005Y466339D01*
X383529Y476815D01*
Y482818D01*
X383413Y483403D01*
X383081Y483899D01*
X375853Y491128D01*
X377778Y493053D01*
X379170Y494445D01*
X380562Y495837D01*
X382812Y498086D01*
X384845Y500120D01*
X386047Y498919D01*
X386543Y498587D01*
X387128Y498471D01*
X390500D01*
X391085Y498587D01*
X391581Y498919D01*
X394449Y501786D01*
X394500Y501776D01*
X395351Y501945D01*
X395530Y502065D01*
X395971Y501829D01*
Y490101D01*
X395928Y490072D01*
X395445Y489351D01*
X395276Y488500D01*
X395445Y487649D01*
X395928Y486928D01*
X396649Y486445D01*
X397500Y486276D01*
X398351Y486445D01*
X399073Y486928D01*
X399555Y487649D01*
X399724Y488500D01*
X399555Y489351D01*
X399285Y489754D01*
X399441Y490352D01*
X399529Y490406D01*
X400181Y490276D01*
X401032Y490445D01*
X401385Y490681D01*
X401885Y490414D01*
Y489086D01*
X402001Y488500D01*
X402333Y488004D01*
X409483Y480854D01*
X409979Y480523D01*
X410564Y480406D01*
X421436D01*
X422021Y480523D01*
X422517Y480854D01*
X425633Y483971D01*
X439366D01*
X451542Y471795D01*
X452038Y471463D01*
X452624Y471347D01*
X472876D01*
Y469876D01*
Y463876D01*
X477876D01*
Y469876D01*
Y475876D01*
X472876D01*
Y474406D01*
X453257D01*
X441163Y486500D01*
X455010Y500347D01*
X472876D01*
Y498876D01*
X477876D01*
Y504876D01*
Y510876D01*
X472876D01*
Y504876D01*
Y503406D01*
X454376D01*
X453791Y503289D01*
X453295Y502958D01*
X439366Y489029D01*
X424850D01*
X424570Y489456D01*
X424570Y489456D01*
X424570Y489456D01*
X423179Y490847D01*
X438653Y506321D01*
X439220Y506181D01*
X439605Y505605D01*
X440327Y505123D01*
X441178Y504953D01*
X442029Y505123D01*
X442750Y505605D01*
X443232Y506326D01*
X443401Y507177D01*
X443308Y507646D01*
X447133Y511471D01*
X452000D01*
X452585Y511587D01*
X453081Y511919D01*
X469581Y528418D01*
X469581Y528419D01*
X491581Y550419D01*
X491913Y550915D01*
X492029Y551500D01*
Y556876D01*
X493500D01*
Y561876D01*
D02*
G37*
G36*
X374102Y540599D02*
X373251Y540430D01*
X372530Y539948D01*
X372048Y539226D01*
X371879Y538375D01*
X372048Y537524D01*
X372530Y536803D01*
X373251Y536321D01*
X374102Y536151D01*
X374954Y536321D01*
X375675Y536803D01*
X376157Y537524D01*
X376326Y538375D01*
X376157Y539226D01*
X375675Y539948D01*
X374954Y540430D01*
X374102Y540599D01*
D02*
G37*
G36*
X308253Y518500D02*
X303253D01*
Y517539D01*
X297594D01*
X297317Y517484D01*
X297020Y517712D01*
X295986Y518141D01*
X294876Y518287D01*
X293767Y518141D01*
X292733Y517712D01*
X291845Y517031D01*
X291164Y516143D01*
X290736Y515109D01*
X290590Y514000D01*
X290736Y512890D01*
X291164Y511857D01*
X291845Y510969D01*
X292733Y510288D01*
X293767Y509859D01*
X294876Y509713D01*
X295986Y509859D01*
X297020Y510288D01*
X297907Y510969D01*
X298589Y511857D01*
X299017Y512890D01*
X299092Y513461D01*
X303253D01*
Y506500D01*
X302954Y506124D01*
X302876D01*
Y505851D01*
X298710D01*
X298589Y506143D01*
X297907Y507031D01*
X297020Y507712D01*
X295986Y508141D01*
X294876Y508287D01*
X293767Y508141D01*
X292733Y507712D01*
X291845Y507031D01*
X291164Y506143D01*
X290736Y505110D01*
X290590Y504000D01*
X290736Y502890D01*
X291164Y501857D01*
X291845Y500969D01*
X292733Y500288D01*
X293767Y499859D01*
X294876Y499713D01*
X295986Y499859D01*
X297020Y500288D01*
X297907Y500969D01*
X298524Y501773D01*
X302876D01*
Y501124D01*
X308876D01*
Y506124D01*
X308551D01*
X308253Y506500D01*
Y512500D01*
Y518500D01*
D02*
G37*
G36*
X492500Y517663D02*
X491391Y517517D01*
X490357Y517089D01*
X489469Y516407D01*
X488852Y515604D01*
X484500D01*
Y516253D01*
X478500D01*
Y511253D01*
X478825D01*
X479124Y510876D01*
Y504876D01*
Y498876D01*
X484124D01*
Y499961D01*
X489078D01*
X489786Y500102D01*
X490357Y499664D01*
X491391Y499236D01*
X492500Y499090D01*
X493610Y499236D01*
X494643Y499664D01*
X495531Y500345D01*
X496212Y501233D01*
X496641Y502267D01*
X496787Y503376D01*
X496641Y504486D01*
X496212Y505520D01*
X495531Y506407D01*
X494643Y507089D01*
X493610Y507517D01*
X492500Y507663D01*
X491391Y507517D01*
X490357Y507089D01*
X489469Y506407D01*
X488788Y505520D01*
X488359Y504486D01*
X488303Y504058D01*
X488274Y504039D01*
X484124D01*
Y510876D01*
X484422Y511253D01*
X484500D01*
Y511525D01*
X488666D01*
X488788Y511233D01*
X489469Y510345D01*
X490357Y509664D01*
X491391Y509236D01*
X492500Y509090D01*
X493610Y509236D01*
X494643Y509664D01*
X495531Y510345D01*
X496212Y511233D01*
X496641Y512267D01*
X496787Y513376D01*
X496641Y514486D01*
X496212Y515520D01*
X495531Y516407D01*
X494643Y517089D01*
X493610Y517517D01*
X492500Y517663D01*
D02*
G37*
G36*
X342500Y496724D02*
X341649Y496555D01*
X340928Y496072D01*
X340445Y495351D01*
X340276Y494500D01*
X340445Y493649D01*
X340928Y492928D01*
X340971Y492899D01*
Y492124D01*
X339500D01*
Y487124D01*
X345500D01*
Y492124D01*
X344029D01*
Y492899D01*
X344073Y492928D01*
X344555Y493649D01*
X344724Y494500D01*
X344555Y495351D01*
X344073Y496072D01*
X343351Y496555D01*
X342500Y496724D01*
D02*
G37*
G36*
X335000Y495724D02*
X334149Y495555D01*
X333428Y495073D01*
X332945Y494351D01*
X332776Y493500D01*
X332925Y492750D01*
X332657Y492250D01*
X332250D01*
Y486750D01*
X337750D01*
Y492250D01*
X337344D01*
X337075Y492750D01*
X337224Y493500D01*
X337055Y494351D01*
X336573Y495073D01*
X335851Y495555D01*
X335000Y495724D01*
D02*
G37*
G36*
X308253Y483000D02*
X303253D01*
Y482039D01*
X297594D01*
X297317Y481984D01*
X297020Y482212D01*
X295986Y482641D01*
X294876Y482787D01*
X293767Y482641D01*
X292733Y482212D01*
X291845Y481531D01*
X291164Y480643D01*
X290736Y479609D01*
X290590Y478500D01*
X290736Y477390D01*
X291164Y476357D01*
X291845Y475469D01*
X292733Y474788D01*
X293767Y474359D01*
X294876Y474213D01*
X295986Y474359D01*
X297020Y474788D01*
X297907Y475469D01*
X298589Y476357D01*
X299017Y477390D01*
X299092Y477961D01*
X303253D01*
Y471000D01*
X302954Y470624D01*
X302876D01*
Y470351D01*
X298710D01*
X298589Y470643D01*
X297907Y471531D01*
X297020Y472212D01*
X295986Y472641D01*
X294876Y472787D01*
X293767Y472641D01*
X292733Y472212D01*
X291845Y471531D01*
X291164Y470643D01*
X290736Y469609D01*
X290590Y468500D01*
X290736Y467390D01*
X291164Y466357D01*
X291845Y465469D01*
X292733Y464788D01*
X293767Y464359D01*
X294876Y464213D01*
X295986Y464359D01*
X297020Y464788D01*
X297907Y465469D01*
X298524Y466273D01*
X302876D01*
Y465624D01*
X308876D01*
Y470624D01*
X308551D01*
X308253Y471000D01*
Y477000D01*
Y483000D01*
D02*
G37*
G36*
X492500Y482663D02*
X491391Y482517D01*
X490357Y482089D01*
X489469Y481407D01*
X488852Y480604D01*
X484500D01*
Y481253D01*
X478500D01*
Y476253D01*
X478825D01*
X479124Y475876D01*
Y469876D01*
Y463876D01*
X484124D01*
Y465461D01*
X489078D01*
X489156Y465476D01*
X489368D01*
X489469Y465345D01*
X490357Y464664D01*
X491391Y464236D01*
X492500Y464090D01*
X493610Y464236D01*
X494643Y464664D01*
X495531Y465345D01*
X496212Y466233D01*
X496641Y467267D01*
X496787Y468376D01*
X496641Y469486D01*
X496212Y470520D01*
X495531Y471408D01*
X494643Y472089D01*
X493610Y472517D01*
X492500Y472663D01*
X491391Y472517D01*
X490357Y472089D01*
X489469Y471408D01*
X488788Y470520D01*
X488381Y469539D01*
X484124D01*
Y475876D01*
X484422Y476253D01*
X484500D01*
Y476525D01*
X488666D01*
X488788Y476233D01*
X489469Y475345D01*
X490357Y474664D01*
X491391Y474236D01*
X492500Y474090D01*
X493610Y474236D01*
X494643Y474664D01*
X495531Y475345D01*
X496212Y476233D01*
X496641Y477267D01*
X496787Y478376D01*
X496641Y479486D01*
X496212Y480520D01*
X495531Y481407D01*
X494643Y482089D01*
X493610Y482517D01*
X492500Y482663D01*
D02*
G37*
G36*
X308253Y448000D02*
X303253D01*
Y447039D01*
X297594D01*
X297317Y446984D01*
X297020Y447212D01*
X295986Y447641D01*
X294876Y447787D01*
X293767Y447641D01*
X292733Y447212D01*
X291845Y446531D01*
X291164Y445643D01*
X290736Y444609D01*
X290590Y443500D01*
X290736Y442390D01*
X291164Y441357D01*
X291845Y440469D01*
X292733Y439788D01*
X293767Y439359D01*
X294876Y439213D01*
X295986Y439359D01*
X297020Y439788D01*
X297907Y440469D01*
X298589Y441357D01*
X299017Y442390D01*
X299092Y442961D01*
X303253D01*
Y436000D01*
X302954Y435624D01*
X302876D01*
Y435351D01*
X298710D01*
X298589Y435643D01*
X297907Y436531D01*
X297020Y437212D01*
X295986Y437641D01*
X294876Y437787D01*
X293767Y437641D01*
X292733Y437212D01*
X291845Y436531D01*
X291164Y435643D01*
X290736Y434610D01*
X290590Y433500D01*
X290736Y432390D01*
X291164Y431357D01*
X291845Y430469D01*
X292733Y429788D01*
X293767Y429359D01*
X294876Y429213D01*
X295986Y429359D01*
X297020Y429788D01*
X297907Y430469D01*
X298524Y431273D01*
X302876D01*
Y430624D01*
X308876D01*
Y435624D01*
X308551D01*
X308253Y436000D01*
Y442000D01*
Y448000D01*
D02*
G37*
G36*
X492500Y447663D02*
X491391Y447517D01*
X490357Y447089D01*
X489469Y446408D01*
X488852Y445604D01*
X484500D01*
Y446253D01*
X478500D01*
Y441253D01*
X478825D01*
X479124Y440876D01*
Y434876D01*
Y428876D01*
X484124D01*
Y430461D01*
X489078D01*
X489156Y430476D01*
X489368D01*
X489469Y430345D01*
X490357Y429664D01*
X491391Y429236D01*
X492500Y429090D01*
X493610Y429236D01*
X494643Y429664D01*
X495531Y430345D01*
X496212Y431233D01*
X496641Y432267D01*
X496787Y433376D01*
X496641Y434486D01*
X496212Y435520D01*
X495531Y436408D01*
X494643Y437089D01*
X493610Y437517D01*
X492500Y437663D01*
X491391Y437517D01*
X490357Y437089D01*
X489469Y436408D01*
X488788Y435520D01*
X488381Y434539D01*
X484124D01*
Y440876D01*
X484422Y441253D01*
X484500D01*
Y441525D01*
X488666D01*
X488788Y441233D01*
X489469Y440345D01*
X490357Y439664D01*
X491391Y439236D01*
X492500Y439090D01*
X493610Y439236D01*
X494643Y439664D01*
X495531Y440345D01*
X496212Y441233D01*
X496641Y442267D01*
X496787Y443376D01*
X496641Y444486D01*
X496212Y445520D01*
X495531Y446408D01*
X494643Y447089D01*
X493610Y447517D01*
X492500Y447663D01*
D02*
G37*
G36*
X308253Y413000D02*
X303253D01*
Y412039D01*
X297594D01*
X297317Y411984D01*
X297020Y412212D01*
X295986Y412641D01*
X294876Y412787D01*
X293767Y412641D01*
X292733Y412212D01*
X291845Y411531D01*
X291164Y410643D01*
X290736Y409610D01*
X290590Y408500D01*
X290736Y407390D01*
X291164Y406357D01*
X291845Y405469D01*
X292733Y404788D01*
X293767Y404359D01*
X294876Y404213D01*
X295986Y404359D01*
X297020Y404788D01*
X297907Y405469D01*
X298589Y406357D01*
X299017Y407390D01*
X299092Y407961D01*
X303253D01*
Y401000D01*
X302954Y400624D01*
X302876D01*
Y400351D01*
X298710D01*
X298589Y400643D01*
X297907Y401531D01*
X297020Y402212D01*
X295986Y402641D01*
X294876Y402787D01*
X293767Y402641D01*
X292733Y402212D01*
X291845Y401531D01*
X291164Y400643D01*
X290736Y399609D01*
X290590Y398500D01*
X290736Y397391D01*
X291164Y396357D01*
X291845Y395469D01*
X292733Y394788D01*
X293767Y394359D01*
X294876Y394213D01*
X295986Y394359D01*
X297020Y394788D01*
X297907Y395469D01*
X298524Y396273D01*
X302876D01*
Y395624D01*
X308876D01*
Y400624D01*
X308551D01*
X308253Y401000D01*
Y407000D01*
Y413000D01*
D02*
G37*
G36*
X492500Y412663D02*
X491391Y412517D01*
X490357Y412089D01*
X489469Y411408D01*
X488852Y410604D01*
X484500D01*
Y411253D01*
X478500D01*
Y406253D01*
X478825D01*
X479124Y405876D01*
Y399876D01*
Y393876D01*
X484124D01*
Y394961D01*
X489078D01*
X489786Y395102D01*
X490357Y394664D01*
X491391Y394236D01*
X492500Y394090D01*
X493610Y394236D01*
X494643Y394664D01*
X495531Y395345D01*
X496212Y396233D01*
X496641Y397267D01*
X496787Y398376D01*
X496641Y399486D01*
X496212Y400520D01*
X495531Y401407D01*
X494643Y402089D01*
X493610Y402517D01*
X492500Y402663D01*
X491391Y402517D01*
X490357Y402089D01*
X489469Y401407D01*
X488788Y400520D01*
X488359Y399486D01*
X488303Y399058D01*
X488274Y399039D01*
X484124D01*
Y405876D01*
X484422Y406253D01*
X484500D01*
Y406525D01*
X488666D01*
X488788Y406233D01*
X489469Y405345D01*
X490357Y404664D01*
X491391Y404236D01*
X492500Y404090D01*
X493610Y404236D01*
X494643Y404664D01*
X495531Y405345D01*
X496212Y406233D01*
X496641Y407267D01*
X496787Y408376D01*
X496641Y409486D01*
X496212Y410520D01*
X495531Y411408D01*
X494643Y412089D01*
X493610Y412517D01*
X492500Y412663D01*
D02*
G37*
G36*
X308253Y378000D02*
X303253D01*
Y377039D01*
X297594D01*
X297317Y376984D01*
X297020Y377212D01*
X295986Y377641D01*
X294876Y377787D01*
X293767Y377641D01*
X292733Y377212D01*
X291845Y376531D01*
X291164Y375643D01*
X290736Y374609D01*
X290590Y373500D01*
X290736Y372391D01*
X291164Y371357D01*
X291845Y370469D01*
X292733Y369788D01*
X293767Y369359D01*
X294876Y369213D01*
X295986Y369359D01*
X297020Y369788D01*
X297907Y370469D01*
X298589Y371357D01*
X299017Y372391D01*
X299092Y372961D01*
X303253D01*
Y366000D01*
X302954Y365624D01*
X302876D01*
Y365351D01*
X298710D01*
X298589Y365643D01*
X297907Y366531D01*
X297020Y367212D01*
X295986Y367641D01*
X294876Y367787D01*
X293767Y367641D01*
X292733Y367212D01*
X291845Y366531D01*
X291164Y365643D01*
X290736Y364610D01*
X290590Y363500D01*
X290736Y362390D01*
X291164Y361357D01*
X291845Y360469D01*
X292733Y359788D01*
X293767Y359359D01*
X294876Y359213D01*
X295986Y359359D01*
X297020Y359788D01*
X297907Y360469D01*
X298524Y361273D01*
X302876D01*
Y360624D01*
X308876D01*
Y365624D01*
X308551D01*
X308253Y366000D01*
Y372000D01*
Y378000D01*
D02*
G37*
G36*
X492500Y377663D02*
X491391Y377517D01*
X490357Y377089D01*
X489469Y376408D01*
X488852Y375604D01*
X484500D01*
Y376253D01*
X478500D01*
Y371253D01*
X478825D01*
X479124Y370876D01*
Y364876D01*
Y358876D01*
X484124D01*
Y359961D01*
X489078D01*
X489786Y360102D01*
X490357Y359664D01*
X491391Y359236D01*
X492500Y359090D01*
X493610Y359236D01*
X494643Y359664D01*
X495531Y360345D01*
X496212Y361233D01*
X496641Y362267D01*
X496787Y363376D01*
X496641Y364486D01*
X496212Y365520D01*
X495531Y366407D01*
X494643Y367089D01*
X493610Y367517D01*
X492500Y367663D01*
X491391Y367517D01*
X490357Y367089D01*
X489469Y366407D01*
X488788Y365520D01*
X488359Y364486D01*
X488303Y364058D01*
X488274Y364039D01*
X484124D01*
Y370876D01*
X484422Y371253D01*
X484500D01*
Y371525D01*
X488666D01*
X488788Y371233D01*
X489469Y370345D01*
X490357Y369664D01*
X491391Y369236D01*
X492500Y369090D01*
X493610Y369236D01*
X494643Y369664D01*
X495531Y370345D01*
X496212Y371233D01*
X496641Y372267D01*
X496787Y373376D01*
X496641Y374486D01*
X496212Y375520D01*
X495531Y376408D01*
X494643Y377089D01*
X493610Y377517D01*
X492500Y377663D01*
D02*
G37*
G36*
X308253Y335500D02*
X303253D01*
Y328539D01*
X298632D01*
X298589Y328643D01*
X297907Y329531D01*
X297020Y330212D01*
X295986Y330641D01*
X294876Y330787D01*
X293767Y330641D01*
X292733Y330212D01*
X291845Y329531D01*
X291164Y328643D01*
X290736Y327609D01*
X290590Y326500D01*
X290736Y325391D01*
X291164Y324357D01*
X291845Y323469D01*
X292733Y322788D01*
X293767Y322359D01*
X294876Y322213D01*
X295986Y322359D01*
X297020Y322788D01*
X297907Y323469D01*
X298589Y324357D01*
X298632Y324461D01*
X303253D01*
Y323500D01*
X308253D01*
Y329500D01*
Y335500D01*
D02*
G37*
G36*
X484247D02*
X479247D01*
Y329500D01*
Y323500D01*
X484247D01*
Y324461D01*
X488868D01*
X488911Y324357D01*
X489593Y323469D01*
X490480Y322788D01*
X491514Y322359D01*
X492624Y322213D01*
X493733Y322359D01*
X494767Y322788D01*
X495655Y323469D01*
X496336Y324357D01*
X496764Y325391D01*
X496910Y326500D01*
X496764Y327609D01*
X496336Y328643D01*
X495655Y329531D01*
X494767Y330212D01*
X493733Y330641D01*
X492624Y330787D01*
X491514Y330641D01*
X490480Y330212D01*
X489593Y329531D01*
X488911Y328643D01*
X488868Y328539D01*
X484247D01*
Y329500D01*
Y335500D01*
D02*
G37*
G36*
X492624Y310787D02*
X491514Y310641D01*
X490480Y310212D01*
X489593Y309531D01*
X488911Y308643D01*
X488868Y308539D01*
X484247D01*
Y309500D01*
X479247D01*
Y303500D01*
Y297500D01*
X484247D01*
Y304461D01*
X488868D01*
X488911Y304357D01*
X489593Y303469D01*
X490480Y302788D01*
X491514Y302359D01*
X492624Y302213D01*
X493733Y302359D01*
X494767Y302788D01*
X495655Y303469D01*
X496336Y304357D01*
X496764Y305391D01*
X496910Y306500D01*
X496764Y307610D01*
X496336Y308643D01*
X495655Y309531D01*
X494767Y310212D01*
X493733Y310641D01*
X492624Y310787D01*
D02*
G37*
G36*
X294876D02*
X293767Y310641D01*
X292733Y310212D01*
X291845Y309531D01*
X291164Y308643D01*
X290736Y307610D01*
X290590Y306500D01*
X290736Y305391D01*
X291164Y304357D01*
X291845Y303469D01*
X292733Y302788D01*
X293767Y302359D01*
X294876Y302213D01*
X295986Y302359D01*
X297020Y302788D01*
X297907Y303469D01*
X298589Y304357D01*
X298632Y304461D01*
X303253D01*
Y297500D01*
X308253D01*
Y303500D01*
Y309500D01*
X303253D01*
Y308539D01*
X298632D01*
X298589Y308643D01*
X297907Y309531D01*
X297020Y310212D01*
X295986Y310641D01*
X294876Y310787D01*
D02*
G37*
G36*
X308253Y290500D02*
X303253D01*
Y283539D01*
X298632D01*
X298589Y283643D01*
X297907Y284531D01*
X297020Y285212D01*
X295986Y285641D01*
X294876Y285787D01*
X293767Y285641D01*
X292733Y285212D01*
X291845Y284531D01*
X291164Y283643D01*
X290736Y282610D01*
X290590Y281500D01*
X290736Y280391D01*
X291164Y279357D01*
X291845Y278469D01*
X292733Y277788D01*
X293767Y277359D01*
X294876Y277213D01*
X295986Y277359D01*
X297020Y277788D01*
X297907Y278469D01*
X298589Y279357D01*
X298632Y279461D01*
X303253D01*
Y278500D01*
X308253D01*
Y284500D01*
Y290500D01*
D02*
G37*
G36*
X484247D02*
X479247D01*
Y284500D01*
Y278500D01*
X484247D01*
Y279461D01*
X488868D01*
X488911Y279357D01*
X489593Y278469D01*
X490480Y277788D01*
X491514Y277359D01*
X492624Y277213D01*
X493733Y277359D01*
X494767Y277788D01*
X495655Y278469D01*
X496336Y279357D01*
X496764Y280391D01*
X496910Y281500D01*
X496764Y282610D01*
X496336Y283643D01*
X495655Y284531D01*
X494767Y285212D01*
X493733Y285641D01*
X492624Y285787D01*
X491514Y285641D01*
X490480Y285212D01*
X489593Y284531D01*
X488911Y283643D01*
X488868Y283539D01*
X484247D01*
Y284500D01*
Y290500D01*
D02*
G37*
G36*
X492624Y265787D02*
X491514Y265641D01*
X490480Y265212D01*
X489593Y264531D01*
X488911Y263643D01*
X488868Y263539D01*
X484247D01*
Y264500D01*
X479247D01*
Y258500D01*
Y252500D01*
X484247D01*
Y259461D01*
X488868D01*
X488911Y259357D01*
X489593Y258469D01*
X490480Y257788D01*
X491514Y257359D01*
X492624Y257213D01*
X493733Y257359D01*
X494767Y257788D01*
X495655Y258469D01*
X496336Y259357D01*
X496764Y260390D01*
X496910Y261500D01*
X496764Y262610D01*
X496336Y263643D01*
X495655Y264531D01*
X494767Y265212D01*
X493733Y265641D01*
X492624Y265787D01*
D02*
G37*
G36*
X430000Y265224D02*
X429149Y265055D01*
X428428Y264573D01*
X427945Y263851D01*
X427776Y263000D01*
X427945Y262149D01*
X427961Y262126D01*
Y260124D01*
X427000D01*
Y255124D01*
X433000D01*
Y260124D01*
X432039D01*
Y262126D01*
X432055Y262149D01*
X432224Y263000D01*
X432055Y263851D01*
X431572Y264573D01*
X430851Y265055D01*
X430000Y265224D01*
D02*
G37*
G36*
X294876Y265787D02*
X293767Y265641D01*
X292733Y265212D01*
X291845Y264531D01*
X291164Y263643D01*
X290736Y262610D01*
X290590Y261500D01*
X290736Y260390D01*
X291164Y259357D01*
X291845Y258469D01*
X292733Y257788D01*
X293767Y257359D01*
X294876Y257213D01*
X295986Y257359D01*
X297020Y257788D01*
X297907Y258469D01*
X298589Y259357D01*
X298632Y259461D01*
X303253D01*
Y252500D01*
X308253D01*
Y258500D01*
Y264500D01*
X303253D01*
Y263539D01*
X298632D01*
X298589Y263643D01*
X297907Y264531D01*
X297020Y265212D01*
X295986Y265641D01*
X294876Y265787D01*
D02*
G37*
G36*
X330876Y253000D02*
X325876D01*
Y249697D01*
X325845Y249539D01*
X312000D01*
X311220Y249384D01*
X310558Y248942D01*
X307067Y245451D01*
X306610Y245641D01*
X305500Y245787D01*
X304391Y245641D01*
X303357Y245212D01*
X302469Y244531D01*
X301788Y243643D01*
X301359Y242610D01*
X301213Y241500D01*
X301359Y240390D01*
X301788Y239357D01*
X302469Y238469D01*
X303357Y237788D01*
X304391Y237359D01*
X305500Y237213D01*
X306610Y237359D01*
X307643Y237788D01*
X308531Y238469D01*
X309212Y239357D01*
X309641Y240390D01*
X309787Y241500D01*
X309682Y242298D01*
X311587Y244203D01*
X311964Y243873D01*
X311788Y243643D01*
X311359Y242610D01*
X311213Y241500D01*
X311359Y240390D01*
X311788Y239357D01*
X312469Y238469D01*
X313357Y237788D01*
X314390Y237359D01*
X315500Y237213D01*
X316610Y237359D01*
X317643Y237788D01*
X318531Y238469D01*
X319212Y239357D01*
X319641Y240390D01*
X319787Y241500D01*
X319641Y242610D01*
X319212Y243643D01*
X318531Y244531D01*
X317971Y244961D01*
X318141Y245461D01*
X326705D01*
X327485Y245616D01*
X328147Y246058D01*
X329089Y247000D01*
X330876D01*
Y253000D01*
D02*
G37*
G36*
X492000Y245787D02*
X490891Y245641D01*
X489857Y245212D01*
X488969Y244531D01*
X488288Y243643D01*
X487859Y242610D01*
X487713Y241500D01*
X487859Y240390D01*
X488288Y239357D01*
X488969Y238469D01*
X489857Y237788D01*
X490891Y237359D01*
X492000Y237213D01*
X493110Y237359D01*
X494143Y237788D01*
X495031Y238469D01*
X495712Y239357D01*
X496141Y240390D01*
X496287Y241500D01*
X496141Y242610D01*
X495712Y243643D01*
X495031Y244531D01*
X494143Y245212D01*
X493110Y245641D01*
X492000Y245787D01*
D02*
G37*
G36*
X461624Y253000D02*
X456624D01*
Y247000D01*
X459240D01*
X459682Y246558D01*
X460343Y246116D01*
X461124Y245961D01*
X470357D01*
X470457Y245461D01*
X469857Y245212D01*
X468969Y244531D01*
X468288Y243643D01*
X467859Y242610D01*
X467713Y241500D01*
X467859Y240390D01*
X468288Y239357D01*
X468969Y238469D01*
X469857Y237788D01*
X470891Y237359D01*
X472000Y237213D01*
X473109Y237359D01*
X474143Y237788D01*
X475031Y238469D01*
X475712Y239357D01*
X476141Y240390D01*
X476287Y241500D01*
X476141Y242610D01*
X475712Y243643D01*
X475031Y244531D01*
X474143Y245212D01*
X473544Y245461D01*
X473643Y245961D01*
X474655D01*
X477903Y242714D01*
X477859Y242610D01*
X477713Y241500D01*
X477859Y240390D01*
X478288Y239357D01*
X478969Y238469D01*
X479857Y237788D01*
X480891Y237359D01*
X482000Y237213D01*
X483110Y237359D01*
X484143Y237788D01*
X485031Y238469D01*
X485712Y239357D01*
X486141Y240390D01*
X486287Y241500D01*
X486141Y242610D01*
X485712Y243643D01*
X485031Y244531D01*
X484143Y245212D01*
X483110Y245641D01*
X482000Y245787D01*
X480891Y245641D01*
X480786Y245598D01*
X476942Y249442D01*
X476280Y249884D01*
X475500Y250039D01*
X461968D01*
X461624Y250384D01*
Y253000D01*
D02*
G37*
G36*
X295500Y245787D02*
X294391Y245641D01*
X293357Y245212D01*
X292469Y244531D01*
X291788Y243643D01*
X291359Y242610D01*
X291213Y241500D01*
X291359Y240390D01*
X291788Y239357D01*
X292469Y238469D01*
X293357Y237788D01*
X294391Y237359D01*
X295500Y237213D01*
X296609Y237359D01*
X297643Y237788D01*
X298531Y238469D01*
X299212Y239357D01*
X299641Y240390D01*
X299787Y241500D01*
X299641Y242610D01*
X299212Y243643D01*
X298531Y244531D01*
X297643Y245212D01*
X296609Y245641D01*
X295500Y245787D01*
D02*
G37*
G36*
X433000Y253876D02*
X427000D01*
Y248876D01*
X427961D01*
Y244255D01*
X427857Y244212D01*
X426969Y243531D01*
X426288Y242643D01*
X425859Y241610D01*
X425713Y240500D01*
X425859Y239390D01*
X426288Y238357D01*
X426969Y237469D01*
X427857Y236788D01*
X428891Y236359D01*
X430000Y236213D01*
X431110Y236359D01*
X432143Y236788D01*
X433031Y237469D01*
X433712Y238357D01*
X434141Y239390D01*
X434287Y240500D01*
X434141Y241610D01*
X433712Y242643D01*
X433031Y243531D01*
X432143Y244212D01*
X432039Y244255D01*
Y248876D01*
X433000D01*
Y253876D01*
D02*
G37*
G36*
X423000D02*
X417000D01*
Y248876D01*
X417961D01*
Y244255D01*
X417857Y244212D01*
X416969Y243531D01*
X416288Y242643D01*
X415859Y241610D01*
X415713Y240500D01*
X415859Y239390D01*
X416288Y238357D01*
X416969Y237469D01*
X417857Y236788D01*
X418890Y236359D01*
X420000Y236213D01*
X421109Y236359D01*
X422143Y236788D01*
X423031Y237469D01*
X423712Y238357D01*
X424141Y239390D01*
X424287Y240500D01*
X424141Y241610D01*
X423712Y242643D01*
X423031Y243531D01*
X422143Y244212D01*
X422039Y244255D01*
Y248876D01*
X423000D01*
Y253876D01*
D02*
G37*
G36*
X410000Y251526D02*
X409217Y251423D01*
X408487Y251120D01*
X407860Y250640D01*
X407379Y250013D01*
X407077Y249283D01*
X406974Y248500D01*
Y243535D01*
X406969Y243531D01*
X406965Y243526D01*
X404000D01*
X403217Y243423D01*
X402487Y243121D01*
X401860Y242640D01*
X401379Y242013D01*
X401077Y241283D01*
X400974Y240500D01*
X401077Y239717D01*
X401379Y238987D01*
X401860Y238360D01*
X402487Y237879D01*
X403217Y237577D01*
X404000Y237474D01*
X406965D01*
X406969Y237469D01*
X407857Y236788D01*
X408890Y236359D01*
X410000Y236213D01*
X411109Y236359D01*
X412143Y236788D01*
X413031Y237469D01*
X413712Y238357D01*
X414141Y239390D01*
X414287Y240500D01*
X414141Y241610D01*
X413712Y242643D01*
X413031Y243531D01*
X413026Y243535D01*
Y248500D01*
X412923Y249283D01*
X412620Y250013D01*
X412140Y250640D01*
X411513Y251120D01*
X410783Y251423D01*
X410000Y251526D01*
D02*
G37*
G36*
X387701Y244787D02*
X386591Y244641D01*
X385558Y244212D01*
X384670Y243531D01*
X383988Y242643D01*
X383560Y241610D01*
X383414Y240500D01*
X383560Y239390D01*
X383988Y238357D01*
X384670Y237469D01*
X385558Y236788D01*
X386591Y236359D01*
X387701Y236213D01*
X388810Y236359D01*
X389844Y236788D01*
X390732Y237469D01*
X391413Y238357D01*
X391841Y239390D01*
X391987Y240500D01*
X391841Y241610D01*
X391413Y242643D01*
X390732Y243531D01*
X389844Y244212D01*
X388810Y244641D01*
X387701Y244787D01*
D02*
G37*
%LPD*%
G36*
X452971Y537598D02*
X452471Y537330D01*
X452090Y537585D01*
X451239Y537754D01*
X450388Y537585D01*
X449666Y537103D01*
X449184Y536381D01*
X449051Y535714D01*
X448044Y534707D01*
X447583Y534953D01*
X447616Y535118D01*
X447447Y535969D01*
X446965Y536690D01*
X446243Y537172D01*
X445392Y537342D01*
X444829Y537230D01*
X444528Y537679D01*
X444546Y537706D01*
X444715Y538557D01*
X444546Y539408D01*
X444064Y540130D01*
X444029Y540153D01*
Y554407D01*
X444529Y554456D01*
X444663Y553787D01*
X445145Y553065D01*
X445866Y552584D01*
X446717Y552414D01*
X447568Y552584D01*
X448290Y553065D01*
X448772Y553787D01*
X448941Y554638D01*
X448931Y554689D01*
X449581Y555339D01*
X449913Y555836D01*
X450029Y556421D01*
Y556876D01*
X452971D01*
Y537598D01*
D02*
G37*
G36*
X416971Y530345D02*
X416471Y530296D01*
X416413Y530585D01*
X416081Y531081D01*
X402029Y545133D01*
Y546829D01*
X402470Y547065D01*
X402649Y546945D01*
X403500Y546776D01*
X404351Y546945D01*
X405072Y547428D01*
X405555Y548149D01*
X405724Y549000D01*
X405714Y549051D01*
X407581Y550919D01*
X407913Y551415D01*
X408029Y552000D01*
Y556876D01*
X410971D01*
Y554101D01*
X410927Y554073D01*
X410445Y553351D01*
X410276Y552500D01*
X410445Y551649D01*
X410927Y550927D01*
X411649Y550445D01*
X412500Y550276D01*
X413351Y550445D01*
X414073Y550927D01*
X414555Y551649D01*
X414724Y552500D01*
X414555Y553351D01*
X414073Y554073D01*
X414029Y554101D01*
Y556876D01*
X416971D01*
Y530345D01*
D02*
G37*
G36*
X476971Y549019D02*
X476152Y548201D01*
X476101Y548211D01*
X475250Y548041D01*
X474528Y547559D01*
X474029Y547713D01*
Y556876D01*
X476971D01*
Y549019D01*
D02*
G37*
G36*
X464971Y542344D02*
X464353Y541726D01*
X464302Y541736D01*
X463451Y541567D01*
X462730Y541085D01*
X462529Y540785D01*
X462029Y540937D01*
Y556876D01*
X464971D01*
Y542344D01*
D02*
G37*
G36*
X470971Y543634D02*
X468413Y541076D01*
X467952Y541322D01*
X468029Y541710D01*
Y556876D01*
X470971D01*
Y543634D01*
D02*
G37*
G36*
X467505Y535135D02*
X467495Y535089D01*
X467665Y534238D01*
X468147Y533517D01*
X468868Y533035D01*
X469185Y532971D01*
X469330Y532493D01*
X467419Y530582D01*
X467418Y530581D01*
X451367Y514529D01*
X450346D01*
X450154Y514991D01*
X461581Y526419D01*
X461913Y526915D01*
X462029Y527500D01*
Y533873D01*
X462529Y534023D01*
X462927Y533427D01*
X463649Y532945D01*
X464500Y532776D01*
X465351Y532945D01*
X466073Y533427D01*
X466555Y534149D01*
X466724Y535000D01*
X466714Y535051D01*
X467044Y535381D01*
X467505Y535135D01*
D02*
G37*
G36*
X392971Y534629D02*
X390491Y532150D01*
X390029Y532341D01*
Y556876D01*
X392971D01*
Y534629D01*
D02*
G37*
G36*
X386971Y535155D02*
Y532931D01*
X386680Y532873D01*
X385959Y532391D01*
X385477Y531670D01*
X385308Y530819D01*
X385477Y529968D01*
X385959Y529246D01*
X386511Y528877D01*
X386642Y528301D01*
X386113Y527772D01*
X385819Y527830D01*
X384968Y527661D01*
X384246Y527179D01*
X383764Y526458D01*
X383595Y525606D01*
X383764Y524755D01*
X384246Y524034D01*
X384968Y523552D01*
X385216Y523503D01*
X385361Y523024D01*
X382867Y520529D01*
X381000D01*
X380415Y520413D01*
X379919Y520081D01*
X377535Y517698D01*
X377148Y517815D01*
X377025Y517895D01*
X376572Y518573D01*
X375851Y519055D01*
X375000Y519224D01*
X374149Y519055D01*
X373428Y518573D01*
X372945Y517851D01*
X372776Y517000D01*
X372945Y516149D01*
X373300Y515618D01*
X373260Y515383D01*
X373132Y515280D01*
X372734Y515078D01*
X372000Y515224D01*
X371149Y515055D01*
X370529Y514641D01*
X370029Y514808D01*
Y518366D01*
X386081Y534419D01*
X386413Y534915D01*
X386471Y535205D01*
X386971Y535155D01*
D02*
G37*
G36*
X440971Y540164D02*
X440919Y540130D01*
X440437Y539408D01*
X440268Y538557D01*
X440437Y537706D01*
X440919Y536985D01*
X441640Y536503D01*
X442491Y536333D01*
X443055Y536446D01*
X443355Y535995D01*
X443338Y535969D01*
X443168Y535118D01*
X443178Y535067D01*
X438432Y530321D01*
X438101Y529825D01*
X437984Y529239D01*
Y526948D01*
X412781Y501745D01*
X412281D01*
X409238Y504788D01*
X410107Y505657D01*
X410187Y505604D01*
X411038Y505434D01*
X411889Y505604D01*
X412611Y506085D01*
X413093Y506807D01*
X413262Y507658D01*
X413093Y508509D01*
X412611Y509231D01*
Y509493D01*
X412695Y509776D01*
X413141Y510444D01*
X413310Y511295D01*
X413306Y511319D01*
X413762Y511588D01*
X414338Y511203D01*
X415189Y511034D01*
X416040Y511203D01*
X416761Y511685D01*
X417243Y512407D01*
X417413Y513258D01*
X417243Y514109D01*
X416994Y514481D01*
X417355Y514842D01*
X417616Y514667D01*
X418467Y514498D01*
X419318Y514667D01*
X420040Y515149D01*
X420522Y515871D01*
X420691Y516722D01*
X420522Y517573D01*
X420040Y518294D01*
X420029Y518301D01*
Y518811D01*
X420529Y519126D01*
X421181Y518996D01*
X422032Y519166D01*
X422754Y519648D01*
X423236Y520369D01*
X423405Y521220D01*
X423236Y522071D01*
X422853Y522644D01*
X423213Y523005D01*
X423477Y522828D01*
X424328Y522659D01*
X425179Y522828D01*
X425901Y523310D01*
X426383Y524032D01*
X426552Y524883D01*
X426383Y525734D01*
X425901Y526455D01*
X425858Y526484D01*
Y546571D01*
X436163Y556876D01*
X440971D01*
Y540164D01*
D02*
G37*
G36*
X458971Y528133D02*
X449668Y518831D01*
X449125Y518995D01*
X449055Y519351D01*
X448572Y520073D01*
X447903Y520520D01*
X447809Y520693D01*
X447707Y521031D01*
X455581Y528906D01*
X455913Y529402D01*
X456029Y529987D01*
Y556876D01*
X458971D01*
Y528133D01*
D02*
G37*
G36*
X413471Y529366D02*
Y514612D01*
X413134Y514109D01*
X412965Y513258D01*
X412970Y513234D01*
X412514Y512964D01*
X411938Y513349D01*
X411087Y513519D01*
X410236Y513349D01*
X409514Y512867D01*
X409032Y512146D01*
X408930Y511635D01*
X405996Y508701D01*
X405475Y508715D01*
X405242Y509189D01*
X405705Y509652D01*
X406037Y510148D01*
X406153Y510734D01*
Y514500D01*
X407124D01*
Y520500D01*
Y526500D01*
X402124D01*
Y520500D01*
Y514500D01*
X403094D01*
Y511585D01*
X402833Y511193D01*
X398152Y506511D01*
X394499Y510164D01*
X394003Y510495D01*
X393418Y510612D01*
X389773D01*
X387800Y512585D01*
X386410Y511194D01*
X384887Y512716D01*
X385115Y513057D01*
X385284Y513908D01*
X385115Y514759D01*
X384924Y515045D01*
X385085Y515587D01*
X385581Y515919D01*
X402049Y532386D01*
X402381Y532882D01*
X402497Y533468D01*
Y537026D01*
X402658Y537134D01*
X403140Y537855D01*
X403309Y538706D01*
X403281Y538849D01*
X403742Y539095D01*
X413471Y529366D01*
D02*
G37*
G36*
X393967Y462051D02*
X393957Y462000D01*
X394127Y461149D01*
X394609Y460428D01*
X395330Y459945D01*
X396181Y459776D01*
X397032Y459945D01*
X397754Y460428D01*
X398236Y461149D01*
X398405Y462000D01*
X398236Y462851D01*
X397860Y463413D01*
X397887Y463939D01*
X397958Y464037D01*
X398613D01*
X400947Y461702D01*
X400862Y461617D01*
X404788Y457691D01*
X404694Y457388D01*
X404146Y457264D01*
X400328Y461083D01*
X398078Y458833D01*
X396687Y457441D01*
X401441Y452687D01*
X402877Y454122D01*
X403471Y453528D01*
Y451624D01*
X402000D01*
Y446624D01*
X408000D01*
Y451624D01*
X406529D01*
Y453553D01*
X407029Y453760D01*
X414971Y445819D01*
Y441000D01*
X415087Y440415D01*
X415419Y439919D01*
X453971Y401367D01*
Y352436D01*
X453500Y352020D01*
X446364Y352020D01*
X445442Y352942D01*
X444780Y353384D01*
X444000Y353539D01*
X427876D01*
X427876Y353539D01*
X427096Y353384D01*
X426435Y352942D01*
X423116Y349624D01*
X420000D01*
Y348908D01*
X419624D01*
X418941Y348772D01*
X418362Y348385D01*
X418362Y348385D01*
X416238Y346262D01*
X415851Y345683D01*
X415716Y345000D01*
Y332239D01*
X412261Y328784D01*
X397500D01*
X397500Y328784D01*
X396817Y328648D01*
X396238Y328262D01*
X396238Y328262D01*
X392738Y324762D01*
X392352Y324183D01*
X392216Y323500D01*
Y302379D01*
X391754Y302188D01*
X385221Y308721D01*
X384890Y308942D01*
X384500Y309020D01*
X368422D01*
X368020Y309422D01*
Y321500D01*
X367942Y321890D01*
X367721Y322221D01*
X367424Y322518D01*
X367615Y322980D01*
X380500D01*
X380890Y323058D01*
X381221Y323279D01*
X382721Y324779D01*
X382942Y325110D01*
X383020Y325500D01*
Y351000D01*
X382942Y351390D01*
X382721Y351721D01*
X382390Y351942D01*
X382000Y352020D01*
X371500D01*
X371110Y351942D01*
X370779Y351721D01*
X370558Y351390D01*
X370480Y351000D01*
Y331220D01*
X369750Y331075D01*
X369250Y331344D01*
Y336250D01*
X368539D01*
Y338376D01*
X369500D01*
Y343376D01*
X363500D01*
Y338376D01*
X364461D01*
Y336250D01*
X363750D01*
Y330970D01*
X363610Y330942D01*
X363279Y330721D01*
X363058Y330390D01*
X362980Y330000D01*
Y324020D01*
X355500D01*
X355110Y323942D01*
X354779Y323721D01*
X354279Y323221D01*
X354058Y322890D01*
X353980Y322500D01*
Y314000D01*
X354058Y313610D01*
X354279Y313279D01*
X355096Y312462D01*
X354905Y312000D01*
X350876D01*
Y306000D01*
X351716D01*
Y304880D01*
X348284D01*
Y307745D01*
X348555Y308149D01*
X348724Y309000D01*
X348555Y309851D01*
X348284Y310256D01*
Y311245D01*
X348555Y311649D01*
X348724Y312500D01*
X348555Y313351D01*
X348284Y313755D01*
Y314653D01*
X350547D01*
Y323346D01*
X338705D01*
Y314653D01*
X344716D01*
Y313755D01*
X344445Y313351D01*
X344276Y312500D01*
X344445Y311649D01*
X344462Y311624D01*
X344195Y311124D01*
X339000D01*
Y306124D01*
X344716D01*
Y304876D01*
X339000D01*
Y299876D01*
X340216D01*
Y299124D01*
X339000D01*
Y294124D01*
X342477D01*
X342667Y293933D01*
X343246Y293546D01*
X343929Y293410D01*
X343929Y293410D01*
X348283D01*
X348721Y293118D01*
X349581Y292947D01*
X353828D01*
X354096Y292446D01*
X354058Y292390D01*
X353980Y292000D01*
Y290246D01*
X353480Y290197D01*
X353442Y290390D01*
X353242Y290690D01*
Y291050D01*
X346542D01*
Y290897D01*
X346279Y290721D01*
X346058Y290390D01*
X345980Y290000D01*
Y287922D01*
X345078Y287020D01*
X342500D01*
X342110Y286942D01*
X341779Y286721D01*
X340779Y285721D01*
X340558Y285390D01*
X340480Y285000D01*
Y274111D01*
X339980Y273903D01*
X337539Y276345D01*
Y333655D01*
X350442Y346558D01*
X350884Y347220D01*
X351039Y348000D01*
Y350291D01*
X351315D01*
Y355835D01*
X350779D01*
Y363837D01*
X350635Y364565D01*
X350665Y364709D01*
X350855Y365065D01*
X355458D01*
Y367038D01*
X357000D01*
Y366577D01*
X364000D01*
Y372077D01*
Y377077D01*
X362539D01*
Y378828D01*
X362384Y379609D01*
X361942Y380270D01*
X361942Y380270D01*
X360770Y381442D01*
X360109Y381884D01*
X359328Y382039D01*
X356674D01*
Y389496D01*
X356674Y389496D01*
X356624Y389997D01*
X356724Y390500D01*
X356555Y391351D01*
X356539Y391374D01*
Y395000D01*
X356384Y395780D01*
X355942Y396442D01*
X351585Y400799D01*
X351724Y401500D01*
X351594Y402154D01*
X351674Y402654D01*
X351674D01*
Y410756D01*
X351532D01*
Y411646D01*
X351886Y412000D01*
X352496Y412000D01*
X352816Y411580D01*
X352616Y411280D01*
X352512Y410756D01*
X352312D01*
Y402654D01*
X356674D01*
Y409790D01*
X358345Y411461D01*
X365655D01*
X366280Y410836D01*
Y406890D01*
X366319Y406693D01*
Y402658D01*
X370681D01*
Y410760D01*
X370358D01*
Y411681D01*
X370203Y412462D01*
X369761Y413123D01*
X367942Y414942D01*
X367280Y415384D01*
X366500Y415539D01*
X357500D01*
X356720Y415384D01*
X356058Y414942D01*
X353124Y412008D01*
X353118Y412008D01*
X353118Y412009D01*
X352859Y412057D01*
X352624Y412192D01*
X352624Y412447D01*
Y417461D01*
X368655D01*
X371461Y414655D01*
Y410760D01*
X371319D01*
Y402658D01*
X375681D01*
Y410760D01*
X375539D01*
Y415500D01*
X375384Y416280D01*
X374942Y416942D01*
X370942Y420942D01*
X370280Y421384D01*
X369500Y421539D01*
X341243D01*
X340462Y421384D01*
X339801Y420942D01*
X339801Y420942D01*
X338051Y419192D01*
X337609Y418531D01*
X337454Y417751D01*
Y410756D01*
X337312D01*
Y402654D01*
X341674D01*
Y410756D01*
X341532D01*
Y416906D01*
X342087Y417461D01*
X347624D01*
Y414672D01*
X347609Y414650D01*
X347454Y413869D01*
Y410756D01*
X347312D01*
Y402654D01*
X347312Y402654D01*
X347406Y402154D01*
X347276Y401500D01*
X347445Y400649D01*
X347454Y400636D01*
Y400007D01*
X347609Y399226D01*
X348051Y398565D01*
X352461Y394155D01*
Y391374D01*
X352445Y391351D01*
X352276Y390500D01*
X352376Y389997D01*
X352312Y389496D01*
X352312Y389496D01*
Y382671D01*
X351812Y382451D01*
X351713Y382542D01*
Y385264D01*
X351674Y385461D01*
Y389496D01*
X347312D01*
Y381394D01*
X347312Y381394D01*
X347312D01*
X347199Y381176D01*
X346705Y381296D01*
X346674Y381394D01*
X346674Y381394D01*
X346674Y381394D01*
Y389496D01*
X342312D01*
Y381394D01*
X342454D01*
Y380767D01*
X339776Y378089D01*
X335542D01*
Y365065D01*
X337062D01*
Y361242D01*
X337217Y360462D01*
X337659Y359800D01*
X339221Y358238D01*
Y355835D01*
X338685D01*
Y350291D01*
X339221D01*
Y345604D01*
X331991Y338375D01*
X331529Y338566D01*
Y415464D01*
X338571Y422506D01*
X338622Y422496D01*
X339473Y422665D01*
X340194Y423147D01*
X340676Y423868D01*
X340846Y424719D01*
X340676Y425570D01*
X340194Y426292D01*
X339473Y426774D01*
X338622Y426943D01*
X337771Y426774D01*
X337210Y426399D01*
X336627Y426491D01*
X336573Y426573D01*
X335922Y427007D01*
X335914Y427295D01*
X335975Y427528D01*
X336200Y427572D01*
X336922Y428054D01*
X337403Y428776D01*
X337573Y429627D01*
X337466Y430164D01*
X337927Y430410D01*
X341419Y426919D01*
X341915Y426587D01*
X342500Y426471D01*
X374000D01*
X374585Y426587D01*
X375081Y426919D01*
X381949Y433786D01*
X382000Y433776D01*
X382851Y433945D01*
X383573Y434427D01*
X384055Y435149D01*
X384224Y436000D01*
X384123Y436507D01*
X384584Y436753D01*
X421919Y399419D01*
X422415Y399087D01*
X423000Y398971D01*
X436392D01*
X436860Y398360D01*
X437004Y398250D01*
Y397750D01*
X436860Y397640D01*
X436379Y397013D01*
X436077Y396283D01*
X435974Y395500D01*
X436077Y394717D01*
X436379Y393987D01*
X436860Y393360D01*
X437004Y393250D01*
Y392750D01*
X436860Y392640D01*
X436379Y392013D01*
X436077Y391283D01*
X435974Y390500D01*
X436077Y389717D01*
X436379Y388987D01*
X436860Y388360D01*
X437004Y388250D01*
Y387750D01*
X436860Y387640D01*
X436392Y387029D01*
X427633D01*
X401714Y412949D01*
X401724Y413000D01*
X401555Y413851D01*
X401073Y414572D01*
X400351Y415055D01*
X399500Y415224D01*
X398649Y415055D01*
X397927Y414572D01*
X397445Y413851D01*
X397341Y413328D01*
X396854Y413056D01*
X396817Y413061D01*
X396000Y413224D01*
X395149Y413055D01*
X394427Y412572D01*
X393945Y411851D01*
X393776Y411000D01*
X393945Y410149D01*
X394427Y409427D01*
X395149Y408945D01*
X396000Y408776D01*
X396528Y408881D01*
X425991Y379419D01*
X426487Y379087D01*
X427072Y378971D01*
X436392D01*
X436860Y378360D01*
X437487Y377880D01*
X438217Y377577D01*
X439000Y377474D01*
X439783Y377577D01*
X440513Y377880D01*
X441140Y378360D01*
X441620Y378987D01*
X441923Y379717D01*
X442026Y380500D01*
X441923Y381283D01*
X441620Y382013D01*
X441140Y382640D01*
X440996Y382750D01*
Y383250D01*
X441140Y383360D01*
X441250Y383504D01*
X441750D01*
X441860Y383360D01*
X442487Y382879D01*
X443217Y382577D01*
X444000Y382474D01*
X444783Y382577D01*
X445513Y382879D01*
X446140Y383360D01*
X446621Y383987D01*
X446923Y384717D01*
X447026Y385500D01*
X446923Y386283D01*
X446621Y387013D01*
X446140Y387640D01*
X445996Y387750D01*
Y388250D01*
X446140Y388360D01*
X446621Y388987D01*
X446923Y389717D01*
X447026Y390500D01*
X446923Y391283D01*
X446621Y392013D01*
X446140Y392640D01*
X445996Y392750D01*
Y393250D01*
X446140Y393360D01*
X446621Y393987D01*
X446923Y394717D01*
X447026Y395500D01*
X446923Y396283D01*
X446621Y397013D01*
X446140Y397640D01*
X445996Y397750D01*
Y398250D01*
X446140Y398360D01*
X446621Y398987D01*
X446923Y399717D01*
X447026Y400500D01*
X446923Y401283D01*
X446621Y402013D01*
X446140Y402640D01*
X445513Y403121D01*
X444783Y403423D01*
X444000Y403526D01*
X443217Y403423D01*
X442487Y403121D01*
X441860Y402640D01*
X441750Y402496D01*
X441250D01*
X441140Y402640D01*
X440513Y403121D01*
X439783Y403423D01*
X439000Y403526D01*
X438217Y403423D01*
X437487Y403121D01*
X436860Y402640D01*
X436392Y402029D01*
X423633D01*
X385581Y440081D01*
X385085Y440413D01*
X384500Y440529D01*
X377000D01*
Y445376D01*
X365000D01*
Y440529D01*
X362089D01*
X362018Y441000D01*
X362018D01*
Y450000D01*
X361307D01*
Y451126D01*
X361322Y451149D01*
X361491Y452000D01*
X361469Y452113D01*
X361786Y452500D01*
X362624D01*
Y454731D01*
X363124Y454882D01*
X363427Y454427D01*
X364149Y453945D01*
X365000Y453776D01*
X365851Y453945D01*
X366548Y454412D01*
X366575Y454427D01*
X367134Y454367D01*
X367427Y453928D01*
X368149Y453445D01*
X369000Y453276D01*
X369851Y453445D01*
X370572Y453928D01*
X370601Y453971D01*
X371360D01*
X371776Y453500D01*
X371945Y452649D01*
X372297Y452124D01*
X372051Y451624D01*
X365000D01*
Y446624D01*
X383000D01*
X383000Y446624D01*
X383431Y446457D01*
X383968Y446098D01*
X384819Y445929D01*
X385670Y446098D01*
X386391Y446580D01*
X386874Y447302D01*
X387043Y448153D01*
X387026Y448236D01*
X388743Y449952D01*
X389074Y450448D01*
X389191Y451033D01*
Y454035D01*
X390078Y454922D01*
X390161Y455048D01*
X392694Y457581D01*
X390445Y459830D01*
X387083Y463192D01*
X387413Y463686D01*
X387529Y464271D01*
Y467836D01*
X387991Y468027D01*
X393967Y462051D01*
D02*
G37*
G36*
X417971Y461254D02*
Y447830D01*
X417908Y447782D01*
X417471Y447645D01*
X409033Y456083D01*
X409043Y456134D01*
X408874Y456985D01*
X408391Y457706D01*
X407670Y458188D01*
X407584Y458206D01*
X407439Y458684D01*
X409816Y461061D01*
X412293Y458584D01*
X412276Y458500D01*
X412445Y457649D01*
X412927Y456927D01*
X413649Y456445D01*
X414500Y456276D01*
X415351Y456445D01*
X416073Y456927D01*
X416555Y457649D01*
X416724Y458500D01*
X416555Y459351D01*
X416073Y460073D01*
X415351Y460555D01*
X414500Y460724D01*
X414483Y460720D01*
X412306Y462897D01*
X412333Y463578D01*
X413990Y465235D01*
X417971Y461254D01*
D02*
G37*
G36*
X423927Y457428D02*
X424649Y456945D01*
X425500Y456776D01*
X426351Y456945D01*
X426530Y457065D01*
X426971Y456829D01*
Y439846D01*
X426509Y439654D01*
X423029Y443133D01*
Y457873D01*
X423529Y458023D01*
X423927Y457428D01*
D02*
G37*
G36*
X351376Y452500D02*
X352347D01*
Y442124D01*
X352463Y441538D01*
X352795Y441042D01*
X355919Y437919D01*
X356415Y437587D01*
X357000Y437471D01*
X363655D01*
X363704Y436971D01*
X363415Y436913D01*
X362919Y436581D01*
X362367Y436029D01*
X345634D01*
X341125Y440538D01*
X341316Y441000D01*
X345482D01*
Y447116D01*
X349065Y450699D01*
X349508Y451361D01*
X349663Y452141D01*
Y452500D01*
X350624D01*
Y453461D01*
X351376D01*
Y452500D01*
D02*
G37*
G36*
X426980Y347067D02*
Y331220D01*
X426250Y331075D01*
X425750Y331344D01*
Y336250D01*
X425039D01*
Y338376D01*
X426000D01*
Y343376D01*
X420000D01*
Y338376D01*
X420961D01*
Y336250D01*
X420250D01*
Y330970D01*
X420110Y330942D01*
X419779Y330721D01*
X419558Y330390D01*
X419480Y330000D01*
Y324000D01*
X419461Y323976D01*
X411662D01*
X411272Y323899D01*
X410942Y323678D01*
X410442Y323178D01*
X410220Y322847D01*
X410143Y322457D01*
Y313957D01*
X410220Y313566D01*
X410442Y313236D01*
X411215Y312462D01*
X411024Y312000D01*
X407376D01*
Y306000D01*
X407837D01*
Y305185D01*
X404784D01*
Y307745D01*
X405055Y308149D01*
X405224Y309000D01*
X405055Y309851D01*
X404784Y310256D01*
Y311245D01*
X405055Y311649D01*
X405224Y312500D01*
X405055Y313351D01*
X404784Y313755D01*
Y314653D01*
X407047D01*
Y323346D01*
X397023D01*
X396832Y323808D01*
X398239Y325216D01*
X413000D01*
X413683Y325352D01*
X414262Y325738D01*
X418762Y330238D01*
X419148Y330817D01*
X419284Y331500D01*
Y344261D01*
X419524Y344501D01*
X420000Y344624D01*
Y344624D01*
X420000Y344624D01*
X426000D01*
Y346740D01*
X426518Y347258D01*
X426980Y347067D01*
D02*
G37*
G36*
X438500Y325500D02*
X437000Y324000D01*
X420500D01*
Y330000D01*
X428000D01*
Y348740D01*
X428721Y349461D01*
X438500D01*
Y325500D01*
D02*
G37*
G36*
X382000D02*
X380500Y324000D01*
X365599D01*
X365500Y324020D01*
X364000D01*
Y330000D01*
X371500D01*
Y351000D01*
X382000D01*
Y325500D01*
D02*
G37*
G36*
X453500Y317000D02*
X448000Y311500D01*
X426000Y311500D01*
X424500Y313000D01*
X424500Y321000D01*
X425000Y321500D01*
X438000Y321500D01*
X440500Y324000D01*
X440500Y351000D01*
X453500Y351000D01*
X453500Y317000D01*
D02*
G37*
G36*
X367000Y321500D02*
Y309000D01*
X368000Y308000D01*
X384500D01*
X391500Y301000D01*
Y292500D01*
X391000Y292000D01*
X368500D01*
X367500Y293000D01*
Y299000D01*
X365000Y301500D01*
X358500D01*
X357500Y302500D01*
Y311500D01*
X355000Y314000D01*
Y322500D01*
X355500Y323000D01*
X365500D01*
X367000Y321500D01*
D02*
G37*
G36*
X423163Y321457D02*
Y308957D01*
X424162Y307957D01*
X440662D01*
X447662Y300957D01*
Y292457D01*
X447162Y291957D01*
X424662D01*
X423663Y292957D01*
Y298957D01*
X421163Y301457D01*
X420162D01*
X420003Y301488D01*
X415112D01*
X414953Y301457D01*
X414663D01*
X413662Y302457D01*
Y311457D01*
X411163Y313957D01*
Y322457D01*
X411662Y322957D01*
X421663D01*
X423163Y321457D01*
D02*
G37*
G36*
X399441Y293851D02*
X400124Y293716D01*
X400124Y293716D01*
X404756D01*
X405194Y293423D01*
X406055Y293252D01*
X410945D01*
X411806Y293423D01*
X412039Y293579D01*
X412480Y293343D01*
Y275422D01*
X410482Y273424D01*
X410020Y273615D01*
Y290250D01*
X409942Y290640D01*
X409742Y290940D01*
Y291050D01*
X409603D01*
X409390Y291192D01*
X409000Y291270D01*
X403500D01*
X403110Y291192D01*
X402779Y290971D01*
X402558Y290640D01*
X402480Y290250D01*
Y288172D01*
X401870Y287561D01*
X401500Y287899D01*
Y292876D01*
X398023D01*
X397238Y293662D01*
X397429Y294124D01*
X399034D01*
X399441Y293851D01*
D02*
G37*
G36*
X409000Y272750D02*
X399000D01*
X398000Y273750D01*
Y285250D01*
X399000Y286250D01*
X402000D01*
X403500Y287750D01*
Y290250D01*
X409000D01*
Y272750D01*
D02*
G37*
G36*
X352500Y272500D02*
X342500D01*
X341500Y273500D01*
Y285000D01*
X342500Y286000D01*
X345500D01*
X347000Y287500D01*
Y290000D01*
X352500D01*
Y272500D01*
D02*
G37*
G36*
X395500Y290353D02*
Y287876D01*
X401076D01*
X401402Y287376D01*
X401354Y287270D01*
X399000D01*
X398610Y287192D01*
X398279Y286971D01*
X397279Y285971D01*
X397058Y285640D01*
X396980Y285250D01*
Y273750D01*
X397058Y273360D01*
X397279Y273029D01*
X397789Y272520D01*
X397581Y272020D01*
X387422D01*
X369221Y290221D01*
X369221Y290221D01*
X368962Y290480D01*
X369169Y290980D01*
X391000D01*
X391390Y291058D01*
X391721Y291279D01*
X392221Y291779D01*
X392442Y292110D01*
X392520Y292500D01*
Y292626D01*
X393020Y292833D01*
X395500Y290353D01*
D02*
G37*
G36*
X420500Y300000D02*
X421500Y299000D01*
X421500Y293000D01*
X425000Y289500D01*
Y269500D01*
X420604Y265104D01*
X420000Y265224D01*
X419149Y265055D01*
X418428Y264573D01*
X417945Y263851D01*
X417776Y263000D01*
X417799Y262887D01*
X417482Y262500D01*
X376000D01*
X372500Y259000D01*
X372500Y254500D01*
X369000Y251000D01*
X364500Y251000D01*
X361500Y248000D01*
X361500Y238500D01*
X359500Y236500D01*
X355500D01*
X350539Y241461D01*
Y262500D01*
X350539Y262500D01*
X350500Y262697D01*
Y265500D01*
X355000Y270000D01*
Y292000D01*
X362500Y299500D01*
X364000Y299500D01*
X365000Y298500D01*
X365000Y293000D01*
X368500Y289500D01*
X387000Y271000D01*
X409500D01*
X413500Y275000D01*
Y299250D01*
X414250Y300000D01*
X420500Y300000D01*
D02*
G37*
G36*
X353980Y272254D02*
Y270422D01*
X349779Y266221D01*
X349558Y265890D01*
X349480Y265500D01*
Y265057D01*
X349019Y264865D01*
X342903Y270980D01*
X343110Y271480D01*
X352500D01*
X352890Y271558D01*
X353221Y271779D01*
X353442Y272110D01*
X353480Y272303D01*
X353980Y272254D01*
D02*
G37*
%LPC*%
G36*
X408000Y445376D02*
X390000D01*
Y440376D01*
X396961D01*
Y438250D01*
X396250D01*
Y432750D01*
X401750D01*
Y438250D01*
X401039D01*
Y440376D01*
X402961D01*
Y438250D01*
X402250D01*
Y432750D01*
X407750D01*
Y438250D01*
X407039D01*
Y440376D01*
X408000D01*
Y445376D01*
D02*
G37*
G36*
X380681Y410760D02*
X376319D01*
Y402658D01*
X380681D01*
Y404254D01*
X381068Y404571D01*
X381500Y404485D01*
X381935Y404571D01*
X382324Y404182D01*
X382986Y403740D01*
X383500Y403637D01*
Y402624D01*
X389500D01*
Y407624D01*
X386197D01*
X386000Y407663D01*
X384611D01*
X384123Y408151D01*
X383461Y408593D01*
X382681Y408748D01*
X382374D01*
X382351Y408763D01*
X381500Y408932D01*
X381068Y408847D01*
X380681Y409164D01*
Y410760D01*
D02*
G37*
G36*
Y389500D02*
X376319D01*
Y381398D01*
X380681D01*
Y382994D01*
X381068Y383311D01*
X381500Y383225D01*
X382351Y383394D01*
X382374Y383410D01*
X382681D01*
X383461Y383565D01*
X384123Y384007D01*
X384453Y384337D01*
X386000D01*
X386197Y384376D01*
X389500D01*
Y389376D01*
X383500D01*
Y388394D01*
X382828Y388260D01*
X382167Y387818D01*
X381935Y387586D01*
X381500Y387673D01*
X381068Y387587D01*
X380681Y387904D01*
Y389500D01*
D02*
G37*
G36*
X341674Y389496D02*
X337312D01*
Y381394D01*
X341674D01*
Y389496D01*
D02*
G37*
G36*
X375681Y389500D02*
X371319D01*
Y381560D01*
X370956Y381207D01*
X370681Y381398D01*
X370681D01*
X370681Y381398D01*
Y389500D01*
X366319D01*
Y381398D01*
X366103Y380987D01*
X365558Y380442D01*
X365116Y379780D01*
X364961Y379000D01*
Y371172D01*
X365116Y370391D01*
X365558Y369730D01*
X367730Y367558D01*
X368376Y367126D01*
Y366000D01*
X373376D01*
Y372000D01*
Y377492D01*
X374324Y378440D01*
X374351Y378445D01*
X375073Y378927D01*
X375555Y379649D01*
X375724Y380500D01*
X375645Y380898D01*
X375681Y381398D01*
X375681Y381398D01*
Y389500D01*
D02*
G37*
G36*
X379624Y378000D02*
X374624D01*
Y372000D01*
Y366000D01*
X379624D01*
Y366961D01*
X383250D01*
Y366250D01*
X388750D01*
Y371750D01*
X383250D01*
Y371039D01*
X379624D01*
Y372961D01*
X383250D01*
Y372250D01*
X388750D01*
Y377750D01*
X383250D01*
Y377039D01*
X379624D01*
Y378000D01*
D02*
G37*
G36*
X394750Y377750D02*
X389250D01*
Y372250D01*
X389961D01*
Y371750D01*
X389250D01*
Y366250D01*
X394750D01*
Y366961D01*
X396000D01*
Y366500D01*
X403000D01*
Y371500D01*
X401000D01*
Y373000D01*
X398000D01*
Y371511D01*
X397946Y371500D01*
X396000D01*
Y371039D01*
X394750D01*
Y371750D01*
X394039D01*
Y372250D01*
X394750D01*
Y377750D01*
D02*
G37*
G36*
X407455Y386735D02*
X406604Y386566D01*
X405882Y386084D01*
X405400Y385363D01*
X405231Y384511D01*
X405400Y383661D01*
X405882Y382939D01*
X405925Y382910D01*
Y351029D01*
X405675Y350654D01*
X405505Y349803D01*
X405675Y348952D01*
X406157Y348230D01*
X406878Y347748D01*
X407729Y347579D01*
X408580Y347748D01*
X409302Y348230D01*
X409781D01*
X409891Y348066D01*
X410613Y347584D01*
X411464Y347414D01*
X412315Y347584D01*
X413036Y348066D01*
X413518Y348787D01*
X413688Y349638D01*
X413518Y350489D01*
X413036Y351211D01*
X412993Y351239D01*
Y382654D01*
X413091Y382719D01*
X413573Y383441D01*
X413742Y384292D01*
X413573Y385143D01*
X413091Y385864D01*
X412370Y386346D01*
X411519Y386516D01*
X410668Y386346D01*
X409946Y385864D01*
X409861Y385736D01*
X409259D01*
X409027Y386084D01*
X408306Y386566D01*
X407455Y386735D01*
D02*
G37*
%LPD*%
G36*
X409841Y382877D02*
X409934Y382737D01*
Y351328D01*
X409755Y351223D01*
X409621Y351211D01*
X409412D01*
X409302Y351375D01*
X408984Y351588D01*
Y382620D01*
X409273Y382917D01*
X409841Y382877D01*
D02*
G37*
D10*
X428376Y569500D02*
X430500D01*
X433701Y572701D02*
Y579799D01*
X430500Y569500D02*
X433701Y572701D01*
X426000Y567124D02*
X428376Y569500D01*
X425000Y565624D02*
X426000Y566624D01*
Y567124D01*
X424500Y565624D02*
X425000D01*
X419000D02*
X420000Y566624D01*
Y566850D01*
X428701Y575551D01*
X418500Y565624D02*
X419000D01*
X428701Y575551D02*
X428701D01*
X396000Y567124D02*
X398438Y569562D01*
X394500Y565624D02*
X395000D01*
X396000Y566624D01*
Y567124D01*
X437553Y572676D02*
Y574403D01*
X431000Y565624D02*
X432000Y566624D01*
Y567124D01*
X430500Y565624D02*
X431000D01*
X432000Y567124D02*
X437553Y572676D01*
X440500Y569124D02*
Y569124D01*
X443701Y572324D02*
Y579299D01*
X440500Y569124D02*
X443701Y572324D01*
X442500Y565624D02*
X442538D01*
X443538Y566624D01*
Y568038D01*
X447553Y572053D01*
Y574403D01*
X448701Y575551D01*
X385000Y535500D02*
Y542181D01*
X380149Y535149D02*
Y541055D01*
X366500Y521500D02*
X380149Y535149D01*
X401085Y538706D02*
Y538706D01*
X400968Y538588D02*
X401085Y538706D01*
X387531Y530819D02*
X387856Y531144D01*
X388500D01*
X397676Y533176D02*
Y547930D01*
X381000Y519000D02*
X383500D01*
X397676Y533176D01*
X395000Y521500D02*
X395261Y521761D01*
X386111Y525606D02*
X394500Y533996D01*
X388500Y531144D02*
Y559376D01*
X382000Y517000D02*
X384500D01*
X378000Y516000D02*
X381000Y519000D01*
X400968Y533468D02*
Y538588D01*
X385819Y525606D02*
X386111D01*
X384500Y517000D02*
X400968Y533468D01*
X394500Y533996D02*
Y559376D01*
X395261Y521761D02*
X396637D01*
X396876Y522000D01*
X397376D01*
X398376Y523000D01*
Y523500D01*
X446500Y513000D02*
X452000D01*
X441178Y507678D02*
X446500Y513000D01*
X452000D02*
X468500Y529500D01*
X441178Y507177D02*
Y507678D01*
X445170Y515000D02*
X448000D01*
X420835Y490665D02*
X445170Y515000D01*
X448000D02*
X460500Y527500D01*
X445841Y518500D02*
X447000D01*
X418328Y490987D02*
X445841Y518500D01*
X416892Y492379D02*
X454500Y529987D01*
X415500Y493816D02*
X449000Y527316D01*
X460500Y527500D02*
Y559376D01*
X368500Y519000D02*
X385000Y535500D01*
X399500Y413000D02*
X427000Y385500D01*
X439000D01*
X396572Y411000D02*
X427072Y380500D01*
X396000Y411000D02*
X396572D01*
X427072Y380500D02*
X439000D01*
X429962Y558839D02*
X430500Y559376D01*
X429962Y556962D02*
Y558839D01*
X423500Y550500D02*
X429962Y556962D01*
X379265Y499339D02*
X379310D01*
X375000Y503604D02*
X379265Y499339D01*
X375000Y503604D02*
Y505000D01*
X372000Y508000D02*
X375000Y505000D01*
X376392Y496555D02*
X376526D01*
X373764Y499183D02*
X376392Y496555D01*
X371775Y504000D02*
X376388Y499388D01*
X371638Y504000D02*
X371775D01*
X372261Y511739D02*
X377000Y507000D01*
X375000Y511955D02*
X379000Y507956D01*
X375000Y511955D02*
Y517000D01*
X378000Y511784D02*
X384877Y504907D01*
X378000Y511784D02*
Y516000D01*
X380000Y512612D02*
Y515000D01*
Y512612D02*
X386269Y506343D01*
X372261Y511739D02*
Y512739D01*
X372000Y513000D02*
X372261Y512739D01*
X380000Y515000D02*
X382000Y517000D01*
X377000Y504432D02*
Y507000D01*
X383321Y512119D02*
X387276Y508165D01*
X383061Y513908D02*
X383321Y513647D01*
Y512119D02*
Y513647D01*
X379000Y505261D02*
Y507956D01*
X377000Y504432D02*
X380451Y500981D01*
X379000Y505261D02*
X382093Y502167D01*
Y502123D02*
Y502167D01*
X370525Y499183D02*
X373764D01*
X369921Y496959D02*
X373160D01*
X373304Y496814D01*
X368500Y501208D02*
Y519000D01*
X366500Y500380D02*
Y521500D01*
Y500380D02*
X369921Y496959D01*
X368500Y501208D02*
X370525Y499183D01*
X377500Y481000D02*
X377982Y480518D01*
X387128Y500000D02*
X390500D01*
X394500Y504000D01*
X384649Y502480D02*
X387128Y500000D01*
X389053Y509083D02*
X393418D01*
X401656Y504982D02*
X402723Y506049D01*
X400000Y492681D02*
Y503326D01*
Y492681D02*
X400181Y492500D01*
X401656Y504982D02*
Y504982D01*
X397500Y488500D02*
Y505000D01*
X400000Y503326D02*
X401656Y504982D01*
X393418Y509083D02*
X397500Y505000D01*
X384521Y502480D02*
X384649D01*
X366390Y472500D02*
X369566Y475676D01*
X356500Y479000D02*
X363000Y472500D01*
X366390D01*
X369566Y475676D02*
X369566D01*
X331500Y479000D02*
X356500D01*
X312000Y498500D02*
X331500Y479000D01*
X312000Y498500D02*
Y509500D01*
X403414Y489086D02*
Y498389D01*
X405500Y497646D02*
X406857Y499003D01*
X407062Y502037D02*
X407148D01*
X403414Y498389D02*
X407062Y502037D01*
X405500Y490500D02*
Y497646D01*
X411836Y484164D02*
X420836D01*
X405500Y490500D02*
X411836Y484164D01*
X403414Y489086D02*
X410564Y481936D01*
X408679Y498179D02*
X409552Y499052D01*
X408679Y497958D02*
Y498179D01*
X408136Y493364D02*
X413000Y488500D01*
X408136Y497415D02*
X408679Y497958D01*
X408136Y493364D02*
Y497415D01*
X410564Y481936D02*
X421436D01*
X403500Y476074D02*
X405974Y478548D01*
X384819Y448153D02*
Y448191D01*
X387661Y451033D01*
X376761Y454761D02*
X379500Y457500D01*
X376761Y451863D02*
Y454761D01*
Y451863D02*
X379500Y449124D01*
X374000Y454894D02*
X381015Y461910D01*
X374000Y453500D02*
Y454894D01*
X369000Y455500D02*
X371777D01*
X364500Y459500D02*
X364767D01*
X360467Y462591D02*
X370262D01*
X367500Y458500D02*
X371877D01*
X365000Y456000D02*
X367500Y458500D01*
X371049Y460500D02*
X376500Y465951D01*
X365767Y460500D02*
X371049D01*
X370262Y462591D02*
X375199Y467528D01*
X353876Y456000D02*
X360467Y462591D01*
X364767Y459500D02*
X365767Y460500D01*
X371877Y458500D02*
X379310Y465932D01*
X371777Y455500D02*
X379389Y463111D01*
X379442Y453650D02*
X379535D01*
X382797Y455500D02*
X386269Y458973D01*
X381384Y455500D02*
X382797D01*
X381968Y457500D02*
X384753Y460285D01*
X379500Y457500D02*
X381968D01*
X379535Y453650D02*
X381384Y455500D01*
X364000Y435500D02*
X368000D01*
X363000Y434500D02*
X364000Y435500D01*
X369500Y432500D02*
X372500Y435500D01*
X345000Y434500D02*
X363000D01*
X312000Y467500D02*
X345000Y434500D01*
X312000Y445000D02*
X331672D01*
X344172Y432500D01*
X369500D01*
X312000Y467500D02*
Y474000D01*
X387661Y454669D02*
X388996Y456004D01*
X387661Y451033D02*
Y454669D01*
X387661Y457527D02*
Y457536D01*
X383011Y452877D02*
X387661Y457527D01*
X383011Y452824D02*
Y452877D01*
X343500Y430000D02*
X373000D01*
X376500Y433500D02*
Y435500D01*
X373000Y430000D02*
X376500Y433500D01*
X334500Y439000D02*
X343500Y430000D01*
X333500Y437000D02*
X342500Y428000D01*
X374000D01*
X382000Y436000D01*
X329672Y439000D02*
X334500D01*
X330500Y437000D02*
X333500D01*
X379500Y449124D02*
X380000D01*
X384500Y439000D02*
X423000Y400500D01*
X357000Y439000D02*
X384500D01*
X353876Y442124D02*
X357000Y439000D01*
X319797Y426297D02*
X330500Y437000D01*
X317797Y416297D02*
Y427125D01*
X329672Y439000D01*
X319797Y383297D02*
Y426297D01*
X420836Y484164D02*
X424172Y487500D01*
X440000D01*
X454376Y501876D01*
X421436Y481936D02*
X425000Y485500D01*
X440000D01*
X452624Y472876D01*
X454376Y501876D02*
X475376D01*
X452624Y472876D02*
X475376D01*
X427587Y469595D02*
X459306Y437876D01*
X475376D01*
X419854Y475676D02*
X422030Y473500D01*
X322000Y424000D02*
X331500Y433500D01*
X322000Y330747D02*
Y424000D01*
X324000Y422070D02*
X331465Y429535D01*
X324000Y312000D02*
Y422070D01*
X406819Y456134D02*
X416500Y446453D01*
Y441000D02*
Y446453D01*
X452876Y250500D02*
Y309876D01*
X404000Y466469D02*
X407148Y463321D01*
X399398Y468243D02*
X405756Y461884D01*
X386000Y464271D02*
Y468500D01*
X382000Y476181D02*
X396181Y462000D01*
X409086Y463955D02*
X414500Y458540D01*
X430500Y462201D02*
Y462201D01*
X377500Y481000D02*
Y484490D01*
X372439Y492379D02*
X382000Y482818D01*
X396770Y465566D02*
X399246D01*
X381500Y473000D02*
X386000Y468500D01*
X374819Y479181D02*
X378000Y476000D01*
Y473000D02*
Y476000D01*
X418351Y474351D02*
X430500Y462201D01*
X406790Y473229D02*
X407051Y472968D01*
X410197Y510739D02*
X410739D01*
X412716Y496689D02*
X441514Y525486D01*
X382000Y476181D02*
Y482818D01*
X447000Y531500D02*
X451030Y535530D01*
X404364Y504907D02*
X410197Y510739D01*
X409045Y463955D02*
X409086Y463955D01*
X371002Y490987D02*
X377500Y484490D01*
X425500Y459000D02*
Y461500D01*
X407051Y471597D02*
Y472968D01*
X369566Y489467D02*
X374819Y484214D01*
X407910Y467910D02*
X409888Y465932D01*
X403333Y467731D02*
Y468100D01*
Y467731D02*
X404000Y467064D01*
X374819Y479181D02*
Y484214D01*
X411029Y507649D02*
X411038Y507658D01*
X383735Y462006D02*
X386000Y464271D01*
X441514Y526449D02*
X444068Y529004D01*
X404000Y466469D02*
Y467064D01*
X378000Y473000D02*
X381500D01*
X414500Y458500D02*
Y458540D01*
X375434Y470434D02*
X378000Y473000D01*
X415522Y471522D02*
X425522Y461522D01*
X411087Y511295D02*
X411087Y511087D01*
X405756Y461756D02*
Y461884D01*
X399398Y468243D02*
X399398D01*
X411324Y498125D02*
X439514Y526315D01*
X405801Y503515D02*
X409935Y507649D01*
X399246Y465566D02*
X403083Y461730D01*
X411324Y467324D02*
X411324D01*
X369566Y489467D02*
Y489595D01*
X403500Y472320D02*
X407910Y467910D01*
X407051Y471597D02*
X411324Y467324D01*
X447000Y528144D02*
Y531500D01*
X439514Y529239D02*
X445392Y535118D01*
X396565Y465772D02*
X396770Y465566D01*
X403500Y472320D02*
Y476074D01*
X449000Y528484D02*
X451412Y530896D01*
X409935Y507649D02*
X411029D01*
X449000Y527316D02*
Y528484D01*
X451030Y535530D02*
X451239D01*
X441514Y525486D02*
Y526449D01*
X414108Y495252D02*
X447000Y528144D01*
X439514Y526315D02*
Y529239D01*
X410739Y510739D02*
X411087Y511087D01*
X416500Y441000D02*
X455500Y402000D01*
X399473Y461500D02*
X400484D01*
X396500Y451624D02*
Y458527D01*
X399473Y461500D01*
X401675Y460270D02*
X402973Y458973D01*
X401675Y460270D02*
Y460309D01*
X400484Y461500D02*
X401675Y460309D01*
X401830Y457331D02*
X405000Y454161D01*
Y449124D02*
Y454161D01*
X366661Y492500D02*
X369566Y489595D01*
X326000Y420278D02*
X335349Y429627D01*
X326000Y289747D02*
Y420278D01*
X328000Y418000D02*
X335000Y425000D01*
X328000Y271000D02*
Y418000D01*
X330000Y416098D02*
X338622Y424719D01*
X330000Y272965D02*
Y416098D01*
X423000Y400500D02*
X439000D01*
X353876Y442124D02*
Y455500D01*
X468500Y529500D02*
X468500D01*
X490500Y551500D01*
X433243Y445108D02*
X433269Y445134D01*
X433243Y439243D02*
Y445108D01*
X436500Y438814D02*
Y448000D01*
Y438814D02*
X470937Y404376D01*
X474376D01*
X475376Y403376D01*
Y402876D02*
Y403376D01*
X433500Y451000D02*
X436500Y448000D01*
X430500Y439157D02*
Y462201D01*
X416936Y472936D02*
X428500Y461373D01*
Y438328D02*
Y461373D01*
X422030Y473500D02*
X425624D01*
X421500Y442500D02*
Y462716D01*
X414108Y470108D02*
X421500Y462716D01*
X419500Y441672D02*
Y461888D01*
X413046Y468342D02*
X419500Y461888D01*
X421500Y442500D02*
X459500Y404500D01*
X419500Y441672D02*
X457500Y403672D01*
X430500Y439157D02*
X463500Y406157D01*
X428500Y438328D02*
X461500Y405328D01*
X425624Y473500D02*
X428500Y476376D01*
X312000Y410000D02*
Y410500D01*
X317797Y416297D01*
X312000Y375000D02*
Y375500D01*
X319797Y383297D01*
X317876Y326624D02*
X318376D01*
X319376Y327624D01*
Y328124D01*
X322000Y330747D01*
X317876Y306376D02*
X318376D01*
X324000Y312000D01*
X317876Y281624D02*
X318376D01*
X319376Y282624D01*
Y283124D01*
X326000Y289747D01*
X330000Y272965D02*
X334624Y268341D01*
X317876Y261376D02*
X318376D01*
X328000Y271000D01*
X334624Y250000D02*
Y268341D01*
X433243Y439243D02*
X465500Y406985D01*
X475376Y367876D02*
Y368376D01*
X465500Y378253D02*
X475376Y368376D01*
X465500Y378253D02*
Y406985D01*
X463500Y332747D02*
Y406157D01*
X469124Y326624D02*
X469624D01*
X468124Y327624D02*
X469124Y326624D01*
X468124Y327624D02*
Y328124D01*
X463500Y332747D02*
X468124Y328124D01*
X454876Y309048D02*
X457500Y311672D01*
X455500Y312500D02*
Y402000D01*
X459500Y291747D02*
Y404500D01*
X452376Y250500D02*
X452876Y250000D01*
X457500Y311672D02*
Y403672D01*
X461500Y314000D02*
Y405328D01*
X452876Y309876D02*
X455500Y312500D01*
X469124Y306376D02*
X469624D01*
X461500Y314000D02*
X469124Y306376D01*
Y281624D02*
X469624D01*
X468124Y282624D02*
X469124Y281624D01*
X468124Y282624D02*
Y283124D01*
X459500Y291747D02*
X468124Y283124D01*
X454876Y275624D02*
Y309048D01*
X469124Y261376D02*
X469624D01*
X454876Y275624D02*
X469124Y261376D01*
X407455Y350077D02*
X407729Y349803D01*
X407455Y350077D02*
Y384511D01*
X411464Y349638D02*
Y384237D01*
X411519Y384292D01*
X342500Y489624D02*
Y494500D01*
X446717Y554638D02*
X448500Y556421D01*
Y559376D01*
X424328Y524883D02*
Y547205D01*
X436500Y559376D01*
X424500Y556000D02*
Y559376D01*
X420812Y521220D02*
Y552312D01*
X424500Y556000D01*
X403500Y549000D02*
X406500Y552000D01*
Y559376D01*
X412500Y552500D02*
Y559376D01*
X415000Y513447D02*
Y530000D01*
Y513447D02*
X415189Y513258D01*
X490500Y551500D02*
Y559376D01*
X469719Y535089D02*
X484500Y549870D01*
X335000Y489500D02*
Y493500D01*
X335124Y483376D02*
X342500D01*
X335000Y483500D02*
X335124Y483376D01*
X420812Y521220D02*
X421181D01*
X400500Y544500D02*
X415000Y530000D01*
X370742Y468500D02*
X373742Y471500D01*
X354760Y474740D02*
X361000Y468500D01*
X370742D01*
X353876Y455500D02*
Y456000D01*
X418500Y516755D02*
Y559376D01*
X418467Y516722D02*
X418500Y516755D01*
X400500Y544500D02*
Y559376D01*
X368500Y380500D02*
Y385449D01*
X442491Y538557D02*
X442500Y538566D01*
Y559376D01*
X476101Y545987D02*
X478500Y548386D01*
Y559376D01*
X484500Y549870D02*
Y559376D01*
X464302Y539512D02*
X466500Y541710D01*
Y559376D01*
X464500Y535000D02*
X472500Y543000D01*
Y559376D01*
X454500Y529987D02*
Y559376D01*
X494500Y569624D02*
Y580500D01*
X489449Y585551D02*
X494500Y580500D01*
X492000Y567124D02*
X494500Y569624D01*
X492000Y566624D02*
Y567124D01*
X491000Y565624D02*
X492000Y566624D01*
X490500Y565624D02*
X491000D01*
X488701Y585551D02*
X489449D01*
X466500Y571965D02*
X468701Y574166D01*
X466500Y565624D02*
Y571965D01*
X468701Y574166D02*
Y575551D01*
X454500Y565624D02*
Y570000D01*
X458701Y574201D02*
Y575551D01*
X454500Y570000D02*
X458701Y574201D01*
X448500Y565624D02*
Y568279D01*
X450772Y570551D02*
X450772D01*
X448500Y568279D02*
X450772Y570551D01*
X408701Y585551D02*
X413701Y580551D01*
Y572324D02*
Y580551D01*
X398438Y569562D02*
X400062D01*
X403701Y573201D01*
Y579799D01*
X388500Y565624D02*
X389000D01*
X398701Y575324D01*
Y575551D01*
Y584799D02*
Y585551D01*
Y584799D02*
X403701Y579799D01*
X400500Y565624D02*
X401000D01*
X407553Y572176D01*
Y574403D01*
X408701Y575551D01*
X406500Y565624D02*
X407000D01*
X413701Y572324D01*
X418701Y585551D02*
X423701Y580551D01*
Y573480D02*
Y580551D01*
X412500Y565624D02*
X413000D01*
X417428Y570052D01*
X420272D01*
X423701Y573480D01*
X428701Y584799D02*
Y585551D01*
Y584799D02*
X433701Y579799D01*
X437553Y574403D02*
X438701Y575551D01*
Y584299D02*
Y585551D01*
Y584299D02*
X443701Y579299D01*
X436500Y565624D02*
X437000D01*
X440500Y569124D01*
X448701Y585551D02*
X453701Y580551D01*
Y573480D02*
Y580551D01*
X450772Y570551D02*
X453701Y573480D01*
X460500Y565624D02*
Y570279D01*
X463701Y573480D01*
Y580551D01*
X458701Y585551D02*
X463701Y580551D01*
X472500Y565624D02*
Y571523D01*
X473701Y572723D01*
Y580551D01*
X468701Y585551D02*
X473701Y580551D01*
X478500Y565624D02*
X478701Y565824D01*
Y575551D01*
X484500Y565624D02*
Y572681D01*
X483701Y573480D02*
X484500Y572681D01*
X483701Y573480D02*
Y580551D01*
X478701Y585551D02*
X483701Y580551D01*
X428500Y476376D02*
X429000D01*
X401581Y507690D02*
X404624Y510734D01*
Y517500D01*
X393000Y449124D02*
X393500D01*
X396000Y451624D01*
X396500D01*
X398500Y449124D02*
X399000D01*
X397500Y450124D02*
X398500Y449124D01*
X397500Y450124D02*
Y450624D01*
X396500Y451624D02*
X397500Y450624D01*
X359500Y489624D02*
X359876Y490000D01*
X362500D02*
X365000Y492500D01*
X359876Y490000D02*
X362500D01*
X365000Y492500D02*
X366661D01*
X350634Y474740D02*
X354760D01*
X520000Y560000D02*
Y561999D01*
Y561000D01*
X514002D01*
X515002Y560000D01*
D27*
X417557Y302980D02*
D03*
Y299240D02*
D03*
Y295500D02*
D03*
X408500D02*
D03*
Y299240D02*
D03*
X352027Y298935D02*
D03*
Y295195D02*
D03*
X361084D02*
D03*
Y298935D02*
D03*
Y302675D02*
D03*
D28*
X408500Y302980D02*
D03*
X352027Y302675D02*
D03*
D49*
X386500Y398876D02*
D03*
Y405124D02*
D03*
Y393124D02*
D03*
Y386876D02*
D03*
X366500Y340876D02*
D03*
Y347124D02*
D03*
X342000Y308624D02*
D03*
Y302376D02*
D03*
Y296624D02*
D03*
Y290376D02*
D03*
X398500Y308624D02*
D03*
Y302376D02*
D03*
Y296624D02*
D03*
Y290376D02*
D03*
X423000Y340876D02*
D03*
Y347124D02*
D03*
X430000Y257624D02*
D03*
Y251376D02*
D03*
X420000Y257624D02*
D03*
Y251376D02*
D03*
X359500Y483376D02*
D03*
Y489624D02*
D03*
X353500Y483376D02*
D03*
Y489624D02*
D03*
X342500D02*
D03*
Y483376D02*
D03*
X334000Y467876D02*
D03*
Y474124D02*
D03*
X393000Y449124D02*
D03*
Y442876D02*
D03*
X399000Y449124D02*
D03*
Y442876D02*
D03*
X405000Y449124D02*
D03*
Y442876D02*
D03*
X368000Y449124D02*
D03*
Y442876D02*
D03*
X380000Y449124D02*
D03*
Y442876D02*
D03*
X374000Y449124D02*
D03*
Y442876D02*
D03*
X435000Y482624D02*
D03*
Y476376D02*
D03*
X429000Y482624D02*
D03*
Y476376D02*
D03*
X305876Y497376D02*
D03*
Y503624D02*
D03*
X481500Y520000D02*
D03*
Y513753D02*
D03*
X305876Y461876D02*
D03*
Y468124D02*
D03*
X481500Y485000D02*
D03*
Y478753D02*
D03*
X305876Y426876D02*
D03*
Y433124D02*
D03*
X481500Y450000D02*
D03*
Y443753D02*
D03*
X305876Y391876D02*
D03*
Y398124D02*
D03*
X481500Y415000D02*
D03*
Y408753D02*
D03*
X305876Y356876D02*
D03*
Y363124D02*
D03*
X481500Y380000D02*
D03*
Y373753D02*
D03*
X317876Y312624D02*
D03*
Y306376D02*
D03*
Y320376D02*
D03*
Y326624D02*
D03*
X469624Y320376D02*
D03*
Y326624D02*
D03*
Y312624D02*
D03*
Y306376D02*
D03*
X317876Y267624D02*
D03*
Y261376D02*
D03*
Y275376D02*
D03*
Y281624D02*
D03*
X469624Y275376D02*
D03*
Y281624D02*
D03*
Y267624D02*
D03*
Y261376D02*
D03*
X394500Y559376D02*
D03*
Y565624D02*
D03*
X388500Y559376D02*
D03*
Y565624D02*
D03*
X436500Y559376D02*
D03*
Y565624D02*
D03*
X400500Y559376D02*
D03*
Y565624D02*
D03*
X424500Y559376D02*
D03*
Y565624D02*
D03*
X418500Y559376D02*
D03*
Y565624D02*
D03*
X406500Y559376D02*
D03*
Y565624D02*
D03*
X412500Y559376D02*
D03*
Y565624D02*
D03*
X460500Y559376D02*
D03*
Y565624D02*
D03*
X442500Y559376D02*
D03*
Y565624D02*
D03*
X454500Y559376D02*
D03*
Y565624D02*
D03*
X430500Y559376D02*
D03*
Y565624D02*
D03*
X448500Y559376D02*
D03*
Y565624D02*
D03*
X490500Y559376D02*
D03*
Y565624D02*
D03*
X472500Y559376D02*
D03*
Y565624D02*
D03*
X466500Y559376D02*
D03*
Y565624D02*
D03*
X484500Y559376D02*
D03*
Y565624D02*
D03*
X478500Y559376D02*
D03*
Y565624D02*
D03*
D50*
X339493Y385445D02*
D03*
X344493D02*
D03*
X349493D02*
D03*
X354493D02*
D03*
X339493Y406705D02*
D03*
X344493D02*
D03*
X349493D02*
D03*
X354493D02*
D03*
X363500Y385449D02*
D03*
X368500D02*
D03*
X373500D02*
D03*
X378500D02*
D03*
X363500Y406709D02*
D03*
X368500D02*
D03*
X373500D02*
D03*
X378500D02*
D03*
D51*
X515748Y220472D02*
D03*
Y582677D02*
D03*
X271654Y220472D02*
D03*
X271500Y582677D02*
D03*
D52*
X388899Y343000D02*
D03*
X376101D02*
D03*
X388899Y330000D02*
D03*
X376101D02*
D03*
X445399Y343000D02*
D03*
X432601D02*
D03*
X445399Y330000D02*
D03*
X432601D02*
D03*
X339101Y371577D02*
D03*
X351899D02*
D03*
X272601Y564000D02*
D03*
X285399D02*
D03*
X286101Y538000D02*
D03*
X298899D02*
D03*
X286101Y551000D02*
D03*
X298899D02*
D03*
D53*
X366500Y333500D02*
D03*
Y327500D02*
D03*
X423000Y333500D02*
D03*
Y327500D02*
D03*
X335000Y483500D02*
D03*
Y489500D02*
D03*
D54*
X344626Y319000D02*
D03*
X360374D02*
D03*
X401126D02*
D03*
X416874D02*
D03*
D55*
X359624Y309000D02*
D03*
X353376D02*
D03*
X334624Y250000D02*
D03*
X328376D02*
D03*
X416124Y309000D02*
D03*
X409876D02*
D03*
X452876Y250000D02*
D03*
X459124D02*
D03*
X370876Y375000D02*
D03*
X377124D02*
D03*
X370876Y369000D02*
D03*
X377124D02*
D03*
X398376Y523500D02*
D03*
X404624D02*
D03*
X398376Y517500D02*
D03*
X404624D02*
D03*
X353876Y455500D02*
D03*
X360124D02*
D03*
X348124D02*
D03*
X341876D02*
D03*
X312000Y300500D02*
D03*
X305753D02*
D03*
Y509500D02*
D03*
X312000D02*
D03*
X305753Y515500D02*
D03*
X312000D02*
D03*
X481624Y507876D02*
D03*
X475376D02*
D03*
X481624Y501876D02*
D03*
X475376D02*
D03*
X305753Y474000D02*
D03*
X312000D02*
D03*
X305753Y480000D02*
D03*
X312000D02*
D03*
X481624Y472876D02*
D03*
X475376D02*
D03*
X481624Y466876D02*
D03*
X475376D02*
D03*
X305753Y439000D02*
D03*
X312000D02*
D03*
X305753Y445000D02*
D03*
X312000D02*
D03*
X481624Y437876D02*
D03*
X475376D02*
D03*
X481624Y431876D02*
D03*
X475376D02*
D03*
X305753Y404000D02*
D03*
X312000D02*
D03*
X305753Y410000D02*
D03*
X312000D02*
D03*
X481624Y402876D02*
D03*
X475376D02*
D03*
X481624Y396876D02*
D03*
X475376D02*
D03*
X305753Y369000D02*
D03*
X312000D02*
D03*
X305753Y375000D02*
D03*
X312000D02*
D03*
X481624Y367876D02*
D03*
X475376D02*
D03*
X481624Y361876D02*
D03*
X475376D02*
D03*
X305753Y306500D02*
D03*
X312000D02*
D03*
Y332500D02*
D03*
X305753D02*
D03*
X312000Y326500D02*
D03*
X305753D02*
D03*
X475500Y332500D02*
D03*
X481747D02*
D03*
Y326500D02*
D03*
X475500D02*
D03*
Y300500D02*
D03*
X481747D02*
D03*
X475500Y306500D02*
D03*
X481747D02*
D03*
X312000Y255500D02*
D03*
X305753D02*
D03*
Y261500D02*
D03*
X312000D02*
D03*
Y287500D02*
D03*
X305753D02*
D03*
X312000Y281500D02*
D03*
X305753D02*
D03*
X475500Y287500D02*
D03*
X481747D02*
D03*
Y281500D02*
D03*
X475500D02*
D03*
Y255500D02*
D03*
X481747D02*
D03*
X475500Y261500D02*
D03*
X481747D02*
D03*
X350124Y415000D02*
D03*
X343876D02*
D03*
D56*
X379500Y296000D02*
D03*
Y317500D02*
D03*
X436000Y296000D02*
D03*
Y317500D02*
D03*
D57*
X363108Y286500D02*
D03*
X349892D02*
D03*
X363108Y277500D02*
D03*
X349892D02*
D03*
X419608Y286500D02*
D03*
X406392D02*
D03*
X419608Y277500D02*
D03*
X406392D02*
D03*
D58*
X386000Y375000D02*
D03*
X392000D02*
D03*
X386000Y369000D02*
D03*
X392000D02*
D03*
X405000Y435500D02*
D03*
X399000D02*
D03*
D59*
X348740Y353063D02*
D03*
X341260D02*
D03*
X345000Y360937D02*
D03*
D60*
X342366Y474740D02*
D03*
X350634D02*
D03*
X342366Y467260D02*
D03*
X350634D02*
D03*
D61*
X342732Y445500D02*
D03*
X359268D02*
D03*
D62*
X379310Y499339D02*
D03*
X377918Y497947D02*
D03*
X384877Y504907D02*
D03*
X372350Y492379D02*
D03*
X387661Y507690D02*
D03*
X386269Y506299D02*
D03*
X389053Y509083D02*
D03*
X383485Y503515D02*
D03*
X382093Y502123D02*
D03*
X380701Y500731D02*
D03*
X373742Y493771D02*
D03*
X375134Y495163D02*
D03*
X376526Y496555D02*
D03*
X370958Y490987D02*
D03*
X369566Y489595D02*
D03*
X368174Y488203D02*
D03*
X411324Y467324D02*
D03*
X416892Y472892D02*
D03*
X409932Y465932D02*
D03*
X404364Y460364D02*
D03*
X418284Y474284D02*
D03*
X419676Y475676D02*
D03*
X421068Y477068D02*
D03*
X412716Y468716D02*
D03*
X414108Y470108D02*
D03*
X415500Y471500D02*
D03*
X407148Y463148D02*
D03*
X408540Y464540D02*
D03*
X405756Y461756D02*
D03*
X401581Y457581D02*
D03*
X402973Y458973D02*
D03*
X400189Y456189D02*
D03*
D63*
X409932Y499339D02*
D03*
X416892Y492379D02*
D03*
X411324Y497947D02*
D03*
X404364Y504907D02*
D03*
X419676Y489595D02*
D03*
X418284Y490987D02*
D03*
X421068Y488203D02*
D03*
X412716Y496555D02*
D03*
X415500Y493771D02*
D03*
X414108Y495163D02*
D03*
X408540Y500731D02*
D03*
X407148Y502123D02*
D03*
X405756Y503515D02*
D03*
X401581Y507690D02*
D03*
X400189Y509083D02*
D03*
X402973Y506299D02*
D03*
D64*
X377918Y467324D02*
D03*
X379310Y465932D02*
D03*
X384877Y460364D02*
D03*
X372350Y472892D02*
D03*
X389053Y456189D02*
D03*
X387661Y457581D02*
D03*
X386269Y458973D02*
D03*
X380701Y464540D02*
D03*
X382093Y463148D02*
D03*
X383485Y461756D02*
D03*
X373742Y471500D02*
D03*
X375134Y470108D02*
D03*
X376526Y468716D02*
D03*
X368174Y477068D02*
D03*
X369566Y475676D02*
D03*
X370958Y474284D02*
D03*
D65*
X399500Y374500D02*
D03*
Y369000D02*
D03*
X360500Y369077D02*
D03*
Y374577D02*
D03*
D66*
X397500Y373000D02*
D03*
X399500Y370500D02*
D03*
X401500Y373000D02*
D03*
X362500Y373077D02*
D03*
X360500Y370577D02*
D03*
X358500Y373077D02*
D03*
D67*
X502000Y565000D02*
D03*
Y552202D02*
D03*
D68*
X346500Y312500D02*
Y317126D01*
X347436Y299936D02*
X348263Y299109D01*
X353376Y309000D02*
X353500Y308876D01*
X352027Y302675D02*
X353045D01*
X353500Y303130D01*
Y308876D01*
X403000Y300500D02*
X404086Y299414D01*
X403000Y308813D02*
Y317126D01*
X398500Y308624D02*
X402811D01*
X401126Y319000D02*
X403000Y317126D01*
X346500Y300872D02*
Y308999D01*
Y309000D02*
Y312500D01*
X346125Y308625D02*
X346500Y309000D01*
X346125Y308624D02*
Y308625D01*
X419624Y347124D02*
X423000D01*
X417500Y345000D02*
X419624Y347124D01*
X417500Y331500D02*
Y345000D01*
X413000Y327000D02*
X417500Y331500D01*
X394000Y323500D02*
X397500Y327000D01*
X413000D01*
X394000Y294376D02*
Y323500D01*
Y294376D02*
X398000Y290376D01*
X398500D01*
X342000Y308624D02*
X346125D01*
X346500Y308999D01*
X344626Y319000D02*
X346500Y317126D01*
X351853Y299109D02*
X352027Y298935D01*
X348263Y299109D02*
X351853D01*
X346500Y300872D02*
X347436Y299936D01*
X343929Y295195D02*
X352027D01*
X342500Y296624D02*
X343929Y295195D01*
X342000Y296624D02*
X342500D01*
X342000D02*
Y302376D01*
X398500Y296624D02*
Y302376D01*
X403000Y300500D02*
Y308813D01*
X402811Y308624D02*
X403000Y308813D01*
X408326Y299414D02*
X408500Y299240D01*
X404086Y299414D02*
X408326D01*
X400124Y295500D02*
X408500D01*
X399000Y296624D02*
X400124Y295500D01*
X398500Y296624D02*
X399000D01*
D69*
X327876Y249500D02*
X328376Y250000D01*
X326705Y247500D02*
X327876Y248672D01*
X312000Y247500D02*
X326705D01*
X306000Y241500D02*
X312000Y247500D01*
X327876Y248672D02*
Y249500D01*
X398376Y517500D02*
Y523000D01*
X374000Y449124D02*
X379500D01*
X364471Y484500D02*
X367734Y487764D01*
X364471Y480771D02*
X367734Y477508D01*
X364471Y480771D02*
Y484500D01*
X359268Y445500D02*
Y452000D01*
X339493Y406705D02*
Y417751D01*
X341243Y419500D01*
X332500Y274000D02*
X345500Y261000D01*
X335500Y275500D02*
X348500Y262500D01*
X332500Y274000D02*
Y336000D01*
X335500Y275500D02*
Y334500D01*
X345500Y237312D02*
Y261000D01*
X348500Y238555D02*
Y262500D01*
X335500Y334500D02*
X349000Y348000D01*
X332500Y336000D02*
X341260Y344760D01*
X353500Y489624D02*
X359500D01*
X445399Y343000D02*
X445500Y343101D01*
Y350000D01*
X427876Y351500D02*
X444000D01*
X445500Y350000D01*
X423000Y347124D02*
X423500D01*
X427876Y351500D01*
X393000Y442876D02*
X399000D01*
X430000Y257624D02*
Y263000D01*
X420000Y257624D02*
Y263000D01*
X430000Y240500D02*
Y251376D01*
X420000Y240500D02*
Y251376D01*
X405000Y435500D02*
Y442876D01*
X399000Y435500D02*
Y442876D01*
X378500Y385449D02*
X381500D01*
X409876Y303185D02*
Y309000D01*
X409671Y302980D02*
X409876Y303185D01*
X408500Y302980D02*
X409671D01*
X428500Y482124D02*
X429000Y482624D01*
X425624Y482124D02*
X428500D01*
X421258Y477758D02*
X425624Y482124D01*
X429000Y476376D02*
X432000D01*
X435000D01*
X429000Y482624D02*
X435000D01*
X398376Y510895D02*
Y517500D01*
Y510895D02*
X399749Y509522D01*
X404624Y520500D02*
Y523500D01*
Y517500D02*
Y520500D01*
X359500Y483376D02*
X363347D01*
X353500D02*
X359500D01*
X363347D02*
X364471Y484500D01*
X334000Y474124D02*
X334308Y474432D01*
X342058D01*
X342366Y474740D01*
Y467260D02*
X350634D01*
X335117D02*
X342366D01*
X334500Y467876D02*
X335117Y467260D01*
X334000Y467876D02*
X334500D01*
X368000Y442876D02*
X371000D01*
X374000D01*
X359268Y452000D02*
Y454144D01*
X368000Y449124D02*
X374000D01*
X359268Y454144D02*
X360124Y455000D01*
Y455500D01*
X348124D02*
X353876D01*
X342732Y445500D02*
Y447250D01*
X347624Y452141D01*
Y455000D01*
X348124Y455500D01*
X341243Y419500D02*
X369500D01*
X341260Y344760D02*
Y353063D01*
X475376Y396876D02*
Y402876D01*
X481562Y408691D02*
X481688Y408565D01*
X481562Y402938D02*
X481624Y402876D01*
X481562Y402938D02*
Y408691D01*
X481500Y408753D02*
X481562Y408691D01*
X491639Y397515D02*
X492500Y398376D01*
X489594Y397515D02*
X491639D01*
X489078Y397000D02*
X489594Y397515D01*
X481500Y397000D02*
X489078D01*
X492312Y408565D02*
X492500Y408376D01*
X481688Y408565D02*
X492312D01*
X481562Y443691D02*
X481688Y443565D01*
X481500Y443753D02*
X481562Y443691D01*
X492312Y443565D02*
X492500Y443376D01*
X481688Y443565D02*
X492312D01*
X481500Y432000D02*
X482000Y432500D01*
X491639Y432515D02*
X492500Y433376D01*
X489094Y432515D02*
X491639D01*
X489078Y432500D02*
X489094Y432515D01*
X482000Y432500D02*
X489078D01*
X475376Y431876D02*
Y437876D01*
X481562Y437938D02*
X481624Y437876D01*
X481562Y437938D02*
Y443691D01*
X475376Y466876D02*
Y472876D01*
X481562Y478691D02*
X481688Y478565D01*
X481500Y478753D02*
X481562Y478691D01*
X492312Y478565D02*
X492500Y478376D01*
X481688Y478565D02*
X492312D01*
X481562Y472938D02*
X481624Y472876D01*
X481562Y472938D02*
Y478691D01*
X482500Y467500D02*
X489078D01*
X489094Y467515D01*
X491639D01*
X492500Y468376D01*
X482000Y467000D02*
X482500Y467500D01*
X491639Y502515D02*
X492500Y503376D01*
X489594Y502515D02*
X491639D01*
X489078Y502000D02*
X489594Y502515D01*
X482000Y502000D02*
X489078D01*
X475376Y501876D02*
Y507876D01*
X481562Y513691D02*
X481688Y513565D01*
X481500Y513753D02*
X481562Y513691D01*
X492312Y513565D02*
X492500Y513376D01*
X481688Y513565D02*
X492312D01*
X481562Y507938D02*
Y513691D01*
Y507938D02*
X481624Y507876D01*
X312000Y509500D02*
Y515500D01*
X294876Y504000D02*
X295065Y503812D01*
X305688D01*
X305815Y503685D01*
X297594Y515500D02*
X305753D01*
X296094Y514000D02*
X297594Y515500D01*
X294876Y514000D02*
X296094D01*
X305815Y503685D02*
Y509438D01*
X305753Y509500D02*
X305815Y509438D01*
X312000Y474000D02*
Y480000D01*
X305688Y468312D02*
X305815Y468438D01*
X305753Y474000D02*
X305815Y473938D01*
Y468438D02*
Y473938D01*
X294876Y468500D02*
X295065Y468312D01*
X305688D01*
X297594Y480000D02*
X305753D01*
X296094Y478500D02*
X297594Y480000D01*
X294876Y478500D02*
X296094D01*
X297594Y445000D02*
X305753D01*
X296094Y443500D02*
X297594Y445000D01*
X294876Y443500D02*
X296094D01*
X312000Y439000D02*
Y445000D01*
X305688Y433312D02*
X305815Y433438D01*
X305753Y439000D02*
X305815Y438938D01*
Y433438D02*
Y438938D01*
X295065Y433312D02*
X305688D01*
X294876Y433500D02*
X295065Y433312D01*
X491639Y362515D02*
X492500Y363376D01*
X489594Y362515D02*
X491639D01*
X489078Y362000D02*
X489594Y362515D01*
X482000Y362000D02*
X489078D01*
X481562Y373691D02*
X481688Y373565D01*
X481500Y373753D02*
X481562Y373691D01*
X492312Y373565D02*
X492500Y373376D01*
X481688Y373565D02*
X492312D01*
X481562Y367938D02*
X481624Y367876D01*
X481562Y367938D02*
Y373691D01*
X475376Y361876D02*
Y367876D01*
X297594Y410000D02*
X305753D01*
X294876Y408500D02*
X296094D01*
X297594Y410000D01*
X312000Y404000D02*
Y410000D01*
X305688Y398312D02*
X305815Y398438D01*
X305753Y404000D02*
X305815Y403938D01*
Y398438D02*
Y403938D01*
X295065Y398312D02*
X305688D01*
X294876Y398500D02*
X295065Y398312D01*
X297594Y375000D02*
X305753D01*
X296094Y373500D02*
X297594Y375000D01*
X294876Y373500D02*
X296094D01*
X312000Y369000D02*
Y375000D01*
X305688Y363312D02*
X305815Y363438D01*
X305753Y369000D02*
X305815Y368938D01*
Y363438D02*
Y368938D01*
X294876Y363500D02*
X295065Y363312D01*
X305688D01*
X317876Y316500D02*
Y320376D01*
Y312624D02*
Y316500D01*
X294876D02*
X317876D01*
X294876Y326500D02*
X305753D01*
Y332500D01*
X317815Y326562D02*
X317876Y326624D01*
X312062Y326562D02*
X317815D01*
X312000Y326500D02*
X312062Y326562D01*
X312000Y306500D02*
X312062Y306438D01*
X317815D01*
X317876Y306376D01*
X305753Y300500D02*
Y306500D01*
X294876D02*
X305753D01*
X348500Y238555D02*
X353367Y233687D01*
X345500Y237312D02*
X352125Y230687D01*
X360813D02*
X363000Y228500D01*
Y223500D02*
X368000Y218500D01*
X363000Y223500D02*
Y228500D01*
X352125Y230687D02*
X360813D01*
X368000Y218500D02*
X376500D01*
X382500Y224500D01*
Y234500D01*
X377701Y239299D02*
X382500Y234500D01*
X377701Y239299D02*
Y240500D01*
X360888Y233687D02*
X367701Y240500D01*
X353367Y233687D02*
X360888D01*
X349000Y348000D02*
Y352803D01*
X348740Y353063D02*
X349000Y352803D01*
X481747Y326500D02*
Y332500D01*
Y326500D02*
X492624D01*
X481747Y306500D02*
X492624D01*
X481747Y300500D02*
Y306500D01*
X469624Y306376D02*
X469685Y306438D01*
X475438D01*
X475500Y306500D01*
X469624Y326624D02*
X469685Y326562D01*
X475438D01*
X475500Y326500D01*
X469624Y316500D02*
Y320376D01*
Y312624D02*
Y316500D01*
X492624D01*
X475438Y261438D02*
X475500Y261500D01*
X469685Y261438D02*
X475438D01*
X469624Y261376D02*
X469685Y261438D01*
X481747Y261500D02*
X492624D01*
X481747Y255500D02*
Y261500D01*
Y281500D02*
Y287500D01*
Y281500D02*
X492624D01*
X469624Y281624D02*
X469685Y281562D01*
X475438D01*
X475500Y281500D01*
X469624Y271500D02*
Y275376D01*
Y267624D02*
Y271500D01*
X492624D01*
X294876D02*
X317876D01*
Y267624D02*
Y271500D01*
Y275376D01*
X305753Y281500D02*
Y287500D01*
X312000Y281500D02*
X312062Y281562D01*
X317815D01*
X317876Y281624D01*
X294876Y281500D02*
X305753D01*
X294876Y261500D02*
X305753D01*
X317815Y261438D02*
X317876Y261376D01*
X312062Y261438D02*
X317815D01*
X312000Y261500D02*
X312062Y261438D01*
X305753Y255500D02*
Y261500D01*
X373500Y406709D02*
Y415500D01*
X369500Y419500D02*
X373500Y415500D01*
X354493Y406705D02*
X354500Y406712D01*
Y410500D02*
X357500Y413500D01*
X354500Y406712D02*
Y410500D01*
X357500Y413500D02*
X366500D01*
X368319Y406890D02*
X368500Y406709D01*
X368319Y406890D02*
Y411681D01*
X366500Y413500D02*
X368319Y411681D01*
X381500Y406709D02*
X382681D01*
X378500D02*
X381500D01*
Y385449D02*
X382681D01*
X386000Y405624D02*
X386500Y405124D01*
X383766Y405624D02*
X386000D01*
X382681Y406709D02*
X383766Y405624D01*
X386000Y386376D02*
X386500Y386876D01*
X383609Y386376D02*
X386000D01*
X382681Y385449D02*
X383609Y386376D01*
X354493Y385445D02*
X354500Y385452D01*
Y395000D01*
X349493Y400007D02*
Y406705D01*
Y400007D02*
X354500Y395000D01*
X392000Y369000D02*
Y375000D01*
Y369000D02*
X398000D01*
X398589Y369589D01*
X377124Y369000D02*
X386000D01*
X377124Y375000D02*
X386000D01*
X369172Y369000D02*
X370376D01*
X367000Y371172D02*
X369172Y369000D01*
X367000Y371172D02*
Y379000D01*
X368500Y380500D01*
X373500D02*
Y385449D01*
X371000Y378000D02*
X373500Y380500D01*
X371000Y375124D02*
Y378000D01*
X370876Y375000D02*
X371000Y375124D01*
X363681Y402319D02*
Y406528D01*
X367124Y398876D02*
X386500D01*
X363681Y402319D02*
X367124Y398876D01*
X363500Y385449D02*
X363681Y385630D01*
Y390181D01*
X367000Y393500D01*
X386124D02*
X386500Y393124D01*
X367000Y393500D02*
X386124D01*
X363500Y406709D02*
X363681Y406528D01*
X349493Y406705D02*
Y413869D01*
X350124Y414500D01*
Y415000D01*
X343876D02*
X344376Y414500D01*
Y412873D02*
Y414500D01*
Y412873D02*
X344493Y412756D01*
Y406705D02*
Y412756D01*
X345000Y357000D02*
Y360937D01*
X348740Y353063D02*
Y363837D01*
X346000Y366577D02*
X348740Y363837D01*
X346000Y366577D02*
Y377000D01*
X349674Y380674D01*
Y381326D01*
X344493Y379922D02*
Y385445D01*
X339101Y374530D02*
X344493Y379922D01*
X339101Y361242D02*
Y374530D01*
X341260Y353063D02*
Y359083D01*
X339101Y361242D02*
X341260Y359083D01*
X353458Y369077D02*
X360500D01*
X351899Y370636D02*
X353458Y369077D01*
X351899Y370636D02*
Y371577D01*
X359328Y380000D02*
X360500Y378828D01*
Y374577D02*
Y378828D01*
X351000Y380000D02*
X359328D01*
X349493Y385445D02*
X349674Y385264D01*
Y381326D02*
Y385264D01*
Y381326D02*
X351000Y380000D01*
X305500Y241500D02*
X306000D01*
X459624Y249000D02*
X460124D01*
X459124Y249500D02*
X459624Y249000D01*
X475500Y248000D02*
X482000Y241500D01*
X460124Y249000D02*
X461124Y248000D01*
X459124Y249500D02*
Y250000D01*
X461124Y248000D02*
X475500D01*
X423000Y333500D02*
Y340876D01*
X366500Y333500D02*
Y340876D01*
D70*
X410000Y240500D02*
Y248500D01*
X404000Y240500D02*
X410000D01*
D71*
X249315Y223685D02*
D03*
X237315D02*
D03*
Y235685D02*
D03*
X234815Y229685D02*
D03*
X243315Y221185D02*
D03*
X249315Y235685D02*
D03*
X251815Y229685D02*
D03*
X243315Y238185D02*
D03*
Y579315D02*
D03*
X251815Y570815D02*
D03*
X249315Y576815D02*
D03*
X243315Y562315D02*
D03*
X234815Y570815D02*
D03*
X237315Y576815D02*
D03*
Y564815D02*
D03*
X249315D02*
D03*
X550185D02*
D03*
X538185D02*
D03*
Y576815D02*
D03*
X535685Y570815D02*
D03*
X544185Y562315D02*
D03*
X550185Y576815D02*
D03*
X552685Y570815D02*
D03*
X544185Y579315D02*
D03*
Y238130D02*
D03*
X552685Y229630D02*
D03*
X550185Y235630D02*
D03*
X544185Y221130D02*
D03*
X535685Y229630D02*
D03*
X538185Y235630D02*
D03*
Y223630D02*
D03*
X550185D02*
D03*
D72*
X243315Y229685D02*
D03*
Y570815D02*
D03*
X544185D02*
D03*
Y229630D02*
D03*
D73*
X367151Y242776D02*
D03*
D74*
X378188Y242934D02*
D03*
D75*
X378606Y245000D02*
D03*
X366795D02*
D03*
X378606Y256819D02*
D03*
X366795D02*
D03*
D76*
X516535Y237402D02*
D03*
X270866D02*
D03*
X516535Y537402D02*
D03*
X270866D02*
D03*
D77*
X488701Y575551D02*
D03*
Y585551D02*
D03*
X478701Y575551D02*
D03*
Y585551D02*
D03*
X468701Y575551D02*
D03*
Y585551D02*
D03*
X458701Y575551D02*
D03*
Y585551D02*
D03*
X448701Y575551D02*
D03*
Y585551D02*
D03*
X438701Y575551D02*
D03*
Y585551D02*
D03*
X428701Y575551D02*
D03*
Y585551D02*
D03*
X418701Y575551D02*
D03*
Y585551D02*
D03*
X408701Y575551D02*
D03*
Y585551D02*
D03*
X398701Y575551D02*
D03*
Y585551D02*
D03*
X388701Y575551D02*
D03*
Y585551D02*
D03*
X378701Y575551D02*
D03*
Y585551D02*
D03*
X368701Y575551D02*
D03*
Y585551D02*
D03*
X358701Y575551D02*
D03*
Y585551D02*
D03*
X348701Y575551D02*
D03*
Y585551D02*
D03*
X338701Y575551D02*
D03*
Y585551D02*
D03*
X328701Y575551D02*
D03*
Y585551D02*
D03*
X318701Y575551D02*
D03*
Y585551D02*
D03*
X308701Y575551D02*
D03*
Y585551D02*
D03*
X298701Y575551D02*
D03*
Y585551D02*
D03*
D78*
X430000Y240500D02*
D03*
X420000D02*
D03*
X410000D02*
D03*
X294876Y504000D02*
D03*
Y514000D02*
D03*
X492500Y513376D02*
D03*
Y503376D02*
D03*
X294876Y468500D02*
D03*
Y478500D02*
D03*
X492500Y478376D02*
D03*
Y468376D02*
D03*
X294876Y433500D02*
D03*
Y443500D02*
D03*
X492500Y443376D02*
D03*
Y433376D02*
D03*
X294876Y398500D02*
D03*
Y408500D02*
D03*
X492500Y408376D02*
D03*
Y398376D02*
D03*
X294876Y363500D02*
D03*
Y373500D02*
D03*
X492500Y373376D02*
D03*
Y363376D02*
D03*
X294876Y306500D02*
D03*
Y316500D02*
D03*
Y326500D02*
D03*
X492624D02*
D03*
Y316500D02*
D03*
Y306500D02*
D03*
X294876Y261500D02*
D03*
Y271500D02*
D03*
Y281500D02*
D03*
X492624D02*
D03*
Y271500D02*
D03*
Y261500D02*
D03*
X492000Y241500D02*
D03*
X482000D02*
D03*
X472000D02*
D03*
X315500D02*
D03*
X305500D02*
D03*
X295500D02*
D03*
X357701Y240500D02*
D03*
X367701D02*
D03*
X377701D02*
D03*
X387701D02*
D03*
D79*
X439000Y390500D02*
D03*
X444000D02*
D03*
Y385500D02*
D03*
X439000D02*
D03*
Y380500D02*
D03*
X444000D02*
D03*
Y395500D02*
D03*
X439000D02*
D03*
Y400500D02*
D03*
X444000D02*
D03*
D80*
X440500Y357000D02*
D03*
Y360000D02*
D03*
Y363000D02*
D03*
X479500Y350000D02*
D03*
X482000Y352500D02*
D03*
X484500Y355000D02*
D03*
X307500Y342500D02*
D03*
X310000Y345000D02*
D03*
X312500Y347500D02*
D03*
X351500Y334500D02*
D03*
Y337500D02*
D03*
Y340500D02*
D03*
X374102Y538375D02*
D03*
X385000Y542181D02*
D03*
X380149Y541055D02*
D03*
X401085Y538706D02*
D03*
X368023Y534074D02*
D03*
X387531Y530819D02*
D03*
X395000Y521500D02*
D03*
X447000Y518500D02*
D03*
X399500Y413000D02*
D03*
X396000Y411000D02*
D03*
X371638Y504000D02*
D03*
X372000Y508000D02*
D03*
Y513000D02*
D03*
X375000Y517000D02*
D03*
X383061Y513908D02*
D03*
X377982Y480518D02*
D03*
X394500Y504000D02*
D03*
X405974Y478548D02*
D03*
X384819Y448153D02*
D03*
X374000Y453500D02*
D03*
X369000Y455500D02*
D03*
X364500Y459500D02*
D03*
X379442Y453650D02*
D03*
X365000Y456000D02*
D03*
X368000Y435500D02*
D03*
X372500D02*
D03*
X383011Y452824D02*
D03*
X371000Y442876D02*
D03*
X376500Y435500D02*
D03*
X382000Y436000D02*
D03*
X413000Y488500D02*
D03*
X400181Y492500D02*
D03*
X427587Y469595D02*
D03*
X331500Y433500D02*
D03*
X396181Y462000D02*
D03*
X399398Y468243D02*
D03*
X396565Y465772D02*
D03*
X397500Y488500D02*
D03*
X425500Y459000D02*
D03*
X411087Y511295D02*
D03*
X411038Y507658D02*
D03*
X406790Y473229D02*
D03*
X444068Y529004D02*
D03*
X403333Y468100D02*
D03*
X414500Y458500D02*
D03*
X451412Y530896D02*
D03*
X445392Y535118D02*
D03*
X451239Y535530D02*
D03*
X397676Y547930D02*
D03*
X406819Y456134D02*
D03*
X396181Y442876D02*
D03*
X331465Y429535D02*
D03*
X335349Y429627D02*
D03*
X359268Y452000D02*
D03*
X335000Y425000D02*
D03*
X338622Y424719D02*
D03*
X433269Y445134D02*
D03*
X433500Y451000D02*
D03*
X451500Y349000D02*
D03*
X403500Y299500D02*
D03*
X403000Y312500D02*
D03*
Y309000D02*
D03*
X407729Y349803D02*
D03*
X411464Y349638D02*
D03*
X407455Y384511D02*
D03*
X411519Y384292D02*
D03*
X427000Y326000D02*
D03*
Y329000D02*
D03*
X342500Y494500D02*
D03*
X423500Y550500D02*
D03*
X446717Y554638D02*
D03*
X403500Y549000D02*
D03*
X412500Y552500D02*
D03*
X415189Y513258D02*
D03*
X441178Y507177D02*
D03*
X469719Y535089D02*
D03*
X335000Y493500D02*
D03*
X437000Y348000D02*
D03*
X385819Y525606D02*
D03*
X421181Y521220D02*
D03*
X424328Y524883D02*
D03*
X418467Y516722D02*
D03*
X400000Y284500D02*
D03*
Y275000D02*
D03*
Y278000D02*
D03*
Y281500D02*
D03*
X430000Y263000D02*
D03*
X420000D02*
D03*
X373500Y380500D02*
D03*
X381500Y385449D02*
D03*
X368500Y380500D02*
D03*
X442491Y538557D02*
D03*
X476101Y545987D02*
D03*
X464302Y539512D02*
D03*
X464500Y535000D02*
D03*
X356500Y489500D02*
D03*
X338000Y474500D02*
D03*
X349500Y401500D02*
D03*
X354500Y390500D02*
D03*
X347000Y299500D02*
D03*
X346500Y312500D02*
D03*
Y309000D02*
D03*
X272000Y555000D02*
D03*
X275500D02*
D03*
X279000D02*
D03*
X275500Y551500D02*
D03*
X279000D02*
D03*
Y548000D02*
D03*
X503000Y571000D02*
D03*
X506500D02*
D03*
Y574500D02*
D03*
X410000Y248500D02*
D03*
X404000Y240500D02*
D03*
X432000Y476376D02*
D03*
X404624Y520500D02*
D03*
X451500Y321000D02*
D03*
Y317500D02*
D03*
X343500Y274500D02*
D03*
X381500Y406709D02*
D03*
X345000Y357000D02*
D03*
X370500Y329000D02*
D03*
Y326000D02*
D03*
X380500Y327000D02*
D03*
Y330000D02*
D03*
Y333000D02*
D03*
Y336000D02*
D03*
Y339000D02*
D03*
Y342000D02*
D03*
Y345000D02*
D03*
Y348000D02*
D03*
X437000Y345000D02*
D03*
Y342000D02*
D03*
Y339000D02*
D03*
Y336000D02*
D03*
Y333000D02*
D03*
Y330000D02*
D03*
Y327000D02*
D03*
X343500Y284000D02*
D03*
Y281000D02*
D03*
Y277500D02*
D03*
X451500Y324500D02*
D03*
Y328000D02*
D03*
Y331500D02*
D03*
Y335000D02*
D03*
Y338500D02*
D03*
Y342000D02*
D03*
Y345500D02*
D03*
M02*
