G04*
G04 #@! TF.GenerationSoftware,Altium Limited,Altium Designer,19.0.15 (446)*
G04*
G04 Layer_Physical_Order=1*
G04 Layer_Color=255*
%FSLAX25Y25*%
%MOIN*%
G70*
G01*
G75*
%ADD42R,0.03937X0.03937*%
%ADD52R,0.03937X0.03937*%
%ADD65R,0.02362X0.06102*%
G04:AMPARAMS|DCode=66|XSize=35.43mil|YSize=31.5mil|CornerRadius=0mil|HoleSize=0mil|Usage=FLASHONLY|Rotation=315.000|XOffset=0mil|YOffset=0mil|HoleType=Round|Shape=Rectangle|*
%AMROTATEDRECTD66*
4,1,4,-0.02366,0.00139,-0.00139,0.02366,0.02366,-0.00139,0.00139,-0.02366,-0.02366,0.00139,0.0*
%
%ADD66ROTATEDRECTD66*%

%ADD67R,0.03150X0.06614*%
%ADD68R,0.05906X0.06693*%
%ADD69R,0.05079X0.05512*%
%ADD70R,0.05079X0.05118*%
%ADD71R,0.06299X0.05906*%
%ADD72R,0.06693X0.05906*%
G04:AMPARAMS|DCode=73|XSize=23.62mil|YSize=57.09mil|CornerRadius=2.01mil|HoleSize=0mil|Usage=FLASHONLY|Rotation=90.000|XOffset=0mil|YOffset=0mil|HoleType=Round|Shape=RoundedRectangle|*
%AMROUNDEDRECTD73*
21,1,0.02362,0.05307,0,0,90.0*
21,1,0.01961,0.05709,0,0,90.0*
1,1,0.00402,0.02653,0.00980*
1,1,0.00402,0.02653,-0.00980*
1,1,0.00402,-0.02653,-0.00980*
1,1,0.00402,-0.02653,0.00980*
%
%ADD73ROUNDEDRECTD73*%
G04:AMPARAMS|DCode=74|XSize=125.98mil|YSize=68.9mil|CornerRadius=2.07mil|HoleSize=0mil|Usage=FLASHONLY|Rotation=90.000|XOffset=0mil|YOffset=0mil|HoleType=Round|Shape=RoundedRectangle|*
%AMROUNDEDRECTD74*
21,1,0.12598,0.06476,0,0,90.0*
21,1,0.12185,0.06890,0,0,90.0*
1,1,0.00413,0.03238,0.06093*
1,1,0.00413,0.03238,-0.06093*
1,1,0.00413,-0.03238,-0.06093*
1,1,0.00413,-0.03238,0.06093*
%
%ADD74ROUNDEDRECTD74*%
G04:AMPARAMS|DCode=75|XSize=35.43mil|YSize=68.9mil|CornerRadius=1.95mil|HoleSize=0mil|Usage=FLASHONLY|Rotation=90.000|XOffset=0mil|YOffset=0mil|HoleType=Round|Shape=RoundedRectangle|*
%AMROUNDEDRECTD75*
21,1,0.03543,0.06500,0,0,90.0*
21,1,0.03154,0.06890,0,0,90.0*
1,1,0.00390,0.03250,0.01577*
1,1,0.00390,0.03250,-0.01577*
1,1,0.00390,-0.03250,-0.01577*
1,1,0.00390,-0.03250,0.01577*
%
%ADD75ROUNDEDRECTD75*%
%ADD76R,0.03937X0.03543*%
%ADD77R,0.08661X0.08465*%
%ADD78R,0.04331X0.04331*%
%ADD79R,0.03150X0.03150*%
%ADD80R,0.05512X0.03937*%
%ADD81R,0.05512X0.12795*%
%ADD82R,0.03740X0.03347*%
%ADD83R,0.03543X0.03937*%
%ADD84R,0.05906X0.21654*%
G04:AMPARAMS|DCode=85|XSize=21.65mil|YSize=68.9mil|CornerRadius=0mil|HoleSize=0mil|Usage=FLASHONLY|Rotation=135.000|XOffset=0mil|YOffset=0mil|HoleType=Round|Shape=Round|*
%AMOVALD85*
21,1,0.04724,0.02165,0.00000,0.00000,225.0*
1,1,0.02165,0.01670,0.01670*
1,1,0.02165,-0.01670,-0.01670*
%
%ADD85OVALD85*%

G04:AMPARAMS|DCode=86|XSize=21.65mil|YSize=68.9mil|CornerRadius=0mil|HoleSize=0mil|Usage=FLASHONLY|Rotation=225.000|XOffset=0mil|YOffset=0mil|HoleType=Round|Shape=Round|*
%AMOVALD86*
21,1,0.04724,0.02165,0.00000,0.00000,315.0*
1,1,0.02165,-0.01670,0.01670*
1,1,0.02165,0.01670,-0.01670*
%
%ADD86OVALD86*%

%ADD87R,0.06693X0.03150*%
%ADD88P,0.06125X4X90.0*%
%ADD89P,0.06125X4X180.0*%
%ADD90R,0.05906X0.02362*%
%ADD91R,0.03740X0.10236*%
%ADD92R,0.03543X0.02756*%
%ADD93R,0.04331X0.04331*%
%ADD94R,0.21654X0.05906*%
%ADD95C,0.02000*%
%ADD96C,0.17717*%
%ADD97O,0.17717X0.17717*%
%ADD98R,0.05906X0.05906*%
%ADD99C,0.05906*%
%ADD100R,0.05906X0.05906*%
%ADD101C,0.05906*%
%ADD102C,0.08000*%
%ADD103R,0.05906X0.05906*%
%ADD104C,0.02756*%
G36*
X381234Y181500D02*
X379997Y180839D01*
X378495Y179607D01*
X377263Y178106D01*
X376348Y176393D01*
X375784Y174535D01*
X375594Y172602D01*
X375784Y170670D01*
X376348Y168812D01*
X377263Y167099D01*
X378495Y165598D01*
X379997Y164366D01*
X381709Y163451D01*
X383568Y162887D01*
X385500Y162696D01*
X387433Y162887D01*
X389291Y163451D01*
X391003Y164366D01*
X392505Y165598D01*
X393737Y167099D01*
X394652Y168812D01*
X395216Y170670D01*
X395406Y172602D01*
X395216Y174535D01*
X394789Y175943D01*
X395228Y176217D01*
X396000Y175500D01*
Y57500D01*
X395204Y56704D01*
X394762Y56969D01*
X395216Y58465D01*
X395406Y60398D01*
X395216Y62330D01*
X394652Y64188D01*
X393737Y65901D01*
X392505Y67402D01*
X391003Y68634D01*
X389291Y69550D01*
X387433Y70113D01*
X385500Y70304D01*
X383568Y70113D01*
X381709Y69550D01*
X379997Y68634D01*
X378495Y67402D01*
X377263Y65901D01*
X376348Y64188D01*
X375784Y62330D01*
X375594Y60398D01*
X375784Y58465D01*
X376348Y56607D01*
X377263Y54894D01*
X378495Y53393D01*
X379997Y52161D01*
X381709Y51246D01*
X382519Y51000D01*
X382445Y50500D01*
X291000Y50500D01*
X287500Y47000D01*
Y13000D01*
X276000Y1500D01*
X122500D01*
X109500Y14500D01*
Y46500D01*
X105181Y50819D01*
X15537D01*
X15412Y51319D01*
X16988Y52161D01*
X18489Y53393D01*
X19721Y54894D01*
X20636Y56607D01*
X21200Y58465D01*
X21390Y60398D01*
X21200Y62330D01*
X20636Y64188D01*
X19721Y65901D01*
X18489Y67402D01*
X16988Y68634D01*
X15275Y69550D01*
X13417Y70113D01*
X11484Y70304D01*
X9552Y70113D01*
X7693Y69550D01*
X5981Y68634D01*
X4480Y67402D01*
X3248Y65901D01*
X2332Y64188D01*
X2000Y63093D01*
X1500Y63167D01*
Y169833D01*
X2000Y169907D01*
X2332Y168812D01*
X3248Y167099D01*
X4480Y165598D01*
X5981Y164366D01*
X7693Y163451D01*
X9552Y162887D01*
X11484Y162696D01*
X13417Y162887D01*
X15275Y163451D01*
X16988Y164366D01*
X18489Y165598D01*
X19721Y167099D01*
X20636Y168812D01*
X21200Y170670D01*
X21390Y172602D01*
X21200Y174535D01*
X20636Y176393D01*
X19721Y178106D01*
X18489Y179607D01*
X16988Y180839D01*
X15751Y181500D01*
X15876Y182000D01*
X381108D01*
X381234Y181500D01*
D02*
G37*
%LPC*%
G36*
X364469Y177815D02*
X358531D01*
Y176886D01*
X354969D01*
Y177815D01*
X349031D01*
Y171878D01*
X354969D01*
Y172807D01*
X358531D01*
Y171878D01*
X364469D01*
Y172606D01*
X366555D01*
X367072Y172260D01*
X368000Y172075D01*
X368928Y172260D01*
X369714Y172786D01*
X370240Y173572D01*
X370425Y174500D01*
X370240Y175428D01*
X369714Y176214D01*
X368928Y176740D01*
X368000Y176925D01*
X367072Y176740D01*
X366988Y176684D01*
X364469D01*
Y177815D01*
D02*
G37*
G36*
X124953Y159953D02*
X121500D01*
Y156500D01*
X124953D01*
Y159953D01*
D02*
G37*
G36*
X90453D02*
X87000D01*
Y156500D01*
X90453D01*
Y159953D01*
D02*
G37*
G36*
X55953D02*
X52500D01*
Y156500D01*
X55953D01*
Y159953D01*
D02*
G37*
G36*
X120500D02*
X117047D01*
Y156500D01*
X120500D01*
Y159953D01*
D02*
G37*
G36*
X86000D02*
X82547D01*
Y156500D01*
X86000D01*
Y159953D01*
D02*
G37*
G36*
X51500D02*
X48047D01*
Y156500D01*
X51500D01*
Y159953D01*
D02*
G37*
G36*
X364469Y171122D02*
X358531D01*
Y165185D01*
X359461D01*
Y161571D01*
X358531D01*
Y156028D01*
X364469D01*
Y161571D01*
X363539D01*
Y165185D01*
X364469D01*
Y171122D01*
D02*
G37*
G36*
X354969D02*
X349031D01*
Y165185D01*
X349961D01*
Y161571D01*
X349031D01*
Y156028D01*
X354969D01*
Y161571D01*
X354039D01*
Y165185D01*
X354969D01*
Y171122D01*
D02*
G37*
G36*
X124953Y155500D02*
X121500D01*
Y152047D01*
X124953D01*
Y155500D01*
D02*
G37*
G36*
X120500D02*
X117047D01*
Y152047D01*
X120500D01*
Y155500D01*
D02*
G37*
G36*
X90453D02*
X87000D01*
Y152047D01*
X90453D01*
Y155500D01*
D02*
G37*
G36*
X86000D02*
X82547D01*
Y152047D01*
X86000D01*
Y155500D01*
D02*
G37*
G36*
X55953D02*
X52500D01*
Y152047D01*
X55953D01*
Y155500D01*
D02*
G37*
G36*
X51500D02*
X48047D01*
Y152047D01*
X51500D01*
Y155500D01*
D02*
G37*
G36*
X234500Y159987D02*
X233468Y159851D01*
X232507Y159453D01*
X231681Y158819D01*
X231047Y157993D01*
X230649Y157032D01*
X230513Y156000D01*
X230649Y154968D01*
X231047Y154007D01*
X231681Y153181D01*
X232507Y152547D01*
X233468Y152149D01*
X234500Y152013D01*
X235532Y152149D01*
X236493Y152547D01*
X237319Y153181D01*
X237953Y154007D01*
X238351Y154968D01*
X238487Y156000D01*
X238351Y157032D01*
X237953Y157993D01*
X237319Y158819D01*
X236493Y159453D01*
X235532Y159851D01*
X234500Y159987D01*
D02*
G37*
G36*
X209875D02*
X208843Y159851D01*
X207882Y159453D01*
X207056Y158819D01*
X206422Y157993D01*
X206024Y157032D01*
X205888Y156000D01*
X206024Y154968D01*
X206422Y154007D01*
X207056Y153181D01*
X207882Y152547D01*
X208843Y152149D01*
X209875Y152013D01*
X210907Y152149D01*
X211868Y152547D01*
X212694Y153181D01*
X213328Y154007D01*
X213726Y154968D01*
X213862Y156000D01*
X213726Y157032D01*
X213328Y157993D01*
X212694Y158819D01*
X211868Y159453D01*
X210907Y159851D01*
X209875Y159987D01*
D02*
G37*
G36*
X185250D02*
X184218Y159851D01*
X183257Y159453D01*
X182431Y158819D01*
X181797Y157993D01*
X181399Y157032D01*
X181263Y156000D01*
X181399Y154968D01*
X181797Y154007D01*
X182431Y153181D01*
X183257Y152547D01*
X184218Y152149D01*
X185250Y152013D01*
X186282Y152149D01*
X187243Y152547D01*
X188069Y153181D01*
X188703Y154007D01*
X189101Y154968D01*
X189237Y156000D01*
X189101Y157032D01*
X188703Y157993D01*
X188069Y158819D01*
X187243Y159453D01*
X186282Y159851D01*
X185250Y159987D01*
D02*
G37*
G36*
X160625D02*
X159593Y159851D01*
X158632Y159453D01*
X157806Y158819D01*
X157172Y157993D01*
X156774Y157032D01*
X156638Y156000D01*
X156774Y154968D01*
X157172Y154007D01*
X157806Y153181D01*
X158632Y152547D01*
X159593Y152149D01*
X160625Y152013D01*
X161657Y152149D01*
X162618Y152547D01*
X163444Y153181D01*
X164078Y154007D01*
X164476Y154968D01*
X164612Y156000D01*
X164476Y157032D01*
X164078Y157993D01*
X163444Y158819D01*
X162618Y159453D01*
X161657Y159851D01*
X160625Y159987D01*
D02*
G37*
G36*
X136000D02*
X134968Y159851D01*
X134007Y159453D01*
X133181Y158819D01*
X132547Y157993D01*
X132149Y157032D01*
X132013Y156000D01*
X132149Y154968D01*
X132547Y154007D01*
X133181Y153181D01*
X134007Y152547D01*
X134968Y152149D01*
X136000Y152013D01*
X137032Y152149D01*
X137993Y152547D01*
X138819Y153181D01*
X139453Y154007D01*
X139851Y154968D01*
X139987Y156000D01*
X139851Y157032D01*
X139453Y157993D01*
X138819Y158819D01*
X137993Y159453D01*
X137032Y159851D01*
X136000Y159987D01*
D02*
G37*
G36*
X111000D02*
X109968Y159851D01*
X109007Y159453D01*
X108181Y158819D01*
X107547Y157993D01*
X107149Y157032D01*
X107013Y156000D01*
X107149Y154968D01*
X107547Y154007D01*
X108181Y153181D01*
X109007Y152547D01*
X109968Y152149D01*
X111000Y152013D01*
X112032Y152149D01*
X112993Y152547D01*
X113819Y153181D01*
X114453Y154007D01*
X114851Y154968D01*
X114987Y156000D01*
X114851Y157032D01*
X114453Y157993D01*
X113819Y158819D01*
X112993Y159453D01*
X112032Y159851D01*
X111000Y159987D01*
D02*
G37*
G36*
X101000D02*
X99968Y159851D01*
X99007Y159453D01*
X98181Y158819D01*
X97547Y157993D01*
X97149Y157032D01*
X97013Y156000D01*
X97149Y154968D01*
X97547Y154007D01*
X98181Y153181D01*
X99007Y152547D01*
X99968Y152149D01*
X101000Y152013D01*
X102032Y152149D01*
X102993Y152547D01*
X103819Y153181D01*
X104453Y154007D01*
X104851Y154968D01*
X104987Y156000D01*
X104851Y157032D01*
X104453Y157993D01*
X103819Y158819D01*
X102993Y159453D01*
X102032Y159851D01*
X101000Y159987D01*
D02*
G37*
G36*
X76500D02*
X75468Y159851D01*
X74507Y159453D01*
X73681Y158819D01*
X73047Y157993D01*
X72649Y157032D01*
X72513Y156000D01*
X72649Y154968D01*
X73047Y154007D01*
X73681Y153181D01*
X74507Y152547D01*
X75468Y152149D01*
X76500Y152013D01*
X77532Y152149D01*
X78493Y152547D01*
X79319Y153181D01*
X79953Y154007D01*
X80351Y154968D01*
X80487Y156000D01*
X80351Y157032D01*
X79953Y157993D01*
X79319Y158819D01*
X78493Y159453D01*
X77532Y159851D01*
X76500Y159987D01*
D02*
G37*
G36*
X66500D02*
X65468Y159851D01*
X64507Y159453D01*
X63681Y158819D01*
X63047Y157993D01*
X62649Y157032D01*
X62513Y156000D01*
X62649Y154968D01*
X63047Y154007D01*
X63681Y153181D01*
X64507Y152547D01*
X65468Y152149D01*
X66500Y152013D01*
X67532Y152149D01*
X68493Y152547D01*
X69319Y153181D01*
X69953Y154007D01*
X70351Y154968D01*
X70487Y156000D01*
X70351Y157032D01*
X69953Y157993D01*
X69319Y158819D01*
X68493Y159453D01*
X67532Y159851D01*
X66500Y159987D01*
D02*
G37*
G36*
X42000D02*
X40968Y159851D01*
X40007Y159453D01*
X39181Y158819D01*
X38547Y157993D01*
X38149Y157032D01*
X38013Y156000D01*
X38149Y154968D01*
X38547Y154007D01*
X39181Y153181D01*
X40007Y152547D01*
X40968Y152149D01*
X42000Y152013D01*
X43032Y152149D01*
X43993Y152547D01*
X44819Y153181D01*
X45453Y154007D01*
X45851Y154968D01*
X45987Y156000D01*
X45851Y157032D01*
X45453Y157993D01*
X44819Y158819D01*
X43993Y159453D01*
X43032Y159851D01*
X42000Y159987D01*
D02*
G37*
G36*
X32000D02*
X30968Y159851D01*
X30007Y159453D01*
X29181Y158819D01*
X28547Y157993D01*
X28149Y157032D01*
X28013Y156000D01*
X28149Y154968D01*
X28547Y154007D01*
X29181Y153181D01*
X30007Y152547D01*
X30968Y152149D01*
X32000Y152013D01*
X33032Y152149D01*
X33993Y152547D01*
X34819Y153181D01*
X35453Y154007D01*
X35851Y154968D01*
X35987Y156000D01*
X35851Y157032D01*
X35453Y157993D01*
X34819Y158819D01*
X33993Y159453D01*
X33032Y159851D01*
X32000Y159987D01*
D02*
G37*
G36*
X326000D02*
X324968Y159851D01*
X324007Y159453D01*
X323181Y158819D01*
X322547Y157993D01*
X322149Y157032D01*
X322013Y156000D01*
X322149Y154968D01*
X322547Y154007D01*
X323181Y153181D01*
X324007Y152547D01*
X324968Y152149D01*
X326000Y152013D01*
X326975Y152141D01*
X328913Y150203D01*
Y149377D01*
X328414Y149130D01*
X327993Y149453D01*
X327032Y149851D01*
X326000Y149987D01*
X324968Y149851D01*
X324007Y149453D01*
X323492Y149058D01*
X322992Y149304D01*
Y151047D01*
X322837Y151828D01*
X322395Y152489D01*
X319859Y155025D01*
X319987Y156000D01*
X319851Y157032D01*
X319453Y157993D01*
X318819Y158819D01*
X317993Y159453D01*
X317032Y159851D01*
X316000Y159987D01*
X314968Y159851D01*
X314006Y159453D01*
X313181Y158819D01*
X312547Y157993D01*
X312149Y157032D01*
X312013Y156000D01*
X312149Y154968D01*
X312547Y154007D01*
X313181Y153181D01*
X314006Y152547D01*
X314968Y152149D01*
X316000Y152013D01*
X316975Y152141D01*
X318914Y150203D01*
Y149377D01*
X318413Y149130D01*
X317993Y149453D01*
X317032Y149851D01*
X316000Y149987D01*
X314968Y149851D01*
X314006Y149453D01*
X313492Y149058D01*
X312992Y149304D01*
Y151047D01*
X312837Y151828D01*
X312395Y152489D01*
X309858Y155025D01*
X309987Y156000D01*
X309851Y157032D01*
X309453Y157993D01*
X308819Y158819D01*
X307993Y159453D01*
X307032Y159851D01*
X306000Y159987D01*
X304968Y159851D01*
X304007Y159453D01*
X303181Y158819D01*
X302547Y157993D01*
X302149Y157032D01*
X302013Y156000D01*
X302149Y154968D01*
X302547Y154007D01*
X303181Y153181D01*
X304007Y152547D01*
X304968Y152149D01*
X306000Y152013D01*
X306975Y152141D01*
X308913Y150203D01*
Y149377D01*
X308414Y149130D01*
X307993Y149453D01*
X307032Y149851D01*
X306000Y149987D01*
X304968Y149851D01*
X304007Y149453D01*
X303492Y149058D01*
X302992Y149304D01*
Y151047D01*
X302837Y151828D01*
X302395Y152489D01*
X299858Y155025D01*
X299987Y156000D01*
X299851Y157032D01*
X299453Y157993D01*
X298819Y158819D01*
X297993Y159453D01*
X297032Y159851D01*
X296000Y159987D01*
X294968Y159851D01*
X294006Y159453D01*
X293181Y158819D01*
X292547Y157993D01*
X292149Y157032D01*
X292013Y156000D01*
X292149Y154968D01*
X292547Y154007D01*
X293181Y153181D01*
X294006Y152547D01*
X294968Y152149D01*
X296000Y152013D01*
X296975Y152141D01*
X298914Y150203D01*
Y149377D01*
X298413Y149130D01*
X297993Y149453D01*
X297032Y149851D01*
X296000Y149987D01*
X294968Y149851D01*
X294006Y149453D01*
X293492Y149058D01*
X292992Y149304D01*
Y151047D01*
X292837Y151828D01*
X292395Y152489D01*
X289859Y155025D01*
X289987Y156000D01*
X289851Y157032D01*
X289453Y157993D01*
X288819Y158819D01*
X287993Y159453D01*
X287032Y159851D01*
X286000Y159987D01*
X284968Y159851D01*
X284007Y159453D01*
X283181Y158819D01*
X282547Y157993D01*
X282149Y157032D01*
X282013Y156000D01*
X282149Y154968D01*
X282547Y154007D01*
X283181Y153181D01*
X284007Y152547D01*
X284968Y152149D01*
X286000Y152013D01*
X286975Y152141D01*
X288913Y150203D01*
Y149377D01*
X288414Y149130D01*
X287993Y149453D01*
X287032Y149851D01*
X286000Y149987D01*
X284968Y149851D01*
X284007Y149453D01*
X283492Y149058D01*
X282992Y149304D01*
Y151047D01*
X282837Y151828D01*
X282395Y152489D01*
X279858Y155025D01*
X279987Y156000D01*
X279851Y157032D01*
X279453Y157993D01*
X278819Y158819D01*
X277993Y159453D01*
X277032Y159851D01*
X276000Y159987D01*
X274968Y159851D01*
X274007Y159453D01*
X273181Y158819D01*
X272547Y157993D01*
X272149Y157032D01*
X272013Y156000D01*
X272149Y154968D01*
X272547Y154007D01*
X273181Y153181D01*
X274007Y152547D01*
X274968Y152149D01*
X276000Y152013D01*
X276975Y152141D01*
X278913Y150203D01*
Y149377D01*
X278414Y149130D01*
X277993Y149453D01*
X277032Y149851D01*
X276000Y149987D01*
X274968Y149851D01*
X274007Y149453D01*
X273492Y149058D01*
X272992Y149304D01*
Y151047D01*
X272837Y151828D01*
X272395Y152489D01*
X269859Y155025D01*
X269987Y156000D01*
X269851Y157032D01*
X269453Y157993D01*
X268819Y158819D01*
X267993Y159453D01*
X267032Y159851D01*
X266000Y159987D01*
X264968Y159851D01*
X264006Y159453D01*
X263181Y158819D01*
X262547Y157993D01*
X262149Y157032D01*
X262013Y156000D01*
X262149Y154968D01*
X262547Y154007D01*
X263181Y153181D01*
X264006Y152547D01*
X264968Y152149D01*
X266000Y152013D01*
X266975Y152141D01*
X268914Y150203D01*
Y149377D01*
X268413Y149130D01*
X267993Y149453D01*
X267032Y149851D01*
X266000Y149987D01*
X264968Y149851D01*
X264006Y149453D01*
X263181Y148819D01*
X262547Y147993D01*
X262149Y147032D01*
X262013Y146000D01*
X262149Y144968D01*
X262547Y144007D01*
X263181Y143181D01*
X264006Y142547D01*
X264968Y142149D01*
X265581Y142068D01*
X265604Y142053D01*
X265825Y141532D01*
X265743Y141421D01*
X263032D01*
Y135878D01*
X268969D01*
Y138537D01*
X272395Y141964D01*
X272837Y142625D01*
X272870Y142795D01*
X273421Y142997D01*
X274007Y142547D01*
X274968Y142149D01*
X275581Y142068D01*
X275604Y142053D01*
X275825Y141532D01*
X275743Y141421D01*
X273031D01*
Y135878D01*
X278969D01*
Y138537D01*
X282395Y141964D01*
X282837Y142625D01*
X282870Y142795D01*
X283420Y142997D01*
X284007Y142547D01*
X284968Y142149D01*
X285581Y142068D01*
X285604Y142053D01*
X285825Y141532D01*
X285743Y141421D01*
X283032D01*
Y135878D01*
X288968D01*
Y138537D01*
X292395Y141964D01*
X292837Y142625D01*
X292870Y142795D01*
X293421Y142997D01*
X294006Y142547D01*
X294968Y142149D01*
X295581Y142068D01*
X295604Y142053D01*
X295825Y141532D01*
X295743Y141421D01*
X293032D01*
Y135878D01*
X298969D01*
Y138537D01*
X302395Y141964D01*
X302837Y142625D01*
X302870Y142795D01*
X303420Y142997D01*
X304007Y142547D01*
X304968Y142149D01*
X305581Y142068D01*
X305604Y142053D01*
X305825Y141532D01*
X305743Y141421D01*
X303031D01*
Y135878D01*
X308968D01*
Y138537D01*
X312395Y141964D01*
X312837Y142625D01*
X312870Y142795D01*
X313421Y142997D01*
X314006Y142547D01*
X314968Y142149D01*
X315581Y142068D01*
X315604Y142053D01*
X315825Y141532D01*
X315743Y141421D01*
X313032D01*
Y135878D01*
X318969D01*
Y138537D01*
X322395Y141964D01*
X322837Y142625D01*
X322870Y142795D01*
X323421Y142997D01*
X324007Y142547D01*
X324968Y142149D01*
X325581Y142068D01*
X325604Y142053D01*
X325825Y141532D01*
X325743Y141421D01*
X323031D01*
Y135878D01*
X328969D01*
Y138537D01*
X332395Y141964D01*
X332837Y142625D01*
X332870Y142795D01*
X333420Y142997D01*
X334007Y142547D01*
X334968Y142149D01*
X335581Y142068D01*
X335604Y142053D01*
X335825Y141532D01*
X335743Y141421D01*
X333032D01*
Y135878D01*
X338968D01*
Y138537D01*
X342395Y141964D01*
X342837Y142625D01*
X342992Y143405D01*
X342992Y143405D01*
Y151047D01*
X342837Y151828D01*
X342395Y152489D01*
X339953Y154931D01*
Y159953D01*
X332047D01*
Y153490D01*
X331585Y153298D01*
X329858Y155025D01*
X329987Y156000D01*
X329851Y157032D01*
X329453Y157993D01*
X328819Y158819D01*
X327993Y159453D01*
X327032Y159851D01*
X326000Y159987D01*
D02*
G37*
G36*
X390500Y155487D02*
X389468Y155351D01*
X388507Y154953D01*
X387681Y154319D01*
X387047Y153493D01*
X386649Y152532D01*
X386513Y151500D01*
X386649Y150468D01*
X387047Y149507D01*
X387681Y148681D01*
X388507Y148047D01*
X389468Y147649D01*
X390500Y147513D01*
X391532Y147649D01*
X392493Y148047D01*
X393319Y148681D01*
X393953Y149507D01*
X394351Y150468D01*
X394487Y151500D01*
X394351Y152532D01*
X393953Y153493D01*
X393319Y154319D01*
X392493Y154953D01*
X391532Y155351D01*
X390500Y155487D01*
D02*
G37*
G36*
X380500D02*
X379468Y155351D01*
X378507Y154953D01*
X377681Y154319D01*
X377047Y153493D01*
X376649Y152532D01*
X376513Y151500D01*
X376649Y150468D01*
X377047Y149507D01*
X377681Y148681D01*
X378507Y148047D01*
X379468Y147649D01*
X380500Y147513D01*
X381532Y147649D01*
X382493Y148047D01*
X383319Y148681D01*
X383953Y149507D01*
X384351Y150468D01*
X384487Y151500D01*
X384351Y152532D01*
X383953Y153493D01*
X383319Y154319D01*
X382493Y154953D01*
X381532Y155351D01*
X380500Y155487D01*
D02*
G37*
G36*
X241122Y149969D02*
X238850D01*
Y147500D01*
X241122D01*
Y149969D01*
D02*
G37*
G36*
X216622D02*
X214350D01*
Y147500D01*
X216622D01*
Y149969D01*
D02*
G37*
G36*
X191622D02*
X189350D01*
Y147500D01*
X191622D01*
Y149969D01*
D02*
G37*
G36*
X237850D02*
X235579D01*
Y147500D01*
X237850D01*
Y149969D01*
D02*
G37*
G36*
X213350D02*
X211079D01*
Y147500D01*
X213350D01*
Y149969D01*
D02*
G37*
G36*
X188350D02*
X186079D01*
Y147500D01*
X188350D01*
Y149969D01*
D02*
G37*
G36*
X167122D02*
X164850D01*
Y147500D01*
X167122D01*
Y149969D01*
D02*
G37*
G36*
X142622D02*
X140350D01*
Y147500D01*
X142622D01*
Y149969D01*
D02*
G37*
G36*
X163850D02*
X161579D01*
Y147500D01*
X163850D01*
Y149969D01*
D02*
G37*
G36*
X139350D02*
X137079D01*
Y147500D01*
X139350D01*
Y149969D01*
D02*
G37*
G36*
X241122Y146500D02*
X238850D01*
Y144032D01*
X241122D01*
Y146500D01*
D02*
G37*
G36*
X237850D02*
X235579D01*
Y144032D01*
X237850D01*
Y146500D01*
D02*
G37*
G36*
X216622D02*
X214350D01*
Y144032D01*
X216622D01*
Y146500D01*
D02*
G37*
G36*
X213350D02*
X211079D01*
Y144032D01*
X213350D01*
Y146500D01*
D02*
G37*
G36*
X191622D02*
X189350D01*
Y144032D01*
X191622D01*
Y146500D01*
D02*
G37*
G36*
X188350D02*
X186079D01*
Y144032D01*
X188350D01*
Y146500D01*
D02*
G37*
G36*
X167122Y146500D02*
X164850D01*
Y144032D01*
X167122D01*
Y146500D01*
D02*
G37*
G36*
X163850D02*
X161579D01*
Y144032D01*
X163850D01*
Y146500D01*
D02*
G37*
G36*
X142622D02*
X140350D01*
Y144032D01*
X142622D01*
Y146500D01*
D02*
G37*
G36*
X139350D02*
X137079D01*
Y144032D01*
X139350D01*
Y146500D01*
D02*
G37*
G36*
X390500Y135487D02*
X389468Y135351D01*
X388507Y134953D01*
X387681Y134319D01*
X387047Y133493D01*
X386649Y132532D01*
X386513Y131500D01*
X386649Y130468D01*
X387047Y129507D01*
X387681Y128681D01*
X388507Y128047D01*
X389468Y127649D01*
X390500Y127513D01*
X391532Y127649D01*
X392493Y128047D01*
X393319Y128681D01*
X393953Y129507D01*
X394351Y130468D01*
X394487Y131500D01*
X394351Y132532D01*
X393953Y133493D01*
X393319Y134319D01*
X392493Y134953D01*
X391532Y135351D01*
X390500Y135487D01*
D02*
G37*
G36*
X34965Y138583D02*
X26272D01*
Y130677D01*
X28461D01*
Y127228D01*
X28260Y126928D01*
X28076Y126000D01*
X28260Y125072D01*
X28786Y124286D01*
X29572Y123760D01*
X30500Y123575D01*
X31428Y123760D01*
X32214Y124286D01*
X32740Y125072D01*
X32925Y126000D01*
X32740Y126928D01*
X32539Y127228D01*
Y130677D01*
X34965D01*
Y138583D01*
D02*
G37*
G36*
X251238Y123658D02*
X249771Y122190D01*
X251377Y120584D01*
X252844Y122051D01*
X251238Y123658D01*
D02*
G37*
G36*
X248453Y159953D02*
X240547D01*
Y152047D01*
X242461D01*
Y149969D01*
X241878D01*
Y144032D01*
X242610D01*
Y140771D01*
X231558Y129719D01*
X231116Y129058D01*
X230961Y128277D01*
Y119334D01*
X230499Y119142D01*
X222189Y127452D01*
Y144032D01*
X222921D01*
Y149969D01*
X222052D01*
Y152047D01*
X223828D01*
Y159953D01*
X215922D01*
Y152047D01*
X217973D01*
Y149969D01*
X217378D01*
Y144032D01*
X218110D01*
Y127380D01*
X217649Y127188D01*
X197921Y146915D01*
Y149969D01*
X197289D01*
Y152047D01*
X199203D01*
Y159953D01*
X191297D01*
Y152047D01*
X193211D01*
Y149969D01*
X192378D01*
Y144032D01*
X195037D01*
X197068Y142001D01*
X196877Y141539D01*
X178797D01*
X173421Y146915D01*
Y149969D01*
X172677D01*
Y152047D01*
X174578D01*
Y159953D01*
X166672D01*
Y152047D01*
X168598D01*
Y149969D01*
X167878D01*
Y144032D01*
X170537D01*
X175568Y139001D01*
X175376Y138539D01*
X162345D01*
X152442Y148442D01*
X151780Y148884D01*
X151000Y149039D01*
X148921D01*
Y149969D01*
X148114D01*
Y152047D01*
X149953D01*
Y159953D01*
X142047D01*
Y152047D01*
X144036D01*
Y149969D01*
X143378D01*
Y144032D01*
X148921D01*
Y144961D01*
X150155D01*
X160058Y135058D01*
X160720Y134616D01*
X161500Y134461D01*
X195913D01*
X225324Y105050D01*
X225077Y104589D01*
X225012Y104602D01*
X224084Y104418D01*
X223297Y103892D01*
X222772Y103105D01*
X222687Y102678D01*
X225012D01*
Y102178D01*
X225512D01*
Y99853D01*
X225940Y99938D01*
X226726Y100463D01*
X227252Y101250D01*
X227436Y102178D01*
X227423Y102243D01*
X227884Y102489D01*
X245868Y84505D01*
X246003Y83827D01*
X246464Y83138D01*
X247153Y82677D01*
X247594Y82590D01*
X247993Y82440D01*
X248143Y82041D01*
X248231Y81599D01*
X248691Y80911D01*
X249380Y80450D01*
X249821Y80362D01*
X250220Y80213D01*
X250370Y79814D01*
X250458Y79372D01*
X250918Y78684D01*
X251607Y78223D01*
X252048Y78135D01*
X252448Y77986D01*
X252597Y77587D01*
X252685Y77145D01*
X253145Y76456D01*
X253834Y75996D01*
X254276Y75908D01*
X254675Y75759D01*
X254824Y75360D01*
X254912Y74918D01*
X255089Y74653D01*
X258190Y77755D01*
X258897Y77048D01*
X255796Y73946D01*
X255890Y73883D01*
X256019Y73306D01*
X250558Y67845D01*
X250116Y67183D01*
X249961Y66403D01*
Y56728D01*
X249760Y56428D01*
X249575Y55500D01*
X249760Y54572D01*
X250286Y53786D01*
X250654Y53539D01*
X250503Y53039D01*
X249082D01*
X243039Y59082D01*
Y76772D01*
X243240Y77072D01*
X243425Y78000D01*
X243240Y78928D01*
X242714Y79714D01*
X241928Y80240D01*
X241000Y80424D01*
X240072Y80240D01*
X239286Y79714D01*
X238760Y78928D01*
X238576Y78000D01*
X238760Y77072D01*
X238961Y76772D01*
Y58238D01*
X239116Y57457D01*
X239558Y56796D01*
X246796Y49558D01*
X247457Y49116D01*
X248238Y48961D01*
X258868D01*
X259648Y49116D01*
X260310Y49558D01*
X271378Y60627D01*
X271738Y60867D01*
X275078Y64207D01*
X275539Y64896D01*
X275700Y65709D01*
X275668Y65873D01*
X276129Y66119D01*
X277681Y64566D01*
X277922Y64207D01*
X281262Y60867D01*
X281487Y60717D01*
X283097Y59107D01*
X283075Y59000D01*
X283260Y58072D01*
X283786Y57286D01*
X284572Y56760D01*
X284954Y56684D01*
X285099Y56206D01*
X282243Y53350D01*
X270158D01*
X269377Y53195D01*
X268716Y52753D01*
X261431Y45468D01*
X260968Y45659D01*
Y48421D01*
X258500D01*
Y45650D01*
X258000D01*
Y45150D01*
X255031D01*
Y42878D01*
X258033D01*
X258243Y42401D01*
X258019Y42122D01*
X255031D01*
Y36579D01*
X255961D01*
Y34768D01*
X253654D01*
Y29618D01*
X255961D01*
Y26728D01*
X255760Y26428D01*
X255575Y25500D01*
X255760Y24572D01*
X256286Y23786D01*
X257072Y23260D01*
X258000Y23076D01*
X258928Y23260D01*
X259714Y23786D01*
X260240Y24572D01*
X260424Y25500D01*
X260240Y26428D01*
X260039Y26728D01*
Y29618D01*
X262347D01*
Y34768D01*
X260039D01*
Y36579D01*
X260968D01*
Y39238D01*
X271002Y49272D01*
X283088D01*
X283869Y49427D01*
X284530Y49869D01*
X293320Y58659D01*
X293762Y59320D01*
X293917Y60101D01*
Y66572D01*
X293762Y67352D01*
X293320Y68014D01*
X292489Y68845D01*
X292629Y69411D01*
X292750Y69492D01*
X289648Y72593D01*
X290355Y73300D01*
X293457Y70199D01*
X293519Y70293D01*
X294097Y70422D01*
X300816Y63703D01*
Y61726D01*
X300760Y61642D01*
X300575Y60714D01*
X300760Y59787D01*
X301286Y59000D01*
X302072Y58474D01*
X303000Y58290D01*
X303928Y58474D01*
X304714Y59000D01*
X305240Y59787D01*
X305424Y60714D01*
X305240Y61642D01*
X304895Y62159D01*
Y63425D01*
X305357Y63617D01*
X307565Y61409D01*
X308226Y60966D01*
X309007Y60811D01*
X323711D01*
Y60079D01*
X329648D01*
Y60811D01*
X337727D01*
Y53441D01*
X345632D01*
Y77095D01*
X337727D01*
Y64890D01*
X329648D01*
Y65622D01*
X323711D01*
Y64890D01*
X309851D01*
X305742Y68999D01*
X305933Y69461D01*
X310053D01*
X310834Y69616D01*
X311495Y70058D01*
X314942Y73505D01*
X314942Y73505D01*
X315384Y74167D01*
X315539Y74947D01*
Y96606D01*
X318044Y99110D01*
X323711D01*
Y98378D01*
X329648D01*
Y99110D01*
X337727D01*
Y86905D01*
X345632D01*
Y110559D01*
X337727D01*
Y103189D01*
X329648D01*
Y103921D01*
X323711D01*
Y103189D01*
X317199D01*
X316419Y103034D01*
X315757Y102592D01*
X312058Y98892D01*
X311616Y98231D01*
X311461Y97451D01*
Y75792D01*
X309208Y73539D01*
X305701D01*
X301472Y77768D01*
X301591Y78356D01*
X302082Y78684D01*
X302542Y79372D01*
X302630Y79814D01*
X302780Y80213D01*
X303179Y80362D01*
X303620Y80450D01*
X304309Y80911D01*
X304770Y81599D01*
X304857Y82041D01*
X305007Y82440D01*
X305406Y82590D01*
X305847Y82677D01*
X306536Y83138D01*
X306997Y83827D01*
X307158Y84639D01*
X306997Y85452D01*
X306536Y86141D01*
X303196Y89481D01*
X302507Y89942D01*
X301694Y90103D01*
X300882Y89942D01*
X300684Y89810D01*
X300552Y89857D01*
X300355Y89993D01*
X300250Y90121D01*
X300425Y91000D01*
X300294Y91655D01*
X300744Y91956D01*
X300882Y91864D01*
X301694Y91703D01*
X302507Y91864D01*
X303196Y92325D01*
X306536Y95665D01*
X306776Y96024D01*
X316237Y105485D01*
X325662D01*
X326442Y105640D01*
X327104Y106082D01*
X355530Y134508D01*
X377196D01*
X377442Y134008D01*
X377047Y133493D01*
X376649Y132532D01*
X376513Y131500D01*
X376649Y130468D01*
X377047Y129507D01*
X377681Y128681D01*
X378507Y128047D01*
X379468Y127649D01*
X380500Y127513D01*
X381532Y127649D01*
X382493Y128047D01*
X383319Y128681D01*
X383953Y129507D01*
X384351Y130468D01*
X384487Y131500D01*
X384351Y132532D01*
X383953Y133493D01*
X383558Y134008D01*
X383804Y134508D01*
X385547D01*
X386328Y134663D01*
X386989Y135105D01*
X389525Y137642D01*
X390500Y137513D01*
X391532Y137649D01*
X392493Y138047D01*
X393319Y138681D01*
X393953Y139507D01*
X394351Y140468D01*
X394487Y141500D01*
X394351Y142532D01*
X393953Y143493D01*
X393319Y144319D01*
X392493Y144953D01*
X391532Y145351D01*
X390500Y145487D01*
X389468Y145351D01*
X388507Y144953D01*
X387681Y144319D01*
X387047Y143493D01*
X386649Y142532D01*
X386513Y141500D01*
X386642Y140525D01*
X384703Y138586D01*
X383877D01*
X383630Y139086D01*
X383953Y139507D01*
X384351Y140468D01*
X384487Y141500D01*
X384351Y142532D01*
X383953Y143493D01*
X383319Y144319D01*
X382493Y144953D01*
X381532Y145351D01*
X380500Y145487D01*
X379468Y145351D01*
X378507Y144953D01*
X377681Y144319D01*
X377047Y143493D01*
X376649Y142532D01*
X376513Y141500D01*
X376649Y140468D01*
X377047Y139507D01*
X377370Y139086D01*
X377123Y138586D01*
X356019D01*
X355827Y139048D01*
X362942Y146163D01*
X363384Y146825D01*
X363539Y147605D01*
X363539Y147605D01*
Y149728D01*
X364469D01*
Y155272D01*
X358531D01*
Y149728D01*
X359461D01*
Y148450D01*
X354501Y143490D01*
X354039Y143681D01*
Y149728D01*
X354969D01*
Y155272D01*
X349031D01*
Y149728D01*
X349961D01*
Y143192D01*
X339430Y132662D01*
X338968Y132853D01*
Y135122D01*
X333032D01*
Y132463D01*
X319132Y118563D01*
X315553D01*
X315362Y119025D01*
X325915Y129579D01*
X328969D01*
Y135122D01*
X323031D01*
Y132463D01*
X312132Y121563D01*
X308553D01*
X308362Y122025D01*
X315915Y129579D01*
X318969D01*
Y135122D01*
X313032D01*
Y132463D01*
X305132Y124563D01*
X301553D01*
X301362Y125025D01*
X305915Y129579D01*
X308968D01*
Y135122D01*
X303031D01*
Y132463D01*
X298132Y127563D01*
X294553D01*
X294362Y128025D01*
X295915Y129579D01*
X298969D01*
Y135122D01*
X293032D01*
Y132463D01*
X291132Y130563D01*
X288968D01*
Y135122D01*
X283032D01*
Y132463D01*
X276293Y125724D01*
X271004D01*
X270813Y126186D01*
X274205Y129579D01*
X278969D01*
Y135122D01*
X273031D01*
Y134046D01*
X272651Y133792D01*
X269430Y130572D01*
X268969Y130763D01*
Y135122D01*
X263032D01*
Y129579D01*
X263488D01*
X263695Y129079D01*
X260827Y126211D01*
X257310Y129729D01*
X256834Y129254D01*
X254782Y131306D01*
X255482Y132006D01*
X251006Y136482D01*
X246529Y132006D01*
X251006Y127529D01*
X251898Y128422D01*
X253778Y126542D01*
X253668Y126088D01*
X253412Y125832D01*
X251945Y124365D01*
X253905Y122405D01*
X253551Y122051D01*
X253905Y121698D01*
X252084Y119877D01*
X253691Y118271D01*
X255087Y119667D01*
X255549Y119476D01*
Y115391D01*
X255087Y115200D01*
X248034Y122253D01*
Y124557D01*
X250471Y126995D01*
X245994Y131471D01*
X245056Y130533D01*
X243260Y132329D01*
X243240Y132428D01*
X242714Y133214D01*
X242003Y133689D01*
X241836Y134229D01*
X246092Y138485D01*
X246534Y139146D01*
X246689Y139927D01*
X246689Y139927D01*
Y144032D01*
X247421D01*
Y149969D01*
X246539D01*
Y152047D01*
X248453D01*
Y159953D01*
D02*
G37*
G36*
X390500Y125487D02*
X389468Y125351D01*
X388507Y124953D01*
X387681Y124319D01*
X387047Y123493D01*
X386649Y122532D01*
X386513Y121500D01*
X386649Y120468D01*
X387047Y119507D01*
X387681Y118681D01*
X388507Y118047D01*
X389468Y117649D01*
X390500Y117513D01*
X391532Y117649D01*
X392493Y118047D01*
X393319Y118681D01*
X393953Y119507D01*
X394351Y120468D01*
X394487Y121500D01*
X394351Y122532D01*
X393953Y123493D01*
X393319Y124319D01*
X392493Y124953D01*
X391532Y125351D01*
X390500Y125487D01*
D02*
G37*
G36*
X380500D02*
X379468Y125351D01*
X378507Y124953D01*
X377681Y124319D01*
X377047Y123493D01*
X376649Y122532D01*
X376513Y121500D01*
X376649Y120468D01*
X377047Y119507D01*
X377681Y118681D01*
X378507Y118047D01*
X379468Y117649D01*
X380500Y117513D01*
X381532Y117649D01*
X382493Y118047D01*
X383319Y118681D01*
X383953Y119507D01*
X384351Y120468D01*
X384487Y121500D01*
X384351Y122532D01*
X383953Y123493D01*
X383319Y124319D01*
X382493Y124953D01*
X381532Y125351D01*
X380500Y125487D01*
D02*
G37*
G36*
X390500Y115487D02*
X389468Y115351D01*
X388507Y114953D01*
X387681Y114319D01*
X387047Y113493D01*
X386649Y112532D01*
X386513Y111500D01*
X386649Y110468D01*
X387047Y109507D01*
X387681Y108681D01*
X388507Y108047D01*
X389468Y107649D01*
X390500Y107513D01*
X391532Y107649D01*
X392493Y108047D01*
X393319Y108681D01*
X393953Y109507D01*
X394351Y110468D01*
X394487Y111500D01*
X394351Y112532D01*
X393953Y113493D01*
X393319Y114319D01*
X392493Y114953D01*
X391532Y115351D01*
X390500Y115487D01*
D02*
G37*
G36*
X380500D02*
X379468Y115351D01*
X378507Y114953D01*
X377681Y114319D01*
X377047Y113493D01*
X376649Y112532D01*
X376513Y111500D01*
X376649Y110468D01*
X377047Y109507D01*
X377681Y108681D01*
X378507Y108047D01*
X379468Y107649D01*
X380500Y107513D01*
X381532Y107649D01*
X382493Y108047D01*
X383319Y108681D01*
X383953Y109507D01*
X384351Y110468D01*
X384487Y111500D01*
X384351Y112532D01*
X383953Y113493D01*
X383319Y114319D01*
X382493Y114953D01*
X381532Y115351D01*
X380500Y115487D01*
D02*
G37*
G36*
X224512Y101678D02*
X222687D01*
X222772Y101250D01*
X223297Y100463D01*
X224084Y99938D01*
X224512Y99853D01*
Y101678D01*
D02*
G37*
G36*
X390500Y105487D02*
X389468Y105351D01*
X388507Y104953D01*
X387681Y104319D01*
X387047Y103493D01*
X386649Y102532D01*
X386513Y101500D01*
X386649Y100468D01*
X387047Y99507D01*
X387681Y98681D01*
X388507Y98047D01*
X389468Y97649D01*
X390500Y97513D01*
X391532Y97649D01*
X392493Y98047D01*
X393319Y98681D01*
X393953Y99507D01*
X394351Y100468D01*
X394487Y101500D01*
X394351Y102532D01*
X393953Y103493D01*
X393319Y104319D01*
X392493Y104953D01*
X391532Y105351D01*
X390500Y105487D01*
D02*
G37*
G36*
X380500D02*
X379468Y105351D01*
X378507Y104953D01*
X377681Y104319D01*
X377047Y103493D01*
X376649Y102532D01*
X376513Y101500D01*
X376649Y100468D01*
X377047Y99507D01*
X377681Y98681D01*
X378507Y98047D01*
X379468Y97649D01*
X380500Y97513D01*
X381532Y97649D01*
X382493Y98047D01*
X383319Y98681D01*
X383953Y99507D01*
X384351Y100468D01*
X384487Y101500D01*
X384351Y102532D01*
X383953Y103493D01*
X383319Y104319D01*
X382493Y104953D01*
X381532Y105351D01*
X380500Y105487D01*
D02*
G37*
G36*
X144693Y97681D02*
X136787D01*
Y93319D01*
X144693D01*
Y97681D01*
D02*
G37*
G36*
X120882Y96205D02*
X115575D01*
X115106Y96111D01*
X114709Y95846D01*
X114444Y95449D01*
X114350Y94980D01*
Y93020D01*
X114444Y92551D01*
X114709Y92154D01*
X115106Y91889D01*
X115575Y91795D01*
X120882D01*
X121350Y91889D01*
X121748Y92154D01*
X122013Y92551D01*
X122106Y93020D01*
Y94980D01*
X122013Y95449D01*
X121748Y95846D01*
X121350Y96111D01*
X120882Y96205D01*
D02*
G37*
G36*
X87122Y147417D02*
X63878D01*
X63098Y147262D01*
X62436Y146820D01*
X56145Y140529D01*
X55703Y139867D01*
X55547Y139087D01*
Y138583D01*
X42020D01*
Y129969D01*
X46886D01*
Y99075D01*
X47041Y98294D01*
X47483Y97633D01*
X77558Y67558D01*
X78220Y67116D01*
X79000Y66961D01*
X93542D01*
X93650Y66889D01*
X94118Y66795D01*
X99425D01*
X99894Y66889D01*
X100291Y67154D01*
X100556Y67551D01*
X100649Y68020D01*
Y69980D01*
X100556Y70449D01*
X100291Y70846D01*
X99894Y71111D01*
X99425Y71205D01*
X94118D01*
X93650Y71111D01*
X93542Y71039D01*
X79862D01*
X79590Y71372D01*
X79782Y71819D01*
X86539D01*
Y78923D01*
X87001Y79115D01*
X88558Y77558D01*
X88558Y77558D01*
X89220Y77116D01*
X90000Y76961D01*
X93542D01*
X93650Y76889D01*
X94118Y76795D01*
X99425D01*
X99894Y76889D01*
X100291Y77154D01*
X100556Y77551D01*
X100649Y78020D01*
Y79980D01*
X100556Y80449D01*
X100291Y80846D01*
X99894Y81111D01*
X99425Y81205D01*
X94118D01*
X93650Y81111D01*
X93542Y81039D01*
X90845D01*
X85410Y86474D01*
X85630Y86961D01*
X93542D01*
X93650Y86889D01*
X94118Y86795D01*
X99425D01*
X99894Y86889D01*
X100291Y87154D01*
X100556Y87551D01*
X100649Y88020D01*
Y89980D01*
X100556Y90449D01*
X100291Y90846D01*
X99894Y91111D01*
X99425Y91205D01*
X94118D01*
X93650Y91111D01*
X93542Y91039D01*
X86287D01*
X82544Y94782D01*
X82735Y95244D01*
X86539D01*
Y102756D01*
X79461D01*
Y98519D01*
X78999Y98327D01*
X63956Y113369D01*
Y129969D01*
X68540D01*
Y121846D01*
X68260Y121428D01*
X68076Y120500D01*
X68260Y119572D01*
X68786Y118786D01*
X69572Y118260D01*
X70500Y118076D01*
X71428Y118260D01*
X72214Y118786D01*
X72740Y119572D01*
X72925Y120500D01*
X72740Y121428D01*
X72618Y121610D01*
Y129969D01*
X77484D01*
Y130677D01*
X79461D01*
Y124575D01*
X86539D01*
Y131693D01*
X84610D01*
Y132591D01*
X89858D01*
Y125602D01*
X91673D01*
Y111364D01*
X91713Y111167D01*
Y102900D01*
X102374D01*
Y113364D01*
X95752D01*
Y125602D01*
X97370D01*
Y140398D01*
X89858D01*
Y136669D01*
X84610D01*
Y138583D01*
X82699D01*
X80340Y140942D01*
X79678Y141384D01*
X78898Y141539D01*
X69227D01*
X68910Y141926D01*
X68924Y142000D01*
X68758Y142839D01*
X69021Y143339D01*
X86277D01*
X88058Y141558D01*
X88720Y141116D01*
X89500Y140961D01*
X114967D01*
X115158Y140499D01*
X113515Y138855D01*
X113073Y138194D01*
X112917Y137413D01*
Y113364D01*
X109626D01*
Y108065D01*
X97766Y96205D01*
X94118D01*
X93650Y96111D01*
X93252Y95846D01*
X92987Y95449D01*
X92894Y94980D01*
Y93020D01*
X92987Y92551D01*
X93252Y92154D01*
X93650Y91889D01*
X94118Y91795D01*
X99425D01*
X99894Y91889D01*
X100291Y92154D01*
X100556Y92551D01*
X100649Y93020D01*
Y93321D01*
X110228Y102900D01*
X120287D01*
Y113364D01*
X116996D01*
Y120976D01*
X119886D01*
Y123945D01*
X120886D01*
Y120976D01*
X121258D01*
X122334Y119901D01*
X122995Y119459D01*
X123776Y119303D01*
X127630D01*
Y118669D01*
X130000D01*
Y121343D01*
X131000D01*
Y118669D01*
X133019D01*
Y112180D01*
X131599Y110760D01*
X131500Y110740D01*
X130713Y110214D01*
X130188Y109428D01*
X130003Y108500D01*
X130188Y107572D01*
X130389Y107272D01*
Y97371D01*
X122568Y89550D01*
X122106Y89742D01*
Y89980D01*
X122013Y90449D01*
X121748Y90846D01*
X121350Y91111D01*
X120882Y91205D01*
X115575D01*
X115106Y91111D01*
X114709Y90846D01*
X114444Y90449D01*
X114350Y89980D01*
Y88020D01*
X114444Y87551D01*
X114709Y87154D01*
X115106Y86889D01*
X115575Y86795D01*
X118657D01*
X118924Y86295D01*
X118863Y86205D01*
X115575D01*
X115106Y86111D01*
X114709Y85846D01*
X114444Y85449D01*
X114350Y84980D01*
Y83020D01*
X114444Y82551D01*
X114709Y82154D01*
X115106Y81889D01*
X115575Y81795D01*
X120882D01*
X121350Y81889D01*
X121748Y82154D01*
X122013Y82551D01*
X122106Y83020D01*
Y83321D01*
X133870Y95084D01*
X134312Y95746D01*
X134467Y96526D01*
X134467Y96526D01*
Y107272D01*
X134668Y107572D01*
X134789Y108182D01*
X136500Y109893D01*
X136500Y109893D01*
X136942Y110554D01*
X137097Y111335D01*
X137097Y111335D01*
Y115047D01*
X144811D01*
Y108968D01*
X144079D01*
Y103032D01*
X144811D01*
Y99150D01*
X144966Y98369D01*
X145408Y97708D01*
X154058Y89058D01*
X154720Y88616D01*
X155500Y88461D01*
X155500Y88461D01*
X158047D01*
Y88319D01*
X165953D01*
Y92681D01*
X158047D01*
Y92539D01*
X156345D01*
X148890Y99994D01*
Y103032D01*
X149622D01*
Y108968D01*
X148890D01*
Y115047D01*
X160094D01*
Y122953D01*
X137097D01*
Y125410D01*
X137097Y125410D01*
X136942Y126190D01*
X136500Y126852D01*
X135253Y128099D01*
X134591Y128542D01*
X133811Y128697D01*
X133370D01*
Y129331D01*
X130024D01*
X129827Y129370D01*
X127687D01*
X124142Y132915D01*
Y135968D01*
X116996D01*
Y136569D01*
X119514Y139087D01*
X124142D01*
Y145024D01*
X120622D01*
X120543Y145039D01*
X90345D01*
X88564Y146820D01*
X87902Y147262D01*
X87122Y147417D01*
D02*
G37*
G36*
X144693Y92681D02*
X136787D01*
Y88319D01*
X144693D01*
Y92681D01*
D02*
G37*
G36*
X390500Y95487D02*
X389468Y95351D01*
X388507Y94953D01*
X387681Y94319D01*
X387047Y93493D01*
X386649Y92532D01*
X386513Y91500D01*
X386649Y90468D01*
X387047Y89507D01*
X387681Y88681D01*
X388507Y88047D01*
X389468Y87649D01*
X390500Y87513D01*
X391532Y87649D01*
X392493Y88047D01*
X393319Y88681D01*
X393953Y89507D01*
X394351Y90468D01*
X394487Y91500D01*
X394351Y92532D01*
X393953Y93493D01*
X393319Y94319D01*
X392493Y94953D01*
X391532Y95351D01*
X390500Y95487D01*
D02*
G37*
G36*
X380500D02*
X379468Y95351D01*
X378507Y94953D01*
X377681Y94319D01*
X377047Y93493D01*
X376649Y92532D01*
X376513Y91500D01*
X376649Y90468D01*
X377047Y89507D01*
X377681Y88681D01*
X378507Y88047D01*
X379468Y87649D01*
X380500Y87513D01*
X381532Y87649D01*
X382493Y88047D01*
X383319Y88681D01*
X383953Y89507D01*
X384351Y90468D01*
X384487Y91500D01*
X384351Y92532D01*
X383953Y93493D01*
X383319Y94319D01*
X382493Y94953D01*
X381532Y95351D01*
X380500Y95487D01*
D02*
G37*
G36*
X105000Y86547D02*
X104072Y86362D01*
X103772Y86161D01*
X99643D01*
X99425Y86205D01*
X94118D01*
X93650Y86111D01*
X93252Y85846D01*
X92987Y85449D01*
X92894Y84980D01*
Y83020D01*
X92987Y82551D01*
X93252Y82154D01*
X93650Y81889D01*
X94118Y81795D01*
X99425D01*
X99894Y81889D01*
X100185Y82083D01*
X103772D01*
X104072Y81882D01*
X105000Y81697D01*
X105928Y81882D01*
X106714Y82408D01*
X107240Y83194D01*
X107424Y84122D01*
X107240Y85050D01*
X106714Y85836D01*
X105928Y86362D01*
X105000Y86547D01*
D02*
G37*
G36*
X184510Y133924D02*
X183582Y133740D01*
X182795Y133214D01*
X182270Y132428D01*
X182085Y131500D01*
X182270Y130572D01*
X182345Y130460D01*
Y128127D01*
X169000D01*
X168220Y127972D01*
X167558Y127530D01*
X164058Y124030D01*
X163616Y123368D01*
X163461Y122588D01*
Y115228D01*
X163260Y114928D01*
X163075Y114000D01*
X163260Y113072D01*
X163786Y112286D01*
X164572Y111760D01*
X165500Y111575D01*
X166428Y111760D01*
X166512Y111816D01*
X167847D01*
X171162Y108501D01*
X170971Y108039D01*
X155921D01*
Y108968D01*
X150378D01*
Y103032D01*
X151882D01*
Y101807D01*
X152037Y101027D01*
X152479Y100365D01*
X158047Y94797D01*
Y93319D01*
X165953D01*
Y97681D01*
X160931D01*
X155960Y102652D01*
Y103961D01*
X173579D01*
Y103032D01*
X179122D01*
Y108968D01*
X176463D01*
X170846Y114585D01*
X171037Y115047D01*
X180610D01*
Y108968D01*
X179878D01*
Y103032D01*
X179941D01*
X180148Y102532D01*
X179724Y102108D01*
X174068D01*
X173288Y101953D01*
X172627Y101510D01*
X168058Y96942D01*
X167616Y96280D01*
X167461Y95500D01*
Y88516D01*
X166484Y87539D01*
X165953D01*
Y87681D01*
X158047D01*
Y83319D01*
X165953D01*
Y83461D01*
X167181D01*
X167181Y83461D01*
X167481Y83156D01*
X167560Y82997D01*
X167461Y82500D01*
Y73016D01*
X166984Y72539D01*
X165953D01*
Y72681D01*
X158047D01*
Y68319D01*
X165953D01*
Y68461D01*
X167824D01*
X167834Y68450D01*
X168069Y67999D01*
X166415Y66345D01*
X165953Y66536D01*
Y67681D01*
X158047D01*
Y65516D01*
X158008Y65319D01*
Y63986D01*
X157635Y63428D01*
X157450Y62500D01*
X157635Y61572D01*
X158161Y60786D01*
X158947Y60260D01*
X159511Y60148D01*
X159675Y59605D01*
X154058Y53988D01*
X153616Y53327D01*
X153461Y52546D01*
Y21345D01*
X149155Y17039D01*
X123246D01*
X119539Y20746D01*
Y27155D01*
X122691Y30307D01*
X124168D01*
X124507Y30047D01*
X125468Y29649D01*
X126000Y29579D01*
Y33500D01*
Y37421D01*
X125468Y37351D01*
X124507Y36953D01*
X123681Y36319D01*
X123047Y35493D01*
X122649Y34532D01*
X122630Y34386D01*
X121846D01*
X121066Y34230D01*
X120405Y33788D01*
X116058Y29442D01*
X115616Y28780D01*
X115461Y28000D01*
Y19902D01*
X115616Y19121D01*
X116058Y18460D01*
X120960Y13558D01*
X121621Y13116D01*
X122402Y12961D01*
X122402Y12961D01*
X150000D01*
X150780Y13116D01*
X151442Y13558D01*
X156942Y19058D01*
X156942Y19058D01*
X157384Y19720D01*
X157539Y20500D01*
Y51702D01*
X168650Y62812D01*
X169091Y62576D01*
X169076Y62500D01*
X169260Y61572D01*
X169786Y60786D01*
X170572Y60260D01*
X171500Y60075D01*
X172428Y60260D01*
X173214Y60786D01*
X173619Y61391D01*
X174151Y61440D01*
X174198Y61426D01*
X174212Y61405D01*
X175884Y59733D01*
X176545Y59290D01*
X177326Y59135D01*
X179874D01*
X180065Y58673D01*
X176882Y55490D01*
X176400Y55690D01*
X175094Y55862D01*
X173789Y55690D01*
X172573Y55186D01*
X171528Y54385D01*
X170727Y53341D01*
X170223Y52124D01*
X170051Y50819D01*
X170223Y49514D01*
X170727Y48297D01*
X171528Y47253D01*
X172573Y46451D01*
X173789Y45948D01*
X175094Y45776D01*
X176400Y45948D01*
X177616Y46451D01*
X178661Y47253D01*
X179462Y48297D01*
X179966Y49514D01*
X180138Y50819D01*
X179966Y52124D01*
X179766Y52607D01*
X183295Y56135D01*
X185368D01*
X185468Y55635D01*
X184384Y55186D01*
X183340Y54385D01*
X182538Y53341D01*
X182034Y52124D01*
X181862Y50819D01*
X182034Y49514D01*
X182538Y48297D01*
X183340Y47253D01*
X184384Y46451D01*
X185600Y45948D01*
X186906Y45776D01*
X188211Y45948D01*
X189427Y46451D01*
X190472Y47253D01*
X191273Y48297D01*
X191473Y48780D01*
X199555D01*
X200336Y48935D01*
X200997Y49377D01*
X214002Y62382D01*
X216858D01*
Y74618D01*
X216006D01*
X215872Y75292D01*
X215430Y75954D01*
X215430Y75954D01*
X215285Y76098D01*
X215493Y76598D01*
X217461D01*
Y57228D01*
X217260Y56928D01*
X217075Y56000D01*
X217260Y55072D01*
X217786Y54286D01*
X218572Y53760D01*
X219500Y53575D01*
X220428Y53760D01*
X221214Y54286D01*
X221740Y55072D01*
X221924Y56000D01*
X221740Y56928D01*
X221539Y57228D01*
Y78150D01*
X221384Y78930D01*
X220942Y79592D01*
X219181Y81352D01*
Y84701D01*
X214819D01*
Y77724D01*
X214319Y77457D01*
X214181Y77549D01*
Y84701D01*
X209819D01*
Y76598D01*
X209961D01*
Y76500D01*
X210116Y75720D01*
X210558Y75058D01*
X211118Y74498D01*
Y65266D01*
X209344Y63491D01*
X208882Y63683D01*
Y74618D01*
X208858D01*
Y76598D01*
X209181D01*
Y84701D01*
X207718D01*
X207527Y85163D01*
X208422Y86058D01*
X223835D01*
Y84932D01*
X230165D01*
Y89823D01*
X231121D01*
X231961Y88984D01*
Y85345D01*
X230665Y84049D01*
X230165Y84176D01*
Y84176D01*
X223835D01*
Y77845D01*
X223843D01*
Y74618D01*
X222142D01*
Y62382D01*
X227882D01*
Y69173D01*
X227921Y69370D01*
Y77845D01*
X230165D01*
Y79789D01*
X231328D01*
X232109Y79944D01*
X232770Y80387D01*
X235442Y83058D01*
X235442Y83058D01*
X235884Y83720D01*
X236039Y84500D01*
Y89828D01*
X235884Y90609D01*
X235442Y91270D01*
X233408Y93304D01*
X232747Y93746D01*
X231966Y93901D01*
X207100D01*
X206320Y93746D01*
X205658Y93304D01*
X203137Y90783D01*
X201257D01*
X200958Y91247D01*
X200963Y91283D01*
X201714Y91786D01*
X202240Y92572D01*
X202425Y93500D01*
X202240Y94428D01*
X202047Y94717D01*
X202314Y95217D01*
X214217D01*
X214997Y95372D01*
X215658Y95814D01*
X217703Y97858D01*
X219181D01*
Y105961D01*
X214819D01*
Y101035D01*
X214681Y100936D01*
X214181Y101193D01*
Y105961D01*
X214039D01*
Y110543D01*
X213884Y111324D01*
X213442Y111985D01*
X213209Y112218D01*
Y115665D01*
X209762D01*
X197897Y127530D01*
X197236Y127972D01*
X196455Y128127D01*
X186423D01*
Y130083D01*
X186750Y130572D01*
X186934Y131500D01*
X186750Y132428D01*
X186224Y133214D01*
X185438Y133740D01*
X184510Y133924D01*
D02*
G37*
G36*
X144693Y87681D02*
X136787D01*
Y87539D01*
X133928D01*
X133148Y87384D01*
X132486Y86942D01*
X131854Y86310D01*
X131500Y86240D01*
X130713Y85714D01*
X130188Y84928D01*
X130003Y84000D01*
X130188Y83072D01*
X130713Y82286D01*
X131500Y81760D01*
X132428Y81576D01*
X133356Y81760D01*
X134142Y82286D01*
X134668Y83072D01*
X134738Y83427D01*
X134773Y83461D01*
X136787D01*
Y83319D01*
X140724D01*
X140921Y83280D01*
X145301D01*
X145538Y82978D01*
X145283Y82539D01*
X144693D01*
Y82681D01*
X136787D01*
Y78319D01*
X144403D01*
X144589Y78000D01*
X144403Y77681D01*
X136787D01*
Y77539D01*
X132728D01*
X132428Y77740D01*
X131500Y77925D01*
X130572Y77740D01*
X129786Y77214D01*
X129260Y76428D01*
X129076Y75500D01*
X129260Y74572D01*
X129786Y73786D01*
X130572Y73260D01*
X131500Y73075D01*
X132428Y73260D01*
X132728Y73461D01*
X136787D01*
Y73319D01*
X144403Y73319D01*
X144589Y73000D01*
X144403Y72681D01*
X136787D01*
Y72539D01*
X136228D01*
X135928Y72740D01*
X135000Y72925D01*
X134072Y72740D01*
X133286Y72214D01*
X132760Y71428D01*
X132576Y70500D01*
X132336Y70209D01*
X130500D01*
Y67043D01*
Y63792D01*
X130763Y63616D01*
X130684Y63122D01*
X126835D01*
Y61996D01*
X122243D01*
X121976Y62496D01*
X122013Y62551D01*
X122106Y63020D01*
Y64980D01*
X122013Y65449D01*
X121748Y65846D01*
X121350Y66111D01*
X120882Y66205D01*
X115575D01*
X115106Y66111D01*
X114709Y65846D01*
X114444Y65449D01*
X114350Y64980D01*
Y63020D01*
X114444Y62551D01*
X114709Y62154D01*
X115106Y61889D01*
X115575Y61795D01*
X118637D01*
X118887Y61295D01*
X118819Y61205D01*
X115575D01*
X115106Y61111D01*
X114998Y61039D01*
X112494D01*
X112039Y61494D01*
Y65754D01*
X113246Y66961D01*
X114998D01*
X115106Y66889D01*
X115575Y66795D01*
X120882D01*
X121350Y66889D01*
X121748Y67154D01*
X122013Y67551D01*
X122106Y68020D01*
Y69980D01*
X122013Y70449D01*
X121748Y70846D01*
X121350Y71111D01*
X120882Y71205D01*
X115575D01*
X115106Y71111D01*
X114998Y71039D01*
X114178D01*
X113844Y71540D01*
X112811Y72573D01*
X112740Y72928D01*
X112214Y73714D01*
X111428Y74240D01*
X110500Y74424D01*
X109572Y74240D01*
X108786Y73714D01*
X108260Y72928D01*
X108075Y72000D01*
X108260Y71072D01*
X108786Y70286D01*
X109572Y69760D01*
X109736Y69218D01*
X108558Y68040D01*
X108116Y67379D01*
X107961Y66598D01*
Y60650D01*
X108011Y60399D01*
X107550Y60153D01*
X107220Y60483D01*
Y70819D01*
X107065Y71599D01*
X106623Y72261D01*
X103442Y75442D01*
X102780Y75884D01*
X102000Y76039D01*
X100002D01*
X99894Y76111D01*
X99425Y76205D01*
X94118D01*
X93650Y76111D01*
X93252Y75846D01*
X92987Y75449D01*
X92894Y74980D01*
Y73020D01*
X92987Y72551D01*
X93252Y72154D01*
X93650Y71889D01*
X94118Y71795D01*
X99425D01*
X99894Y71889D01*
X100002Y71961D01*
X101155D01*
X103142Y69974D01*
Y59638D01*
X103297Y58858D01*
X103739Y58196D01*
X120377Y41558D01*
X121039Y41116D01*
X121819Y40961D01*
X121819Y40961D01*
X134461D01*
Y36918D01*
X133681Y36319D01*
X133047Y35493D01*
X132649Y34532D01*
X132513Y33500D01*
X132649Y32468D01*
X133047Y31507D01*
X133681Y30681D01*
X134507Y30047D01*
X135468Y29649D01*
X136500Y29513D01*
X137532Y29649D01*
X138493Y30047D01*
X138914Y30370D01*
X139414Y30123D01*
Y29297D01*
X137475Y27359D01*
X136500Y27487D01*
X135468Y27351D01*
X134507Y26953D01*
X133681Y26319D01*
X133047Y25493D01*
X132649Y24532D01*
X132513Y23500D01*
X132649Y22468D01*
X133047Y21507D01*
X133681Y20681D01*
X134507Y20047D01*
X135468Y19649D01*
X136500Y19513D01*
X137532Y19649D01*
X138493Y20047D01*
X139319Y20681D01*
X139953Y21507D01*
X140351Y22468D01*
X140487Y23500D01*
X140358Y24475D01*
X142895Y27011D01*
X143337Y27672D01*
X143492Y28453D01*
Y30196D01*
X143992Y30442D01*
X144507Y30047D01*
X145468Y29649D01*
X146500Y29513D01*
X147532Y29649D01*
X148493Y30047D01*
X149319Y30681D01*
X149953Y31507D01*
X150351Y32468D01*
X150487Y33500D01*
X150351Y34532D01*
X149953Y35493D01*
X149319Y36319D01*
X148493Y36953D01*
X147532Y37351D01*
X146500Y37487D01*
X145468Y37351D01*
X144507Y36953D01*
X143992Y36558D01*
X143492Y36804D01*
Y53062D01*
X151942Y61512D01*
X152384Y62174D01*
X152539Y62954D01*
Y71772D01*
X152740Y72072D01*
X152925Y73000D01*
X152740Y73928D01*
X152539Y74228D01*
Y80870D01*
X152923Y81077D01*
X153024Y81092D01*
X155058Y79058D01*
X155720Y78616D01*
X156500Y78461D01*
X158047D01*
Y78319D01*
X165953D01*
Y82681D01*
X158047D01*
Y82539D01*
X157345D01*
X155310Y84573D01*
X155240Y84928D01*
X154714Y85714D01*
X153928Y86240D01*
X153000Y86424D01*
X152072Y86240D01*
X151286Y85714D01*
X150760Y84928D01*
X150664Y84447D01*
X150122Y84282D01*
X147643Y86761D01*
X146981Y87203D01*
X146201Y87358D01*
X144693D01*
Y87681D01*
D02*
G37*
G36*
X391000Y85421D02*
Y82000D01*
X394421D01*
X394351Y82532D01*
X393953Y83493D01*
X393319Y84319D01*
X392493Y84953D01*
X391532Y85351D01*
X391000Y85421D01*
D02*
G37*
G36*
X390000D02*
X389468Y85351D01*
X388507Y84953D01*
X387681Y84319D01*
X387047Y83493D01*
X386649Y82532D01*
X386579Y82000D01*
X390000D01*
Y85421D01*
D02*
G37*
G36*
Y81000D02*
X386579D01*
X386649Y80468D01*
X387047Y79507D01*
X387681Y78681D01*
X388507Y78047D01*
X389468Y77649D01*
X390000Y77579D01*
Y81000D01*
D02*
G37*
G36*
X394421D02*
X391000D01*
Y77579D01*
X391532Y77649D01*
X392493Y78047D01*
X393319Y78681D01*
X393953Y79507D01*
X394351Y80468D01*
X394421Y81000D01*
D02*
G37*
G36*
X384453Y85453D02*
X376547D01*
Y77547D01*
X384453D01*
Y85453D01*
D02*
G37*
G36*
X120882Y81205D02*
X115575D01*
X115106Y81111D01*
X114709Y80846D01*
X114444Y80449D01*
X114350Y79980D01*
Y78020D01*
X114444Y77551D01*
X114709Y77154D01*
X115106Y76889D01*
X115575Y76795D01*
X120882D01*
X121350Y76889D01*
X121748Y77154D01*
X122013Y77551D01*
X122106Y78020D01*
Y79980D01*
X122013Y80449D01*
X121748Y80846D01*
X121350Y81111D01*
X120882Y81205D01*
D02*
G37*
G36*
X165953Y77681D02*
X158047D01*
Y73319D01*
X165953D01*
Y77681D01*
D02*
G37*
G36*
X30500Y85541D02*
X29572Y85356D01*
X28786Y84830D01*
X28260Y84044D01*
X28076Y83116D01*
X28260Y82188D01*
X28316Y82104D01*
Y80512D01*
X25484D01*
Y71819D01*
X33390D01*
Y80512D01*
X32395D01*
Y81671D01*
X32740Y82188D01*
X32925Y83116D01*
X32740Y84044D01*
X32214Y84830D01*
X31428Y85356D01*
X30500Y85541D01*
D02*
G37*
G36*
X120882Y76205D02*
X115575D01*
X115106Y76111D01*
X114709Y75846D01*
X114444Y75449D01*
X114350Y74980D01*
Y73020D01*
X114444Y72551D01*
X114709Y72154D01*
X115106Y71889D01*
X115575Y71795D01*
X120882D01*
X121350Y71889D01*
X121748Y72154D01*
X122013Y72551D01*
X122106Y73020D01*
Y74980D01*
X122013Y75449D01*
X121748Y75846D01*
X121350Y76111D01*
X120882Y76205D01*
D02*
G37*
G36*
X329648Y97622D02*
X323711D01*
Y92079D01*
X324640D01*
Y71921D01*
X323711D01*
Y71395D01*
X321945D01*
X321428Y71740D01*
X320500Y71925D01*
X319572Y71740D01*
X318786Y71214D01*
X318260Y70428D01*
X318075Y69500D01*
X318260Y68572D01*
X318786Y67786D01*
X319572Y67260D01*
X320500Y67076D01*
X321428Y67260D01*
X321512Y67316D01*
X323711D01*
Y66378D01*
X329648D01*
Y71921D01*
X328719D01*
Y92079D01*
X329648D01*
Y97622D01*
D02*
G37*
G36*
X129500Y70209D02*
X126835D01*
Y67543D01*
X129500D01*
Y70209D01*
D02*
G37*
G36*
Y66543D02*
X126835D01*
Y63878D01*
X129500D01*
Y66543D01*
D02*
G37*
G36*
X90500Y66425D02*
X89572Y66240D01*
X88786Y65714D01*
X88260Y64928D01*
X88076Y64000D01*
X88260Y63072D01*
X88786Y62286D01*
X89572Y61760D01*
X90500Y61576D01*
X91428Y61760D01*
X91728Y61961D01*
X93542D01*
X93650Y61889D01*
X94118Y61795D01*
X99425D01*
X99894Y61889D01*
X100291Y62154D01*
X100556Y62551D01*
X100649Y63020D01*
Y64980D01*
X100556Y65449D01*
X100291Y65846D01*
X99894Y66111D01*
X99425Y66205D01*
X94118D01*
X93650Y66111D01*
X93542Y66039D01*
X91728D01*
X91428Y66240D01*
X90500Y66425D01*
D02*
G37*
G36*
X80500Y61424D02*
X79572Y61240D01*
X78786Y60714D01*
X78260Y59928D01*
X78075Y59000D01*
X78260Y58072D01*
X78786Y57286D01*
X79572Y56760D01*
X80500Y56576D01*
X81428Y56760D01*
X81728Y56961D01*
X93542D01*
X93650Y56889D01*
X94118Y56795D01*
X99425D01*
X99894Y56889D01*
X100291Y57154D01*
X100556Y57551D01*
X100649Y58020D01*
Y59980D01*
X100556Y60449D01*
X100291Y60846D01*
X99894Y61111D01*
X99425Y61205D01*
X94118D01*
X93650Y61111D01*
X93542Y61039D01*
X81728D01*
X81428Y61240D01*
X80500Y61424D01*
D02*
G37*
G36*
X257500Y48421D02*
X255031D01*
Y46150D01*
X257500D01*
Y48421D01*
D02*
G37*
G36*
X211665Y47709D02*
X205335D01*
Y46582D01*
X203142D01*
X202361Y46427D01*
X201700Y45985D01*
X196754Y41039D01*
X191473D01*
X191273Y41522D01*
X190472Y42566D01*
X189427Y43367D01*
X188211Y43871D01*
X186906Y44043D01*
X185600Y43871D01*
X184384Y43367D01*
X183340Y42566D01*
X182538Y41522D01*
X182034Y40305D01*
X181862Y39000D01*
X182034Y37695D01*
X182538Y36478D01*
X183340Y35434D01*
X184384Y34633D01*
X185600Y34129D01*
X186906Y33957D01*
X188211Y34129D01*
X189427Y34633D01*
X190472Y35434D01*
X191273Y36478D01*
X191473Y36961D01*
X197598D01*
X198379Y37116D01*
X199040Y37558D01*
X203986Y42504D01*
X205335D01*
Y41378D01*
X211665D01*
Y41933D01*
X214729D01*
Y41825D01*
X214821Y41359D01*
X215085Y40963D01*
X215481Y40699D01*
X215947Y40606D01*
X222447D01*
X222913Y40699D01*
X223308Y40963D01*
X223572Y41359D01*
X223665Y41825D01*
Y44978D01*
X223572Y45445D01*
X223308Y45840D01*
X222913Y46104D01*
X222447Y46197D01*
X215947D01*
X215481Y46104D01*
X215342Y46012D01*
X211665D01*
Y47709D01*
D02*
G37*
G36*
X247041Y41669D02*
X240565D01*
X240094Y41576D01*
X239695Y41309D01*
X239428Y40910D01*
X239335Y40439D01*
Y36386D01*
X223573D01*
X223572Y36389D01*
X223308Y36785D01*
X222913Y37049D01*
X222447Y37141D01*
X217612D01*
X215855Y38899D01*
X215194Y39341D01*
X214413Y39496D01*
X211665D01*
Y40622D01*
X205335D01*
Y37175D01*
X201700Y33540D01*
X201258Y32879D01*
X201103Y32098D01*
Y12905D01*
X201258Y12125D01*
X201700Y11464D01*
X205925Y7238D01*
Y4972D01*
X211075D01*
Y10122D01*
X208874D01*
X208651Y10401D01*
X208861Y10878D01*
X211075D01*
Y16028D01*
X210539D01*
Y19929D01*
X211469D01*
Y25473D01*
X205532D01*
X205181Y25827D01*
Y25874D01*
X205532Y26228D01*
X208000D01*
Y29000D01*
Y31772D01*
X206352D01*
X206161Y32234D01*
X208219Y34291D01*
X211665D01*
Y35418D01*
X213569D01*
X214729Y34258D01*
Y32770D01*
X214821Y32304D01*
X215085Y31908D01*
X215481Y31644D01*
X215947Y31551D01*
X222447D01*
X222913Y31644D01*
X223308Y31908D01*
X223572Y32304D01*
X223573Y32307D01*
X239335D01*
Y28254D01*
X239428Y27783D01*
X239695Y27384D01*
X240094Y27117D01*
X240565Y27024D01*
X241764D01*
Y16232D01*
X235669D01*
Y5768D01*
X246331D01*
Y8961D01*
X253117D01*
X253897Y9116D01*
X254559Y9558D01*
X259559Y14558D01*
X260001Y15220D01*
X260156Y16000D01*
Y16232D01*
X262347D01*
Y21382D01*
X253654D01*
Y16232D01*
X254812D01*
X255003Y15770D01*
X252272Y13039D01*
X246331D01*
Y16232D01*
X245842D01*
Y27024D01*
X247041D01*
X247512Y27117D01*
X247911Y27384D01*
X248178Y27783D01*
X248272Y28254D01*
Y32893D01*
X248288Y32905D01*
X251573Y36189D01*
X251928Y36260D01*
X252714Y36786D01*
X253240Y37572D01*
X253425Y38500D01*
X253240Y39428D01*
X252714Y40214D01*
X251928Y40740D01*
X251000Y40925D01*
X250072Y40740D01*
X249286Y40214D01*
X248772Y39445D01*
X248734Y39437D01*
X248272Y39530D01*
Y40439D01*
X248178Y40910D01*
X247911Y41309D01*
X247512Y41576D01*
X247041Y41669D01*
D02*
G37*
G36*
X127000Y37421D02*
Y34000D01*
X130421D01*
X130351Y34532D01*
X129953Y35493D01*
X129319Y36319D01*
X128493Y36953D01*
X127532Y37351D01*
X127000Y37421D01*
D02*
G37*
G36*
X175094Y44043D02*
X173789Y43871D01*
X172573Y43367D01*
X171528Y42566D01*
X170727Y41522D01*
X170223Y40305D01*
X170051Y39000D01*
X170223Y37695D01*
X170727Y36478D01*
X171528Y35434D01*
X172573Y34633D01*
X173789Y34129D01*
X175094Y33957D01*
X176400Y34129D01*
X177616Y34633D01*
X178661Y35434D01*
X179462Y36478D01*
X179966Y37695D01*
X180138Y39000D01*
X179966Y40305D01*
X179462Y41522D01*
X178661Y42566D01*
X177616Y43367D01*
X176400Y43871D01*
X175094Y44043D01*
D02*
G37*
G36*
X130421Y33000D02*
X127000D01*
Y29579D01*
X127532Y29649D01*
X128493Y30047D01*
X129319Y30681D01*
X129953Y31507D01*
X130351Y32468D01*
X130421Y33000D01*
D02*
G37*
G36*
X273500Y37487D02*
X272468Y37351D01*
X271507Y36953D01*
X270681Y36319D01*
X270047Y35493D01*
X269649Y34532D01*
X269513Y33500D01*
X269649Y32468D01*
X270047Y31507D01*
X270681Y30681D01*
X271507Y30047D01*
X272468Y29649D01*
X273500Y29513D01*
X274532Y29649D01*
X275493Y30047D01*
X276319Y30681D01*
X276953Y31507D01*
X277351Y32468D01*
X277487Y33500D01*
X277351Y34532D01*
X276953Y35493D01*
X276319Y36319D01*
X275493Y36953D01*
X274532Y37351D01*
X273500Y37487D01*
D02*
G37*
G36*
X222447Y28086D02*
X219697D01*
Y25791D01*
X223665D01*
Y26868D01*
X223572Y27334D01*
X223308Y27730D01*
X222913Y27994D01*
X222447Y28086D01*
D02*
G37*
G36*
X277453Y27453D02*
X269547D01*
Y19547D01*
X277453D01*
Y27453D01*
D02*
G37*
G36*
X130453D02*
X122547D01*
Y19547D01*
X130453D01*
Y27453D01*
D02*
G37*
G36*
X146500Y27487D02*
X145468Y27351D01*
X144507Y26953D01*
X143681Y26319D01*
X143047Y25493D01*
X142649Y24532D01*
X142513Y23500D01*
X142649Y22468D01*
X143047Y21507D01*
X143681Y20681D01*
X144507Y20047D01*
X145468Y19649D01*
X146500Y19513D01*
X147532Y19649D01*
X148493Y20047D01*
X149319Y20681D01*
X149953Y21507D01*
X150351Y22468D01*
X150487Y23500D01*
X150351Y24532D01*
X149953Y25493D01*
X149319Y26319D01*
X148493Y26953D01*
X147532Y27351D01*
X146500Y27487D01*
D02*
G37*
G36*
X181000Y28939D02*
X179646Y28806D01*
X178345Y28411D01*
X177145Y27770D01*
X176093Y26907D01*
X175231Y25855D01*
X174589Y24655D01*
X174194Y23354D01*
X174061Y22000D01*
X174194Y20646D01*
X174589Y19345D01*
X175231Y18145D01*
X176093Y17094D01*
X177145Y16230D01*
X178345Y15589D01*
X179646Y15194D01*
X181000Y15061D01*
X182354Y15194D01*
X183655Y15589D01*
X184855Y16230D01*
X185907Y17094D01*
X186769Y18145D01*
X187411Y19345D01*
X187806Y20646D01*
X187939Y22000D01*
X187806Y23354D01*
X187411Y24655D01*
X186769Y25855D01*
X185907Y26907D01*
X184855Y27770D01*
X183655Y28411D01*
X182354Y28806D01*
X181000Y28939D01*
D02*
G37*
G36*
X228417Y16232D02*
X223587D01*
Y11500D01*
X228417D01*
Y16232D01*
D02*
G37*
G36*
X211469Y31772D02*
X209000D01*
Y29000D01*
Y26228D01*
X211469D01*
Y26961D01*
X212970D01*
X214729Y25203D01*
Y23715D01*
X214821Y23248D01*
X215085Y22853D01*
X215481Y22589D01*
X215947Y22496D01*
X217717D01*
Y14232D01*
X217756Y14035D01*
Y11500D01*
X222587D01*
Y16232D01*
X221795D01*
Y22496D01*
X222447D01*
X222913Y22589D01*
X223308Y22853D01*
X223572Y23248D01*
X223665Y23715D01*
Y24791D01*
X219197D01*
Y25291D01*
X218697D01*
Y28086D01*
X217612D01*
X215257Y30442D01*
X214595Y30884D01*
X213815Y31039D01*
X211469D01*
Y31772D01*
D02*
G37*
G36*
X228417Y10500D02*
X223587D01*
Y5768D01*
X228417D01*
Y10500D01*
D02*
G37*
G36*
X222587D02*
X217756D01*
Y5768D01*
X222587D01*
Y10500D01*
D02*
G37*
%LPD*%
G36*
X238810Y130497D02*
X239286Y129786D01*
X240072Y129260D01*
X240682Y129139D01*
X242172Y127649D01*
X241518Y126995D01*
X242314Y126198D01*
X239473Y123357D01*
X238494Y124336D01*
X235501Y121342D01*
X235039Y121534D01*
Y127433D01*
X238271Y130664D01*
X238810Y130497D01*
D02*
G37*
G36*
X301190Y114023D02*
X296324Y109156D01*
X295747Y109286D01*
X295684Y109380D01*
X292583Y106278D01*
X291875Y106985D01*
X294977Y110087D01*
X294712Y110264D01*
X294270Y110352D01*
X293871Y110501D01*
X293722Y110900D01*
X293634Y111342D01*
X293174Y112031D01*
X292656Y112377D01*
X292526Y112954D01*
X294057Y114485D01*
X300999D01*
X301190Y114023D01*
D02*
G37*
G36*
X278531Y118208D02*
X277922Y117599D01*
X277461Y116910D01*
X277300Y116097D01*
X277461Y115285D01*
X277922Y114596D01*
X278610Y114135D01*
X279052Y114047D01*
X279451Y113898D01*
X279601Y113499D01*
X279688Y113057D01*
X280149Y112369D01*
X280838Y111908D01*
X281279Y111820D01*
X281678Y111671D01*
X281828Y111272D01*
X281915Y110830D01*
X282376Y110141D01*
X283065Y109681D01*
X283506Y109593D01*
X283906Y109444D01*
X284055Y109045D01*
X284143Y108603D01*
X284519Y108039D01*
X284333Y107539D01*
X280681D01*
X280381Y107740D01*
X279453Y107924D01*
X278525Y107740D01*
X277738Y107214D01*
X277213Y106428D01*
X277028Y105500D01*
X277213Y104572D01*
X277738Y103786D01*
X278525Y103260D01*
X279453Y103076D01*
X280381Y103260D01*
X280681Y103461D01*
X285521D01*
X285712Y102999D01*
X281879Y99165D01*
X281437Y98504D01*
X281281Y97724D01*
Y79628D01*
X281437Y78848D01*
X281879Y78186D01*
X285250Y74815D01*
X285120Y74237D01*
X284603Y73892D01*
X284257Y73374D01*
X283680Y73244D01*
X282925Y74000D01*
X282925Y74000D01*
X282740Y74928D01*
X282214Y75714D01*
X281428Y76240D01*
X280500Y76424D01*
X280027Y76331D01*
X279727Y76780D01*
X279922Y77072D01*
X280106Y78000D01*
X279922Y78928D01*
X279396Y79714D01*
X278609Y80240D01*
X277681Y80424D01*
X276754Y80240D01*
X275967Y79714D01*
X275442Y78928D01*
X275351Y78474D01*
X275069Y78052D01*
X274914Y77271D01*
Y76695D01*
X274413Y76427D01*
X273928Y76752D01*
X273000Y76936D01*
X272671Y76871D01*
X272649Y76881D01*
X272286Y77304D01*
X272425Y78000D01*
X272240Y78928D01*
X271714Y79714D01*
X270928Y80240D01*
X270000Y80424D01*
X269910Y80406D01*
X269384Y80812D01*
X269267Y81401D01*
X268742Y82187D01*
X268031Y82662D01*
X267863Y83202D01*
X271442Y86781D01*
X271442Y86781D01*
X271884Y87442D01*
X272039Y88223D01*
Y97240D01*
X271884Y98020D01*
X271442Y98682D01*
X268550Y101573D01*
X268480Y101928D01*
X267954Y102714D01*
X267168Y103240D01*
X266961Y103281D01*
X265485Y104757D01*
X265626Y105324D01*
X266170Y105687D01*
X266630Y106376D01*
X266718Y106818D01*
X266867Y107217D01*
X267267Y107366D01*
X267708Y107454D01*
X268397Y107914D01*
X268857Y108603D01*
X268945Y109045D01*
X269094Y109444D01*
X269494Y109593D01*
X269935Y109681D01*
X270624Y110141D01*
X271084Y110830D01*
X271172Y111272D01*
X271322Y111671D01*
X271721Y111820D01*
X272162Y111908D01*
X272851Y112369D01*
X273312Y113057D01*
X273399Y113499D01*
X273549Y113898D01*
X273948Y114047D01*
X274390Y114135D01*
X275078Y114596D01*
X275539Y115285D01*
X275700Y116097D01*
X275539Y116910D01*
X275078Y117599D01*
X274850Y117827D01*
X275669Y118646D01*
X278262D01*
X278531Y118208D01*
D02*
G37*
G36*
X313007Y108023D02*
X305232Y100248D01*
X304655Y100378D01*
X304309Y100895D01*
X303620Y101356D01*
X303179Y101444D01*
X302780Y101593D01*
X302630Y101992D01*
X302542Y102434D01*
X302082Y103122D01*
X301565Y103468D01*
X301435Y104045D01*
X305874Y108485D01*
X312816D01*
X313007Y108023D01*
D02*
G37*
G36*
X290938Y101750D02*
X291284Y101233D01*
X291973Y100773D01*
X292415Y100685D01*
X292814Y100536D01*
X292963Y100136D01*
X293051Y99695D01*
X293511Y99006D01*
X294200Y98545D01*
X294642Y98458D01*
X295041Y98308D01*
X295190Y97909D01*
X295278Y97468D01*
X295738Y96779D01*
X296427Y96318D01*
X296869Y96231D01*
X297268Y96081D01*
X297417Y95682D01*
X297505Y95240D01*
X297966Y94552D01*
X298654Y94091D01*
X299096Y94003D01*
X299495Y93854D01*
X299644Y93455D01*
X299666Y93348D01*
X299216Y93048D01*
X298928Y93240D01*
X298000Y93424D01*
X297072Y93240D01*
X296286Y92714D01*
X295760Y91928D01*
X295575Y91000D01*
X295760Y90072D01*
X296106Y89555D01*
Y88961D01*
X295605Y88787D01*
X294928Y89240D01*
X294000Y89425D01*
X293072Y89240D01*
X292286Y88714D01*
X291760Y87928D01*
X291576Y87000D01*
X291760Y86072D01*
X292286Y85286D01*
X293072Y84760D01*
X293190Y84737D01*
X294196Y83731D01*
X294056Y83164D01*
X293511Y82800D01*
X293051Y82111D01*
X292963Y81669D01*
X292814Y81270D01*
X292415Y81121D01*
X291973Y81033D01*
X291284Y80573D01*
X290824Y79884D01*
X290736Y79442D01*
X290587Y79043D01*
X290188Y78894D01*
X289746Y78806D01*
X289057Y78346D01*
X288711Y77828D01*
X288134Y77698D01*
X285360Y80473D01*
Y96879D01*
X290361Y101880D01*
X290938Y101750D01*
D02*
G37*
G36*
X263900Y100574D02*
X264000Y100072D01*
X264526Y99286D01*
X265312Y98760D01*
X265667Y98690D01*
X267961Y96395D01*
Y89068D01*
X265729Y86836D01*
X265190Y87003D01*
X264714Y87714D01*
X263928Y88240D01*
X263000Y88424D01*
X262292Y88284D01*
X261877Y88632D01*
X261859Y88669D01*
X261925Y89000D01*
X261740Y89928D01*
X261214Y90714D01*
X260428Y91240D01*
X259500Y91425D01*
X258895Y91304D01*
X258471Y91481D01*
X258390Y91675D01*
X258240Y92428D01*
X257714Y93214D01*
X256928Y93740D01*
X256000Y93924D01*
X255072Y93740D01*
X254286Y93214D01*
X253760Y92428D01*
X253575Y91500D01*
X253760Y90572D01*
X253816Y90488D01*
Y89363D01*
X253572Y89161D01*
X252958Y89255D01*
X252807Y89481D01*
X252118Y89942D01*
X251306Y90103D01*
X250493Y89942D01*
X249804Y89481D01*
X248232Y87909D01*
X240165Y95976D01*
X240356Y96438D01*
X245765D01*
X246314Y95890D01*
X246464Y95665D01*
X249804Y92325D01*
X250493Y91864D01*
X251306Y91703D01*
X252118Y91864D01*
X252807Y92325D01*
X253268Y93013D01*
X253356Y93455D01*
X253505Y93854D01*
X253904Y94003D01*
X254346Y94091D01*
X255034Y94552D01*
X255495Y95240D01*
X255583Y95682D01*
X255732Y96081D01*
X256131Y96231D01*
X256573Y96318D01*
X257262Y96779D01*
X257722Y97468D01*
X257810Y97909D01*
X257959Y98308D01*
X258358Y98458D01*
X258800Y98545D01*
X259489Y99006D01*
X259949Y99695D01*
X260037Y100136D01*
X260186Y100536D01*
X260585Y100685D01*
X261027Y100773D01*
X261716Y101233D01*
X262044Y101724D01*
X262631Y101843D01*
X263900Y100574D01*
D02*
G37*
G36*
X259481Y70293D02*
X259826Y69775D01*
X260515Y69315D01*
X260957Y69227D01*
X261356Y69078D01*
X261505Y68679D01*
X261593Y68237D01*
X262053Y67548D01*
X262742Y67088D01*
X263184Y67000D01*
X263583Y66851D01*
X263732Y66452D01*
X263820Y66010D01*
X264281Y65321D01*
X264824Y64958D01*
X264964Y64391D01*
X263471Y62898D01*
X263228D01*
X262928Y63099D01*
X262000Y63284D01*
X261072Y63099D01*
X260286Y62573D01*
X259760Y61787D01*
X259576Y60859D01*
X259760Y59931D01*
X260286Y59145D01*
X261072Y58619D01*
X262000Y58434D01*
X262888Y58611D01*
X262918Y58589D01*
X263037Y58053D01*
X258024Y53039D01*
X253497D01*
X253346Y53539D01*
X253714Y53786D01*
X254240Y54572D01*
X254425Y55500D01*
X254240Y56428D01*
X254039Y56728D01*
Y65558D01*
X258903Y70422D01*
X259481Y70293D01*
D02*
G37*
G36*
X59878Y112713D02*
X59391Y112492D01*
X55295Y116589D01*
Y129969D01*
X59878D01*
Y112713D01*
D02*
G37*
G36*
X51814Y114302D02*
X85142Y80974D01*
X84951Y80512D01*
X81518D01*
X78265Y83765D01*
X78240Y83889D01*
X77714Y84675D01*
X76928Y85201D01*
X76000Y85385D01*
X75072Y85201D01*
X74286Y84675D01*
X73760Y83889D01*
X73576Y82961D01*
X73760Y82033D01*
X74286Y81246D01*
X75072Y80721D01*
X75657Y80604D01*
X78634Y77628D01*
Y72903D01*
X78172Y72712D01*
X50964Y99919D01*
Y114674D01*
X51464Y114825D01*
X51814Y114302D01*
D02*
G37*
G36*
X203532Y116127D02*
X203457Y115945D01*
Y112500D01*
Y109116D01*
X204961Y107612D01*
Y105961D01*
X204819D01*
Y102409D01*
X207000D01*
Y101409D01*
X204819D01*
Y99295D01*
X204181D01*
Y105961D01*
X199819D01*
Y102295D01*
X190951D01*
X190951Y102295D01*
X190549Y102215D01*
X190302Y102676D01*
X198087Y110461D01*
X199791D01*
Y109335D01*
X202457D01*
Y112500D01*
Y115884D01*
X198043Y120297D01*
X197953Y120358D01*
X197714Y120714D01*
X196928Y121240D01*
X196500Y121325D01*
Y119000D01*
X195500D01*
Y121325D01*
X195072Y121240D01*
X194286Y120714D01*
X194059Y120375D01*
X193559Y120527D01*
Y122953D01*
X169905D01*
Y115971D01*
X169675Y115848D01*
X169405Y115753D01*
X168692Y115895D01*
X167539D01*
Y121743D01*
X169845Y124049D01*
X195611D01*
X203532Y116127D01*
D02*
G37*
G36*
X194286Y117286D02*
X195072Y116760D01*
X195997Y116576D01*
X197572Y115001D01*
X197380Y114539D01*
X197243D01*
X196462Y114384D01*
X195801Y113942D01*
X185883Y104024D01*
X185421Y104216D01*
Y108968D01*
X184689D01*
Y115047D01*
X193559D01*
Y117473D01*
X194059Y117625D01*
X194286Y117286D01*
D02*
G37*
G36*
X192228Y93415D02*
Y91878D01*
X195181D01*
X195378Y91839D01*
X195378Y91839D01*
X198250D01*
X198286Y91786D01*
X199037Y91283D01*
X199042Y91247D01*
X198743Y90783D01*
X197772D01*
Y91122D01*
X192228D01*
Y86366D01*
X192955D01*
Y74618D01*
X192118D01*
Y62382D01*
X197858D01*
Y74618D01*
X197033D01*
Y86366D01*
X197772D01*
Y86705D01*
X202648D01*
X202839Y86243D01*
X201297Y84701D01*
X199819D01*
Y76598D01*
X204181D01*
Y81524D01*
X204319Y81623D01*
X204819Y81366D01*
Y80665D01*
X204780Y80468D01*
Y74618D01*
X203142D01*
Y65266D01*
X198090Y60214D01*
X190251D01*
X190059Y60676D01*
X190942Y61558D01*
X191384Y62220D01*
X191539Y63000D01*
Y93519D01*
X191728Y93663D01*
X192228Y93415D01*
D02*
G37*
G36*
X173079Y95542D02*
Y94000D01*
X175850D01*
Y93500D01*
X176350D01*
Y90531D01*
X178622D01*
Y93519D01*
X178901Y93743D01*
X179378Y93533D01*
Y90531D01*
X180209D01*
Y87988D01*
X179378D01*
Y82051D01*
X179308Y81955D01*
X179082D01*
X178622Y82426D01*
Y87988D01*
X172685D01*
Y86539D01*
X171750D01*
X171629Y86656D01*
X171420Y86977D01*
X171411Y87028D01*
X171539Y87672D01*
Y94655D01*
X172617Y95733D01*
X173079Y95542D01*
D02*
G37*
G36*
X187461Y78552D02*
Y63845D01*
X186830Y63214D01*
X185683D01*
X185315Y63532D01*
X185315Y63714D01*
Y69468D01*
X184287D01*
Y71531D01*
X184921D01*
Y77134D01*
X184984Y77497D01*
X185343Y77657D01*
X185780Y77744D01*
X186442Y78186D01*
X186999Y78743D01*
X187461Y78552D01*
D02*
G37*
G36*
X207772Y61920D02*
X198711Y52858D01*
X191473D01*
X191273Y53341D01*
X190472Y54385D01*
X189427Y55186D01*
X188344Y55635D01*
X188443Y56135D01*
X198934D01*
X199715Y56291D01*
X200376Y56732D01*
X206026Y62382D01*
X207581D01*
X207772Y61920D01*
D02*
G37*
%LPC*%
G36*
X175350Y93000D02*
X173079D01*
Y90531D01*
X175350D01*
Y93000D01*
D02*
G37*
%LPD*%
G36*
X135572Y57760D02*
X136500Y57576D01*
X136849Y57645D01*
X137096Y57184D01*
X135058Y55146D01*
X134616Y54485D01*
X134461Y53705D01*
Y45039D01*
X122664D01*
X111153Y56550D01*
X111399Y57011D01*
X111650Y56961D01*
X114998D01*
X115106Y56889D01*
X115575Y56795D01*
X120882D01*
X121350Y56889D01*
X121748Y57154D01*
X122013Y57551D01*
X122086Y57917D01*
X125158D01*
X125476Y57531D01*
X125461Y57457D01*
Y54228D01*
X125260Y53928D01*
X125075Y53000D01*
X125260Y52072D01*
X125786Y51286D01*
X126572Y50760D01*
X127500Y50576D01*
X128428Y50760D01*
X129214Y51286D01*
X129740Y52072D01*
X129924Y53000D01*
X129740Y53928D01*
X129539Y54228D01*
Y56612D01*
X129718Y56791D01*
X133165D01*
Y57917D01*
X135336D01*
X135572Y57760D01*
D02*
G37*
D42*
X352000Y168154D02*
D03*
Y174847D02*
D03*
X361500Y168154D02*
D03*
Y174847D02*
D03*
D52*
X182346Y85020D02*
D03*
X175654D02*
D03*
X182346Y66500D02*
D03*
X175654D02*
D03*
D65*
X217000Y101909D02*
D03*
X212000D02*
D03*
X207000D02*
D03*
X202000D02*
D03*
X217000Y80650D02*
D03*
X212000D02*
D03*
X207000D02*
D03*
X202000D02*
D03*
D66*
X257449Y125949D02*
D03*
X253551Y122051D02*
D03*
D67*
X74910Y134276D02*
D03*
X70579D02*
D03*
X66248D02*
D03*
X61917D02*
D03*
X57587D02*
D03*
X53256D02*
D03*
X48925D02*
D03*
X44594D02*
D03*
D68*
X29437Y76165D02*
D03*
X82587D02*
D03*
D69*
X83000Y99000D02*
D03*
D70*
Y128134D02*
D03*
D71*
X80461Y134630D02*
D03*
D72*
X30618D02*
D03*
D73*
X96772Y94000D02*
D03*
Y89000D02*
D03*
Y84000D02*
D03*
Y79000D02*
D03*
Y74000D02*
D03*
Y69000D02*
D03*
Y64000D02*
D03*
Y59000D02*
D03*
X118228Y94000D02*
D03*
Y89000D02*
D03*
Y84000D02*
D03*
Y79000D02*
D03*
Y74000D02*
D03*
Y69000D02*
D03*
Y64000D02*
D03*
Y59000D02*
D03*
D74*
X243803Y34347D02*
D03*
D75*
X219197Y25291D02*
D03*
Y34347D02*
D03*
Y43402D02*
D03*
D76*
X208500Y29000D02*
D03*
Y22701D02*
D03*
X352000Y152500D02*
D03*
Y158799D02*
D03*
X361500Y152500D02*
D03*
Y158799D02*
D03*
X326679Y62850D02*
D03*
Y69150D02*
D03*
Y94850D02*
D03*
Y101150D02*
D03*
X258000Y45650D02*
D03*
Y39350D02*
D03*
X336000Y132350D02*
D03*
Y138650D02*
D03*
X326000Y132350D02*
D03*
Y138650D02*
D03*
X316000Y132350D02*
D03*
Y138650D02*
D03*
X306000Y132350D02*
D03*
Y138650D02*
D03*
X296000Y132350D02*
D03*
Y138650D02*
D03*
X286000Y132350D02*
D03*
Y138650D02*
D03*
X276000Y132350D02*
D03*
Y138650D02*
D03*
X266000Y132350D02*
D03*
Y138650D02*
D03*
D77*
X223087Y11000D02*
D03*
X241000D02*
D03*
X114957Y108132D02*
D03*
X97043D02*
D03*
D78*
X208500Y37457D02*
D03*
Y44543D02*
D03*
X227000Y81010D02*
D03*
Y88097D02*
D03*
X130000Y59957D02*
D03*
Y67043D02*
D03*
D79*
X208500Y13453D02*
D03*
Y7547D02*
D03*
D80*
X120386Y123945D02*
D03*
Y133000D02*
D03*
Y142055D02*
D03*
D81*
X93614Y133000D02*
D03*
D82*
X130500Y121343D02*
D03*
Y126657D02*
D03*
D83*
X244650Y147000D02*
D03*
X238350D02*
D03*
X220150D02*
D03*
X213850D02*
D03*
X195150D02*
D03*
X188850D02*
D03*
X170650D02*
D03*
X164350D02*
D03*
X146150D02*
D03*
X139850D02*
D03*
X182150Y93500D02*
D03*
X175850D02*
D03*
X182150Y74500D02*
D03*
X175850D02*
D03*
X182650Y106000D02*
D03*
X176350D02*
D03*
X153150D02*
D03*
X146850D02*
D03*
D84*
X341680Y98732D02*
D03*
Y65268D02*
D03*
D85*
X271907Y64038D02*
D03*
X269679Y66266D02*
D03*
X267452Y68493D02*
D03*
X265225Y70720D02*
D03*
X262998Y72947D02*
D03*
X260771Y75174D02*
D03*
X258544Y77401D02*
D03*
X256317Y79628D02*
D03*
X254090Y81855D02*
D03*
X251863Y84082D02*
D03*
X249636Y86309D02*
D03*
X281093Y117767D02*
D03*
X283320Y115540D02*
D03*
X285548Y113313D02*
D03*
X287775Y111086D02*
D03*
X290002Y108859D02*
D03*
X292229Y106632D02*
D03*
X294456Y104405D02*
D03*
X296683Y102178D02*
D03*
X298910Y99951D02*
D03*
X301137Y97724D02*
D03*
X303364Y95496D02*
D03*
D86*
X249636D02*
D03*
X251863Y97724D02*
D03*
X254090Y99951D02*
D03*
X256317Y102178D02*
D03*
X258544Y104405D02*
D03*
X260771Y106632D02*
D03*
X262998Y108859D02*
D03*
X265225Y111086D02*
D03*
X267452Y113313D02*
D03*
X269679Y115540D02*
D03*
X271907Y117767D02*
D03*
X303364Y86309D02*
D03*
X301137Y84082D02*
D03*
X298910Y81855D02*
D03*
X296683Y79628D02*
D03*
X294456Y77401D02*
D03*
X292229Y75174D02*
D03*
X290002Y72947D02*
D03*
X287775Y70720D02*
D03*
X285548Y68493D02*
D03*
X283320Y66266D02*
D03*
X281093Y64038D02*
D03*
D87*
X258000Y18807D02*
D03*
Y32193D02*
D03*
D88*
X238494Y119859D02*
D03*
X243506Y114848D02*
D03*
D89*
X245994Y126995D02*
D03*
X251006Y132006D02*
D03*
D90*
X140740Y95500D02*
D03*
Y90500D02*
D03*
Y85500D02*
D03*
Y80500D02*
D03*
Y75500D02*
D03*
Y70500D02*
D03*
Y65500D02*
D03*
X162000Y95500D02*
D03*
Y90500D02*
D03*
Y85500D02*
D03*
Y80500D02*
D03*
Y75500D02*
D03*
Y70500D02*
D03*
Y65500D02*
D03*
D91*
X225012Y68500D02*
D03*
X213988D02*
D03*
X206012Y68500D02*
D03*
X194988D02*
D03*
D92*
X195000Y88744D02*
D03*
Y94256D02*
D03*
D93*
X210043Y112500D02*
D03*
X202957D02*
D03*
D94*
X148268Y119000D02*
D03*
X181732D02*
D03*
D95*
X121819Y43000D02*
X136500D01*
X105181Y59638D02*
X121819Y43000D01*
X105181Y59638D02*
Y70819D01*
X102000Y74000D02*
X105181Y70819D01*
X110500Y72000D02*
X112402Y70098D01*
Y69000D02*
Y70098D01*
X118228Y59000D02*
X119902D01*
X120858Y59957D01*
X130000D01*
X111650Y59000D02*
X118228D01*
X110000Y60650D02*
X111650Y59000D01*
X110000Y60650D02*
Y66598D01*
X112402Y69000D01*
X118228D01*
X80487Y136000D02*
X81159Y135328D01*
X96894Y84122D02*
X105000D01*
X96772Y84000D02*
X96894Y84122D01*
X132428Y84000D02*
X133928Y85500D01*
X140740D01*
X80500Y59000D02*
X96772D01*
X127500Y57457D02*
X130000Y59957D01*
X127500Y53000D02*
Y57457D01*
X136457Y59957D02*
X136500Y60000D01*
X130000Y59957D02*
X136457D01*
X136500Y43000D02*
Y53705D01*
Y33500D02*
Y43000D01*
X96772Y74000D02*
X102000D01*
X90500Y64000D02*
X96772D01*
X248238Y51000D02*
X258868D01*
X262000Y60859D02*
X264316D01*
X269679Y66223D01*
X258868Y51000D02*
X271907Y64038D01*
X241000Y58238D02*
X248238Y51000D01*
X241000Y58238D02*
Y78000D01*
X153000Y84000D02*
X156500Y80500D01*
X162000D01*
X150500Y73000D02*
Y81020D01*
Y62954D02*
Y73000D01*
X147000Y64205D02*
Y79000D01*
X146201Y85319D02*
X150500Y81020D01*
X141453Y53907D02*
X150500Y62954D01*
X145500Y80500D02*
X147000Y79000D01*
X136500Y53705D02*
X147000Y64205D01*
X140740Y80500D02*
X145500D01*
X135000Y70500D02*
X140740D01*
X131500Y75500D02*
X140740D01*
X196000Y119000D02*
X196145Y118855D01*
X196601D01*
X202957Y112500D01*
X197243D02*
X202957D01*
X181811Y97069D02*
X197243Y112500D01*
X179222Y97069D02*
X181811D01*
X169500Y95500D02*
X174068Y100068D01*
X175850Y93697D02*
X179222Y97069D01*
X175850Y93500D02*
Y93697D01*
X174068Y100068D02*
X180569D01*
X159875Y62500D02*
Y62705D01*
X160047Y62877D01*
Y65319D01*
X160228Y65500D01*
X162000D01*
X180569Y100068D02*
X182650Y102150D01*
X155500Y52546D02*
X172500Y69546D01*
X155500Y20500D02*
Y52546D01*
X171653Y62500D02*
X175654Y66500D01*
X171500Y62500D02*
X171653D01*
X174500Y74500D02*
X175850D01*
X172500Y72500D02*
X174500Y74500D01*
X172500Y69546D02*
Y72500D01*
X122402Y15000D02*
X150000D01*
X117500Y19902D02*
X122402Y15000D01*
X117500Y19902D02*
Y28000D01*
X150000Y15000D02*
X155500Y20500D01*
X117500Y28000D02*
X121846Y32346D01*
X124290D01*
X125443Y33500D01*
X126500D01*
X141453Y28453D02*
Y53907D01*
X136500Y23500D02*
X141453Y28453D01*
X167828Y70500D02*
X169500Y72172D01*
Y82500D01*
X162000Y70500D02*
X167828D01*
X169500Y82500D02*
X171500Y84500D01*
X175134D01*
X169500Y87672D02*
Y95500D01*
X167328Y85500D02*
X169500Y87672D01*
X175700Y80800D02*
X176872Y79628D01*
X175700Y80800D02*
Y84973D01*
X189500Y63000D02*
Y94562D01*
X194994Y68506D02*
Y88738D01*
X185000Y79628D02*
X186500Y81128D01*
X176872Y79628D02*
X185000D01*
X194994Y88738D02*
X195000Y88744D01*
X189500Y94562D02*
X192194Y97256D01*
X214217D01*
X186500Y81128D02*
Y95805D01*
X175654Y85020D02*
X175700Y84973D01*
X194988Y68500D02*
X194994Y68506D01*
X187674Y61174D02*
X189500Y63000D01*
X190951Y100256D02*
X201819D01*
X186500Y95805D02*
X190951Y100256D01*
X175134Y84500D02*
X175654Y85020D01*
X266240Y101000D02*
X270000Y97240D01*
Y88223D02*
Y97240D01*
X263000Y81223D02*
X270000Y88223D01*
X263000Y77448D02*
Y81223D01*
X260771Y75219D02*
X263000Y77448D01*
X260771Y75174D02*
Y75219D01*
X262689Y86000D02*
X263000D01*
X269535Y77535D02*
X270000Y78000D01*
X267027Y80268D02*
Y80473D01*
X269535Y75074D02*
Y77535D01*
X259500Y87223D02*
Y89000D01*
X255855Y91355D02*
X256000Y91500D01*
X252000Y66403D02*
X260771Y75174D01*
X210043Y112500D02*
X212000Y110543D01*
X153150Y106000D02*
X176350D01*
X214217Y97256D02*
X217000Y100039D01*
Y101909D01*
X184384Y126088D02*
X196455D01*
X169000D02*
X184384D01*
Y131374D01*
X184510Y131500D01*
X233000Y118000D02*
Y128277D01*
X241000Y131500D02*
X241205D01*
X245710Y126995D01*
X245994D01*
X233000Y128277D02*
X244650Y139927D01*
Y147000D01*
X201819Y100256D02*
X202000Y100437D01*
Y101909D01*
X199795Y93500D02*
X200000D01*
X199417Y93878D02*
X199795Y93500D01*
X195378Y93878D02*
X199417D01*
X195000Y94256D02*
X195378Y93878D01*
X196455Y126088D02*
X210043Y112500D01*
X165500Y122588D02*
X169000Y126088D01*
X165500Y114000D02*
Y122588D01*
X266000Y75949D02*
Y79241D01*
X262998Y72947D02*
X266000Y75949D01*
Y79241D02*
X267027Y80268D01*
X283320Y79628D02*
Y97724D01*
X292229Y106632D01*
X283320Y79628D02*
X290002Y72947D01*
X80461Y134630D02*
X81159Y135328D01*
X80487Y136000D02*
X81442Y136955D01*
X78898Y139500D02*
X81442Y136955D01*
X66374Y139500D02*
X78898D01*
X66374D02*
Y141874D01*
Y134402D02*
Y139500D01*
X133811Y126657D02*
X135058Y125410D01*
Y111335D02*
Y125410D01*
X132428Y108705D02*
X135058Y111335D01*
X130500Y126657D02*
X133811D01*
X132428Y108500D02*
Y108705D01*
X165500Y114000D02*
X165645Y113855D01*
X168692D01*
X176350Y106197D01*
Y106000D02*
Y106197D01*
X195000Y88744D02*
X203982D01*
X207100Y91862D02*
X231966D01*
X203982Y88744D02*
X207100Y91862D01*
X231966D02*
X234000Y89828D01*
Y84500D02*
Y89828D01*
X231328Y81828D02*
X234000Y84500D01*
X175654Y62847D02*
Y66500D01*
X177326Y61174D02*
X187674D01*
X182650Y102150D02*
Y106000D01*
X217000Y80650D02*
X219500Y78150D01*
Y56000D02*
Y78150D01*
X118228Y69000D02*
X119902D01*
X132428Y96526D02*
Y108500D01*
X119902Y84000D02*
X132428Y96526D01*
X118228Y84000D02*
X119902D01*
X203142Y32098D02*
X208500Y37457D01*
X203142Y12905D02*
Y32098D01*
Y12905D02*
X208500Y7547D01*
X279453Y105500D02*
X286598D01*
X289957Y108859D01*
X290002D01*
X266240Y101000D02*
Y101118D01*
X260771Y106587D02*
X266240Y101118D01*
X260771Y106587D02*
Y106632D01*
X245994Y121408D02*
Y126995D01*
Y121408D02*
X260771Y106632D01*
X238494Y119859D02*
X238859D01*
X245994Y126995D01*
X320500Y69500D02*
X320645Y69355D01*
X326474D01*
X326679Y69150D01*
X140921Y85319D02*
X146201D01*
X140740Y85500D02*
X140921Y85319D01*
X254133Y81855D02*
X259500Y87223D01*
X276953Y77271D02*
X277681Y78000D01*
X254090Y81855D02*
X254133D01*
X256317Y79628D02*
X262689Y86000D01*
X276953Y68179D02*
Y77271D01*
Y68179D02*
X281093Y64038D01*
X283088Y51311D02*
X291878Y60101D01*
Y66572D01*
X287775Y70675D02*
X291878Y66572D01*
X270158Y51311D02*
X283088D01*
X287775Y70675D02*
Y70720D01*
X288086Y61500D02*
X288500D01*
X283320Y66266D02*
X288086Y61500D01*
X285355Y59145D02*
X285500Y59000D01*
X281093Y63994D02*
Y64038D01*
X285355Y59145D02*
Y59732D01*
X281093Y63994D02*
X285355Y59732D01*
X292229Y75174D02*
X302855Y64548D01*
X294456Y77401D02*
X309007Y62850D01*
X304856Y71500D02*
X310053D01*
X296728Y79628D02*
X304856Y71500D01*
X258197Y39350D02*
X270158Y51311D01*
X255855Y88120D02*
Y91355D01*
X251863Y84127D02*
X255855Y88120D01*
X302855Y60859D02*
X303000Y60714D01*
X302855Y60859D02*
Y64548D01*
X326679Y69150D02*
Y94850D01*
X246847Y34347D02*
X251000Y38500D01*
X243803Y34347D02*
X246847D01*
X217524D02*
X219197D01*
X214413Y37457D02*
X217524Y34347D01*
X208500Y37457D02*
X214413D01*
X252000Y55500D02*
Y66403D01*
X258117Y16000D02*
Y18690D01*
X258000Y18807D02*
X258117Y18690D01*
X253117Y11000D02*
X258117Y16000D01*
X241000Y11000D02*
X253117D01*
X243803Y13803D02*
Y34347D01*
X241000Y11000D02*
X243803Y13803D01*
X219197Y34347D02*
X243803D01*
X91984Y134630D02*
X93614Y133000D01*
X80461Y134630D02*
X91984D01*
X76000Y82961D02*
X76185D01*
X82587Y76559D01*
Y76165D02*
Y76559D01*
X30355Y82971D02*
X30500Y83116D01*
X30355Y77084D02*
Y82971D01*
X29437Y76165D02*
X30355Y77084D01*
X30500Y126000D02*
Y134512D01*
X30618Y134630D01*
X114957Y137413D02*
X120543Y143000D01*
X89500D02*
X120543D01*
X87122Y145378D02*
X89500Y143000D01*
X63878Y145378D02*
X87122D01*
X57587Y139087D02*
X63878Y145378D01*
X66374Y141874D02*
X66500Y142000D01*
X66248Y134276D02*
X66374Y134402D01*
X146000Y156000D02*
X146075Y155925D01*
Y147075D02*
Y155925D01*
Y147075D02*
X146150Y147000D01*
X170625Y156000D02*
X170637Y155988D01*
Y147012D02*
Y155988D01*
Y147012D02*
X170650Y147000D01*
X195150D02*
X195250Y147100D01*
Y156000D01*
X219875D02*
X220012Y155863D01*
Y147137D02*
Y155863D01*
Y147137D02*
X220150Y147000D01*
X244500Y147150D02*
X244650Y147000D01*
X244500Y147150D02*
Y156000D01*
X367855Y174645D02*
X368000Y174500D01*
X361702Y174645D02*
X367855D01*
X361500Y174847D02*
X361702Y174645D01*
X265225Y70764D02*
X269535Y75074D01*
X265225Y70720D02*
Y70764D01*
X272855Y74367D02*
X273000Y74512D01*
X272855Y73896D02*
Y74367D01*
X267452Y68493D02*
X272855Y73896D01*
X70500Y120500D02*
X70579Y120579D01*
Y134276D01*
X280500Y74000D02*
X280645Y73855D01*
Y73396D02*
Y73855D01*
Y73396D02*
X285548Y68493D01*
X269679Y66223D02*
Y66266D01*
X296683Y102178D02*
X305030Y110524D01*
X294456Y104405D02*
X303575Y113524D01*
X305030Y110524D02*
X324419D01*
X303575Y113524D02*
X323177D01*
X298000Y91000D02*
X298145Y90855D01*
Y87120D02*
Y90855D01*
Y87120D02*
X301137Y84127D01*
Y84082D02*
Y84127D01*
X294000Y86810D02*
Y87000D01*
Y86810D02*
X298910Y81900D01*
Y81855D02*
Y81900D01*
X313500Y74947D02*
Y97451D01*
X310053Y71500D02*
X313500Y74947D01*
X317199Y101150D02*
X326679D01*
X313500Y97451D02*
X317199Y101150D01*
X309007Y62850D02*
X326679D01*
X341680Y64803D02*
Y65268D01*
X339727Y62850D02*
X341680Y64803D01*
X326679Y62850D02*
X339727D01*
X341680Y98732D02*
Y99197D01*
X339727Y101150D02*
X341680Y99197D01*
X326679Y101150D02*
X339727D01*
X354685Y136547D02*
X385547D01*
X325662Y107524D02*
X354685Y136547D01*
X315392Y107524D02*
X325662D01*
X385547Y136547D02*
X390500Y141500D01*
X323177Y113524D02*
X352000Y142348D01*
X319977Y116524D02*
X335803Y132350D01*
X293213Y116524D02*
X319977D01*
X312977Y119524D02*
X325803Y132350D01*
X291758Y119524D02*
X312977D01*
X305977Y122524D02*
X315803Y132350D01*
X290304Y122524D02*
X305977D01*
X298977Y125524D02*
X305803Y132350D01*
X288850Y125524D02*
X298977D01*
X303364Y95496D02*
X315392Y107524D01*
X324419Y110524D02*
X361500Y147605D01*
X130000Y67043D02*
X131543Y65500D01*
X140740D01*
X258000Y25500D02*
Y32193D01*
X266000Y156000D02*
X270953Y151047D01*
Y143405D02*
Y151047D01*
X266197Y138650D02*
X270953Y143405D01*
X266000Y138650D02*
X266197D01*
X276000Y156000D02*
X280953Y151047D01*
Y143405D02*
Y151047D01*
X276197Y138650D02*
X280953Y143405D01*
X276000Y138650D02*
X276197D01*
X286000Y156000D02*
X290953Y151047D01*
Y143405D02*
Y151047D01*
X286197Y138650D02*
X290953Y143405D01*
X286000Y138650D02*
X286197D01*
X296000Y156000D02*
X300953Y151047D01*
Y143405D02*
Y151047D01*
X296197Y138650D02*
X300953Y143405D01*
X296000Y138650D02*
X296197D01*
X306000Y156000D02*
X310953Y151047D01*
Y143405D02*
Y151047D01*
X306197Y138650D02*
X310953Y143405D01*
X306000Y138650D02*
X306197D01*
X316000Y156000D02*
X320953Y151047D01*
Y143405D02*
Y151047D01*
X316197Y138650D02*
X320953Y143405D01*
X316000Y138650D02*
X316197D01*
X326000Y156000D02*
X330953Y151047D01*
Y143405D02*
Y151047D01*
X326197Y138650D02*
X330953Y143405D01*
X326000Y138650D02*
X326197D01*
X336000Y156000D02*
X340953Y151047D01*
Y143405D02*
Y151047D01*
X336197Y138650D02*
X340953Y143405D01*
X336000Y138650D02*
X336197D01*
X208500Y13453D02*
Y22701D01*
X57587Y134276D02*
Y139087D01*
X85442Y89000D02*
X96772D01*
X61917Y112525D02*
X85442Y89000D01*
X61917Y112525D02*
Y134276D01*
X90000Y79000D02*
X96772D01*
X53256Y115744D02*
X90000Y79000D01*
X53256Y115744D02*
Y134276D01*
X79000Y69000D02*
X96772D01*
X48925Y99075D02*
X79000Y69000D01*
X48925Y99075D02*
Y134276D01*
X202957Y112500D02*
X207000Y108457D01*
Y101909D02*
Y108457D01*
X212000Y101909D02*
Y110543D01*
X153150Y106000D02*
X153921Y105228D01*
Y101807D02*
Y105228D01*
Y101807D02*
X160228Y95500D01*
X162000D01*
X175654Y62847D02*
X177326Y61174D01*
X182150Y93500D02*
X182248Y93402D01*
Y85118D02*
Y93402D01*
Y85118D02*
X182346Y85020D01*
X182150Y74500D02*
X182248Y74402D01*
Y66598D02*
Y74402D01*
Y66598D02*
X182346Y66500D01*
X162000Y85500D02*
X167328D01*
X146850Y99150D02*
Y106000D01*
Y99150D02*
X155500Y90500D01*
X162000D01*
X146850Y117583D02*
X148268Y119000D01*
X146850Y106000D02*
Y117583D01*
X181732Y119000D02*
X182650Y118083D01*
Y106000D02*
Y118083D01*
X227818Y81828D02*
X231328D01*
X227000Y81010D02*
X227818Y81828D01*
X207577Y88097D02*
X227000D01*
X202000Y82520D02*
X207577Y88097D01*
X202000Y80650D02*
Y82520D01*
X225882Y79892D02*
X227000Y81010D01*
X225882Y69370D02*
Y79892D01*
X225012Y68500D02*
X225882Y69370D01*
X213988Y68500D02*
Y74512D01*
X212000Y76500D02*
X213988Y74512D01*
X212000Y76500D02*
Y80650D01*
X206819Y80468D02*
X207000Y80650D01*
X206819Y69307D02*
Y80468D01*
X206012Y68500D02*
X206819Y69307D01*
X198934Y58174D02*
X206012Y65252D01*
X182450Y58174D02*
X198934D01*
X213988Y65252D02*
Y68500D01*
X199555Y50819D02*
X213988Y65252D01*
X186906Y50819D02*
X199555D01*
X175094D02*
X182450Y58174D01*
X206012Y65252D02*
Y68500D01*
X251863Y84082D02*
Y84127D01*
X161500Y136500D02*
X196757D01*
X248238Y85020D01*
X248346D01*
X249636Y86309D01*
X151000Y147000D02*
X161500Y136500D01*
X146150Y147000D02*
X151000D01*
X203142Y44543D02*
X208500D01*
X197598Y39000D02*
X203142Y44543D01*
X186906Y39000D02*
X197598D01*
X219197Y25291D02*
X219756Y24732D01*
Y14232D02*
Y24732D01*
Y14232D02*
X222988Y11000D01*
X223087D01*
X217524Y25291D02*
X219197D01*
X213815Y29000D02*
X217524Y25291D01*
X208500Y29000D02*
X213815D01*
X218626Y43973D02*
X219197Y43402D01*
X209071Y43973D02*
X218626D01*
X208500Y44543D02*
X209071Y43973D01*
X112577Y108132D02*
X114957D01*
X98445Y94000D02*
X112577Y108132D01*
X96772Y94000D02*
X98445D01*
X96945Y108132D02*
X97043D01*
X93713Y111364D02*
X96945Y108132D01*
X93713Y111364D02*
Y132902D01*
X93614Y133000D02*
X93713Y132902D01*
X114957Y108132D02*
Y137413D01*
X129827Y127331D02*
X130500Y126657D01*
X126842Y127331D02*
X129827D01*
X121173Y133000D02*
X126842Y127331D01*
X120386Y133000D02*
X121173D01*
X120386Y123945D02*
X121173D01*
X123776Y121343D01*
X130500D01*
X246610Y98478D02*
X249591Y95496D01*
X249636D01*
X239022Y98478D02*
X246610D01*
X198000Y139500D02*
X239022Y98478D01*
X177953Y139500D02*
X198000D01*
X170650Y146803D02*
X177953Y139500D01*
X170650Y146803D02*
Y147000D01*
X220150Y126608D02*
Y147000D01*
Y126608D02*
X242280Y104478D01*
X249518D01*
X254045Y99951D01*
X248064Y101478D02*
X251818Y97724D01*
X240475Y101478D02*
X248064D01*
X195150Y146803D02*
X240475Y101478D01*
X243523Y107477D02*
X251017D01*
X247876Y110477D02*
X252471D01*
X243506Y114848D02*
X247876Y110477D01*
X233000Y118000D02*
X243523Y107477D01*
X254045Y99951D02*
X254090D01*
X251818Y97724D02*
X251863D01*
X252471Y110477D02*
X258544Y104405D01*
X195150Y146803D02*
Y147000D01*
X251017Y107477D02*
X256317Y102178D01*
X258000Y39350D02*
X258197D01*
X258000Y32193D02*
Y39350D01*
X271907Y117767D02*
X274824Y120685D01*
X278381D01*
X286220Y128524D01*
X291977D01*
X295803Y132350D01*
X296000D01*
X257588Y114269D02*
X262998Y108859D01*
X257588Y114269D02*
Y125810D01*
X260771Y115585D02*
X265225Y111131D01*
X260771Y115585D02*
Y123271D01*
X263771Y116995D02*
X267452Y113313D01*
X263771Y116995D02*
Y122028D01*
X266771Y118449D02*
X269679Y115540D01*
X266771Y118449D02*
Y120786D01*
X269670Y123685D01*
X277138D01*
X274093Y132350D02*
X276000D01*
X263771Y122028D02*
X274093Y132350D01*
X266000Y128500D02*
Y132350D01*
X260771Y123271D02*
X266000Y128500D01*
X277138Y123685D02*
X285803Y132350D01*
X286000D01*
X265225Y111086D02*
Y111131D01*
X257256Y125949D02*
X257449D01*
X251199Y132006D02*
X257256Y125949D01*
X251006Y132006D02*
X251199D01*
X257449Y125949D02*
X257588Y125810D01*
X296683Y79628D02*
X296728D01*
X352000Y174847D02*
X361500D01*
X352000Y158799D02*
Y168154D01*
X361500Y158799D02*
Y168154D01*
Y147605D02*
Y152500D01*
X352000Y142348D02*
Y152500D01*
X287775Y111086D02*
X293213Y116524D01*
X335803Y132350D02*
X336000D01*
X285548Y113313D02*
X291758Y119524D01*
X325803Y132350D02*
X326000D01*
X283320Y115540D02*
X290304Y122524D01*
X315803Y132350D02*
X316000D01*
X281093Y117767D02*
X288850Y125524D01*
X305803Y132350D02*
X306000D01*
D96*
X11484Y60398D02*
D03*
X385500D02*
D03*
Y172602D02*
D03*
D97*
X11484D02*
D03*
D98*
X380500Y81500D02*
D03*
D99*
X390500D02*
D03*
X380500Y91500D02*
D03*
X390500D02*
D03*
X380500Y101500D02*
D03*
X390500D02*
D03*
X380500Y111500D02*
D03*
X390500D02*
D03*
X380500Y121500D02*
D03*
X390500D02*
D03*
X380500Y131500D02*
D03*
X390500D02*
D03*
X380500Y141500D02*
D03*
X390500D02*
D03*
X380500Y151500D02*
D03*
X390500D02*
D03*
D100*
X336000Y156000D02*
D03*
X52000D02*
D03*
X86500D02*
D03*
X121000D02*
D03*
X146000D02*
D03*
X170625D02*
D03*
X195250D02*
D03*
X219875D02*
D03*
X244500D02*
D03*
X126500Y23500D02*
D03*
D101*
X336000Y146000D02*
D03*
X326000Y156000D02*
D03*
Y146000D02*
D03*
X316000Y156000D02*
D03*
Y146000D02*
D03*
X306000Y156000D02*
D03*
Y146000D02*
D03*
X296000Y156000D02*
D03*
Y146000D02*
D03*
X286000Y156000D02*
D03*
Y146000D02*
D03*
X276000Y156000D02*
D03*
Y146000D02*
D03*
X266000Y156000D02*
D03*
Y146000D02*
D03*
X42000Y156000D02*
D03*
X32000D02*
D03*
X76500D02*
D03*
X66500D02*
D03*
X111000D02*
D03*
X101000D02*
D03*
X136000D02*
D03*
X160625D02*
D03*
X185250D02*
D03*
X209875D02*
D03*
X234500D02*
D03*
X126500Y33500D02*
D03*
X136500Y23500D02*
D03*
Y33500D02*
D03*
X146500Y23500D02*
D03*
Y33500D02*
D03*
X273500D02*
D03*
D102*
X186906Y39000D02*
D03*
X175094D02*
D03*
X186906Y50819D02*
D03*
X175094D02*
D03*
D103*
X273500Y23500D02*
D03*
D104*
X110500Y72000D02*
D03*
X105000Y84122D02*
D03*
X132428Y84000D02*
D03*
X80500Y59000D02*
D03*
X127500Y53000D02*
D03*
X136500Y60000D02*
D03*
X90500Y64000D02*
D03*
X262000Y60859D02*
D03*
X241000Y78000D02*
D03*
X153000Y84000D02*
D03*
X150500Y73000D02*
D03*
X135000Y70500D02*
D03*
X225012Y102178D02*
D03*
X196000Y119000D02*
D03*
X159875Y62500D02*
D03*
X171500D02*
D03*
X263000Y86000D02*
D03*
X270000Y78000D02*
D03*
X267027Y80473D02*
D03*
X259500Y89000D02*
D03*
X256000Y91500D02*
D03*
X184510Y131500D02*
D03*
X241000D02*
D03*
X200000Y93500D02*
D03*
X165500Y114000D02*
D03*
X219500Y56000D02*
D03*
X132428Y108500D02*
D03*
X279453Y105500D02*
D03*
X266240Y101000D02*
D03*
X320500Y69500D02*
D03*
X277681Y78000D02*
D03*
X288500Y61500D02*
D03*
X285500Y59000D02*
D03*
X303000Y60714D02*
D03*
X251000Y38500D02*
D03*
X252000Y55500D02*
D03*
X76000Y82961D02*
D03*
X30500Y83116D02*
D03*
Y126000D02*
D03*
X66500Y142000D02*
D03*
X368000Y174500D02*
D03*
X70500Y120500D02*
D03*
X273000Y74512D02*
D03*
X280500Y74000D02*
D03*
X298000Y91000D02*
D03*
X294000Y87000D02*
D03*
X131500Y75500D02*
D03*
X258000Y25500D02*
D03*
M02*
