G04*
G04 #@! TF.GenerationSoftware,Altium Limited,Altium Designer,19.0.15 (446)*
G04*
G04 Layer_Color=32896*
%FSLAX25Y25*%
%MOIN*%
G70*
G01*
G75*
%ADD10C,0.01000*%
D10*
X244001Y112998D02*
X245001Y113998D01*
X247000D01*
X248000Y112998D01*
Y111999D01*
X247000Y110999D01*
X245001D01*
X244001Y109999D01*
Y109000D01*
X245001Y108000D01*
X247000D01*
X248000Y109000D01*
X241002Y112998D02*
Y111999D01*
X242002D01*
X240003D01*
X241002D01*
Y109000D01*
X240003Y108000D01*
X234004D02*
X236004D01*
X237004Y109000D01*
Y110999D01*
X236004Y111999D01*
X234004D01*
X233005Y110999D01*
Y109999D01*
X237004D01*
X228007Y108000D02*
X230006D01*
X231006Y109000D01*
Y110999D01*
X230006Y111999D01*
X228007D01*
X227007Y110999D01*
Y109999D01*
X231006D01*
X225008Y111999D02*
Y108000D01*
Y109999D01*
X224008Y110999D01*
X223008Y111999D01*
X222008D01*
X219009Y108000D02*
X217010D01*
X218010D01*
Y111999D01*
X219009D01*
X214011Y108000D02*
Y111999D01*
X211012D01*
X210012Y110999D01*
Y108000D01*
X206014Y106001D02*
X205014D01*
X204014Y107000D01*
Y111999D01*
X207013D01*
X208013Y110999D01*
Y109000D01*
X207013Y108000D01*
X204014D01*
X196017Y113998D02*
Y108000D01*
X194018Y109999D01*
X192018Y108000D01*
Y113998D01*
X190019D02*
Y108000D01*
Y110999D01*
X189019Y111999D01*
X187020D01*
X186020Y110999D01*
Y108000D01*
X181022D02*
X183021D01*
X184021Y109000D01*
Y110999D01*
X183021Y111999D01*
X181022D01*
X180022Y110999D01*
Y109999D01*
X184021D01*
X175024Y108000D02*
X177023D01*
X178023Y109000D01*
Y110999D01*
X177023Y111999D01*
X175024D01*
X174024Y110999D01*
Y109999D01*
X178023D01*
X172025Y108000D02*
X170025D01*
X171025D01*
Y113998D01*
X172025D01*
X161028D02*
Y109999D01*
X159029Y108000D01*
X157029Y109999D01*
Y113998D01*
X155030D02*
X151031D01*
Y112998D01*
X155030Y109000D01*
Y108000D01*
X244001Y120000D02*
Y123998D01*
X245001Y124998D01*
X247000D01*
X248000Y123998D01*
Y120000D01*
X247000Y119000D01*
X245001D01*
X246001Y120999D02*
X244001Y119000D01*
X245001D02*
X244001Y120000D01*
X242002Y124998D02*
Y120000D01*
X241002Y119000D01*
X239003D01*
X238003Y120000D01*
Y124998D01*
X236004D02*
X232005D01*
X234004D01*
Y119000D01*
X224008D02*
Y124998D01*
X222008Y122999D01*
X220009Y124998D01*
Y119000D01*
X217010D02*
X215011D01*
X214011Y120000D01*
Y121999D01*
X215011Y122999D01*
X217010D01*
X218010Y121999D01*
Y120000D01*
X217010Y119000D01*
X211012Y123998D02*
Y122999D01*
X212012D01*
X210012D01*
X211012D01*
Y120000D01*
X210012Y119000D01*
X206014D02*
X204014D01*
X203015Y120000D01*
Y121999D01*
X204014Y122999D01*
X206014D01*
X207013Y121999D01*
Y120000D01*
X206014Y119000D01*
X201015Y122999D02*
Y119000D01*
Y120999D01*
X200015Y121999D01*
X199016Y122999D01*
X198016D01*
X195017Y119000D02*
X192018D01*
X191018Y120000D01*
X192018Y120999D01*
X194018D01*
X195017Y121999D01*
X194018Y122999D01*
X191018D01*
X189019Y117001D02*
Y122999D01*
X186020D01*
X185020Y121999D01*
Y120000D01*
X186020Y119000D01*
X189019D01*
X182021D02*
X180022D01*
X179022Y120000D01*
Y121999D01*
X180022Y122999D01*
X182021D01*
X183021Y121999D01*
Y120000D01*
X182021Y119000D01*
X177023Y122999D02*
Y119000D01*
Y120999D01*
X176023Y121999D01*
X175024Y122999D01*
X174024D01*
X170025Y123998D02*
Y122999D01*
X171025D01*
X169026D01*
X170025D01*
Y120000D01*
X169026Y119000D01*
X244001Y96000D02*
X248000D01*
X244001Y99999D01*
Y100998D01*
X245001Y101998D01*
X247000D01*
X248000Y100998D01*
X242002D02*
X241002Y101998D01*
X239003D01*
X238003Y100998D01*
Y97000D01*
X239003Y96000D01*
X241002D01*
X242002Y97000D01*
Y100998D01*
X236004Y96000D02*
X234004D01*
X235004D01*
Y101998D01*
X236004Y100998D01*
X231006Y97000D02*
X230006Y96000D01*
X228007D01*
X227007Y97000D01*
Y100998D01*
X228007Y101998D01*
X230006D01*
X231006Y100998D01*
Y99999D01*
X230006Y98999D01*
X227007D01*
X219009Y96000D02*
Y101998D01*
X216010D01*
X215011Y100998D01*
Y98999D01*
X216010Y97999D01*
X219009D01*
X217010D02*
X215011Y96000D01*
X210012D02*
X212012D01*
X213011Y97000D01*
Y98999D01*
X212012Y99999D01*
X210012D01*
X209013Y98999D01*
Y97999D01*
X213011D01*
X207013Y99999D02*
X205014Y96000D01*
X203015Y99999D01*
X195017Y96000D02*
Y99999D01*
X193018Y101998D01*
X191018Y99999D01*
Y96000D01*
Y98999D01*
X195017D01*
M02*
