G04*
G04 #@! TF.GenerationSoftware,Altium Limited,Altium Designer,19.0.15 (446)*
G04*
G04 Layer_Color=8388736*
%FSLAX25Y25*%
%MOIN*%
G70*
G01*
G75*
%ADD23R,0.03162X0.06902*%
G04:AMPARAMS|DCode=24|XSize=43.43mil|YSize=39.5mil|CornerRadius=0mil|HoleSize=0mil|Usage=FLASHONLY|Rotation=315.000|XOffset=0mil|YOffset=0mil|HoleType=Round|Shape=Rectangle|*
%AMROTATEDRECTD24*
4,1,4,-0.02932,0.00139,-0.00139,0.02932,0.02932,-0.00139,0.00139,-0.02932,-0.02932,0.00139,0.0*
%
%ADD24ROTATEDRECTD24*%

%ADD25R,0.03950X0.07414*%
%ADD26R,0.06706X0.07493*%
%ADD27R,0.05879X0.06312*%
%ADD28R,0.05879X0.05918*%
%ADD29R,0.07099X0.06706*%
%ADD30R,0.07493X0.06706*%
G04:AMPARAMS|DCode=31|XSize=31.62mil|YSize=65.09mil|CornerRadius=6.01mil|HoleSize=0mil|Usage=FLASHONLY|Rotation=90.000|XOffset=0mil|YOffset=0mil|HoleType=Round|Shape=RoundedRectangle|*
%AMROUNDEDRECTD31*
21,1,0.03162,0.05307,0,0,90.0*
21,1,0.01961,0.06509,0,0,90.0*
1,1,0.01202,0.02653,0.00980*
1,1,0.01202,0.02653,-0.00980*
1,1,0.01202,-0.02653,-0.00980*
1,1,0.01202,-0.02653,0.00980*
%
%ADD31ROUNDEDRECTD31*%
G04:AMPARAMS|DCode=32|XSize=133.98mil|YSize=76.9mil|CornerRadius=6.07mil|HoleSize=0mil|Usage=FLASHONLY|Rotation=90.000|XOffset=0mil|YOffset=0mil|HoleType=Round|Shape=RoundedRectangle|*
%AMROUNDEDRECTD32*
21,1,0.13398,0.06476,0,0,90.0*
21,1,0.12185,0.07690,0,0,90.0*
1,1,0.01213,0.03238,0.06093*
1,1,0.01213,0.03238,-0.06093*
1,1,0.01213,-0.03238,-0.06093*
1,1,0.01213,-0.03238,0.06093*
%
%ADD32ROUNDEDRECTD32*%
G04:AMPARAMS|DCode=33|XSize=43.43mil|YSize=76.9mil|CornerRadius=5.95mil|HoleSize=0mil|Usage=FLASHONLY|Rotation=90.000|XOffset=0mil|YOffset=0mil|HoleType=Round|Shape=RoundedRectangle|*
%AMROUNDEDRECTD33*
21,1,0.04343,0.06500,0,0,90.0*
21,1,0.03154,0.07690,0,0,90.0*
1,1,0.01190,0.03250,0.01577*
1,1,0.01190,0.03250,-0.01577*
1,1,0.01190,-0.03250,-0.01577*
1,1,0.01190,-0.03250,0.01577*
%
%ADD33ROUNDEDRECTD33*%
%ADD34R,0.04737X0.04343*%
%ADD35R,0.09461X0.09265*%
%ADD36R,0.05131X0.05131*%
%ADD37R,0.03950X0.03950*%
%ADD38R,0.06312X0.04737*%
%ADD39R,0.06312X0.13595*%
%ADD40R,0.04540X0.04147*%
%ADD41R,0.04343X0.04737*%
%ADD42R,0.03937X0.03937*%
%ADD43R,0.06706X0.22453*%
G04:AMPARAMS|DCode=44|XSize=29.65mil|YSize=76.9mil|CornerRadius=0mil|HoleSize=0mil|Usage=FLASHONLY|Rotation=135.000|XOffset=0mil|YOffset=0mil|HoleType=Round|Shape=Round|*
%AMOVALD44*
21,1,0.04724,0.02965,0.00000,0.00000,225.0*
1,1,0.02965,0.01670,0.01670*
1,1,0.02965,-0.01670,-0.01670*
%
%ADD44OVALD44*%

G04:AMPARAMS|DCode=45|XSize=29.65mil|YSize=76.9mil|CornerRadius=0mil|HoleSize=0mil|Usage=FLASHONLY|Rotation=225.000|XOffset=0mil|YOffset=0mil|HoleType=Round|Shape=Round|*
%AMOVALD45*
21,1,0.04724,0.02965,0.00000,0.00000,315.0*
1,1,0.02965,-0.01670,0.01670*
1,1,0.02965,0.01670,-0.01670*
%
%ADD45OVALD45*%

%ADD46R,0.07493X0.03950*%
%ADD47P,0.07256X4X90.0*%
%ADD48P,0.07256X4X180.0*%
%ADD49R,0.06706X0.03162*%
%ADD50R,0.04540X0.11036*%
%ADD51R,0.04343X0.03556*%
%ADD52R,0.03937X0.03937*%
%ADD53R,0.05131X0.05131*%
%ADD54R,0.22453X0.06706*%
%ADD55C,0.18517*%
%ADD56O,0.18517X0.18517*%
%ADD57R,0.06706X0.06706*%
%ADD58C,0.06706*%
%ADD59R,0.06706X0.06706*%
%ADD60C,0.06706*%
%ADD61C,0.13811*%
%ADD62C,0.08800*%
%ADD63R,0.06706X0.06706*%
%ADD64C,0.03556*%
D23*
X217000Y101909D02*
D03*
X212000D02*
D03*
X207000D02*
D03*
X202000D02*
D03*
X217000Y80650D02*
D03*
X212000D02*
D03*
X207000D02*
D03*
X202000D02*
D03*
D24*
X257449Y125949D02*
D03*
X253551Y122051D02*
D03*
D25*
X74910Y134276D02*
D03*
X70579D02*
D03*
X66248D02*
D03*
X61917D02*
D03*
X57587D02*
D03*
X53256D02*
D03*
X48925D02*
D03*
X44594D02*
D03*
D26*
X29437Y76165D02*
D03*
X82587D02*
D03*
D27*
X83000Y99000D02*
D03*
D28*
Y128134D02*
D03*
D29*
X80461Y134630D02*
D03*
D30*
X30618D02*
D03*
D31*
X96772Y94000D02*
D03*
Y89000D02*
D03*
Y84000D02*
D03*
Y79000D02*
D03*
Y74000D02*
D03*
Y69000D02*
D03*
Y64000D02*
D03*
Y59000D02*
D03*
X118228Y94000D02*
D03*
Y89000D02*
D03*
Y84000D02*
D03*
Y79000D02*
D03*
Y74000D02*
D03*
Y69000D02*
D03*
Y64000D02*
D03*
Y59000D02*
D03*
D32*
X243803Y34347D02*
D03*
D33*
X219197Y25291D02*
D03*
Y34347D02*
D03*
Y43402D02*
D03*
D34*
X208500Y29000D02*
D03*
Y22701D02*
D03*
X352000Y152500D02*
D03*
Y158799D02*
D03*
X361500Y152500D02*
D03*
Y158799D02*
D03*
X326679Y62850D02*
D03*
Y69150D02*
D03*
Y94850D02*
D03*
Y101150D02*
D03*
X258000Y45650D02*
D03*
Y39350D02*
D03*
X336000Y132350D02*
D03*
Y138650D02*
D03*
X326000Y132350D02*
D03*
Y138650D02*
D03*
X316000Y132350D02*
D03*
Y138650D02*
D03*
X306000Y132350D02*
D03*
Y138650D02*
D03*
X296000Y132350D02*
D03*
Y138650D02*
D03*
X286000Y132350D02*
D03*
Y138650D02*
D03*
X276000Y132350D02*
D03*
Y138650D02*
D03*
X266000Y132350D02*
D03*
Y138650D02*
D03*
D35*
X223087Y11000D02*
D03*
X241000D02*
D03*
X114957Y108132D02*
D03*
X97043D02*
D03*
D36*
X208500Y37457D02*
D03*
Y44543D02*
D03*
X227000Y81010D02*
D03*
Y88097D02*
D03*
X130000Y59957D02*
D03*
Y67043D02*
D03*
D37*
X208500Y13453D02*
D03*
Y7547D02*
D03*
D38*
X120386Y123945D02*
D03*
Y133000D02*
D03*
Y142055D02*
D03*
D39*
X93614Y133000D02*
D03*
D40*
X130500Y121343D02*
D03*
Y126657D02*
D03*
D41*
X244650Y147000D02*
D03*
X238350D02*
D03*
X220150D02*
D03*
X213850D02*
D03*
X195150D02*
D03*
X188850D02*
D03*
X170650D02*
D03*
X164350D02*
D03*
X146150D02*
D03*
X139850D02*
D03*
X182150Y93500D02*
D03*
X175850D02*
D03*
X182150Y74500D02*
D03*
X175850D02*
D03*
X182650Y106000D02*
D03*
X176350D02*
D03*
X153150D02*
D03*
X146850D02*
D03*
D42*
X352000Y168154D02*
D03*
Y174847D02*
D03*
X361500Y168154D02*
D03*
Y174847D02*
D03*
D43*
X341680Y98732D02*
D03*
Y65268D02*
D03*
D44*
X271907Y64038D02*
D03*
X269679Y66266D02*
D03*
X267452Y68493D02*
D03*
X265225Y70720D02*
D03*
X262998Y72947D02*
D03*
X260771Y75174D02*
D03*
X258544Y77401D02*
D03*
X256317Y79628D02*
D03*
X254090Y81855D02*
D03*
X251863Y84082D02*
D03*
X249636Y86309D02*
D03*
X281093Y117767D02*
D03*
X283320Y115540D02*
D03*
X285548Y113313D02*
D03*
X287775Y111086D02*
D03*
X290002Y108859D02*
D03*
X292229Y106632D02*
D03*
X294456Y104405D02*
D03*
X296683Y102178D02*
D03*
X298910Y99951D02*
D03*
X301137Y97724D02*
D03*
X303364Y95496D02*
D03*
D45*
X249636D02*
D03*
X251863Y97724D02*
D03*
X254090Y99951D02*
D03*
X256317Y102178D02*
D03*
X258544Y104405D02*
D03*
X260771Y106632D02*
D03*
X262998Y108859D02*
D03*
X265225Y111086D02*
D03*
X267452Y113313D02*
D03*
X269679Y115540D02*
D03*
X271907Y117767D02*
D03*
X303364Y86309D02*
D03*
X301137Y84082D02*
D03*
X298910Y81855D02*
D03*
X296683Y79628D02*
D03*
X294456Y77401D02*
D03*
X292229Y75174D02*
D03*
X290002Y72947D02*
D03*
X287775Y70720D02*
D03*
X285548Y68493D02*
D03*
X283320Y66266D02*
D03*
X281093Y64038D02*
D03*
D46*
X258000Y18807D02*
D03*
Y32193D02*
D03*
D47*
X238494Y119859D02*
D03*
X243506Y114848D02*
D03*
D48*
X245994Y126995D02*
D03*
X251006Y132006D02*
D03*
D49*
X140740Y95500D02*
D03*
Y90500D02*
D03*
Y85500D02*
D03*
Y80500D02*
D03*
Y75500D02*
D03*
Y70500D02*
D03*
Y65500D02*
D03*
X162000Y95500D02*
D03*
Y90500D02*
D03*
Y85500D02*
D03*
Y80500D02*
D03*
Y75500D02*
D03*
Y70500D02*
D03*
Y65500D02*
D03*
D50*
X225012Y68500D02*
D03*
X213988D02*
D03*
X206012Y68500D02*
D03*
X194988D02*
D03*
D51*
X195000Y88744D02*
D03*
Y94256D02*
D03*
D52*
X182346Y85020D02*
D03*
X175654D02*
D03*
X182346Y66500D02*
D03*
X175654D02*
D03*
D53*
X210043Y112500D02*
D03*
X202957D02*
D03*
D54*
X148268Y119000D02*
D03*
X181732D02*
D03*
D55*
X11484Y60398D02*
D03*
X385500D02*
D03*
Y172602D02*
D03*
D56*
X11484D02*
D03*
D57*
X380500Y81500D02*
D03*
D58*
X390500D02*
D03*
X380500Y91500D02*
D03*
X390500D02*
D03*
X380500Y101500D02*
D03*
X390500D02*
D03*
X380500Y111500D02*
D03*
X390500D02*
D03*
X380500Y121500D02*
D03*
X390500D02*
D03*
X380500Y131500D02*
D03*
X390500D02*
D03*
X380500Y141500D02*
D03*
X390500D02*
D03*
X380500Y151500D02*
D03*
X390500D02*
D03*
D59*
X336000Y156000D02*
D03*
X52000D02*
D03*
X86500D02*
D03*
X121000D02*
D03*
X146000D02*
D03*
X170625D02*
D03*
X195250D02*
D03*
X219875D02*
D03*
X244500D02*
D03*
X126500Y23500D02*
D03*
D60*
X336000Y146000D02*
D03*
X326000Y156000D02*
D03*
Y146000D02*
D03*
X316000Y156000D02*
D03*
Y146000D02*
D03*
X306000Y156000D02*
D03*
Y146000D02*
D03*
X296000Y156000D02*
D03*
Y146000D02*
D03*
X286000Y156000D02*
D03*
Y146000D02*
D03*
X276000Y156000D02*
D03*
Y146000D02*
D03*
X266000Y156000D02*
D03*
Y146000D02*
D03*
X42000Y156000D02*
D03*
X32000D02*
D03*
X76500D02*
D03*
X66500D02*
D03*
X111000D02*
D03*
X101000D02*
D03*
X136000D02*
D03*
X160625D02*
D03*
X185250D02*
D03*
X209875D02*
D03*
X234500D02*
D03*
X126500Y33500D02*
D03*
X136500Y23500D02*
D03*
Y33500D02*
D03*
X146500Y23500D02*
D03*
Y33500D02*
D03*
X273500D02*
D03*
D61*
X181000Y22000D02*
D03*
D62*
X186906Y39000D02*
D03*
X175094D02*
D03*
X186906Y50819D02*
D03*
X175094D02*
D03*
D63*
X273500Y23500D02*
D03*
D64*
X110500Y72000D02*
D03*
X105000Y84122D02*
D03*
X132428Y84000D02*
D03*
X80500Y59000D02*
D03*
X127500Y53000D02*
D03*
X136500Y60000D02*
D03*
X90500Y64000D02*
D03*
X262000Y60859D02*
D03*
X241000Y78000D02*
D03*
X153000Y84000D02*
D03*
X150500Y73000D02*
D03*
X135000Y70500D02*
D03*
X225012Y102178D02*
D03*
X196000Y119000D02*
D03*
X159875Y62500D02*
D03*
X171500D02*
D03*
X263000Y86000D02*
D03*
X270000Y78000D02*
D03*
X267027Y80473D02*
D03*
X259500Y89000D02*
D03*
X256000Y91500D02*
D03*
X184510Y131500D02*
D03*
X241000D02*
D03*
X200000Y93500D02*
D03*
X165500Y114000D02*
D03*
X219500Y56000D02*
D03*
X132428Y108500D02*
D03*
X279453Y105500D02*
D03*
X266240Y101000D02*
D03*
X320500Y69500D02*
D03*
X277681Y78000D02*
D03*
X288500Y61500D02*
D03*
X285500Y59000D02*
D03*
X303000Y60714D02*
D03*
X251000Y38500D02*
D03*
X252000Y55500D02*
D03*
X76000Y82961D02*
D03*
X30500Y83116D02*
D03*
Y126000D02*
D03*
X66500Y142000D02*
D03*
X368000Y174500D02*
D03*
X70500Y120500D02*
D03*
X273000Y74512D02*
D03*
X280500Y74000D02*
D03*
X298000Y91000D02*
D03*
X294000Y87000D02*
D03*
X131500Y75500D02*
D03*
X258000Y25500D02*
D03*
M02*
