M48
;Layer_Color=9474304
;FILE_FORMAT=2:5
INCH,TZ
;TYPE=PLATED
T1F00S00C0.01181
T2F00S00C0.03543
T3F00S00C0.04000
T4F00S00C0.11811
;TYPE=NON_PLATED
T5F00S00C0.12598
%
T01
X30500Y83116
Y126000
X70500Y120500
X66500Y142000
X76000Y82961
X80500Y59000
X90500Y64000
X110500Y72000
X105000Y84122
X132428Y84000
X131500Y75500
X135000Y70500
X136500Y60000
X127500Y53000
X150500Y73000
X153000Y84000
X132428Y108500
X165500Y114000
X196000Y119000
X184510Y131500
X200000Y93500
X225012Y102178
X241000Y78000
X267027Y80473
X270000Y78000
X273000Y74512
X280500Y74000
X277681Y78000
X263000Y86000
X259500Y89000
X256000Y91500
X266240Y101000
X279453Y105500
X298000Y91000
X294000Y87000
X288500Y61500
X285500Y59000
X303000Y60714
X262000Y60859
X252000Y55500
X251000Y38500
X258000Y25500
X219500Y56000
X171500Y62500
X159875
X241000Y131500
X320500Y69500
X368000Y174500
T02
X126500Y23500
Y33500
X136500
Y23500
X146500
Y33500
X146000Y156000
X136000
X121000
X111000
X101000
X86500
X76500
X66500
X52000
X42000
X32000
X160625
X170625
X185250
X195250
X209875
X219875
X234500
X244500
X266000
X276000
X286000
X296000
X306000
Y146000
X296000
X286000
X276000
X266000
X273500Y33500
Y23500
X316000Y146000
X326000
X336000
Y156000
X326000
X316000
X380500Y151500
Y141500
Y131500
Y121500
Y111500
Y101500
Y91500
Y81500
X390500
Y91500
Y101500
Y111500
Y121500
Y131500
Y141500
Y151500
T03
X175094Y39000
X186906
Y50819
X175094
T04
X181000Y22000
T05
X11484Y60398
X385500
Y172602
X11484
M30
