G04*
G04 #@! TF.GenerationSoftware,Altium Limited,Altium Designer,19.0.15 (446)*
G04*
G04 Layer_Color=65535*
%FSLAX25Y25*%
%MOIN*%
G70*
G01*
G75*
%ADD10C,0.01000*%
%ADD11C,0.00787*%
%ADD12C,0.00984*%
%ADD13C,0.02362*%
%ADD14C,0.00800*%
%ADD15C,0.01575*%
%ADD16C,0.00600*%
%ADD17R,0.00650X0.02300*%
%ADD18R,0.06700X0.01800*%
%ADD19R,0.00730X0.02560*%
%ADD20R,0.02300X0.00650*%
%ADD21R,0.01800X0.06700*%
%ADD22R,0.02560X0.00730*%
D10*
X219500Y92529D02*
X218616Y92163D01*
X218250Y91280D01*
X218616Y90396D01*
X219500Y90030D01*
X152620Y63000D02*
X152254Y63884D01*
X151370Y64250D01*
X150486Y63884D01*
X150120Y63000D01*
X219500Y92529D02*
Y95358D01*
Y87201D02*
Y90030D01*
X199500Y87201D02*
X219500D01*
X199500D02*
Y95358D01*
X221500Y97409D02*
Y97909D01*
X199500Y95358D02*
X204500D01*
X214500D02*
X219500D01*
X204500D02*
X214500D01*
X141000Y13500D02*
Y18000D01*
X131500Y13500D02*
X141000D01*
X131500D02*
Y18000D01*
X162000Y4000D02*
X200000D01*
X169189Y59000D02*
X192811D01*
X200000Y4000D02*
Y43000D01*
X162000Y4000D02*
Y43000D01*
X155547Y63000D02*
Y98000D01*
X147193D02*
X155547D01*
X147193Y63000D02*
Y98000D01*
Y63000D02*
X150120D01*
X152620D02*
X155547D01*
X159000Y62500D02*
X159500D01*
X144500Y127000D02*
X185000D01*
X144500Y111000D02*
X185000D01*
X374498Y123501D02*
Y125500D01*
X373498Y126500D01*
X369500D01*
X368500Y125500D01*
Y123501D01*
X369500Y122501D01*
X373498D01*
X374498Y123501D01*
Y120502D02*
X368500D01*
Y116503D01*
X374498Y110505D02*
Y114504D01*
X368500D01*
Y110505D01*
X371499Y114504D02*
Y112504D01*
X374498Y108506D02*
X368500D01*
Y105507D01*
X369500Y104507D01*
X373498D01*
X374498Y105507D01*
Y108506D01*
X360498Y103000D02*
X354500Y99001D01*
X360498D02*
X354500Y103000D01*
Y93003D02*
Y97002D01*
X358499Y93003D01*
X359498D01*
X360498Y94003D01*
Y96002D01*
X359498Y97002D01*
X145000Y135498D02*
X148999Y129500D01*
Y135498D02*
X145000Y129500D01*
X150998D02*
X152997D01*
X151998D01*
Y135498D01*
X150998Y134498D01*
X85002Y58000D02*
X90000D01*
X91000Y59000D01*
Y60999D01*
X90000Y61999D01*
X85002D01*
X91000Y66997D02*
X85002D01*
X88001Y63998D01*
Y67997D01*
X349500Y148000D02*
X355498D01*
Y145001D01*
X354498Y144001D01*
X352499D01*
X351499Y145001D01*
Y148000D01*
Y146001D02*
X349500Y144001D01*
X355498Y142002D02*
Y138003D01*
X354498D01*
X350500Y142002D01*
X349500D01*
X358800Y148000D02*
X364798D01*
Y145001D01*
X363798Y144001D01*
X361799D01*
X360800Y145001D01*
Y148000D01*
Y146001D02*
X358800Y144001D01*
X364798Y138003D02*
X363798Y140003D01*
X361799Y142002D01*
X359800D01*
X358800Y141002D01*
Y139003D01*
X359800Y138003D01*
X360800D01*
X361799Y139003D01*
Y142002D01*
X345999Y172500D02*
Y178498D01*
X343000Y175499D01*
X346999D01*
X366500Y177601D02*
X367500Y178600D01*
X369499D01*
X370499Y177601D01*
Y176601D01*
X369499Y175601D01*
X368499D01*
X369499D01*
X370499Y174602D01*
Y173602D01*
X369499Y172602D01*
X367500D01*
X366500Y173602D01*
X122000Y46801D02*
X123999D01*
X123000D01*
Y40803D01*
X122000D01*
X123999D01*
X130997Y45801D02*
X129997Y46801D01*
X127998D01*
X126998Y45801D01*
Y44802D01*
X127998Y43802D01*
X129997D01*
X130997Y42803D01*
Y41803D01*
X129997Y40803D01*
X127998D01*
X126998Y41803D01*
X132996Y40803D02*
Y46801D01*
X135995D01*
X136995Y45801D01*
Y43802D01*
X135995Y42803D01*
X132996D01*
X30999Y144998D02*
X29999Y145998D01*
X28000D01*
X27000Y144998D01*
Y141000D01*
X28000Y140000D01*
X29999D01*
X30999Y141000D01*
X32998Y145998D02*
Y140000D01*
X35997D01*
X36997Y141000D01*
Y144998D01*
X35997Y145998D01*
X32998D01*
X38996Y140000D02*
X40995D01*
X39996D01*
Y145998D01*
X38996Y144998D01*
X320998Y66501D02*
X321998Y67501D01*
Y69500D01*
X320998Y70500D01*
X317000D01*
X316000Y69500D01*
Y67501D01*
X317000Y66501D01*
X321998Y64502D02*
Y60503D01*
X320998D01*
X317000Y64502D01*
X316000D01*
X321498Y99001D02*
X322498Y100001D01*
Y102000D01*
X321498Y103000D01*
X317500D01*
X316500Y102000D01*
Y100001D01*
X317500Y99001D01*
X322498Y93003D02*
X321498Y95003D01*
X319499Y97002D01*
X317500D01*
X316500Y96002D01*
Y94003D01*
X317500Y93003D01*
X318499D01*
X319499Y94003D01*
Y97002D01*
D11*
X78051Y74174D02*
X77101Y74516D01*
X76146Y74842D01*
X75186Y75152D01*
X74221Y75447D01*
X73251Y75726D01*
X72277Y75990D01*
X71299Y76238D01*
X70317Y76470D01*
X69332Y76686D01*
X68343Y76887D01*
X67351Y77071D01*
X66356Y77240D01*
X65358Y77392D01*
X64358Y77528D01*
X63357Y77648D01*
X62353Y77752D01*
X61348Y77840D01*
X60341Y77912D01*
X59333Y77967D01*
X58325Y78006D01*
X57316Y78029D01*
X56307Y78035D01*
X55298Y78026D01*
X54290Y78000D01*
X53281Y77957D01*
X52274Y77899D01*
X51268Y77824D01*
X50263Y77733D01*
X49259Y77626D01*
X48258Y77503D01*
X47258Y77364D01*
X46261Y77208D01*
X45267Y77037D01*
X44276Y76849D01*
X43287Y76646D01*
X42302Y76426D01*
X41321Y76191D01*
X40344Y75940D01*
X39370Y75673D01*
X341000Y161000D02*
Y166000D01*
X261000D02*
X341000D01*
X261000Y161000D02*
Y166000D01*
X338500Y161000D02*
X341000Y163500D01*
X337667Y166000D02*
Y179333D01*
X336000Y181000D02*
X337667Y179333D01*
X334333D02*
X336000Y181000D01*
X334333Y166000D02*
Y179333D01*
X327667Y166000D02*
Y179333D01*
X326000Y181000D02*
X327667Y179333D01*
X324333D02*
X326000Y181000D01*
X324333Y166000D02*
Y179333D01*
X317667Y166000D02*
Y179333D01*
X316000Y181000D02*
X317667Y179333D01*
X314333D02*
X316000Y181000D01*
X314333Y166000D02*
Y179333D01*
X307667Y166000D02*
Y179333D01*
X306000Y181000D02*
X307667Y179333D01*
X304333D02*
X306000Y181000D01*
X304333Y166000D02*
Y179333D01*
X297667Y166000D02*
Y179333D01*
X296000Y181000D02*
X297667Y179333D01*
X294333D02*
X296000Y181000D01*
X294333Y166000D02*
Y179333D01*
X287667Y166000D02*
Y179333D01*
X286000Y181000D02*
X287667Y179333D01*
X284333D02*
X286000Y181000D01*
X284333Y166000D02*
Y179333D01*
X277667Y166000D02*
Y179333D01*
X276000Y181000D02*
X277667Y179333D01*
X274333D02*
X276000Y181000D01*
X274333Y166000D02*
Y179333D01*
X267667Y166000D02*
Y179333D01*
X266000Y181000D02*
X267667Y179333D01*
X264333D02*
X266000Y181000D01*
X264333Y166000D02*
Y179333D01*
X261000Y161000D02*
X341000D01*
X27000Y166000D02*
X57000D01*
X27000Y161000D02*
Y166000D01*
X57000Y161000D02*
Y166000D01*
X27000Y161000D02*
X57000D01*
X53667Y166000D02*
Y179333D01*
X52000Y181000D02*
X53667Y179333D01*
X50333D02*
X52000Y181000D01*
X50333Y166000D02*
Y179333D01*
X43667Y166000D02*
Y179333D01*
X42000Y181000D02*
X43667Y179333D01*
X40333D02*
X42000Y181000D01*
X40333Y166000D02*
Y179333D01*
X33667Y166000D02*
Y179333D01*
X32000Y181000D02*
X33667Y179333D01*
X30333D02*
X32000Y181000D01*
X30333Y166000D02*
Y179333D01*
X61500Y166000D02*
X91500D01*
X61500Y161000D02*
Y166000D01*
X91500Y161000D02*
Y166000D01*
X61500Y161000D02*
X91500D01*
X88167Y166000D02*
Y179333D01*
X86500Y181000D02*
X88167Y179333D01*
X84833D02*
X86500Y181000D01*
X84833Y166000D02*
Y179333D01*
X78167Y166000D02*
Y179333D01*
X76500Y181000D02*
X78167Y179333D01*
X74833D02*
X76500Y181000D01*
X74833Y166000D02*
Y179333D01*
X68167Y166000D02*
Y179333D01*
X66500Y181000D02*
X68167Y179333D01*
X64833D02*
X66500Y181000D01*
X64833Y166000D02*
Y179333D01*
X96000Y166000D02*
X126000D01*
X96000Y161000D02*
Y166000D01*
X126000Y161000D02*
Y166000D01*
X96000Y161000D02*
X126000D01*
X122667Y166000D02*
Y179333D01*
X121000Y181000D02*
X122667Y179333D01*
X119333D02*
X121000Y181000D01*
X119333Y166000D02*
Y179333D01*
X112667Y166000D02*
Y179333D01*
X111000Y181000D02*
X112667Y179333D01*
X109333D02*
X111000Y181000D01*
X109333Y166000D02*
Y179333D01*
X102667Y166000D02*
Y179333D01*
X101000Y181000D02*
X102667Y179333D01*
X99333D02*
X101000Y181000D01*
X99333Y166000D02*
Y179333D01*
X134333Y166000D02*
Y179333D01*
X136000Y181000D01*
X137667Y179333D01*
Y166000D02*
Y179333D01*
X144333Y166000D02*
Y179333D01*
X144333Y179333D02*
X146000Y181000D01*
X147667Y179333D01*
Y166000D02*
Y179333D01*
X131000Y161000D02*
X151000D01*
Y166000D01*
X131000Y161000D02*
Y166000D01*
X151000D01*
X158958D02*
Y179333D01*
X160625Y181000D01*
X162292Y179333D01*
Y166000D02*
Y179333D01*
X168958Y166000D02*
Y179333D01*
X168958Y179333D02*
X170625Y181000D01*
X172292Y179333D01*
Y166000D02*
Y179333D01*
X155625Y161000D02*
X175625D01*
Y166000D01*
X155625Y161000D02*
Y166000D01*
X175625D01*
X183583D02*
Y179333D01*
X185250Y181000D01*
X186917Y179333D01*
Y166000D02*
Y179333D01*
X193583Y166000D02*
Y179333D01*
X193583Y179333D02*
X195250Y181000D01*
X196917Y179333D01*
Y166000D02*
Y179333D01*
X180250Y161000D02*
X200250D01*
Y166000D01*
X180250Y161000D02*
Y166000D01*
X200250D01*
X208208D02*
Y179333D01*
X209875Y181000D01*
X211542Y179333D01*
Y166000D02*
Y179333D01*
X218208Y166000D02*
Y179333D01*
X218208Y179333D02*
X219875Y181000D01*
X221542Y179333D01*
Y166000D02*
Y179333D01*
X204875Y161000D02*
X224875D01*
Y166000D01*
X204875Y161000D02*
Y166000D01*
X224875D01*
X232833D02*
Y179333D01*
X234500Y181000D01*
X236167Y179333D01*
Y166000D02*
Y179333D01*
X242833Y166000D02*
Y179333D01*
X242833Y179333D02*
X244500Y181000D01*
X246167Y179333D01*
Y166000D02*
Y179333D01*
X229500Y161000D02*
X249500D01*
Y166000D01*
X229500Y161000D02*
Y166000D01*
X249500D01*
X34713Y75673D02*
X39370D01*
X84161Y81087D02*
Y94669D01*
Y103331D02*
Y124000D01*
X27862Y81087D02*
Y130102D01*
X101201Y56815D02*
Y96185D01*
X113799Y56815D02*
Y96185D01*
X101201D02*
X113799D01*
X101201Y56815D02*
X113799D01*
X223823Y21158D02*
X239177D01*
X223823Y47535D02*
X239177D01*
Y21158D02*
Y47535D01*
X223823Y21158D02*
Y47535D01*
X206925Y25654D02*
Y26047D01*
X210075Y25654D02*
Y26047D01*
X219642Y17890D02*
X244445D01*
X219642Y4110D02*
X244445D01*
X219642Y16807D02*
Y17890D01*
X244445Y16807D02*
Y17890D01*
X219642Y4110D02*
Y5193D01*
X244445Y4110D02*
Y5193D01*
X206728Y40803D02*
Y41197D01*
X210272Y40803D02*
Y41197D01*
X116055Y119811D02*
Y146189D01*
X97945Y119811D02*
Y146189D01*
Y119811D02*
X116055D01*
X97945Y146189D02*
X116055D01*
X93598Y101242D02*
X118402D01*
X93598Y115022D02*
X118402D01*
Y101242D02*
Y102325D01*
X93598Y101242D02*
Y102325D01*
X118402Y113939D02*
Y115022D01*
X93598Y113939D02*
Y115022D01*
X241303Y148575D02*
X241697D01*
X241303Y145425D02*
X241697D01*
X216803Y148575D02*
X217197D01*
X216803Y145425D02*
X217197D01*
X191803Y148575D02*
X192197D01*
X191803Y145425D02*
X192197D01*
X167303Y148575D02*
X167697D01*
X167303Y145425D02*
X167697D01*
X142803Y148575D02*
X143197D01*
X142803Y145425D02*
X143197D01*
X353575Y155453D02*
Y155847D01*
X350425Y155453D02*
Y155847D01*
X363075Y155453D02*
Y155847D01*
X359925Y155453D02*
Y155847D01*
X351187Y60150D02*
Y103850D01*
X332172Y60150D02*
Y103850D01*
X337152D01*
X346207D02*
X351187D01*
X332172Y60150D02*
X337152D01*
X346207D02*
X351187D01*
X325105Y65803D02*
Y66197D01*
X328254Y65803D02*
Y66197D01*
X325105Y97803D02*
Y98197D01*
X328254Y97803D02*
Y98197D01*
X276500Y115123D02*
X300720Y90903D01*
X252280D02*
X276500Y66683D01*
X252280Y90903D02*
X276500Y115123D01*
Y66683D02*
X300720Y90903D01*
X151500Y18500D02*
Y38500D01*
X121500Y18500D02*
Y38500D01*
X151500D01*
X121500Y18500D02*
X151500D01*
X132333D02*
X151500D01*
X256425Y42303D02*
Y42697D01*
X259575Y42303D02*
Y42697D01*
X253079Y19594D02*
Y31405D01*
X262921Y19594D02*
Y31405D01*
X242114Y118746D02*
X242392Y118467D01*
X239608Y116240D02*
X239886Y115962D01*
X337575Y135303D02*
Y135697D01*
X334425Y135303D02*
Y135697D01*
X327575Y135303D02*
Y135697D01*
X324425Y135303D02*
Y135697D01*
X317575Y135303D02*
Y135697D01*
X314425Y135303D02*
Y135697D01*
X247108Y130614D02*
X247387Y130892D01*
X249614Y128108D02*
X249892Y128386D01*
X307575Y135303D02*
Y135697D01*
X304425Y135303D02*
Y135697D01*
X297575Y135303D02*
Y135697D01*
X294425Y135303D02*
Y135697D01*
X287575Y135303D02*
Y135697D01*
X284425Y135303D02*
Y135697D01*
X277575Y135303D02*
Y135697D01*
X274425Y135303D02*
Y135697D01*
X267575Y135303D02*
Y135697D01*
X264425Y135303D02*
Y135697D01*
X268500Y38500D02*
X278500D01*
Y18500D02*
Y38500D01*
X268500Y18500D02*
X278500D01*
X268500D02*
Y38500D01*
X217335Y63776D02*
X221665D01*
X217335Y73224D02*
X221665D01*
X193622Y91303D02*
Y91697D01*
X196378Y91303D02*
Y91697D01*
X225228Y84357D02*
Y84750D01*
X228772Y84357D02*
Y84750D01*
X198335Y63776D02*
X202665D01*
X198335Y73224D02*
X202665D01*
X206303Y110728D02*
X206697D01*
X206303Y114272D02*
X206697D01*
X178803Y95075D02*
X179197D01*
X178803Y91925D02*
X179197D01*
X178803Y76075D02*
X179197D01*
X178803Y72925D02*
X179197D01*
X128228Y63303D02*
Y63697D01*
X131772Y63303D02*
Y63697D01*
X179303Y104425D02*
X179697D01*
X179303Y107575D02*
X179697D01*
X149803Y104425D02*
X150197D01*
X149803Y107575D02*
X150197D01*
D12*
X45087Y139748D02*
X44348Y140174D01*
Y139322D01*
X45087Y139748D01*
X97264Y97347D02*
X96526Y97773D01*
Y96920D01*
X97264Y97347D01*
X219689Y47339D02*
X218951Y47765D01*
Y46912D01*
X219689Y47339D01*
X120878Y119811D02*
X120140Y120237D01*
Y119385D01*
X120878Y119811D01*
X342172Y111724D02*
X341433Y112151D01*
Y111298D01*
X342172Y111724D01*
X279289Y61742D02*
X278551Y62168D01*
Y61316D01*
X279289Y61742D01*
X258492Y15067D02*
X257754Y15493D01*
Y14641D01*
X258492Y15067D01*
D13*
X106319Y92248D02*
X105874Y93172D01*
X104875Y93400D01*
X104074Y92760D01*
Y91736D01*
X104875Y91097D01*
X105874Y91325D01*
X106319Y92248D01*
X277681Y72251D02*
X277236Y73174D01*
X276237Y73402D01*
X275436Y72763D01*
Y71738D01*
X276237Y71099D01*
X277236Y71328D01*
X277681Y72251D01*
D14*
X349900Y177806D02*
X349050Y176956D01*
X354950D02*
X354100Y177806D01*
X349050Y166044D02*
X349900Y165194D01*
X354100D02*
X354950Y166044D01*
X359400Y177806D02*
X358550Y176956D01*
X364450D02*
X363600Y177806D01*
X358550Y166044D02*
X359400Y165194D01*
X363600D02*
X364450Y166044D01*
X172694Y82920D02*
X173544Y82070D01*
Y87970D02*
X172694Y87120D01*
X184456Y82070D02*
X185306Y82920D01*
Y87120D02*
X184456Y87970D01*
X172694Y64400D02*
X173544Y63550D01*
Y69450D02*
X172694Y68600D01*
X184456Y63550D02*
X185306Y64400D01*
Y68600D02*
X184456Y69450D01*
X349900Y177806D02*
X354100D01*
X349900Y165194D02*
X354100D01*
X349050Y166044D02*
Y176956D01*
X354950Y166044D02*
Y176956D01*
X359400Y177806D02*
X363600D01*
X359400Y165194D02*
X363600D01*
X358550Y166044D02*
Y176956D01*
X364450Y166044D02*
Y176956D01*
X172694Y82920D02*
Y87120D01*
X185306Y82920D02*
Y87120D01*
X173544Y82070D02*
X184456D01*
X173544Y87970D02*
X184456D01*
X172694Y64400D02*
Y68600D01*
X185306Y64400D02*
Y68600D01*
X173544Y63550D02*
X184456D01*
X173544Y69450D02*
X184456D01*
X260000Y148000D02*
X258334D01*
X259167D01*
Y143002D01*
X260000Y143835D01*
X252502Y143002D02*
X254169Y143835D01*
X255835Y145501D01*
Y147167D01*
X255002Y148000D01*
X253335D01*
X252502Y147167D01*
Y146334D01*
X253335Y145501D01*
X255835D01*
X260000Y158000D02*
X258334D01*
X259167D01*
Y153002D01*
X260000Y153835D01*
X252502Y153002D02*
X255835D01*
Y155501D01*
X254169Y154668D01*
X253335D01*
X252502Y155501D01*
Y157167D01*
X253335Y158000D01*
X255002D01*
X255835Y157167D01*
X346000Y158000D02*
X344334D01*
X345167D01*
Y153002D01*
X346000Y153835D01*
X342668Y148000D02*
X346000D01*
X342668Y144668D01*
Y143835D01*
X343501Y143002D01*
X345167D01*
X346000Y143835D01*
X155832Y36498D02*
X154166Y35665D01*
X152500Y33999D01*
Y32333D01*
X153333Y31500D01*
X154999D01*
X155832Y32333D01*
Y33166D01*
X154999Y33999D01*
X152500D01*
X155832Y26498D02*
X152500D01*
Y23999D01*
X154166Y24832D01*
X154999D01*
X155832Y23999D01*
Y22333D01*
X154999Y21500D01*
X153333D01*
X152500Y22333D01*
X119832Y31500D02*
X116500D01*
X119832Y34832D01*
Y35665D01*
X118999Y36498D01*
X117333D01*
X116500Y35665D01*
X118500Y21500D02*
X120166D01*
X119333D01*
Y26498D01*
X118500Y25665D01*
D15*
X216788Y4111D02*
Y17890D01*
X206925Y4004D02*
X210075D01*
X121256Y101242D02*
Y115021D01*
D16*
X253000Y9000D02*
Y12999D01*
X254999D01*
X255666Y12332D01*
Y10999D01*
X254999Y10333D01*
X253000D01*
X254333D02*
X255666Y9000D01*
X258998D02*
X257665D01*
X256999Y9667D01*
Y10999D01*
X257665Y11666D01*
X258998D01*
X259665Y10999D01*
Y10333D01*
X256999D01*
X260997Y9000D02*
X262997D01*
X263663Y9667D01*
X262997Y10333D01*
X261664D01*
X260997Y10999D01*
X261664Y11666D01*
X263663D01*
X266996Y9000D02*
X265663D01*
X264996Y9667D01*
Y10999D01*
X265663Y11666D01*
X266996D01*
X267662Y10999D01*
Y10333D01*
X264996D01*
X269661Y12332D02*
Y11666D01*
X268995D01*
X270328D01*
X269661D01*
Y9667D01*
X270328Y9000D01*
X280000Y23699D02*
X282133D01*
X281066D01*
Y20500D01*
X283199Y23699D02*
X285332Y20500D01*
Y23699D02*
X283199Y20500D01*
X280000Y31500D02*
Y34699D01*
X281599D01*
X282133Y34166D01*
Y33099D01*
X281599Y32566D01*
X280000D01*
X281066D02*
X282133Y31500D01*
X283199Y34699D02*
X285332Y31500D01*
Y34699D02*
X283199Y31500D01*
X223500Y98499D02*
Y95166D01*
X224166Y94500D01*
X225499D01*
X226166Y95166D01*
Y98499D01*
X230165D02*
X228832Y97832D01*
X227499Y96499D01*
Y95166D01*
X228165Y94500D01*
X229498D01*
X230165Y95166D01*
Y95833D01*
X229498Y96499D01*
X227499D01*
X136000Y102999D02*
Y99667D01*
X136667Y99000D01*
X137999D01*
X138666Y99667D01*
Y102999D01*
X142665D02*
X139999D01*
Y100999D01*
X141332Y101666D01*
X141998D01*
X142665Y100999D01*
Y99667D01*
X141998Y99000D01*
X140665D01*
X139999Y99667D01*
X91000Y151999D02*
Y148667D01*
X91667Y148000D01*
X92999D01*
X93666Y148667D01*
Y151999D01*
X94999Y151332D02*
X95665Y151999D01*
X96998D01*
X97664Y151332D01*
Y150666D01*
X96998Y149999D01*
X96332D01*
X96998D01*
X97664Y149333D01*
Y148667D01*
X96998Y148000D01*
X95665D01*
X94999Y148667D01*
X216000Y53199D02*
Y50533D01*
X216533Y50000D01*
X217600D01*
X218133Y50533D01*
Y53199D01*
X221332Y50000D02*
X219199D01*
X221332Y52133D01*
Y52666D01*
X220798Y53199D01*
X219732D01*
X219199Y52666D01*
X204500Y20500D02*
X201301D01*
Y22099D01*
X201834Y22633D01*
X202901D01*
X203434Y22099D01*
Y20500D01*
Y21566D02*
X204500Y22633D01*
Y25832D02*
Y23699D01*
X202367Y25832D01*
X201834D01*
X201301Y25299D01*
Y24232D01*
X201834Y23699D01*
X204500Y29031D02*
Y26898D01*
X202367Y29031D01*
X201834D01*
X201301Y28497D01*
Y27431D01*
X201834Y26898D01*
X162000Y139000D02*
Y142999D01*
X163999D01*
X164666Y142332D01*
Y140999D01*
X163999Y140333D01*
X162000D01*
X163333D02*
X164666Y139000D01*
X168665D02*
X165999D01*
X168665Y141666D01*
Y142332D01*
X167998Y142999D01*
X166665D01*
X165999Y142332D01*
X169997Y139000D02*
X171330D01*
X170664D01*
Y142999D01*
X169997Y142332D01*
X137500Y139000D02*
Y142999D01*
X139499D01*
X140166Y142332D01*
Y140999D01*
X139499Y140333D01*
X137500D01*
X138833D02*
X140166Y139000D01*
X144165D02*
X141499D01*
X144165Y141666D01*
Y142332D01*
X143498Y142999D01*
X142165D01*
X141499Y142332D01*
X145497D02*
X146164Y142999D01*
X147497D01*
X148163Y142332D01*
Y139666D01*
X147497Y139000D01*
X146164D01*
X145497Y139666D01*
Y142332D01*
X236000Y139000D02*
Y142999D01*
X237999D01*
X238666Y142332D01*
Y140999D01*
X237999Y140333D01*
X236000D01*
X237333D02*
X238666Y139000D01*
X239999D02*
X241332D01*
X240665D01*
Y142999D01*
X239999Y142332D01*
X243331Y139666D02*
X243997Y139000D01*
X245330D01*
X245997Y139666D01*
Y142332D01*
X245330Y142999D01*
X243997D01*
X243331Y142332D01*
Y141666D01*
X243997Y140999D01*
X245997D01*
X211500Y139000D02*
Y142999D01*
X213499D01*
X214166Y142332D01*
Y140999D01*
X213499Y140333D01*
X211500D01*
X212833D02*
X214166Y139000D01*
X215499D02*
X216832D01*
X216165D01*
Y142999D01*
X215499Y142332D01*
X218831D02*
X219497Y142999D01*
X220830D01*
X221497Y142332D01*
Y141666D01*
X220830Y140999D01*
X221497Y140333D01*
Y139666D01*
X220830Y139000D01*
X219497D01*
X218831Y139666D01*
Y140333D01*
X219497Y140999D01*
X218831Y141666D01*
Y142332D01*
X219497Y140999D02*
X220830D01*
X186500Y139000D02*
Y142999D01*
X188499D01*
X189166Y142332D01*
Y140999D01*
X188499Y140333D01*
X186500D01*
X187833D02*
X189166Y139000D01*
X190499D02*
X191832D01*
X191165D01*
Y142999D01*
X190499Y142332D01*
X193831Y142999D02*
X196497D01*
Y142332D01*
X193831Y139666D01*
Y139000D01*
X255500Y50000D02*
Y53199D01*
X257100D01*
X257633Y52666D01*
Y51600D01*
X257100Y51066D01*
X255500D01*
X256566D02*
X257633Y50000D01*
X258699Y52666D02*
X259232Y53199D01*
X260298D01*
X260832Y52666D01*
Y52133D01*
X260298Y51600D01*
X260832Y51066D01*
Y50533D01*
X260298Y50000D01*
X259232D01*
X258699Y50533D01*
Y51066D01*
X259232Y51600D01*
X258699Y52133D01*
Y52666D01*
X259232Y51600D02*
X260298D01*
X173500Y97000D02*
Y100199D01*
X175100D01*
X175633Y99666D01*
Y98599D01*
X175100Y98066D01*
X173500D01*
X174566D02*
X175633Y97000D01*
X178832Y100199D02*
X176699D01*
Y98599D01*
X177765Y99133D01*
X178298D01*
X178832Y98599D01*
Y97533D01*
X178298Y97000D01*
X177232D01*
X176699Y97533D01*
X173544Y78000D02*
Y81199D01*
X175144D01*
X175677Y80666D01*
Y79599D01*
X175144Y79066D01*
X173544D01*
X174610D02*
X175677Y78000D01*
X178342D02*
Y81199D01*
X176743Y79599D01*
X178876D01*
X195250Y58000D02*
Y61999D01*
X197249D01*
X197916Y61332D01*
Y59999D01*
X197249Y59333D01*
X195250D01*
X196583D02*
X197916Y58000D01*
X199249Y61332D02*
X199915Y61999D01*
X201248D01*
X201915Y61332D01*
Y60666D01*
X201248Y59999D01*
X200582D01*
X201248D01*
X201915Y59333D01*
Y58666D01*
X201248Y58000D01*
X199915D01*
X199249Y58666D01*
X236500Y77500D02*
X232501D01*
Y79499D01*
X233168Y80166D01*
X234501D01*
X235167Y79499D01*
Y77500D01*
Y78833D02*
X236500Y80166D01*
Y84165D02*
Y81499D01*
X233834Y84165D01*
X233168D01*
X232501Y83498D01*
Y82165D01*
X233168Y81499D01*
X212500Y58000D02*
Y61999D01*
X214499D01*
X215166Y61332D01*
Y59999D01*
X214499Y59333D01*
X212500D01*
X213833D02*
X215166Y58000D01*
X216499D02*
X217832D01*
X217165D01*
Y61999D01*
X216499Y61332D01*
X201301Y3500D02*
X204500D01*
Y5633D01*
X201301Y8832D02*
Y6699D01*
X204500D01*
Y8832D01*
X202901Y6699D02*
Y7765D01*
X201301Y9898D02*
X204500D01*
Y11497D01*
X203967Y12031D01*
X201834D01*
X201301Y11497D01*
Y9898D01*
Y15230D02*
Y13097D01*
X202901D01*
X202367Y14163D01*
Y14696D01*
X202901Y15230D01*
X203967D01*
X204500Y14696D01*
Y13630D01*
X203967Y13097D01*
X186801Y82070D02*
X190000D01*
Y84202D01*
X186801Y87401D02*
Y85269D01*
X190000D01*
Y87401D01*
X188400Y85269D02*
Y86335D01*
X186801Y88468D02*
X190000D01*
Y90067D01*
X189467Y90600D01*
X187334D01*
X186801Y90067D01*
Y88468D01*
X190000Y93799D02*
Y91667D01*
X187867Y93799D01*
X187334D01*
X186801Y93266D01*
Y92200D01*
X187334Y91667D01*
X186801Y63697D02*
X190000D01*
Y65829D01*
X186801Y69029D02*
Y66896D01*
X190000D01*
Y69029D01*
X188400Y66896D02*
Y67962D01*
X186801Y70095D02*
X190000D01*
Y71694D01*
X189467Y72227D01*
X187334D01*
X186801Y71694D01*
Y70095D01*
X190000Y73294D02*
Y74360D01*
Y73827D01*
X186801D01*
X187334Y73294D01*
X255238Y118262D02*
X257500Y116000D01*
X259008Y117508D01*
X259762Y118262D02*
X260516Y119016D01*
X260139Y118639D01*
X257877Y120901D01*
X257877Y120147D01*
X124168Y107666D02*
X123501Y106999D01*
Y105666D01*
X124168Y105000D01*
X126834D01*
X127500Y105666D01*
Y106999D01*
X126834Y107666D01*
X127500Y108999D02*
Y110332D01*
Y109665D01*
X123501D01*
X124168Y108999D01*
Y112331D02*
X123501Y112997D01*
Y114330D01*
X124168Y114997D01*
X124834D01*
X125501Y114330D01*
Y113664D01*
Y114330D01*
X126167Y114997D01*
X126834D01*
X127500Y114330D01*
Y112997D01*
X126834Y112331D01*
X130894Y134332D02*
X130228Y134999D01*
X128895D01*
X128228Y134332D01*
Y131667D01*
X128895Y131000D01*
X130228D01*
X130894Y131667D01*
X132227Y131000D02*
X133560D01*
X132894D01*
Y134999D01*
X132227Y134332D01*
X138225Y131000D02*
X135559D01*
X138225Y133666D01*
Y134332D01*
X137559Y134999D01*
X136226D01*
X135559Y134332D01*
X205633Y52666D02*
X205100Y53199D01*
X204033D01*
X203500Y52666D01*
Y50533D01*
X204033Y50000D01*
X205100D01*
X205633Y50533D01*
X206699Y50000D02*
X207765D01*
X207232D01*
Y53199D01*
X206699Y52666D01*
X209365Y50000D02*
X210431D01*
X209898D01*
Y53199D01*
X209365Y52666D01*
X249666Y15867D02*
X250199Y16400D01*
Y17467D01*
X249666Y18000D01*
X247533D01*
X247000Y17467D01*
Y16400D01*
X247533Y15867D01*
X247000Y14801D02*
Y13735D01*
Y14268D01*
X250199D01*
X249666Y14801D01*
Y12135D02*
X250199Y11602D01*
Y10536D01*
X249666Y10003D01*
X247533D01*
X247000Y10536D01*
Y11602D01*
X247533Y12135D01*
X249666D01*
X239231Y131780D02*
X238477Y131780D01*
X237723Y131026D01*
Y130271D01*
X239231Y128763D01*
X239985D01*
X240739Y129517D01*
Y130271D01*
X241493Y131026D02*
X242247D01*
X243001Y131780D01*
Y132534D01*
X241493Y134042D01*
X240739Y134042D01*
X239985Y133288D01*
X239985Y132534D01*
X240362Y132157D01*
X241116D01*
X242247Y133288D01*
X231623Y124393D02*
X230869Y124393D01*
X230115Y123639D01*
Y122885D01*
X231623Y121377D01*
X232377D01*
X233131Y122131D01*
Y122885D01*
X232377Y125147D02*
X232377Y125901D01*
X233131Y126655D01*
X233885Y126655D01*
X234262Y126278D01*
Y125524D01*
X235016D01*
X235393Y125147D01*
Y124393D01*
X234639Y123639D01*
X233885D01*
X233508Y124016D01*
Y124770D01*
X232754D01*
X232377Y125147D01*
X233508Y124770D02*
X234262Y125524D01*
X189666Y106832D02*
X188999Y107499D01*
X187666D01*
X187000Y106832D01*
Y104166D01*
X187666Y103500D01*
X188999D01*
X189666Y104166D01*
X193665Y107499D02*
X190999D01*
Y105499D01*
X192332Y106166D01*
X192998D01*
X193665Y105499D01*
Y104166D01*
X192998Y103500D01*
X191665D01*
X190999Y104166D01*
X160166Y106832D02*
X159499Y107499D01*
X158167D01*
X157500Y106832D01*
Y104166D01*
X158167Y103500D01*
X159499D01*
X160166Y104166D01*
X163498Y103500D02*
Y107499D01*
X161499Y105499D01*
X164164D01*
X129166Y75832D02*
X128499Y76499D01*
X127166D01*
X126500Y75832D01*
Y73167D01*
X127166Y72500D01*
X128499D01*
X129166Y73167D01*
X130499Y75832D02*
X131165Y76499D01*
X132498D01*
X133165Y75832D01*
Y75166D01*
X132498Y74499D01*
X131832D01*
X132498D01*
X133165Y73833D01*
Y73167D01*
X132498Y72500D01*
X131165D01*
X130499Y73167D01*
X201666Y120832D02*
X200999Y121499D01*
X199667D01*
X199000Y120832D01*
Y118166D01*
X199667Y117500D01*
X200999D01*
X201666Y118166D01*
X205664Y117500D02*
X202999D01*
X205664Y120166D01*
Y120832D01*
X204998Y121499D01*
X203665D01*
X202999Y120832D01*
X195666Y100332D02*
X194999Y100999D01*
X193667D01*
X193000Y100332D01*
Y97667D01*
X193667Y97000D01*
X194999D01*
X195666Y97667D01*
X196999Y97000D02*
X198332D01*
X197665D01*
Y100999D01*
X196999Y100332D01*
D17*
X348975Y177367D02*
D03*
X358475D02*
D03*
D18*
X352000Y178367D02*
D03*
X361500D02*
D03*
D19*
X354985Y177237D02*
D03*
X364485D02*
D03*
D20*
X173134Y81994D02*
D03*
Y63475D02*
D03*
D21*
X172134Y85019D02*
D03*
Y66500D02*
D03*
D22*
X173264Y88004D02*
D03*
Y69485D02*
D03*
M02*
