G04*
G04 #@! TF.GenerationSoftware,Altium Limited,Altium Designer,19.0.15 (446)*
G04*
G04 Layer_Color=8388736*
%FSLAX25Y25*%
%MOIN*%
G70*
G01*
G75*
%ADD10C,0.01000*%
D10*
X6500Y182500D02*
X5458Y182409D01*
X4448Y182138D01*
X3500Y181696D01*
X2643Y181096D01*
X1904Y180357D01*
X1304Y179500D01*
X862Y178552D01*
X591Y177542D01*
X500Y176500D01*
Y56000D02*
X591Y54958D01*
X862Y53948D01*
X1304Y53000D01*
X1904Y52143D01*
X2643Y51404D01*
X3500Y50804D01*
X4448Y50362D01*
X5458Y50091D01*
X6500Y50000D01*
X396500Y176500D02*
X396409Y177542D01*
X396138Y178552D01*
X395696Y179500D01*
X395096Y180357D01*
X394357Y181096D01*
X393500Y181696D01*
X392552Y182138D01*
X391542Y182409D01*
X390500Y182500D01*
X389761Y50000D02*
X390720Y50069D01*
X391660Y50273D01*
X392561Y50609D01*
X393405Y51070D01*
X394174Y51646D01*
X394854Y52326D01*
X395430Y53096D01*
X395891Y53939D01*
X396227Y54840D01*
X396431Y55780D01*
X396500Y56739D01*
X108500Y44000D02*
X108409Y45042D01*
X108138Y46052D01*
X107696Y47000D01*
X107096Y47857D01*
X106357Y48596D01*
X105500Y49196D01*
X104552Y49638D01*
X103542Y49909D01*
X102500Y50000D01*
X294500D02*
X293458Y49909D01*
X292448Y49638D01*
X291500Y49196D01*
X290643Y48596D01*
X289904Y47857D01*
X289304Y47000D01*
X288862Y46052D01*
X288591Y45042D01*
X288500Y44000D01*
X108500Y15500D02*
X108532Y14519D01*
X108628Y13542D01*
X108788Y12574D01*
X109011Y11618D01*
X109296Y10678D01*
X109642Y9760D01*
X110047Y8866D01*
X110510Y8000D01*
X111028Y7166D01*
X111600Y6369D01*
X112222Y5610D01*
X112893Y4893D01*
X113610Y4222D01*
X114369Y3600D01*
X115166Y3028D01*
X116000Y2510D01*
X116866Y2047D01*
X117760Y1642D01*
X118678Y1296D01*
X119618Y1011D01*
X120574Y788D01*
X121542Y628D01*
X122519Y532D01*
X123500Y500D01*
X273500D02*
X274481Y532D01*
X275458Y628D01*
X276426Y788D01*
X277382Y1011D01*
X278322Y1296D01*
X279240Y1642D01*
X280134Y2047D01*
X281000Y2510D01*
X281834Y3028D01*
X282631Y3600D01*
X283390Y4222D01*
X284107Y4893D01*
X284778Y5610D01*
X285400Y6369D01*
X285972Y7166D01*
X286490Y8000D01*
X286953Y8866D01*
X287358Y9760D01*
X287704Y10678D01*
X287989Y11618D01*
X288212Y12574D01*
X288372Y13542D01*
X288468Y14519D01*
X288500Y15500D01*
X500Y56000D02*
Y176500D01*
X6500Y182500D02*
X390500D01*
X6500Y50000D02*
X102500D01*
X396500Y56739D02*
Y176500D01*
X294500Y50000D02*
X389761D01*
X288500Y15500D02*
Y44000D01*
X108500Y15500D02*
Y44000D01*
X123500Y500D02*
X273500Y500D01*
M02*
